%TF.GenerationSoftware,Altium Limited,Altium Designer,19.0.4 (130)*%
G04 Layer_Color=65535*
%FSLAX26Y26*%
%MOIN*%
%TF.FileFunction,Legend,Top*%
%TF.Part,Single*%
G01*
G75*
%TA.AperFunction,NonConductor*%
%ADD51C,0.010000*%
%ADD52C,0.008000*%
%ADD57C,0.003937*%
G36*
X3537262Y1987000D02*
X3543089Y1986982D01*
X3548353Y1986947D01*
X3553070Y1986896D01*
X3557253Y1986829D01*
X3560920Y1986744D01*
X3564083Y1986642D01*
X3566760Y1986523D01*
X3568964Y1986385D01*
X3570711Y1986230D01*
X3572016Y1986057D01*
X3572895Y1985864D01*
X3573361Y1985653D01*
X3573398Y1985622D01*
X3573434Y1985589D01*
X3573469Y1985553D01*
X3573504Y1985515D01*
X3573539Y1985475D01*
X3573573Y1985432D01*
X3573606Y1985388D01*
X3573640Y1985341D01*
X3573673Y1985292D01*
X3573706Y1985240D01*
X3573738Y1985186D01*
X3573769Y1985129D01*
X3573801Y1985070D01*
X3573832Y1985008D01*
X3573863Y1984944D01*
X3573893Y1984877D01*
X3573923Y1984808D01*
X3573952Y1984736D01*
X3573981Y1984661D01*
X3574010Y1984583D01*
X3574038Y1984503D01*
X3574066Y1984420D01*
X3574094Y1984334D01*
X3574121Y1984245D01*
X3574148Y1984153D01*
X3574174Y1984059D01*
X3574201Y1983961D01*
X3574226Y1983861D01*
X3574252Y1983757D01*
X3574277Y1983650D01*
X3574302Y1983540D01*
X3574326Y1983427D01*
X3574350Y1983311D01*
X3574374Y1983191D01*
X3574397Y1983068D01*
X3574420Y1982942D01*
X3574443Y1982813D01*
X3574465Y1982680D01*
X3574487Y1982544D01*
X3574508Y1982405D01*
X3574530Y1982262D01*
X3574551Y1982115D01*
X3574571Y1981965D01*
X3574591Y1981812D01*
X3574611Y1981655D01*
X3574631Y1981494D01*
X3574651Y1981329D01*
X3574669Y1981161D01*
X3574688Y1980989D01*
X3574707Y1980813D01*
X3574725Y1980634D01*
X3574742Y1980451D01*
X3574760Y1980264D01*
X3574777Y1980072D01*
X3574794Y1979877D01*
X3574810Y1979678D01*
X3574827Y1979475D01*
X3574843Y1979268D01*
X3574858Y1979057D01*
X3574874Y1978842D01*
X3574889Y1978622D01*
X3574903Y1978399D01*
X3574918Y1978171D01*
X3574932Y1977939D01*
X3574946Y1977703D01*
X3574959Y1977462D01*
X3574973Y1977217D01*
X3574986Y1976967D01*
X3574999Y1976714D01*
X3575011Y1976455D01*
X3575023Y1976192D01*
X3575035Y1975925D01*
X3575047Y1975653D01*
X3575059Y1975377D01*
X3575070Y1975095D01*
X3575081Y1974810D01*
X3575091Y1974519D01*
X3575102Y1974224D01*
X3575112Y1973924D01*
X3575122Y1973619D01*
X3575132Y1973310D01*
X3575141Y1972995D01*
X3575150Y1972676D01*
X3575159Y1972351D01*
X3575168Y1972022D01*
X3575176Y1971688D01*
X3575184Y1971348D01*
X3575192Y1971004D01*
X3575200Y1970654D01*
X3575208Y1970299D01*
X3575215Y1969939D01*
X3575222Y1969574D01*
X3575229Y1969204D01*
X3575235Y1968828D01*
X3575242Y1968447D01*
X3575248Y1968061D01*
X3575254Y1967669D01*
X3575260Y1967272D01*
X3575265Y1966869D01*
X3575270Y1966461D01*
X3575275Y1966048D01*
X3575280Y1965628D01*
X3575285Y1965204D01*
X3575289Y1964773D01*
X3575294Y1964337D01*
X3575298Y1963895D01*
X3575302Y1963448D01*
X3575305Y1962995D01*
X3575309Y1962535D01*
X3575312Y1962071D01*
X3575315Y1961600D01*
X3575318Y1961123D01*
X3575321Y1960640D01*
X3575323Y1960152D01*
X3575326Y1959657D01*
X3575328Y1959157D01*
X3575330Y1958650D01*
X3575332Y1958137D01*
X3575334Y1957618D01*
X3575335Y1957093D01*
X3575336Y1956561D01*
X3575338Y1956024D01*
X3575339Y1955480D01*
X3575340Y1954929D01*
X3575340Y1954373D01*
X3575341Y1953810D01*
X3575341Y1953240D01*
X3575341Y1952665D01*
X3575359Y1943643D01*
X3575415Y1936578D01*
X3575521Y1931285D01*
X3575690Y1927579D01*
X3575936Y1925276D01*
X3576270Y1924192D01*
X3576706Y1924142D01*
X3577256Y1924941D01*
X3577533Y1925466D01*
X3577844Y1926051D01*
X3578186Y1926694D01*
X3578557Y1927390D01*
X3578956Y1928136D01*
X3579381Y1928927D01*
X3579828Y1929759D01*
X3580296Y1930629D01*
X3580783Y1931532D01*
X3581286Y1932466D01*
X3581804Y1933424D01*
X3582335Y1934405D01*
X3582875Y1935403D01*
X3583424Y1936415D01*
X3583978Y1937437D01*
X3584536Y1938464D01*
X3585096Y1939494D01*
X3585655Y1940521D01*
X3586211Y1941543D01*
X3586763Y1942554D01*
X3587307Y1943552D01*
X3587843Y1944532D01*
X3588367Y1945490D01*
X3588878Y1946422D01*
X3589372Y1947325D01*
X3589850Y1948194D01*
X3590307Y1949025D01*
X3590742Y1949814D01*
X3591153Y1950558D01*
X3591538Y1951253D01*
X3591894Y1951894D01*
X3592220Y1952477D01*
X3592896Y1953583D01*
X3593624Y1954575D01*
X3594393Y1955453D01*
X3595195Y1956213D01*
X3596022Y1956854D01*
X3596864Y1957374D01*
X3597712Y1957770D01*
X3598558Y1958040D01*
X3599394Y1958183D01*
X3600209Y1958195D01*
X3600996Y1958076D01*
X3601745Y1957822D01*
X3602448Y1957431D01*
X3603096Y1956902D01*
X3603680Y1956232D01*
X3604191Y1955418D01*
X3604230Y1955346D01*
X3604268Y1955274D01*
X3604305Y1955204D01*
X3604342Y1955134D01*
X3604378Y1955065D01*
X3604413Y1954997D01*
X3604447Y1954929D01*
X3604480Y1954861D01*
X3604512Y1954795D01*
X3604544Y1954728D01*
X3604574Y1954661D01*
X3604603Y1954595D01*
X3604631Y1954529D01*
X3604658Y1954463D01*
X3604684Y1954396D01*
X3604708Y1954329D01*
X3604731Y1954262D01*
X3604753Y1954195D01*
X3604774Y1954127D01*
X3604793Y1954058D01*
X3604811Y1953989D01*
X3604827Y1953918D01*
X3604842Y1953848D01*
X3604855Y1953775D01*
X3604867Y1953702D01*
X3604877Y1953628D01*
X3604886Y1953553D01*
X3604892Y1953476D01*
X3604897Y1953398D01*
X3604900Y1953318D01*
X3604902Y1953237D01*
X3604901Y1953153D01*
X3604899Y1953069D01*
X3604894Y1952982D01*
X3604888Y1952893D01*
X3604880Y1952803D01*
X3604869Y1952710D01*
X3604857Y1952614D01*
X3604842Y1952517D01*
X3604825Y1952417D01*
X3604806Y1952315D01*
X3604785Y1952210D01*
X3604761Y1952102D01*
X3604735Y1951992D01*
X3604707Y1951878D01*
X3604676Y1951762D01*
X3604643Y1951642D01*
X3604607Y1951520D01*
X3604568Y1951394D01*
X3604528Y1951265D01*
X3604484Y1951133D01*
X3604438Y1950996D01*
X3604389Y1950857D01*
X3604337Y1950714D01*
X3604283Y1950566D01*
X3604226Y1950416D01*
X3604165Y1950261D01*
X3604102Y1950102D01*
X3604036Y1949938D01*
X3603967Y1949771D01*
X3603895Y1949599D01*
X3603820Y1949423D01*
X3603742Y1949243D01*
X3603661Y1949057D01*
X3603576Y1948868D01*
X3603488Y1948673D01*
X3603397Y1948473D01*
X3603303Y1948269D01*
X3603205Y1948059D01*
X3603104Y1947844D01*
X3603000Y1947624D01*
X3602892Y1947399D01*
X3602780Y1947168D01*
X3602665Y1946932D01*
X3602547Y1946690D01*
X3602425Y1946443D01*
X3602299Y1946190D01*
X3602169Y1945931D01*
X3602036Y1945666D01*
X3601898Y1945395D01*
X3601758Y1945117D01*
X3601613Y1944834D01*
X3601464Y1944544D01*
X3601311Y1944248D01*
X3601155Y1943945D01*
X3600994Y1943636D01*
X3600829Y1943320D01*
X3600660Y1942997D01*
X3600487Y1942667D01*
X3600310Y1942331D01*
X3600128Y1941987D01*
X3599943Y1941637D01*
X3599753Y1941278D01*
X3599558Y1940913D01*
X3599359Y1940541D01*
X3599156Y1940160D01*
X3598948Y1939773D01*
X3598736Y1939377D01*
X3598519Y1938974D01*
X3598298Y1938563D01*
X3598072Y1938144D01*
X3597842Y1937716D01*
X3597606Y1937281D01*
X3597366Y1936838D01*
X3597121Y1936386D01*
X3596872Y1935926D01*
X3596617Y1935457D01*
X3596358Y1934980D01*
X3596093Y1934494D01*
X3595824Y1933999D01*
X3595549Y1933496D01*
X3595269Y1932983D01*
X3594985Y1932462D01*
X3594695Y1931931D01*
X3594400Y1931391D01*
X3594100Y1930842D01*
X3593794Y1930283D01*
X3593484Y1929715D01*
X3593167Y1929138D01*
X3592846Y1928550D01*
X3592519Y1927953D01*
X3592186Y1927346D01*
X3591848Y1926729D01*
X3591505Y1926102D01*
X3591156Y1925465D01*
X3590801Y1924818D01*
X3590441Y1924160D01*
X3590075Y1923493D01*
X3589688Y1922787D01*
X3589269Y1922020D01*
X3588821Y1921199D01*
X3588348Y1920332D01*
X3587854Y1919425D01*
X3587343Y1918487D01*
X3586820Y1917524D01*
X3586288Y1916545D01*
X3585752Y1915557D01*
X3585215Y1914566D01*
X3584681Y1913581D01*
X3584155Y1912609D01*
X3583640Y1911658D01*
X3583142Y1910734D01*
X3582662Y1909845D01*
X3582206Y1908999D01*
X3581316Y1907363D01*
X3580430Y1905770D01*
X3579573Y1904258D01*
X3578768Y1902867D01*
X3578038Y1901638D01*
X3577406Y1900610D01*
X3576895Y1899823D01*
X3576530Y1899316D01*
X3576391Y1899115D01*
X3576261Y1898864D01*
X3576140Y1898567D01*
X3576029Y1898228D01*
X3575927Y1897851D01*
X3575836Y1897439D01*
X3575756Y1896996D01*
X3575687Y1896525D01*
X3575630Y1896031D01*
X3575585Y1895516D01*
X3575553Y1894985D01*
X3575534Y1894441D01*
X3575529Y1893888D01*
X3575538Y1893329D01*
X3575562Y1892768D01*
X3575602Y1892209D01*
X3575622Y1891979D01*
X3575643Y1891754D01*
X3575665Y1891533D01*
X3575689Y1891318D01*
X3575715Y1891108D01*
X3575742Y1890902D01*
X3575772Y1890701D01*
X3575804Y1890503D01*
X3575839Y1890310D01*
X3575876Y1890120D01*
X3575917Y1889933D01*
X3575961Y1889749D01*
X3576008Y1889568D01*
X3576060Y1889389D01*
X3576115Y1889213D01*
X3576174Y1889039D01*
X3576238Y1888867D01*
X3576307Y1888696D01*
X3576380Y1888527D01*
X3576458Y1888359D01*
X3576542Y1888191D01*
X3576631Y1888024D01*
X3576726Y1887858D01*
X3576827Y1887692D01*
X3576934Y1887525D01*
X3577048Y1887359D01*
X3577168Y1887191D01*
X3577295Y1887023D01*
X3577429Y1886854D01*
X3577570Y1886683D01*
X3577719Y1886511D01*
X3577876Y1886337D01*
X3578041Y1886161D01*
X3578214Y1885982D01*
X3578395Y1885801D01*
X3578585Y1885617D01*
X3578784Y1885430D01*
X3578992Y1885240D01*
X3579210Y1885046D01*
X3579437Y1884849D01*
X3579673Y1884648D01*
X3579920Y1884442D01*
X3580177Y1884231D01*
X3580444Y1884016D01*
X3580722Y1883796D01*
X3581011Y1883571D01*
X3581311Y1883340D01*
X3581623Y1883104D01*
X3581946Y1882861D01*
X3582280Y1882613D01*
X3582627Y1882357D01*
X3582986Y1882096D01*
X3583358Y1881827D01*
X3583742Y1881551D01*
X3584139Y1881267D01*
X3584549Y1880976D01*
X3584972Y1880677D01*
X3585409Y1880370D01*
X3585860Y1880054D01*
X3586325Y1879730D01*
X3586804Y1879397D01*
X3587298Y1879054D01*
X3587806Y1878703D01*
X3588329Y1878341D01*
X3588972Y1877898D01*
X3589634Y1877441D01*
X3590313Y1876972D01*
X3591008Y1876492D01*
X3591718Y1876002D01*
X3592441Y1875502D01*
X3593176Y1874995D01*
X3593921Y1874480D01*
X3594675Y1873959D01*
X3595435Y1873433D01*
X3596202Y1872903D01*
X3596973Y1872370D01*
X3597747Y1871835D01*
X3598523Y1871299D01*
X3599298Y1870762D01*
X3600073Y1870227D01*
X3600844Y1869693D01*
X3601610Y1869163D01*
X3602372Y1868636D01*
X3603125Y1868115D01*
X3603870Y1867599D01*
X3604605Y1867091D01*
X3605328Y1866590D01*
X3606038Y1866098D01*
X3606734Y1865617D01*
X3607413Y1865146D01*
X3608075Y1864688D01*
X3608718Y1864243D01*
X3609341Y1863811D01*
X3609941Y1863395D01*
X3610519Y1862995D01*
X3611072Y1862611D01*
X3612063Y1861918D01*
X3613002Y1861248D01*
X3613888Y1860603D01*
X3614722Y1859980D01*
X3615505Y1859378D01*
X3616237Y1858797D01*
X3616919Y1858235D01*
X3617551Y1857692D01*
X3618135Y1857166D01*
X3618669Y1856656D01*
X3619156Y1856162D01*
X3619595Y1855682D01*
X3619987Y1855215D01*
X3620333Y1854761D01*
X3620633Y1854317D01*
X3620888Y1853884D01*
X3621098Y1853461D01*
X3621264Y1853045D01*
X3621387Y1852636D01*
X3621467Y1852234D01*
X3621504Y1851837D01*
X3621499Y1851443D01*
X3621453Y1851053D01*
X3621366Y1850665D01*
X3621239Y1850278D01*
X3621073Y1849890D01*
X3620867Y1849502D01*
X3620623Y1849112D01*
X3620340Y1848718D01*
X3620021Y1848320D01*
X3619664Y1847918D01*
X3619271Y1847508D01*
X3619131Y1847367D01*
X3618994Y1847230D01*
X3618860Y1847098D01*
X3618731Y1846970D01*
X3618605Y1846847D01*
X3618482Y1846729D01*
X3618361Y1846617D01*
X3618243Y1846509D01*
X3618128Y1846406D01*
X3618014Y1846308D01*
X3617902Y1846216D01*
X3617791Y1846129D01*
X3617681Y1846047D01*
X3617572Y1845971D01*
X3617464Y1845900D01*
X3617356Y1845835D01*
X3617248Y1845776D01*
X3617140Y1845722D01*
X3617031Y1845674D01*
X3616921Y1845632D01*
X3616811Y1845597D01*
X3616698Y1845567D01*
X3616585Y1845543D01*
X3616469Y1845525D01*
X3616351Y1845514D01*
X3616231Y1845509D01*
X3616108Y1845511D01*
X3615981Y1845518D01*
X3615852Y1845533D01*
X3615719Y1845554D01*
X3615582Y1845582D01*
X3615441Y1845617D01*
X3615296Y1845658D01*
X3615146Y1845706D01*
X3614990Y1845762D01*
X3614830Y1845824D01*
X3614664Y1845894D01*
X3614493Y1845970D01*
X3614315Y1846055D01*
X3614131Y1846146D01*
X3613941Y1846245D01*
X3613743Y1846351D01*
X3613539Y1846465D01*
X3613327Y1846587D01*
X3613107Y1846716D01*
X3612879Y1846853D01*
X3612643Y1846998D01*
X3612399Y1847151D01*
X3612145Y1847312D01*
X3611883Y1847481D01*
X3611611Y1847659D01*
X3611330Y1847844D01*
X3611038Y1848038D01*
X3610737Y1848240D01*
X3610425Y1848450D01*
X3610102Y1848670D01*
X3609769Y1848897D01*
X3609424Y1849134D01*
X3609067Y1849379D01*
X3608699Y1849633D01*
X3608318Y1849896D01*
X3607925Y1850168D01*
X3607520Y1850448D01*
X3607102Y1850738D01*
X3606679Y1851031D01*
X3606231Y1851342D01*
X3605758Y1851669D01*
X3605263Y1852012D01*
X3604746Y1852370D01*
X3604209Y1852742D01*
X3603652Y1853128D01*
X3603078Y1853525D01*
X3602487Y1853935D01*
X3601881Y1854354D01*
X3601260Y1854784D01*
X3600627Y1855222D01*
X3599983Y1855669D01*
X3599328Y1856122D01*
X3598664Y1856582D01*
X3597993Y1857047D01*
X3597315Y1857516D01*
X3596632Y1857989D01*
X3595946Y1858465D01*
X3595256Y1858942D01*
X3594566Y1859420D01*
X3593875Y1859899D01*
X3593186Y1860376D01*
X3592499Y1860852D01*
X3591816Y1861325D01*
X3591137Y1861795D01*
X3590466Y1862260D01*
X3589802Y1862720D01*
X3589146Y1863174D01*
X3588501Y1863621D01*
X3587867Y1864060D01*
X3587247Y1864491D01*
X3575334Y1872739D01*
X3575311Y1841230D01*
X3575303Y1838011D01*
X3575284Y1834863D01*
X3575253Y1831805D01*
X3575212Y1828852D01*
X3575161Y1826022D01*
X3575101Y1823332D01*
X3575032Y1820799D01*
X3574956Y1818441D01*
X3574872Y1816274D01*
X3574782Y1814315D01*
X3574686Y1812582D01*
X3574584Y1811091D01*
X3574477Y1809860D01*
X3574366Y1808906D01*
X3574251Y1808245D01*
X3574133Y1807896D01*
X3574122Y1807879D01*
X3574110Y1807862D01*
X3574096Y1807845D01*
X3574081Y1807829D01*
X3574065Y1807813D01*
X3574048Y1807796D01*
X3574029Y1807780D01*
X3574009Y1807764D01*
X3573988Y1807748D01*
X3573966Y1807732D01*
X3573942Y1807717D01*
X3573917Y1807701D01*
X3573891Y1807685D01*
X3573863Y1807670D01*
X3573834Y1807655D01*
X3573804Y1807639D01*
X3573772Y1807624D01*
X3573739Y1807609D01*
X3573705Y1807594D01*
X3573669Y1807579D01*
X3573632Y1807565D01*
X3573594Y1807550D01*
X3573554Y1807535D01*
X3573513Y1807521D01*
X3573470Y1807506D01*
X3573427Y1807492D01*
X3573381Y1807478D01*
X3573334Y1807464D01*
X3573286Y1807450D01*
X3573236Y1807436D01*
X3573185Y1807422D01*
X3573133Y1807409D01*
X3573079Y1807395D01*
X3573023Y1807382D01*
X3572966Y1807368D01*
X3572907Y1807355D01*
X3572847Y1807342D01*
X3572786Y1807329D01*
X3572723Y1807316D01*
X3572658Y1807303D01*
X3572592Y1807290D01*
X3572524Y1807277D01*
X3572455Y1807265D01*
X3572384Y1807252D01*
X3572312Y1807240D01*
X3572238Y1807227D01*
X3572162Y1807215D01*
X3572085Y1807203D01*
X3572007Y1807191D01*
X3571926Y1807179D01*
X3571845Y1807167D01*
X3571761Y1807156D01*
X3571676Y1807144D01*
X3571589Y1807132D01*
X3571501Y1807121D01*
X3571410Y1807109D01*
X3571319Y1807098D01*
X3571225Y1807087D01*
X3571130Y1807076D01*
X3571033Y1807065D01*
X3570934Y1807054D01*
X3570834Y1807043D01*
X3570732Y1807032D01*
X3570629Y1807022D01*
X3570523Y1807011D01*
X3570416Y1807001D01*
X3570307Y1806990D01*
X3570196Y1806980D01*
X3570084Y1806970D01*
X3569970Y1806959D01*
X3569854Y1806949D01*
X3569736Y1806939D01*
X3569616Y1806930D01*
X3569495Y1806920D01*
X3569372Y1806910D01*
X3569247Y1806901D01*
X3569120Y1806891D01*
X3568991Y1806882D01*
X3568860Y1806872D01*
X3568728Y1806863D01*
X3568594Y1806854D01*
X3568458Y1806845D01*
X3568320Y1806836D01*
X3568180Y1806827D01*
X3568038Y1806819D01*
X3567894Y1806810D01*
X3567748Y1806801D01*
X3567601Y1806793D01*
X3567451Y1806784D01*
X3567300Y1806776D01*
X3567146Y1806768D01*
X3566991Y1806759D01*
X3566834Y1806751D01*
X3566674Y1806743D01*
X3566513Y1806735D01*
X3566350Y1806728D01*
X3566184Y1806720D01*
X3566017Y1806712D01*
X3565848Y1806705D01*
X3565677Y1806697D01*
X3565503Y1806690D01*
X3565328Y1806682D01*
X3565150Y1806675D01*
X3564971Y1806668D01*
X3564789Y1806661D01*
X3564606Y1806654D01*
X3564420Y1806647D01*
X3564232Y1806640D01*
X3564042Y1806633D01*
X3563850Y1806627D01*
X3563656Y1806620D01*
X3563460Y1806614D01*
X3563261Y1806607D01*
X3563061Y1806601D01*
X3562858Y1806595D01*
X3562653Y1806589D01*
X3562446Y1806583D01*
X3562237Y1806577D01*
X3562026Y1806571D01*
X3561812Y1806565D01*
X3561597Y1806559D01*
X3561379Y1806553D01*
X3561158Y1806548D01*
X3560936Y1806542D01*
X3560711Y1806537D01*
X3560485Y1806532D01*
X3560256Y1806526D01*
X3560024Y1806521D01*
X3559791Y1806516D01*
X3559555Y1806511D01*
X3559316Y1806506D01*
X3559076Y1806501D01*
X3558833Y1806496D01*
X3558588Y1806492D01*
X3558341Y1806487D01*
X3558091Y1806482D01*
X3557839Y1806478D01*
X3557585Y1806473D01*
X3557328Y1806469D01*
X3557069Y1806465D01*
X3556807Y1806461D01*
X3556544Y1806457D01*
X3556277Y1806453D01*
X3556009Y1806448D01*
X3555738Y1806445D01*
X3555464Y1806441D01*
X3555189Y1806437D01*
X3554910Y1806434D01*
X3554630Y1806430D01*
X3554347Y1806426D01*
X3554061Y1806423D01*
X3553773Y1806420D01*
X3553483Y1806416D01*
X3553190Y1806413D01*
X3552894Y1806410D01*
X3552596Y1806407D01*
X3552296Y1806404D01*
X3551993Y1806401D01*
X3551688Y1806398D01*
X3551380Y1806396D01*
X3551069Y1806393D01*
X3550756Y1806390D01*
X3550441Y1806388D01*
X3550123Y1806385D01*
X3549802Y1806383D01*
X3549479Y1806381D01*
X3549153Y1806378D01*
X3548824Y1806376D01*
X3548493Y1806374D01*
X3548160Y1806372D01*
X3547824Y1806370D01*
X3547485Y1806368D01*
X3547143Y1806366D01*
X3546799Y1806365D01*
X3546452Y1806363D01*
X3546103Y1806361D01*
X3545751Y1806360D01*
X3545396Y1806358D01*
X3545039Y1806357D01*
X3544679Y1806356D01*
X3544316Y1806354D01*
X3543950Y1806353D01*
X3543582Y1806352D01*
X3543211Y1806351D01*
X3542837Y1806350D01*
X3542461Y1806349D01*
X3542082Y1806348D01*
X3541700Y1806348D01*
X3541315Y1806347D01*
X3540928Y1806346D01*
X3540538Y1806346D01*
X3540145Y1806345D01*
X3539749Y1806345D01*
X3539350Y1806344D01*
X3538949Y1806344D01*
X3538544Y1806344D01*
X3538137Y1806344D01*
X3537727Y1806344D01*
X3536899D01*
X3536481Y1806344D01*
X3536059Y1806344D01*
X3535635Y1806344D01*
X3535208Y1806344D01*
X3534778Y1806345D01*
X3534345Y1806345D01*
X3533909Y1806346D01*
X3533470Y1806346D01*
X3533029Y1806347D01*
X3532584Y1806348D01*
X3532137Y1806348D01*
X3531686Y1806349D01*
X3531233Y1806350D01*
X3530776Y1806351D01*
X3530317Y1806352D01*
X3529854Y1806353D01*
X3529389Y1806354D01*
X3528921Y1806355D01*
X3528449Y1806357D01*
X3527975Y1806358D01*
X3527497Y1806359D01*
X3527017Y1806361D01*
X3526533Y1806362D01*
X3526047Y1806364D01*
X3525557Y1806366D01*
X3525064Y1806367D01*
X3524569Y1806369D01*
X3524070Y1806371D01*
X3523568Y1806373D01*
X3523063Y1806375D01*
X3522555Y1806377D01*
X3522043Y1806379D01*
X3521529Y1806381D01*
X3521011Y1806383D01*
X3520490Y1806385D01*
X3519967Y1806388D01*
X3519440Y1806390D01*
X3518909Y1806392D01*
X3518376Y1806395D01*
X3517840Y1806397D01*
X3517300Y1806400D01*
X3516757Y1806402D01*
X3516211Y1806405D01*
X3515661Y1806408D01*
X3515109Y1806411D01*
X3514553Y1806414D01*
X3513994Y1806417D01*
X3513431Y1806419D01*
X3512866Y1806423D01*
X3512297Y1806426D01*
X3511725Y1806429D01*
X3511149Y1806432D01*
X3510570Y1806435D01*
X3509988Y1806439D01*
X3509403Y1806442D01*
X3508814Y1806446D01*
X3444651Y1806828D01*
X3444227Y1816245D01*
X3443800Y1825666D01*
X3438055Y1828109D01*
X3437450Y1828383D01*
X3436859Y1828686D01*
X3436282Y1829016D01*
X3435719Y1829372D01*
X3435172Y1829753D01*
X3434642Y1830158D01*
X3434128Y1830584D01*
X3433631Y1831032D01*
X3433153Y1831499D01*
X3432693Y1831985D01*
X3432254Y1832489D01*
X3431834Y1833008D01*
X3431435Y1833543D01*
X3431058Y1834091D01*
X3430703Y1834651D01*
X3430371Y1835223D01*
X3430063Y1835805D01*
X3429779Y1836396D01*
X3429520Y1836994D01*
X3429286Y1837598D01*
X3429079Y1838208D01*
X3428899Y1838821D01*
X3428747Y1839437D01*
X3428623Y1840054D01*
X3428528Y1840672D01*
X3428463Y1841289D01*
X3428429Y1841903D01*
X3428425Y1842514D01*
X3428454Y1843120D01*
X3428515Y1843720D01*
X3428609Y1844313D01*
X3428736Y1844898D01*
X3429032Y1845827D01*
X3429454Y1846795D01*
X3429991Y1847790D01*
X3430627Y1848797D01*
X3431349Y1849802D01*
X3432143Y1850792D01*
X3432994Y1851753D01*
X3433889Y1852671D01*
X3434813Y1853532D01*
X3435753Y1854324D01*
X3436694Y1855031D01*
X3437623Y1855640D01*
X3438525Y1856138D01*
X3439387Y1856511D01*
X3440193Y1856745D01*
X3440932Y1856825D01*
X3441000Y1856826D01*
X3441068Y1856826D01*
X3441135Y1856827D01*
X3441201Y1856828D01*
X3441265Y1856830D01*
X3441329Y1856832D01*
X3441392Y1856836D01*
X3441453Y1856840D01*
X3441514Y1856846D01*
X3441573Y1856852D01*
X3441632Y1856860D01*
X3441690Y1856869D01*
X3441747Y1856880D01*
X3441802Y1856892D01*
X3441857Y1856906D01*
X3441911Y1856921D01*
X3441964Y1856939D01*
X3442015Y1856958D01*
X3442067Y1856980D01*
X3442117Y1857004D01*
X3442166Y1857030D01*
X3442214Y1857058D01*
X3442262Y1857089D01*
X3442308Y1857123D01*
X3442354Y1857160D01*
X3442398Y1857199D01*
X3442442Y1857241D01*
X3442485Y1857286D01*
X3442528Y1857335D01*
X3442569Y1857387D01*
X3442610Y1857442D01*
X3442649Y1857501D01*
X3442689Y1857563D01*
X3442727Y1857629D01*
X3442764Y1857699D01*
X3442801Y1857773D01*
X3442836Y1857850D01*
X3442872Y1857932D01*
X3442906Y1858018D01*
X3442939Y1858109D01*
X3442972Y1858204D01*
X3443004Y1858303D01*
X3443036Y1858407D01*
X3443066Y1858516D01*
X3443096Y1858630D01*
X3443125Y1858749D01*
X3443154Y1858873D01*
X3443182Y1859002D01*
X3443209Y1859137D01*
X3443235Y1859276D01*
X3443261Y1859422D01*
X3443287Y1859573D01*
X3443311Y1859730D01*
X3443335Y1859892D01*
X3443358Y1860061D01*
X3443381Y1860235D01*
X3443403Y1860416D01*
X3443425Y1860603D01*
X3443445Y1860797D01*
X3443466Y1860997D01*
X3443485Y1861203D01*
X3443505Y1861417D01*
X3443523Y1861637D01*
X3443541Y1861863D01*
X3443559Y1862098D01*
X3443576Y1862339D01*
X3443592Y1862587D01*
X3443608Y1862843D01*
X3443624Y1863106D01*
X3443638Y1863377D01*
X3443653Y1863655D01*
X3443667Y1863941D01*
X3443680Y1864235D01*
X3443693Y1864537D01*
X3443706Y1864847D01*
X3443718Y1865166D01*
X3443730Y1865492D01*
X3443741Y1865828D01*
X3443751Y1866171D01*
X3443762Y1866523D01*
X3443772Y1866884D01*
X3443781Y1867254D01*
X3443791Y1867633D01*
X3443799Y1868021D01*
X3443808Y1868418D01*
X3443816Y1868824D01*
X3443823Y1869239D01*
X3443831Y1869664D01*
X3443838Y1870099D01*
X3443844Y1870543D01*
X3443851Y1870998D01*
X3443857Y1871462D01*
X3443862Y1871936D01*
X3443868Y1872420D01*
X3443873Y1872915D01*
X3443878Y1873419D01*
X3443882Y1873935D01*
X3443886Y1874461D01*
X3443890Y1874997D01*
X3443894Y1875544D01*
X3443898Y1876103D01*
X3443901Y1876672D01*
X3443904Y1877252D01*
X3443907Y1877843D01*
X3443909Y1878446D01*
X3443912Y1879060D01*
X3443914Y1879686D01*
X3443916Y1880323D01*
X3443918Y1880972D01*
X3443919Y1881633D01*
X3443921Y1882306D01*
X3443922Y1882991D01*
X3443923Y1883688D01*
X3443924Y1884397D01*
X3443925Y1885119D01*
X3443926Y1885853D01*
X3443927Y1886599D01*
X3443927Y1887359D01*
X3443928Y1888131D01*
X3443928Y1888916D01*
X3443929Y1889714D01*
X3443929Y1890525D01*
X3443929Y1891350D01*
X3443929Y1892188D01*
X3443929Y1893039D01*
X3443930Y1893904D01*
Y1894782D01*
Y1895675D01*
Y1934527D01*
X3438300Y1937022D01*
X3437682Y1937312D01*
X3437078Y1937627D01*
X3436490Y1937967D01*
X3435918Y1938331D01*
X3435362Y1938717D01*
X3434823Y1939125D01*
X3434301Y1939553D01*
X3433798Y1940000D01*
X3433314Y1940465D01*
X3432849Y1940948D01*
X3432404Y1941447D01*
X3431980Y1941960D01*
X3431577Y1942488D01*
X3431195Y1943029D01*
X3430836Y1943582D01*
X3430500Y1944146D01*
X3430188Y1944719D01*
X3429900Y1945302D01*
X3429636Y1945892D01*
X3429398Y1946489D01*
X3429186Y1947091D01*
X3429001Y1947698D01*
X3428842Y1948309D01*
X3428712Y1948922D01*
X3428610Y1949536D01*
X3428536Y1950151D01*
X3428493Y1950765D01*
X3428479Y1951378D01*
X3428496Y1951988D01*
X3428545Y1952593D01*
X3428625Y1953194D01*
X3428738Y1953790D01*
X3428985Y1954669D01*
X3429341Y1955580D01*
X3429796Y1956512D01*
X3430343Y1957456D01*
X3430972Y1958401D01*
X3431673Y1959339D01*
X3432437Y1960260D01*
X3433254Y1961153D01*
X3434117Y1962010D01*
X3435014Y1962820D01*
X3435937Y1963574D01*
X3436877Y1964263D01*
X3437824Y1964876D01*
X3438769Y1965403D01*
X3439703Y1965836D01*
X3440617Y1966165D01*
X3440873Y1966245D01*
X3441116Y1966330D01*
X3441346Y1966420D01*
X3441563Y1966515D01*
X3441768Y1966619D01*
X3441961Y1966730D01*
X3442143Y1966852D01*
X3442313Y1966985D01*
X3442473Y1967131D01*
X3442623Y1967290D01*
X3442764Y1967464D01*
X3442895Y1967655D01*
X3443017Y1967863D01*
X3443131Y1968090D01*
X3443236Y1968337D01*
X3443335Y1968605D01*
X3443426Y1968896D01*
X3443510Y1969211D01*
X3443588Y1969551D01*
X3443660Y1969917D01*
X3443727Y1970311D01*
X3443789Y1970733D01*
X3443846Y1971186D01*
X3443899Y1971671D01*
X3443949Y1972188D01*
X3443995Y1972739D01*
X3444038Y1973325D01*
X3444079Y1973948D01*
X3444118Y1974609D01*
X3444155Y1975308D01*
X3444191Y1976048D01*
X3444227Y1976830D01*
X3444651Y1986540D01*
X3508021Y1986918D01*
X3516252Y1986961D01*
X3523858Y1986989D01*
X3530857Y1987003D01*
X3537262Y1987000D01*
D02*
G37*
G36*
X3610077Y1795599D02*
X3611073Y1795487D01*
X3611832Y1795281D01*
X3612392Y1794984D01*
X3612796Y1794599D01*
X3613081Y1794130D01*
X3613289Y1793579D01*
X3613338Y1793422D01*
X3613403Y1793232D01*
X3613481Y1793009D01*
X3613572Y1792755D01*
X3613677Y1792471D01*
X3613794Y1792157D01*
X3613923Y1791814D01*
X3614064Y1791444D01*
X3614216Y1791048D01*
X3614379Y1790627D01*
X3614553Y1790181D01*
X3614736Y1789713D01*
X3614930Y1789222D01*
X3615132Y1788711D01*
X3615343Y1788179D01*
X3615563Y1787629D01*
X3615790Y1787060D01*
X3616025Y1786475D01*
X3616267Y1785875D01*
X3616516Y1785259D01*
X3616771Y1784630D01*
X3617032Y1783988D01*
X3617298Y1783335D01*
X3617569Y1782672D01*
X3617845Y1781999D01*
X3618124Y1781318D01*
X3618408Y1780629D01*
X3618695Y1779934D01*
X3618984Y1779234D01*
X3619277Y1778530D01*
X3619571Y1777823D01*
X3619867Y1777113D01*
X3621014Y1774318D01*
X3622071Y1771653D01*
X3623015Y1769181D01*
X3623823Y1766964D01*
X3624474Y1765064D01*
X3624946Y1763545D01*
X3625217Y1762468D01*
X3625264Y1761897D01*
X3625244Y1761854D01*
X3625208Y1761812D01*
X3625153Y1761771D01*
X3625082Y1761730D01*
X3624993Y1761689D01*
X3624886Y1761649D01*
X3624763Y1761610D01*
X3624623Y1761571D01*
X3624465Y1761532D01*
X3624291Y1761493D01*
X3624100Y1761455D01*
X3623893Y1761418D01*
X3623669Y1761381D01*
X3623428Y1761344D01*
X3623171Y1761308D01*
X3622898Y1761273D01*
X3622608Y1761238D01*
X3622303Y1761203D01*
X3621981Y1761169D01*
X3621644Y1761135D01*
X3621291Y1761102D01*
X3620922Y1761070D01*
X3620538Y1761038D01*
X3620138Y1761006D01*
X3619723Y1760975D01*
X3619292Y1760944D01*
X3618847Y1760914D01*
X3618386Y1760885D01*
X3617910Y1760856D01*
X3617419Y1760828D01*
X3616913Y1760800D01*
X3616393Y1760773D01*
X3615858Y1760746D01*
X3615308Y1760720D01*
X3614744Y1760694D01*
X3614166Y1760669D01*
X3613573Y1760645D01*
X3612967Y1760621D01*
X3612346Y1760598D01*
X3611711Y1760575D01*
X3611063Y1760553D01*
X3610400Y1760531D01*
X3609724Y1760510D01*
X3609035Y1760490D01*
X3608331Y1760471D01*
X3607615Y1760452D01*
X3606885Y1760433D01*
X3606142Y1760415D01*
X3605386Y1760398D01*
X3604617Y1760382D01*
X3603835Y1760366D01*
X3603041Y1760351D01*
X3602233Y1760336D01*
X3601413Y1760322D01*
X3600580Y1760309D01*
X3599735Y1760297D01*
X3598878Y1760285D01*
X3598008Y1760274D01*
X3597127Y1760263D01*
X3596233Y1760254D01*
X3595327Y1760245D01*
X3594410Y1760236D01*
X3593480Y1760228D01*
X3592539Y1760222D01*
X3591126Y1760210D01*
X3589702Y1760197D01*
X3588271Y1760181D01*
X3586831Y1760163D01*
X3585383Y1760142D01*
X3583930Y1760120D01*
X3582470Y1760094D01*
X3581005Y1760067D01*
X3579535Y1760037D01*
X3578061Y1760006D01*
X3576583Y1759972D01*
X3575103Y1759936D01*
X3573620Y1759898D01*
X3572137Y1759858D01*
X3570652Y1759815D01*
X3569167Y1759771D01*
X3567682Y1759725D01*
X3566199Y1759677D01*
X3564717Y1759627D01*
X3563238Y1759575D01*
X3561762Y1759522D01*
X3560289Y1759467D01*
X3558821Y1759410D01*
X3557358Y1759351D01*
X3555901Y1759290D01*
X3554449Y1759228D01*
X3553005Y1759165D01*
X3551568Y1759099D01*
X3550140Y1759033D01*
X3548720Y1758964D01*
X3547310Y1758894D01*
X3545910Y1758823D01*
X3544520Y1758751D01*
X3543143Y1758676D01*
X3541777Y1758601D01*
X3540424Y1758524D01*
X3539085Y1758446D01*
X3537759Y1758367D01*
X3536449Y1758287D01*
X3535153Y1758205D01*
X3533874Y1758122D01*
X3532611Y1758039D01*
X3531366Y1757954D01*
X3530138Y1757868D01*
X3528929Y1757781D01*
X3527740Y1757693D01*
X3526570Y1757604D01*
X3525421Y1757514D01*
X3524293Y1757423D01*
X3523186Y1757332D01*
X3522103Y1757239D01*
X3521042Y1757146D01*
X3520005Y1757052D01*
X3518993Y1756957D01*
X3518005Y1756862D01*
X3517044Y1756766D01*
X3516108Y1756670D01*
X3515200Y1756572D01*
X3514319Y1756475D01*
X3513467Y1756377D01*
X3512644Y1756278D01*
X3511850Y1756179D01*
X3511086Y1756079D01*
X3510354Y1755979D01*
X3503856Y1755076D01*
X3503602Y1740368D01*
X3503574Y1739203D01*
X3503530Y1738025D01*
X3503472Y1736833D01*
X3503398Y1735629D01*
X3503310Y1734413D01*
X3503207Y1733187D01*
X3503090Y1731950D01*
X3502959Y1730704D01*
X3502815Y1729451D01*
X3502657Y1728189D01*
X3502487Y1726922D01*
X3502303Y1725648D01*
X3502108Y1724370D01*
X3501899Y1723088D01*
X3501679Y1721803D01*
X3501448Y1720516D01*
X3501204Y1719227D01*
X3500950Y1717938D01*
X3500685Y1716649D01*
X3500409Y1715361D01*
X3500123Y1714075D01*
X3499827Y1712792D01*
X3499521Y1711513D01*
X3499206Y1710239D01*
X3498881Y1708970D01*
X3498548Y1707707D01*
X3498206Y1706451D01*
X3497855Y1705204D01*
X3497497Y1703965D01*
X3497130Y1702736D01*
X3496756Y1701518D01*
X3496375Y1700311D01*
X3495986Y1699116D01*
X3495591Y1697935D01*
X3495190Y1696767D01*
X3494782Y1695614D01*
X3494368Y1694477D01*
X3493949Y1693357D01*
X3493524Y1692254D01*
X3493094Y1691169D01*
X3492660Y1690103D01*
X3492220Y1689057D01*
X3491777Y1688033D01*
X3491329Y1687029D01*
X3490878Y1686049D01*
X3490423Y1685091D01*
X3489965Y1684158D01*
X3489504Y1683250D01*
X3489041Y1682368D01*
X3488575Y1681513D01*
X3488107Y1680685D01*
X3487637Y1679886D01*
X3487166Y1679116D01*
X3486693Y1678377D01*
X3486219Y1677668D01*
X3485745Y1676992D01*
X3485270Y1676348D01*
X3484795Y1675738D01*
X3484320Y1675162D01*
X3483846Y1674622D01*
X3483372Y1674118D01*
X3482899Y1673651D01*
X3482427Y1673222D01*
X3481956Y1672832D01*
X3481608Y1672564D01*
X3481257Y1672309D01*
X3480903Y1672067D01*
X3480546Y1671837D01*
X3480186Y1671620D01*
X3479825Y1671416D01*
X3479460Y1671223D01*
X3479093Y1671043D01*
X3478723Y1670876D01*
X3478351Y1670720D01*
X3477977Y1670577D01*
X3477601Y1670446D01*
X3477222Y1670327D01*
X3476841Y1670219D01*
X3476459Y1670124D01*
X3476074Y1670040D01*
X3475687Y1669969D01*
X3475299Y1669909D01*
X3474908Y1669860D01*
X3474516Y1669823D01*
X3474122Y1669798D01*
X3473727Y1669784D01*
X3473330Y1669781D01*
X3472932Y1669790D01*
X3472532Y1669810D01*
X3472131Y1669841D01*
X3471728Y1669883D01*
X3471325Y1669937D01*
X3470920Y1670001D01*
X3470514Y1670076D01*
X3470107Y1670162D01*
X3469699Y1670259D01*
X3469290Y1670367D01*
X3468880Y1670485D01*
X3468469Y1670614D01*
X3468058Y1670754D01*
X3467646Y1670903D01*
X3467233Y1671064D01*
X3466820Y1671235D01*
X3466406Y1671416D01*
X3465992Y1671607D01*
X3465578Y1671809D01*
X3465163Y1672020D01*
X3464748Y1672242D01*
X3464333Y1672473D01*
X3463917Y1672715D01*
X3463502Y1672966D01*
X3463086Y1673227D01*
X3462671Y1673498D01*
X3462256Y1673779D01*
X3461841Y1674069D01*
X3461426Y1674369D01*
X3461012Y1674678D01*
X3460598Y1674996D01*
X3460184Y1675324D01*
X3459771Y1675661D01*
X3459359Y1676008D01*
X3458947Y1676363D01*
X3458536Y1676728D01*
X3458126Y1677101D01*
X3457716Y1677484D01*
X3457307Y1677876D01*
X3456900Y1678276D01*
X3456493Y1678685D01*
X3456087Y1679103D01*
X3455683Y1679529D01*
X3455280Y1679964D01*
X3454878Y1680408D01*
X3454477Y1680860D01*
X3454077Y1681320D01*
X3453680Y1681789D01*
X3453283Y1682266D01*
X3452888Y1682751D01*
X3452495Y1683245D01*
X3452104Y1683746D01*
X3451714Y1684255D01*
X3451326Y1684773D01*
X3450940Y1685298D01*
X3450556Y1685831D01*
X3450174Y1686372D01*
X3449794Y1686921D01*
X3449416Y1687477D01*
X3449040Y1688041D01*
X3448667Y1688612D01*
X3448296Y1689190D01*
X3447927Y1689776D01*
X3447561Y1690370D01*
X3447197Y1690970D01*
X3446836Y1691578D01*
X3446477Y1692193D01*
X3446121Y1692815D01*
X3445768Y1693444D01*
X3445418Y1694080D01*
X3445070Y1694723D01*
X3444726Y1695372D01*
X3444385Y1696028D01*
X3444046Y1696691D01*
X3443711Y1697361D01*
X3443379Y1698037D01*
X3443050Y1698720D01*
X3442725Y1699409D01*
X3442402Y1700104D01*
X3442084Y1700806D01*
X3441769Y1701514D01*
X3441457Y1702228D01*
X3441149Y1702948D01*
X3440845Y1703674D01*
X3440544Y1704407D01*
X3440247Y1705145D01*
X3439955Y1705889D01*
X3439666Y1706638D01*
X3439381Y1707394D01*
X3439100Y1708155D01*
X3438823Y1708922D01*
X3438551Y1709694D01*
X3438283Y1710472D01*
X3438019Y1711255D01*
X3437759Y1712044D01*
X3437504Y1712837D01*
X3437254Y1713636D01*
X3437008Y1714440D01*
X3436766Y1715250D01*
X3436530Y1716064D01*
X3436298Y1716883D01*
X3436070Y1717707D01*
X3435848Y1718536D01*
X3435631Y1719370D01*
X3435419Y1720208D01*
X3434378Y1724608D01*
X3433423Y1729102D01*
X3432557Y1733640D01*
X3431784Y1738169D01*
X3431109Y1742637D01*
X3430536Y1746991D01*
X3430068Y1751179D01*
X3429710Y1755149D01*
X3429467Y1758849D01*
X3429341Y1762226D01*
X3429337Y1765227D01*
X3429460Y1767802D01*
X3429713Y1769896D01*
X3430100Y1771459D01*
X3430626Y1772437D01*
X3431294Y1772778D01*
X3431412Y1772782D01*
X3431576Y1772791D01*
X3431786Y1772805D01*
X3432041Y1772824D01*
X3432338Y1772848D01*
X3432678Y1772877D01*
X3433058Y1772910D01*
X3433477Y1772948D01*
X3433934Y1772990D01*
X3434428Y1773037D01*
X3434957Y1773088D01*
X3435520Y1773142D01*
X3436115Y1773201D01*
X3436742Y1773263D01*
X3437398Y1773329D01*
X3438084Y1773398D01*
X3438797Y1773471D01*
X3439535Y1773547D01*
X3440299Y1773626D01*
X3441086Y1773707D01*
X3441894Y1773792D01*
X3442724Y1773879D01*
X3443573Y1773969D01*
X3444440Y1774061D01*
X3445324Y1774155D01*
X3446224Y1774252D01*
X3447137Y1774351D01*
X3448064Y1774451D01*
X3449002Y1774553D01*
X3449950Y1774657D01*
X3450907Y1774762D01*
X3451872Y1774869D01*
X3452856Y1774977D01*
X3453874Y1775088D01*
X3454921Y1775202D01*
X3455996Y1775317D01*
X3457097Y1775435D01*
X3458220Y1775554D01*
X3459365Y1775675D01*
X3460528Y1775797D01*
X3461707Y1775920D01*
X3462900Y1776044D01*
X3464104Y1776168D01*
X3465318Y1776293D01*
X3466539Y1776418D01*
X3467764Y1776543D01*
X3468992Y1776667D01*
X3470220Y1776791D01*
X3471445Y1776914D01*
X3472666Y1777035D01*
X3473879Y1777156D01*
X3475084Y1777275D01*
X3476276Y1777392D01*
X3477455Y1777507D01*
X3478618Y1777620D01*
X3479762Y1777731D01*
X3480886Y1777839D01*
X3481986Y1777944D01*
X3483061Y1778045D01*
X3484108Y1778144D01*
X3485124Y1778238D01*
X3486109Y1778329D01*
X3487059Y1778416D01*
X3487972Y1778498D01*
X3488500Y1778546D01*
X3489036Y1778595D01*
X3489579Y1778646D01*
X3490130Y1778698D01*
X3490688Y1778751D01*
X3491252Y1778806D01*
X3491824Y1778862D01*
X3492402Y1778919D01*
X3492987Y1778978D01*
X3493579Y1779038D01*
X3494177Y1779099D01*
X3494781Y1779161D01*
X3495392Y1779225D01*
X3496009Y1779290D01*
X3496632Y1779356D01*
X3497260Y1779423D01*
X3497895Y1779492D01*
X3498535Y1779562D01*
X3499181Y1779632D01*
X3499832Y1779704D01*
X3500489Y1779777D01*
X3501151Y1779852D01*
X3501818Y1779927D01*
X3502489Y1780003D01*
X3503166Y1780081D01*
X3503848Y1780159D01*
X3504534Y1780239D01*
X3505225Y1780319D01*
X3505920Y1780401D01*
X3506620Y1780483D01*
X3507324Y1780567D01*
X3508032Y1780651D01*
X3508744Y1780736D01*
X3509460Y1780823D01*
X3510180Y1780910D01*
X3510903Y1780998D01*
X3511630Y1781087D01*
X3512360Y1781177D01*
X3513094Y1781267D01*
X3513831Y1781359D01*
X3514571Y1781451D01*
X3515314Y1781544D01*
X3516060Y1781638D01*
X3516809Y1781733D01*
X3517560Y1781828D01*
X3518314Y1781925D01*
X3519070Y1782021D01*
X3519829Y1782119D01*
X3520590Y1782217D01*
X3521353Y1782316D01*
X3522118Y1782416D01*
X3522885Y1782516D01*
X3523654Y1782617D01*
X3524425Y1782718D01*
X3525197Y1782821D01*
X3525970Y1782923D01*
X3526745Y1783027D01*
X3527521Y1783130D01*
X3528298Y1783235D01*
X3529076Y1783340D01*
X3529855Y1783445D01*
X3530634Y1783551D01*
X3531415Y1783657D01*
X3532196Y1783764D01*
X3532977Y1783871D01*
X3533759Y1783979D01*
X3534541Y1784087D01*
X3535323Y1784196D01*
X3536105Y1784305D01*
X3536887Y1784414D01*
X3537668Y1784524D01*
X3538450Y1784634D01*
X3539231Y1784744D01*
X3540011Y1784855D01*
X3540791Y1784966D01*
X3541570Y1785077D01*
X3542347Y1785188D01*
X3543124Y1785300D01*
X3543900Y1785412D01*
X3544675Y1785524D01*
X3545448Y1785637D01*
X3546220Y1785749D01*
X3546990Y1785862D01*
X3547759Y1785975D01*
X3548526Y1786088D01*
X3549290Y1786201D01*
X3550053Y1786315D01*
X3550814Y1786428D01*
X3551573Y1786542D01*
X3552329Y1786655D01*
X3553082Y1786769D01*
X3553833Y1786882D01*
X3554582Y1786996D01*
X3555327Y1787110D01*
X3556070Y1787223D01*
X3556810Y1787337D01*
X3557547Y1787450D01*
X3558280Y1787564D01*
X3559010Y1787677D01*
X3559736Y1787791D01*
X3560459Y1787904D01*
X3561179Y1788017D01*
X3561894Y1788130D01*
X3562606Y1788243D01*
X3563313Y1788356D01*
X3564017Y1788468D01*
X3564716Y1788581D01*
X3565411Y1788693D01*
X3566101Y1788804D01*
X3566787Y1788916D01*
X3567468Y1789028D01*
X3568144Y1789139D01*
X3568816Y1789249D01*
X3569482Y1789360D01*
X3570143Y1789470D01*
X3570799Y1789580D01*
X3571450Y1789690D01*
X3572095Y1789799D01*
X3572735Y1789908D01*
X3573369Y1790016D01*
X3573997Y1790124D01*
X3574619Y1790232D01*
X3575235Y1790339D01*
X3575845Y1790446D01*
X3576449Y1790552D01*
X3577046Y1790658D01*
X3577637Y1790763D01*
X3578222Y1790868D01*
X3583799Y1791866D01*
X3588738Y1792739D01*
X3593079Y1793491D01*
X3596861Y1794124D01*
X3600126Y1794641D01*
X3602912Y1795045D01*
X3605260Y1795340D01*
X3607211Y1795529D01*
X3608803Y1795614D01*
X3610077Y1795599D01*
D02*
G37*
G36*
X3562673Y1679481D02*
X3563331Y1679380D01*
X3563527Y1679280D01*
X3563716Y1679132D01*
X3563899Y1678940D01*
X3564073Y1678706D01*
X3564239Y1678433D01*
X3564395Y1678124D01*
X3564540Y1677782D01*
X3564674Y1677409D01*
X3564796Y1677008D01*
X3564904Y1676581D01*
X3564998Y1676133D01*
X3565077Y1675664D01*
X3565140Y1675179D01*
X3565186Y1674679D01*
X3565215Y1674168D01*
X3565224Y1673648D01*
X3565217Y1672879D01*
X3565193Y1672187D01*
X3565149Y1671567D01*
X3565082Y1671014D01*
X3564987Y1670523D01*
X3564861Y1670089D01*
X3564700Y1669706D01*
X3564503Y1669369D01*
X3564263Y1669074D01*
X3563979Y1668815D01*
X3563646Y1668588D01*
X3563261Y1668387D01*
X3562821Y1668207D01*
X3562321Y1668043D01*
X3561760Y1667890D01*
X3561131Y1667743D01*
X3559581Y1667427D01*
X3557832Y1667117D01*
X3555924Y1666815D01*
X3553897Y1666526D01*
X3551790Y1666253D01*
X3549642Y1666000D01*
X3547495Y1665769D01*
X3545387Y1665566D01*
X3543357Y1665392D01*
X3541446Y1665253D01*
X3539694Y1665152D01*
X3538139Y1665092D01*
X3536822Y1665077D01*
X3535782Y1665110D01*
X3535058Y1665195D01*
X3534691Y1665336D01*
X3534124Y1666210D01*
X3533594Y1667581D01*
X3533134Y1669261D01*
X3532776Y1671061D01*
X3532550Y1672791D01*
X3532488Y1674262D01*
X3532622Y1675284D01*
X3532981Y1675669D01*
X3533061Y1675673D01*
X3533174Y1675681D01*
X3533321Y1675696D01*
X3533500Y1675716D01*
X3533711Y1675741D01*
X3533952Y1675771D01*
X3534223Y1675806D01*
X3534522Y1675846D01*
X3534849Y1675891D01*
X3535202Y1675940D01*
X3535582Y1675994D01*
X3535986Y1676052D01*
X3536414Y1676114D01*
X3536865Y1676180D01*
X3537337Y1676250D01*
X3537831Y1676323D01*
X3538345Y1676401D01*
X3538878Y1676482D01*
X3539429Y1676565D01*
X3539997Y1676653D01*
X3540581Y1676743D01*
X3541181Y1676836D01*
X3541795Y1676932D01*
X3542422Y1677030D01*
X3543062Y1677131D01*
X3543713Y1677234D01*
X3544375Y1677339D01*
X3545046Y1677446D01*
X3545727Y1677555D01*
X3546414Y1677666D01*
X3547108Y1677779D01*
X3547809Y1677892D01*
X3550585Y1678323D01*
X3553250Y1678696D01*
X3555740Y1679005D01*
X3557990Y1679244D01*
X3559939Y1679407D01*
X3561521Y1679488D01*
X3562673Y1679481D01*
D02*
G37*
G36*
X3563038Y1665517D02*
X3563358Y1665512D01*
X3563659Y1665504D01*
X3563940Y1665489D01*
X3564204Y1665469D01*
X3564450Y1665442D01*
X3564680Y1665407D01*
X3564893Y1665363D01*
X3565090Y1665309D01*
X3565273Y1665244D01*
X3565441Y1665167D01*
X3565595Y1665078D01*
X3565735Y1664975D01*
X3565863Y1664856D01*
X3565979Y1664723D01*
X3566083Y1664572D01*
X3566177Y1664404D01*
X3566259Y1664218D01*
X3566333Y1664012D01*
X3566397Y1663785D01*
X3566452Y1663537D01*
X3566500Y1663266D01*
X3566540Y1662973D01*
X3566574Y1662655D01*
X3566601Y1662311D01*
X3566623Y1661941D01*
X3566640Y1661545D01*
X3566652Y1661120D01*
X3566660Y1660665D01*
X3566666Y1660181D01*
X3566669Y1659666D01*
X3566669Y1659119D01*
Y1652718D01*
X3555479Y1651674D01*
X3553585Y1651496D01*
X3551816Y1651330D01*
X3550166Y1651175D01*
X3548633Y1651034D01*
X3547211Y1650906D01*
X3545896Y1650793D01*
X3544684Y1650696D01*
X3543570Y1650616D01*
X3542551Y1650553D01*
X3541621Y1650509D01*
X3540777Y1650485D01*
X3540015Y1650482D01*
X3539329Y1650499D01*
X3538716Y1650540D01*
X3538171Y1650604D01*
X3537690Y1650693D01*
X3537269Y1650807D01*
X3536904Y1650947D01*
X3536589Y1651115D01*
X3536322Y1651311D01*
X3536096Y1651537D01*
X3535909Y1651793D01*
X3535756Y1652080D01*
X3535632Y1652399D01*
X3535534Y1652752D01*
X3535456Y1653138D01*
X3535395Y1653560D01*
X3535347Y1654018D01*
X3535306Y1654513D01*
X3535269Y1655046D01*
X3535232Y1655618D01*
X3535189Y1656229D01*
X3534758Y1662159D01*
X3546744Y1663839D01*
X3547985Y1664010D01*
X3549232Y1664176D01*
X3550476Y1664337D01*
X3551710Y1664491D01*
X3552925Y1664638D01*
X3554112Y1664776D01*
X3555264Y1664906D01*
X3556373Y1665025D01*
X3557430Y1665134D01*
X3558428Y1665231D01*
X3559357Y1665315D01*
X3560211Y1665386D01*
X3560979Y1665443D01*
X3561656Y1665484D01*
X3562232Y1665510D01*
X3562698Y1665518D01*
X3563038Y1665517D01*
D02*
G37*
G36*
X3522342Y1673300D02*
X3523230Y1673190D01*
X3523715Y1672975D01*
X3523849Y1672809D01*
X3523992Y1672576D01*
X3524142Y1672280D01*
X3524298Y1671925D01*
X3524458Y1671515D01*
X3524621Y1671055D01*
X3524787Y1670549D01*
X3524953Y1670001D01*
X3525119Y1669416D01*
X3525282Y1668797D01*
X3525443Y1668150D01*
X3525600Y1667478D01*
X3525751Y1666786D01*
X3525895Y1666077D01*
X3526032Y1665357D01*
X3526159Y1664630D01*
X3526691Y1661308D01*
X3527080Y1658551D01*
X3527327Y1656289D01*
X3527432Y1654449D01*
X3527397Y1652961D01*
X3527225Y1651755D01*
X3526916Y1650760D01*
X3526472Y1649905D01*
X3526350Y1649772D01*
X3526148Y1649633D01*
X3525870Y1649487D01*
X3525516Y1649334D01*
X3525089Y1649176D01*
X3524592Y1649012D01*
X3524026Y1648842D01*
X3523393Y1648668D01*
X3522695Y1648488D01*
X3521936Y1648304D01*
X3521116Y1648116D01*
X3520239Y1647923D01*
X3519305Y1647727D01*
X3518318Y1647528D01*
X3517279Y1647325D01*
X3516191Y1647119D01*
X3515055Y1646911D01*
X3513875Y1646700D01*
X3512651Y1646488D01*
X3511387Y1646273D01*
X3510084Y1646058D01*
X3508744Y1645841D01*
X3507370Y1645623D01*
X3505963Y1645404D01*
X3504527Y1645186D01*
X3503062Y1644967D01*
X3501572Y1644748D01*
X3500058Y1644530D01*
X3498522Y1644313D01*
X3496967Y1644097D01*
X3495394Y1643882D01*
X3493807Y1643669D01*
X3492206Y1643458D01*
X3490595Y1643249D01*
X3488975Y1643043D01*
X3487348Y1642840D01*
X3485717Y1642639D01*
X3484084Y1642443D01*
X3482450Y1642249D01*
X3480819Y1642060D01*
X3479191Y1641875D01*
X3477570Y1641694D01*
X3475958Y1641519D01*
X3474356Y1641348D01*
X3472766Y1641183D01*
X3471192Y1641023D01*
X3469634Y1640870D01*
X3468096Y1640722D01*
X3466579Y1640581D01*
X3465085Y1640447D01*
X3463617Y1640320D01*
X3462177Y1640201D01*
X3460767Y1640089D01*
X3459388Y1639985D01*
X3458044Y1639889D01*
X3456736Y1639802D01*
X3455466Y1639724D01*
X3454237Y1639654D01*
X3453051Y1639594D01*
X3451909Y1639544D01*
X3450815Y1639504D01*
X3449769Y1639474D01*
X3448775Y1639454D01*
X3447834Y1639446D01*
X3443798Y1639431D01*
X3444224Y1649110D01*
X3444651Y1658785D01*
X3472088Y1664197D01*
X3473510Y1664478D01*
X3474943Y1664761D01*
X3476385Y1665045D01*
X3477834Y1665332D01*
X3479287Y1665619D01*
X3480742Y1665906D01*
X3482195Y1666194D01*
X3483646Y1666481D01*
X3485091Y1666767D01*
X3486527Y1667051D01*
X3487953Y1667334D01*
X3489366Y1667614D01*
X3490762Y1667891D01*
X3492141Y1668164D01*
X3493499Y1668434D01*
X3494833Y1668699D01*
X3496142Y1668959D01*
X3497422Y1669213D01*
X3498672Y1669462D01*
X3499889Y1669704D01*
X3501070Y1669939D01*
X3502212Y1670167D01*
X3503314Y1670386D01*
X3504373Y1670598D01*
X3505386Y1670800D01*
X3506351Y1670993D01*
X3507265Y1671176D01*
X3508126Y1671349D01*
X3508932Y1671511D01*
X3509679Y1671661D01*
X3510366Y1671799D01*
X3510990Y1671926D01*
X3513383Y1672378D01*
X3515633Y1672746D01*
X3517698Y1673026D01*
X3519533Y1673214D01*
X3521095Y1673307D01*
X3522342Y1673300D01*
D02*
G37*
G36*
X3600720Y1647289D02*
X3601419Y1647130D01*
X3601538Y1646983D01*
X3601661Y1646789D01*
X3601785Y1646551D01*
X3601910Y1646272D01*
X3602035Y1645954D01*
X3602159Y1645602D01*
X3602281Y1645219D01*
X3602401Y1644807D01*
X3602517Y1644370D01*
X3602629Y1643912D01*
X3602735Y1643434D01*
X3602836Y1642941D01*
X3602929Y1642436D01*
X3603014Y1641922D01*
X3603090Y1641401D01*
X3603157Y1640879D01*
X3603437Y1638398D01*
X3603668Y1636151D01*
X3603848Y1634126D01*
X3603977Y1632312D01*
X3604052Y1630697D01*
X3604072Y1629270D01*
X3604037Y1628020D01*
X3603944Y1626936D01*
X3603792Y1626006D01*
X3603579Y1625218D01*
X3603306Y1624563D01*
X3602969Y1624027D01*
X3602568Y1623601D01*
X3602101Y1623272D01*
X3601566Y1623030D01*
X3600963Y1622862D01*
X3600869Y1622844D01*
X3600752Y1622824D01*
X3600613Y1622803D01*
X3600453Y1622781D01*
X3600271Y1622757D01*
X3600069Y1622732D01*
X3599847Y1622706D01*
X3599604Y1622678D01*
X3599341Y1622649D01*
X3599058Y1622619D01*
X3598756Y1622587D01*
X3598435Y1622555D01*
X3598096Y1622521D01*
X3597738Y1622486D01*
X3597361Y1622450D01*
X3596967Y1622413D01*
X3596556Y1622375D01*
X3596127Y1622336D01*
X3595682Y1622296D01*
X3595219Y1622255D01*
X3594741Y1622213D01*
X3594247Y1622169D01*
X3593736Y1622126D01*
X3593211Y1622081D01*
X3592670Y1622035D01*
X3592115Y1621989D01*
X3591545Y1621941D01*
X3590961Y1621893D01*
X3590363Y1621844D01*
X3589751Y1621795D01*
X3589127Y1621744D01*
X3588489Y1621693D01*
X3587838Y1621641D01*
X3587176Y1621589D01*
X3586501Y1621536D01*
X3585815Y1621483D01*
X3585117Y1621428D01*
X3584408Y1621374D01*
X3583688Y1621319D01*
X3582957Y1621263D01*
X3582217Y1621207D01*
X3581466Y1621150D01*
X3580706Y1621093D01*
X3579937Y1621035D01*
X3579158Y1620978D01*
X3578371Y1620919D01*
X3577575Y1620861D01*
X3576772Y1620802D01*
X3575960Y1620743D01*
X3575141Y1620684D01*
X3574315Y1620624D01*
X3573482Y1620564D01*
X3572642Y1620504D01*
X3571797Y1620444D01*
X3570945Y1620384D01*
X3570087Y1620323D01*
X3569224Y1620263D01*
X3568356Y1620202D01*
X3567484Y1620141D01*
X3566606Y1620081D01*
X3565725Y1620020D01*
X3564840Y1619959D01*
X3563951Y1619899D01*
X3563059Y1619839D01*
X3561441Y1619728D01*
X3559789Y1619615D01*
X3558106Y1619498D01*
X3556394Y1619377D01*
X3554654Y1619254D01*
X3552888Y1619127D01*
X3551097Y1618998D01*
X3549282Y1618865D01*
X3547446Y1618730D01*
X3545590Y1618593D01*
X3543715Y1618453D01*
X3541822Y1618311D01*
X3539914Y1618167D01*
X3537992Y1618021D01*
X3536058Y1617873D01*
X3534112Y1617723D01*
X3532157Y1617572D01*
X3530194Y1617419D01*
X3528225Y1617265D01*
X3526251Y1617110D01*
X3524273Y1616953D01*
X3522294Y1616796D01*
X3520314Y1616637D01*
X3518336Y1616478D01*
X3516361Y1616319D01*
X3514390Y1616159D01*
X3512425Y1615998D01*
X3510467Y1615838D01*
X3508519Y1615677D01*
X3506581Y1615517D01*
X3504655Y1615357D01*
X3502742Y1615197D01*
X3500845Y1615037D01*
X3498965Y1614878D01*
X3497102Y1614720D01*
X3495260Y1614562D01*
X3493439Y1614406D01*
X3491640Y1614251D01*
X3489866Y1614096D01*
X3488118Y1613944D01*
X3486397Y1613792D01*
X3484706Y1613643D01*
X3483045Y1613495D01*
X3481416Y1613349D01*
X3479820Y1613205D01*
X3478260Y1613063D01*
X3476736Y1612923D01*
X3475251Y1612786D01*
X3473805Y1612651D01*
X3472401Y1612519D01*
X3471040Y1612390D01*
X3469723Y1612263D01*
X3468452Y1612140D01*
X3467228Y1612020D01*
X3466053Y1611903D01*
X3464929Y1611789D01*
X3463857Y1611679D01*
X3462838Y1611573D01*
X3461875Y1611470D01*
X3460968Y1611372D01*
X3460120Y1611277D01*
X3459331Y1611187D01*
X3458604Y1611101D01*
X3457939Y1611020D01*
X3451012Y1610151D01*
X3451441Y1620079D01*
X3451872Y1630008D01*
X3458369Y1630376D01*
X3458847Y1630403D01*
X3459344Y1630434D01*
X3459859Y1630467D01*
X3460391Y1630502D01*
X3460942Y1630541D01*
X3461510Y1630581D01*
X3462095Y1630625D01*
X3462697Y1630670D01*
X3463315Y1630718D01*
X3463950Y1630769D01*
X3464601Y1630822D01*
X3465268Y1630877D01*
X3465950Y1630935D01*
X3466648Y1630995D01*
X3467360Y1631057D01*
X3468088Y1631121D01*
X3468830Y1631188D01*
X3469586Y1631256D01*
X3470356Y1631327D01*
X3471139Y1631400D01*
X3471936Y1631475D01*
X3472746Y1631552D01*
X3473569Y1631631D01*
X3474404Y1631712D01*
X3475252Y1631794D01*
X3476111Y1631879D01*
X3476983Y1631966D01*
X3477865Y1632054D01*
X3478760Y1632144D01*
X3479664Y1632236D01*
X3480580Y1632330D01*
X3481506Y1632425D01*
X3482442Y1632522D01*
X3483388Y1632621D01*
X3484343Y1632721D01*
X3485308Y1632823D01*
X3486282Y1632926D01*
X3487264Y1633031D01*
X3488255Y1633137D01*
X3489255Y1633245D01*
X3490262Y1633354D01*
X3491276Y1633464D01*
X3492298Y1633576D01*
X3493328Y1633689D01*
X3494364Y1633804D01*
X3495406Y1633919D01*
X3496455Y1634036D01*
X3497510Y1634154D01*
X3498571Y1634273D01*
X3499637Y1634393D01*
X3500709Y1634515D01*
X3501785Y1634637D01*
X3502866Y1634761D01*
X3503951Y1634885D01*
X3505041Y1635010D01*
X3506134Y1635137D01*
X3507231Y1635264D01*
X3508331Y1635392D01*
X3509434Y1635521D01*
X3510540Y1635650D01*
X3511649Y1635781D01*
X3512760Y1635912D01*
X3513872Y1636043D01*
X3514987Y1636176D01*
X3516102Y1636309D01*
X3517219Y1636443D01*
X3518337Y1636577D01*
X3519455Y1636711D01*
X3520574Y1636847D01*
X3521692Y1636982D01*
X3522811Y1637119D01*
X3523929Y1637255D01*
X3525046Y1637392D01*
X3526162Y1637529D01*
X3527277Y1637667D01*
X3528390Y1637804D01*
X3529501Y1637943D01*
X3530610Y1638081D01*
X3531717Y1638219D01*
X3532821Y1638358D01*
X3533922Y1638496D01*
X3535020Y1638635D01*
X3536115Y1638774D01*
X3537205Y1638913D01*
X3538292Y1639051D01*
X3539374Y1639190D01*
X3540452Y1639329D01*
X3541525Y1639467D01*
X3542592Y1639606D01*
X3543655Y1639744D01*
X3544711Y1639882D01*
X3545762Y1640019D01*
X3546807Y1640157D01*
X3547845Y1640294D01*
X3548876Y1640431D01*
X3549900Y1640567D01*
X3550917Y1640703D01*
X3551926Y1640839D01*
X3552928Y1640974D01*
X3553921Y1641108D01*
X3554906Y1641242D01*
X3555882Y1641376D01*
X3556850Y1641508D01*
X3557808Y1641640D01*
X3558756Y1641772D01*
X3559695Y1641903D01*
X3560624Y1642033D01*
X3561543Y1642162D01*
X3562451Y1642291D01*
X3563348Y1642418D01*
X3564234Y1642545D01*
X3565109Y1642671D01*
X3565972Y1642796D01*
X3566823Y1642920D01*
X3567662Y1643043D01*
X3568489Y1643165D01*
X3569302Y1643286D01*
X3570103Y1643406D01*
X3570890Y1643525D01*
X3571664Y1643642D01*
X3572424Y1643759D01*
X3573170Y1643874D01*
X3573902Y1643988D01*
X3574619Y1644101D01*
X3575321Y1644212D01*
X3576008Y1644322D01*
X3576679Y1644430D01*
X3577334Y1644537D01*
X3581966Y1645272D01*
X3586332Y1645910D01*
X3590333Y1646442D01*
X3593872Y1646856D01*
X3596848Y1647142D01*
X3599164Y1647290D01*
X3600720Y1647289D01*
D02*
G37*
G36*
X3560948Y1608056D02*
X3562102Y1607997D01*
X3562698Y1607887D01*
X3562809Y1607805D01*
X3562916Y1607667D01*
X3563019Y1607477D01*
X3563119Y1607237D01*
X3563213Y1606951D01*
X3563303Y1606622D01*
X3563386Y1606253D01*
X3563463Y1605847D01*
X3563533Y1605407D01*
X3563596Y1604938D01*
X3563650Y1604441D01*
X3563696Y1603920D01*
X3563733Y1603379D01*
X3563759Y1602820D01*
X3563776Y1602247D01*
X3563782Y1601662D01*
Y1595949D01*
X3532341D01*
X3531626Y1600660D01*
X3531402Y1602547D01*
X3531317Y1604200D01*
X3531375Y1605442D01*
X3531577Y1606094D01*
X3532041Y1606266D01*
X3533079Y1606452D01*
X3534612Y1606646D01*
X3536558Y1606845D01*
X3538836Y1607044D01*
X3541365Y1607237D01*
X3544065Y1607422D01*
X3546855Y1607592D01*
X3549653Y1607743D01*
X3552380Y1607871D01*
X3554953Y1607971D01*
X3557293Y1608038D01*
X3559318Y1608068D01*
X3560948Y1608056D01*
D02*
G37*
G36*
X3562312Y1593860D02*
X3563433Y1593777D01*
X3563979Y1593652D01*
X3564155Y1593468D01*
X3564294Y1593160D01*
X3564398Y1592740D01*
X3564468Y1592217D01*
X3564504Y1591603D01*
X3564508Y1590908D01*
X3564481Y1590141D01*
X3564422Y1589315D01*
X3564334Y1588438D01*
X3564218Y1587521D01*
X3564073Y1586575D01*
X3563901Y1585610D01*
X3563702Y1584636D01*
X3563479Y1583664D01*
X3563231Y1582705D01*
X3562959Y1581767D01*
X3562937Y1581703D01*
X3562909Y1581640D01*
X3562876Y1581578D01*
X3562838Y1581518D01*
X3562794Y1581459D01*
X3562745Y1581402D01*
X3562691Y1581346D01*
X3562631Y1581292D01*
X3562565Y1581239D01*
X3562493Y1581188D01*
X3562415Y1581138D01*
X3562331Y1581089D01*
X3562242Y1581042D01*
X3562146Y1580996D01*
X3562044Y1580952D01*
X3561935Y1580909D01*
X3561820Y1580868D01*
X3561698Y1580828D01*
X3561570Y1580789D01*
X3561436Y1580751D01*
X3561294Y1580715D01*
X3561146Y1580680D01*
X3560990Y1580647D01*
X3560828Y1580615D01*
X3560659Y1580584D01*
X3560482Y1580554D01*
X3560298Y1580526D01*
X3560106Y1580499D01*
X3559907Y1580473D01*
X3559701Y1580449D01*
X3559487Y1580426D01*
X3559265Y1580404D01*
X3559035Y1580383D01*
X3558798Y1580364D01*
X3558552Y1580346D01*
X3558299Y1580329D01*
X3558037Y1580313D01*
X3557767Y1580299D01*
X3557488Y1580285D01*
X3557202Y1580273D01*
X3556906Y1580262D01*
X3556602Y1580252D01*
X3556290Y1580244D01*
X3555968Y1580236D01*
X3555638Y1580230D01*
X3555299Y1580225D01*
X3554950Y1580220D01*
X3554593Y1580217D01*
X3554226Y1580216D01*
X3553850Y1580215D01*
X3553465Y1580215D01*
X3553070Y1580217D01*
X3552666Y1580219D01*
X3552252Y1580223D01*
X3551828Y1580227D01*
X3551394Y1580233D01*
X3550951Y1580240D01*
X3550497Y1580248D01*
X3550034Y1580256D01*
X3549560Y1580266D01*
X3549076Y1580277D01*
X3548582Y1580289D01*
X3548077Y1580302D01*
X3547561Y1580315D01*
X3532735Y1580732D01*
X3532303Y1586669D01*
X3531869Y1592603D01*
X3547349Y1593486D01*
X3550483Y1593648D01*
X3553451Y1593771D01*
X3556186Y1593855D01*
X3558621Y1593898D01*
X3560685Y1593899D01*
X3562312Y1593860D01*
D02*
G37*
G36*
X3517502Y1606079D02*
X3518484Y1606065D01*
X3519350Y1606035D01*
X3520108Y1605985D01*
X3520766Y1605909D01*
X3521332Y1605803D01*
X3521816Y1605663D01*
X3522225Y1605484D01*
X3522569Y1605261D01*
X3522854Y1604991D01*
X3523091Y1604668D01*
X3523287Y1604289D01*
X3523451Y1603848D01*
X3523591Y1603341D01*
X3523716Y1602763D01*
X3523834Y1602111D01*
X3524003Y1600904D01*
X3524130Y1599559D01*
X3524217Y1598102D01*
X3524266Y1596561D01*
X3524278Y1594963D01*
X3524256Y1593337D01*
X3524200Y1591710D01*
X3524113Y1590109D01*
X3523996Y1588562D01*
X3523852Y1587096D01*
X3523682Y1585740D01*
X3523488Y1584520D01*
X3523271Y1583465D01*
X3523034Y1582601D01*
X3522778Y1581957D01*
X3522505Y1581560D01*
X3522484Y1581543D01*
X3522457Y1581527D01*
X3522424Y1581511D01*
X3522385Y1581495D01*
X3522339Y1581479D01*
X3522287Y1581463D01*
X3522229Y1581447D01*
X3522164Y1581430D01*
X3522093Y1581414D01*
X3522016Y1581398D01*
X3521933Y1581382D01*
X3521844Y1581365D01*
X3521749Y1581349D01*
X3521648Y1581332D01*
X3521542Y1581316D01*
X3521429Y1581300D01*
X3521310Y1581283D01*
X3521186Y1581267D01*
X3521056Y1581250D01*
X3520920Y1581234D01*
X3520778Y1581217D01*
X3520631Y1581201D01*
X3520478Y1581185D01*
X3520320Y1581168D01*
X3520156Y1581152D01*
X3519987Y1581135D01*
X3519812Y1581119D01*
X3519632Y1581102D01*
X3519446Y1581086D01*
X3519256Y1581070D01*
X3519060Y1581053D01*
X3518858Y1581037D01*
X3518652Y1581020D01*
X3518440Y1581004D01*
X3518224Y1580988D01*
X3518002Y1580971D01*
X3517775Y1580955D01*
X3517544Y1580939D01*
X3517307Y1580922D01*
X3517065Y1580906D01*
X3516819Y1580890D01*
X3516568Y1580874D01*
X3516312Y1580858D01*
X3516051Y1580842D01*
X3515785Y1580826D01*
X3515515Y1580810D01*
X3515241Y1580794D01*
X3514962Y1580778D01*
X3514678Y1580762D01*
X3514390Y1580746D01*
X3514097Y1580730D01*
X3513800Y1580714D01*
X3513498Y1580699D01*
X3513193Y1580683D01*
X3512883Y1580667D01*
X3512568Y1580652D01*
X3512250Y1580636D01*
X3511927Y1580621D01*
X3511601Y1580606D01*
X3511270Y1580590D01*
X3510935Y1580575D01*
X3510596Y1580560D01*
X3510253Y1580545D01*
X3509907Y1580530D01*
X3509556Y1580515D01*
X3509202Y1580500D01*
X3508844Y1580485D01*
X3508482Y1580470D01*
X3508116Y1580456D01*
X3507747Y1580441D01*
X3507374Y1580427D01*
X3506998Y1580412D01*
X3506618Y1580398D01*
X3506234Y1580384D01*
X3505847Y1580370D01*
X3505457Y1580356D01*
X3505063Y1580342D01*
X3504666Y1580328D01*
X3504266Y1580314D01*
X3503862Y1580301D01*
X3503455Y1580287D01*
X3503045Y1580274D01*
X3502632Y1580260D01*
X3502216Y1580247D01*
X3501797Y1580234D01*
X3501375Y1580221D01*
X3500950Y1580208D01*
X3500521Y1580195D01*
X3500090Y1580182D01*
X3499657Y1580170D01*
X3499220Y1580158D01*
X3498780Y1580145D01*
X3498338Y1580133D01*
X3497894Y1580121D01*
X3497446Y1580109D01*
X3496996Y1580097D01*
X3496544Y1580085D01*
X3496089Y1580074D01*
X3495631Y1580062D01*
X3495171Y1580051D01*
X3494709Y1580040D01*
X3494244Y1580029D01*
X3493777Y1580018D01*
X3493308Y1580007D01*
X3492836Y1579997D01*
X3492363Y1579986D01*
X3491887Y1579976D01*
X3491409Y1579966D01*
X3490929Y1579956D01*
X3490447Y1579946D01*
X3489963Y1579936D01*
X3489477Y1579927D01*
X3488990Y1579917D01*
X3488500Y1579908D01*
X3488008Y1579899D01*
X3487515Y1579890D01*
X3487020Y1579881D01*
X3486524Y1579873D01*
X3486025Y1579864D01*
X3485525Y1579856D01*
X3485024Y1579848D01*
X3484521Y1579840D01*
X3484017Y1579832D01*
X3483511Y1579825D01*
X3483003Y1579818D01*
X3482495Y1579810D01*
X3481985Y1579803D01*
X3481474Y1579796D01*
X3441764Y1579284D01*
X3441329Y1588571D01*
X3441285Y1589551D01*
X3441251Y1590475D01*
X3441227Y1591344D01*
X3441214Y1592161D01*
X3441215Y1592927D01*
X3441230Y1593643D01*
X3441261Y1594311D01*
X3441309Y1594934D01*
X3441376Y1595511D01*
X3441463Y1596046D01*
X3441572Y1596539D01*
X3441703Y1596993D01*
X3441859Y1597409D01*
X3442040Y1597789D01*
X3442248Y1598134D01*
X3442485Y1598445D01*
X3442752Y1598726D01*
X3443050Y1598976D01*
X3443380Y1599199D01*
X3443745Y1599395D01*
X3444145Y1599566D01*
X3444582Y1599714D01*
X3445057Y1599840D01*
X3445572Y1599946D01*
X3446127Y1600034D01*
X3446726Y1600106D01*
X3447367Y1600162D01*
X3448055Y1600205D01*
X3448789Y1600237D01*
X3449570Y1600258D01*
X3450401Y1600271D01*
X3451284Y1600276D01*
X3451462Y1600278D01*
X3451657Y1600281D01*
X3451867Y1600286D01*
X3452093Y1600293D01*
X3452334Y1600302D01*
X3452589Y1600313D01*
X3452859Y1600325D01*
X3453143Y1600339D01*
X3453441Y1600355D01*
X3453753Y1600372D01*
X3454078Y1600392D01*
X3454417Y1600412D01*
X3454768Y1600435D01*
X3455133Y1600459D01*
X3455509Y1600485D01*
X3455898Y1600512D01*
X3456299Y1600540D01*
X3456711Y1600571D01*
X3457135Y1600602D01*
X3457570Y1600635D01*
X3458015Y1600670D01*
X3458472Y1600706D01*
X3458938Y1600743D01*
X3459415Y1600782D01*
X3459902Y1600822D01*
X3460398Y1600863D01*
X3460903Y1600906D01*
X3461418Y1600950D01*
X3461941Y1600995D01*
X3462473Y1601042D01*
X3463013Y1601089D01*
X3463561Y1601138D01*
X3464117Y1601188D01*
X3464681Y1601239D01*
X3465251Y1601291D01*
X3465829Y1601345D01*
X3466413Y1601399D01*
X3467004Y1601454D01*
X3467601Y1601511D01*
X3468204Y1601568D01*
X3468812Y1601627D01*
X3469426Y1601686D01*
X3470045Y1601746D01*
X3470669Y1601807D01*
X3471297Y1601869D01*
X3471930Y1601932D01*
X3472567Y1601996D01*
X3473208Y1602060D01*
X3473852Y1602126D01*
X3474500Y1602192D01*
X3475151Y1602258D01*
X3475805Y1602326D01*
X3476461Y1602394D01*
X3477119Y1602463D01*
X3477780Y1602532D01*
X3478442Y1602602D01*
X3479106Y1602673D01*
X3479770Y1602744D01*
X3480436Y1602816D01*
X3481103Y1602888D01*
X3481770Y1602961D01*
X3482437Y1603035D01*
X3483105Y1603108D01*
X3483771Y1603182D01*
X3486441Y1603477D01*
X3489104Y1603763D01*
X3491745Y1604039D01*
X3494346Y1604304D01*
X3496891Y1604557D01*
X3499363Y1604796D01*
X3501745Y1605019D01*
X3504022Y1605225D01*
X3506175Y1605412D01*
X3508188Y1605580D01*
X3510044Y1605726D01*
X3511728Y1605849D01*
X3513221Y1605947D01*
X3514508Y1606019D01*
X3515571Y1606064D01*
X3516394Y1606081D01*
X3517502Y1606079D01*
D02*
G37*
G36*
X3612896Y1572226D02*
X3612969Y1572048D01*
X3613055Y1571836D01*
X3613155Y1571590D01*
X3613268Y1571310D01*
X3613393Y1570999D01*
X3613531Y1570658D01*
X3613680Y1570286D01*
X3613841Y1569887D01*
X3614012Y1569460D01*
X3614194Y1569007D01*
X3614386Y1568529D01*
X3614588Y1568027D01*
X3614798Y1567502D01*
X3615017Y1566956D01*
X3615244Y1566389D01*
X3615479Y1565802D01*
X3615720Y1565198D01*
X3615969Y1564576D01*
X3616224Y1563938D01*
X3616485Y1563285D01*
X3616751Y1562619D01*
X3617023Y1561940D01*
X3617299Y1561249D01*
X3617579Y1560548D01*
X3617862Y1559837D01*
X3618149Y1559119D01*
X3618439Y1558393D01*
X3618731Y1557662D01*
X3619024Y1556925D01*
X3619319Y1556185D01*
X3619615Y1555443D01*
X3619912Y1554698D01*
X3621052Y1551775D01*
X3622089Y1549002D01*
X3623001Y1546445D01*
X3623767Y1544166D01*
X3624366Y1542230D01*
X3624779Y1540700D01*
X3624983Y1539642D01*
X3624959Y1539118D01*
X3624902Y1539060D01*
X3624804Y1539006D01*
X3624666Y1538955D01*
X3624489Y1538907D01*
X3624273Y1538861D01*
X3624022Y1538820D01*
X3623734Y1538781D01*
X3623412Y1538745D01*
X3623056Y1538713D01*
X3622668Y1538684D01*
X3622248Y1538658D01*
X3621798Y1538635D01*
X3621319Y1538615D01*
X3620811Y1538599D01*
X3620277Y1538586D01*
X3619716Y1538576D01*
X3619131Y1538570D01*
X3618522Y1538566D01*
X3617890Y1538567D01*
X3617237Y1538570D01*
X3616562Y1538577D01*
X3615869Y1538587D01*
X3615157Y1538601D01*
X3614427Y1538618D01*
X3613682Y1538638D01*
X3612921Y1538662D01*
X3612146Y1538689D01*
X3611358Y1538720D01*
X3610559Y1538755D01*
X3609748Y1538792D01*
X3608928Y1538834D01*
X3608099Y1538879D01*
X3607711Y1538899D01*
X3607314Y1538919D01*
X3606908Y1538938D01*
X3606492Y1538956D01*
X3606068Y1538972D01*
X3605633Y1538988D01*
X3605190Y1539002D01*
X3604738Y1539016D01*
X3604277Y1539028D01*
X3603807Y1539039D01*
X3603329Y1539049D01*
X3602842Y1539059D01*
X3602347Y1539067D01*
X3601844Y1539074D01*
X3601332Y1539080D01*
X3600813Y1539085D01*
X3600286Y1539089D01*
X3599751Y1539092D01*
X3599208Y1539094D01*
X3598657Y1539095D01*
X3598100Y1539096D01*
X3597535Y1539095D01*
X3596963Y1539093D01*
X3596383Y1539090D01*
X3595797Y1539086D01*
X3595204Y1539082D01*
X3594604Y1539076D01*
X3593997Y1539069D01*
X3593385Y1539062D01*
X3592765Y1539053D01*
X3592140Y1539044D01*
X3591508Y1539034D01*
X3590870Y1539022D01*
X3590227Y1539010D01*
X3589577Y1538997D01*
X3588922Y1538983D01*
X3588261Y1538968D01*
X3587595Y1538952D01*
X3586924Y1538936D01*
X3586247Y1538918D01*
X3585565Y1538899D01*
X3584878Y1538880D01*
X3584187Y1538860D01*
X3583490Y1538839D01*
X3582789Y1538817D01*
X3582084Y1538794D01*
X3581374Y1538771D01*
X3580659Y1538747D01*
X3579941Y1538721D01*
X3579218Y1538695D01*
X3578492Y1538668D01*
X3577762Y1538641D01*
X3577028Y1538612D01*
X3576290Y1538583D01*
X3575549Y1538553D01*
X3574805Y1538522D01*
X3574057Y1538491D01*
X3573307Y1538458D01*
X3572553Y1538425D01*
X3571796Y1538391D01*
X3571037Y1538356D01*
X3570275Y1538321D01*
X3569510Y1538285D01*
X3568743Y1538248D01*
X3567974Y1538210D01*
X3567202Y1538171D01*
X3566429Y1538132D01*
X3565653Y1538092D01*
X3564876Y1538052D01*
X3564097Y1538011D01*
X3563316Y1537969D01*
X3562534Y1537926D01*
X3561750Y1537882D01*
X3560965Y1537838D01*
X3560179Y1537794D01*
X3559392Y1537748D01*
X3558604Y1537702D01*
X3557815Y1537655D01*
X3557026Y1537608D01*
X3556236Y1537560D01*
X3555445Y1537511D01*
X3554654Y1537462D01*
X3553863Y1537412D01*
X3553072Y1537361D01*
X3552281Y1537310D01*
X3551490Y1537258D01*
X3550699Y1537205D01*
X3549909Y1537152D01*
X3549119Y1537098D01*
X3548330Y1537044D01*
X3547541Y1536989D01*
X3546753Y1536934D01*
X3545966Y1536878D01*
X3545181Y1536821D01*
X3544396Y1536764D01*
X3543613Y1536706D01*
X3542831Y1536648D01*
X3542050Y1536589D01*
X3541272Y1536529D01*
X3540495Y1536469D01*
X3539720Y1536409D01*
X3538946Y1536348D01*
X3538175Y1536286D01*
X3537407Y1536224D01*
X3536640Y1536162D01*
X3535876Y1536099D01*
X3535115Y1536035D01*
X3534356Y1535971D01*
X3533600Y1535906D01*
X3532847Y1535841D01*
X3532097Y1535776D01*
X3531350Y1535709D01*
X3530607Y1535643D01*
X3529867Y1535576D01*
X3529130Y1535509D01*
X3528397Y1535441D01*
X3527668Y1535372D01*
X3526942Y1535304D01*
X3526220Y1535235D01*
X3525503Y1535165D01*
X3524790Y1535095D01*
X3524081Y1535025D01*
X3523376Y1534954D01*
X3522677Y1534882D01*
X3521981Y1534811D01*
X3521291Y1534739D01*
X3520605Y1534666D01*
X3519925Y1534593D01*
X3504229Y1532907D01*
X3503760Y1518412D01*
X3503705Y1517001D01*
X3503633Y1515581D01*
X3503543Y1514155D01*
X3503436Y1512722D01*
X3503312Y1511285D01*
X3503172Y1509843D01*
X3503015Y1508398D01*
X3502843Y1506950D01*
X3502654Y1505501D01*
X3502451Y1504051D01*
X3502232Y1502600D01*
X3501999Y1501151D01*
X3501752Y1499703D01*
X3501490Y1498258D01*
X3501215Y1496816D01*
X3500926Y1495378D01*
X3500624Y1493946D01*
X3500310Y1492519D01*
X3499983Y1491099D01*
X3499644Y1489687D01*
X3499293Y1488283D01*
X3498930Y1486888D01*
X3498557Y1485504D01*
X3498172Y1484130D01*
X3497777Y1482769D01*
X3497372Y1481420D01*
X3496957Y1480085D01*
X3496532Y1478764D01*
X3496098Y1477459D01*
X3495655Y1476170D01*
X3495203Y1474897D01*
X3494743Y1473643D01*
X3494275Y1472407D01*
X3493799Y1471190D01*
X3493316Y1469994D01*
X3492826Y1468820D01*
X3492329Y1467667D01*
X3491825Y1466537D01*
X3491316Y1465431D01*
X3490800Y1464349D01*
X3490280Y1463293D01*
X3489753Y1462264D01*
X3489223Y1461261D01*
X3488687Y1460287D01*
X3488148Y1459341D01*
X3487604Y1458425D01*
X3487057Y1457540D01*
X3486507Y1456686D01*
X3485953Y1455864D01*
X3485397Y1455075D01*
X3484839Y1454321D01*
X3484279Y1453601D01*
X3483717Y1452917D01*
X3483153Y1452269D01*
X3482589Y1451659D01*
X3482024Y1451086D01*
X3481459Y1450553D01*
X3480893Y1450060D01*
X3480327Y1449608D01*
X3479762Y1449197D01*
X3479198Y1448828D01*
X3478635Y1448503D01*
X3478074Y1448222D01*
X3477515Y1447986D01*
X3477172Y1447864D01*
X3476822Y1447755D01*
X3476466Y1447660D01*
X3476103Y1447579D01*
X3475734Y1447511D01*
X3475359Y1447456D01*
X3474979Y1447414D01*
X3474593Y1447386D01*
X3474202Y1447370D01*
X3473805Y1447368D01*
X3473404Y1447378D01*
X3472998Y1447401D01*
X3472588Y1447436D01*
X3472173Y1447483D01*
X3471755Y1447543D01*
X3471332Y1447615D01*
X3470906Y1447699D01*
X3470477Y1447795D01*
X3470045Y1447902D01*
X3469610Y1448022D01*
X3469172Y1448152D01*
X3468731Y1448294D01*
X3468288Y1448447D01*
X3467844Y1448612D01*
X3467397Y1448787D01*
X3466949Y1448974D01*
X3466499Y1449171D01*
X3466048Y1449379D01*
X3465596Y1449597D01*
X3465144Y1449826D01*
X3464691Y1450065D01*
X3464237Y1450314D01*
X3463784Y1450574D01*
X3463330Y1450843D01*
X3462877Y1451122D01*
X3462424Y1451411D01*
X3461972Y1451709D01*
X3461522Y1452017D01*
X3461072Y1452334D01*
X3460624Y1452660D01*
X3460177Y1452995D01*
X3459732Y1453340D01*
X3459289Y1453693D01*
X3458849Y1454055D01*
X3458411Y1454425D01*
X3457975Y1454804D01*
X3457543Y1455191D01*
X3457114Y1455587D01*
X3456688Y1455991D01*
X3456265Y1456402D01*
X3455847Y1456822D01*
X3455432Y1457249D01*
X3455022Y1457684D01*
X3454616Y1458126D01*
X3454214Y1458576D01*
X3453818Y1459033D01*
X3453426Y1459497D01*
X3453040Y1459969D01*
X3452660Y1460447D01*
X3452285Y1460932D01*
X3451916Y1461423D01*
X3451553Y1461921D01*
X3451196Y1462426D01*
X3450847Y1462937D01*
X3450552Y1463376D01*
X3450260Y1463821D01*
X3449969Y1464270D01*
X3449679Y1464724D01*
X3449391Y1465182D01*
X3449104Y1465646D01*
X3448819Y1466113D01*
X3448535Y1466586D01*
X3448253Y1467062D01*
X3447972Y1467544D01*
X3447692Y1468029D01*
X3447415Y1468519D01*
X3447138Y1469013D01*
X3446864Y1469512D01*
X3446591Y1470014D01*
X3446319Y1470521D01*
X3446050Y1471031D01*
X3445781Y1471546D01*
X3445515Y1472064D01*
X3445250Y1472587D01*
X3444987Y1473113D01*
X3444725Y1473643D01*
X3444465Y1474177D01*
X3444207Y1474715D01*
X3443951Y1475256D01*
X3443696Y1475801D01*
X3443443Y1476349D01*
X3443192Y1476901D01*
X3442943Y1477456D01*
X3442695Y1478014D01*
X3442450Y1478576D01*
X3442206Y1479141D01*
X3441964Y1479710D01*
X3441724Y1480281D01*
X3441485Y1480856D01*
X3441249Y1481433D01*
X3441014Y1482014D01*
X3440782Y1482598D01*
X3440551Y1483184D01*
X3440322Y1483774D01*
X3440095Y1484366D01*
X3439871Y1484961D01*
X3439648Y1485558D01*
X3439427Y1486159D01*
X3439208Y1486761D01*
X3438992Y1487367D01*
X3438777Y1487975D01*
X3438564Y1488585D01*
X3438354Y1489198D01*
X3438145Y1489813D01*
X3437939Y1490430D01*
X3437735Y1491050D01*
X3437532Y1491671D01*
X3437332Y1492295D01*
X3437135Y1492921D01*
X3436939Y1493549D01*
X3436745Y1494179D01*
X3436554Y1494811D01*
X3436365Y1495444D01*
X3436178Y1496080D01*
X3435994Y1496717D01*
X3435811Y1497356D01*
X3435631Y1497996D01*
X3435454Y1498639D01*
X3435278Y1499282D01*
X3435105Y1499928D01*
X3434934Y1500574D01*
X3434766Y1501222D01*
X3434599Y1501872D01*
X3434436Y1502522D01*
X3434274Y1503174D01*
X3434115Y1503827D01*
X3433959Y1504482D01*
X3433805Y1505137D01*
X3433653Y1505793D01*
X3433504Y1506451D01*
X3433357Y1507109D01*
X3433213Y1507768D01*
X3433071Y1508428D01*
X3432932Y1509089D01*
X3432795Y1509750D01*
X3432661Y1510412D01*
X3432530Y1511075D01*
X3432401Y1511738D01*
X3432274Y1512402D01*
X3432151Y1513066D01*
X3432029Y1513731D01*
X3431911Y1514396D01*
X3431795Y1515061D01*
X3431682Y1515726D01*
X3431571Y1516392D01*
X3431463Y1517058D01*
X3431358Y1517724D01*
X3431255Y1518390D01*
X3431156Y1519056D01*
X3431059Y1519722D01*
X3430964Y1520388D01*
X3430873Y1521053D01*
X3430784Y1521719D01*
X3430698Y1522384D01*
X3430615Y1523049D01*
X3430535Y1523713D01*
X3430458Y1524377D01*
X3430383Y1525041D01*
X3430311Y1525704D01*
X3430243Y1526366D01*
X3430177Y1527028D01*
X3430114Y1527689D01*
X3430054Y1528349D01*
X3429997Y1529009D01*
X3429943Y1529668D01*
X3429892Y1530325D01*
X3429843Y1530982D01*
X3429798Y1531638D01*
X3429756Y1532293D01*
X3429717Y1532947D01*
X3429681Y1533599D01*
X3429648Y1534250D01*
X3429618Y1534900D01*
X3429591Y1535549D01*
X3429568Y1536197D01*
X3429547Y1536842D01*
X3429529Y1537487D01*
X3429515Y1538130D01*
X3429504Y1538771D01*
X3429496Y1539411D01*
X3429491Y1540049D01*
X3429490Y1540686D01*
Y1550812D01*
X3437072Y1551590D01*
X3437474Y1551631D01*
X3437900Y1551673D01*
X3438347Y1551717D01*
X3438816Y1551763D01*
X3439303Y1551810D01*
X3439809Y1551858D01*
X3440331Y1551907D01*
X3440870Y1551957D01*
X3441423Y1552008D01*
X3441989Y1552060D01*
X3442568Y1552112D01*
X3443158Y1552165D01*
X3443758Y1552219D01*
X3444367Y1552272D01*
X3444984Y1552327D01*
X3445606Y1552381D01*
X3446234Y1552435D01*
X3446867Y1552490D01*
X3447501Y1552544D01*
X3448138Y1552598D01*
X3448775Y1552651D01*
X3449412Y1552705D01*
X3450047Y1552757D01*
X3450678Y1552809D01*
X3451306Y1552860D01*
X3451928Y1552911D01*
X3452543Y1552960D01*
X3453151Y1553009D01*
X3453750Y1553056D01*
X3454339Y1553102D01*
X3454916Y1553146D01*
X3455481Y1553189D01*
X3456286Y1553251D01*
X3457107Y1553316D01*
X3457943Y1553383D01*
X3458794Y1553453D01*
X3459660Y1553526D01*
X3460540Y1553602D01*
X3461434Y1553680D01*
X3462343Y1553761D01*
X3463265Y1553844D01*
X3464201Y1553930D01*
X3465151Y1554019D01*
X3466113Y1554110D01*
X3467088Y1554203D01*
X3468075Y1554299D01*
X3469074Y1554397D01*
X3470086Y1554497D01*
X3471109Y1554600D01*
X3472143Y1554705D01*
X3473189Y1554812D01*
X3474245Y1554922D01*
X3475312Y1555033D01*
X3476390Y1555147D01*
X3477477Y1555263D01*
X3478575Y1555381D01*
X3479681Y1555501D01*
X3480797Y1555622D01*
X3481923Y1555746D01*
X3483056Y1555872D01*
X3484199Y1555999D01*
X3485349Y1556129D01*
X3486508Y1556260D01*
X3487674Y1556393D01*
X3488848Y1556528D01*
X3490028Y1556664D01*
X3491216Y1556802D01*
X3492410Y1556942D01*
X3493611Y1557083D01*
X3494818Y1557226D01*
X3496031Y1557370D01*
X3497249Y1557516D01*
X3498472Y1557663D01*
X3499701Y1557812D01*
X3500935Y1557961D01*
X3502173Y1558113D01*
X3503415Y1558265D01*
X3504661Y1558419D01*
X3505911Y1558574D01*
X3507164Y1558731D01*
X3508421Y1558888D01*
X3509680Y1559047D01*
X3510943Y1559207D01*
X3512207Y1559367D01*
X3513474Y1559529D01*
X3514743Y1559692D01*
X3516013Y1559856D01*
X3517285Y1560020D01*
X3518557Y1560186D01*
X3519831Y1560352D01*
X3521105Y1560519D01*
X3522380Y1560687D01*
X3523654Y1560856D01*
X3524928Y1561025D01*
X3526202Y1561195D01*
X3527475Y1561366D01*
X3528747Y1561537D01*
X3530018Y1561709D01*
X3531287Y1561881D01*
X3532554Y1562054D01*
X3533819Y1562227D01*
X3535082Y1562401D01*
X3536343Y1562575D01*
X3537600Y1562749D01*
X3538854Y1562924D01*
X3540105Y1563099D01*
X3541352Y1563274D01*
X3542596Y1563449D01*
X3543835Y1563625D01*
X3545070Y1563801D01*
X3546300Y1563977D01*
X3547525Y1564152D01*
X3548744Y1564328D01*
X3549959Y1564504D01*
X3551167Y1564680D01*
X3552369Y1564856D01*
X3553566Y1565032D01*
X3554755Y1565207D01*
X3555938Y1565382D01*
X3557113Y1565557D01*
X3558282Y1565732D01*
X3559442Y1565907D01*
X3560595Y1566081D01*
X3561740Y1566255D01*
X3562876Y1566428D01*
X3564003Y1566601D01*
X3565122Y1566774D01*
X3566231Y1566946D01*
X3567331Y1567117D01*
X3568421Y1567288D01*
X3569501Y1567458D01*
X3570571Y1567628D01*
X3571631Y1567797D01*
X3572679Y1567965D01*
X3573717Y1568133D01*
X3574743Y1568299D01*
X3575758Y1568465D01*
X3576760Y1568630D01*
X3577751Y1568794D01*
X3578729Y1568957D01*
X3579695Y1569120D01*
X3580648Y1569281D01*
X3581587Y1569441D01*
X3582514Y1569600D01*
X3583426Y1569758D01*
X3584324Y1569915D01*
X3585209Y1570071D01*
X3586078Y1570225D01*
X3586934Y1570378D01*
X3587773Y1570530D01*
X3588598Y1570681D01*
X3589407Y1570830D01*
X3590201Y1570978D01*
X3590978Y1571124D01*
X3591739Y1571269D01*
X3592483Y1571412D01*
X3593211Y1571554D01*
X3593921Y1571695D01*
X3594614Y1571833D01*
X3595289Y1571970D01*
X3611637Y1575314D01*
X3612896Y1572226D01*
D02*
G37*
G36*
X3563005Y1457762D02*
X3563262Y1457641D01*
X3563505Y1457484D01*
X3563733Y1457291D01*
X3563946Y1457062D01*
X3564144Y1456799D01*
X3564327Y1456501D01*
X3564493Y1456171D01*
X3564643Y1455809D01*
X3564777Y1455415D01*
X3564894Y1454991D01*
X3564994Y1454538D01*
X3565076Y1454055D01*
X3565140Y1453545D01*
X3565187Y1453007D01*
X3565215Y1452444D01*
X3565224Y1451854D01*
X3565218Y1451044D01*
X3565197Y1450321D01*
X3565155Y1449680D01*
X3565088Y1449115D01*
X3564991Y1448619D01*
X3564858Y1448186D01*
X3564686Y1447810D01*
X3564469Y1447486D01*
X3564202Y1447206D01*
X3563881Y1446965D01*
X3563500Y1446756D01*
X3563055Y1446575D01*
X3562540Y1446413D01*
X3561951Y1446266D01*
X3561283Y1446127D01*
X3560532Y1445991D01*
X3555522Y1445164D01*
X3550829Y1444470D01*
X3546544Y1443920D01*
X3542760Y1443520D01*
X3539571Y1443280D01*
X3537069Y1443207D01*
X3535346Y1443311D01*
X3534497Y1443600D01*
X3534258Y1443917D01*
X3534024Y1444376D01*
X3533800Y1444955D01*
X3533592Y1445633D01*
X3533406Y1446388D01*
X3533247Y1447199D01*
X3533123Y1448043D01*
X3533039Y1448900D01*
X3533026Y1449090D01*
X3533013Y1449274D01*
X3533001Y1449453D01*
X3532990Y1449626D01*
X3532982Y1449793D01*
X3532975Y1449955D01*
X3532971Y1450113D01*
X3532970Y1450265D01*
X3532971Y1450413D01*
X3532976Y1450556D01*
X3532985Y1450695D01*
X3532997Y1450829D01*
X3533014Y1450959D01*
X3533036Y1451086D01*
X3533062Y1451208D01*
X3533093Y1451327D01*
X3533130Y1451443D01*
X3533173Y1451555D01*
X3533222Y1451664D01*
X3533277Y1451770D01*
X3533339Y1451873D01*
X3533408Y1451974D01*
X3533484Y1452072D01*
X3533568Y1452167D01*
X3533660Y1452260D01*
X3533761Y1452352D01*
X3533870Y1452441D01*
X3533987Y1452528D01*
X3534114Y1452614D01*
X3534251Y1452699D01*
X3534397Y1452782D01*
X3534553Y1452864D01*
X3534720Y1452946D01*
X3534898Y1453026D01*
X3535087Y1453105D01*
X3535287Y1453185D01*
X3535499Y1453263D01*
X3535722Y1453342D01*
X3535958Y1453421D01*
X3536207Y1453499D01*
X3536468Y1453578D01*
X3536743Y1453658D01*
X3537031Y1453737D01*
X3537334Y1453818D01*
X3537650Y1453900D01*
X3537981Y1453983D01*
X3538326Y1454066D01*
X3538687Y1454152D01*
X3539063Y1454238D01*
X3539454Y1454327D01*
X3539862Y1454417D01*
X3540286Y1454509D01*
X3540727Y1454604D01*
X3541184Y1454700D01*
X3541659Y1454800D01*
X3542151Y1454901D01*
X3542662Y1455006D01*
X3543190Y1455113D01*
X3543737Y1455224D01*
X3544303Y1455338D01*
X3544887Y1455455D01*
X3545492Y1455576D01*
X3546116Y1455700D01*
X3546760Y1455829D01*
X3549622Y1456371D01*
X3552380Y1456844D01*
X3554968Y1457238D01*
X3557317Y1457547D01*
X3559362Y1457761D01*
X3561036Y1457874D01*
X3562272Y1457877D01*
X3563005Y1457762D01*
D02*
G37*
G36*
X3566669Y1437607D02*
Y1431023D01*
X3556200Y1430091D01*
X3555105Y1429992D01*
X3553986Y1429887D01*
X3552851Y1429779D01*
X3551707Y1429667D01*
X3550564Y1429552D01*
X3549429Y1429436D01*
X3548310Y1429318D01*
X3547215Y1429201D01*
X3546154Y1429084D01*
X3545132Y1428970D01*
X3544160Y1428858D01*
X3543245Y1428749D01*
X3542395Y1428645D01*
X3541618Y1428546D01*
X3540922Y1428453D01*
X3540316Y1428368D01*
X3534901Y1427575D01*
Y1434040D01*
X3534904Y1435159D01*
X3534916Y1436143D01*
X3534945Y1437001D01*
X3535000Y1437744D01*
X3535086Y1438382D01*
X3535213Y1438925D01*
X3535386Y1439383D01*
X3535615Y1439766D01*
X3535905Y1440086D01*
X3536266Y1440350D01*
X3536704Y1440571D01*
X3537227Y1440758D01*
X3537842Y1440921D01*
X3538557Y1441070D01*
X3539379Y1441216D01*
X3540316Y1441369D01*
X3540608Y1441415D01*
X3540922Y1441462D01*
X3541259Y1441512D01*
X3541618Y1441564D01*
X3541997Y1441617D01*
X3542395Y1441671D01*
X3542811Y1441727D01*
X3543245Y1441784D01*
X3543695Y1441842D01*
X3544160Y1441901D01*
X3544640Y1441961D01*
X3545132Y1442022D01*
X3545637Y1442083D01*
X3546154Y1442145D01*
X3546680Y1442207D01*
X3547215Y1442270D01*
X3547759Y1442333D01*
X3548310Y1442396D01*
X3548867Y1442458D01*
X3549429Y1442521D01*
X3549995Y1442583D01*
X3550564Y1442645D01*
X3551135Y1442706D01*
X3551707Y1442767D01*
X3552280Y1442827D01*
X3552851Y1442886D01*
X3553420Y1442944D01*
X3553986Y1443001D01*
X3554548Y1443056D01*
X3555105Y1443111D01*
X3555656Y1443163D01*
X3556200Y1443215D01*
X3566669Y1444186D01*
Y1437607D01*
D02*
G37*
G36*
X3522030Y1451637D02*
X3522322Y1451603D01*
X3522598Y1451549D01*
X3522856Y1451474D01*
X3523099Y1451376D01*
X3523328Y1451255D01*
X3523542Y1451108D01*
X3523744Y1450935D01*
X3523934Y1450734D01*
X3524113Y1450504D01*
X3524282Y1450244D01*
X3524441Y1449952D01*
X3524593Y1449627D01*
X3524736Y1449268D01*
X3524874Y1448874D01*
X3525006Y1448442D01*
X3525134Y1447973D01*
X3525258Y1447464D01*
X3525380Y1446914D01*
X3525500Y1446322D01*
X3525619Y1445687D01*
X3525738Y1445006D01*
X3525858Y1444281D01*
X3525980Y1443507D01*
X3526105Y1442685D01*
X3526233Y1441813D01*
X3526525Y1439801D01*
X3526775Y1438018D01*
X3526983Y1436449D01*
X3527148Y1435074D01*
X3527269Y1433875D01*
X3527346Y1432835D01*
X3527376Y1431936D01*
X3527360Y1431160D01*
X3527295Y1430488D01*
X3527181Y1429904D01*
X3527017Y1429388D01*
X3526803Y1428923D01*
X3526536Y1428491D01*
X3526216Y1428073D01*
X3525842Y1427653D01*
X3525414Y1427211D01*
X3524511Y1426326D01*
X3523734Y1425602D01*
X3523164Y1425112D01*
X3522885Y1424932D01*
X3522771Y1424928D01*
X3522597Y1424916D01*
X3522363Y1424898D01*
X3522072Y1424873D01*
X3521724Y1424841D01*
X3521323Y1424804D01*
X3520869Y1424760D01*
X3520364Y1424710D01*
X3519811Y1424655D01*
X3519210Y1424594D01*
X3518563Y1424528D01*
X3517872Y1424457D01*
X3517139Y1424381D01*
X3516366Y1424301D01*
X3515553Y1424216D01*
X3514704Y1424126D01*
X3513819Y1424032D01*
X3512900Y1423935D01*
X3511950Y1423833D01*
X3510969Y1423728D01*
X3509959Y1423619D01*
X3508922Y1423508D01*
X3507860Y1423393D01*
X3506775Y1423275D01*
X3505668Y1423155D01*
X3504541Y1423032D01*
X3503395Y1422907D01*
X3502232Y1422780D01*
X3501055Y1422651D01*
X3499864Y1422521D01*
X3498662Y1422388D01*
X3497449Y1422255D01*
X3496229Y1422120D01*
X3495002Y1421984D01*
X3493770Y1421848D01*
X3492535Y1421710D01*
X3491299Y1421573D01*
X3490063Y1421435D01*
X3488829Y1421297D01*
X3487599Y1421160D01*
X3486374Y1421023D01*
X3485156Y1420886D01*
X3483948Y1420750D01*
X3482749Y1420615D01*
X3481563Y1420481D01*
X3480391Y1420348D01*
X3479235Y1420217D01*
X3478095Y1420087D01*
X3476975Y1419959D01*
X3475876Y1419834D01*
X3474799Y1419710D01*
X3473746Y1419589D01*
X3472719Y1419471D01*
X3471720Y1419355D01*
X3470750Y1419242D01*
X3469811Y1419133D01*
X3468904Y1419026D01*
X3468032Y1418924D01*
X3467196Y1418825D01*
X3466398Y1418730D01*
X3465639Y1418639D01*
X3464921Y1418552D01*
X3464247Y1418470D01*
X3463617Y1418392D01*
X3460149Y1417983D01*
X3456863Y1417632D01*
X3453836Y1417345D01*
X3451141Y1417129D01*
X3448856Y1416987D01*
X3447054Y1416926D01*
X3445813Y1416951D01*
X3445206Y1417068D01*
X3445077Y1417195D01*
X3444950Y1417413D01*
X3444828Y1417716D01*
X3444711Y1418098D01*
X3444599Y1418555D01*
X3444494Y1419082D01*
X3444396Y1419673D01*
X3444305Y1420323D01*
X3444222Y1421028D01*
X3444148Y1421782D01*
X3444084Y1422579D01*
X3444030Y1423416D01*
X3443987Y1424285D01*
X3443956Y1425184D01*
X3443936Y1426106D01*
X3443930Y1427046D01*
Y1436234D01*
X3454399Y1438526D01*
X3455561Y1438778D01*
X3456918Y1439067D01*
X3458457Y1439390D01*
X3460165Y1439746D01*
X3462027Y1440131D01*
X3464029Y1440542D01*
X3466157Y1440977D01*
X3468397Y1441433D01*
X3470736Y1441907D01*
X3473159Y1442397D01*
X3475651Y1442899D01*
X3478200Y1443410D01*
X3480791Y1443929D01*
X3483411Y1444452D01*
X3486044Y1444977D01*
X3488678Y1445500D01*
X3491297Y1446019D01*
X3493889Y1446531D01*
X3496439Y1447034D01*
X3498934Y1447524D01*
X3501358Y1447999D01*
X3503699Y1448456D01*
X3505941Y1448893D01*
X3508072Y1449305D01*
X3510077Y1449692D01*
X3511943Y1450050D01*
X3513654Y1450375D01*
X3515198Y1450666D01*
X3516559Y1450920D01*
X3517725Y1451133D01*
X3518681Y1451304D01*
X3519414Y1451428D01*
X3519854Y1451497D01*
X3520271Y1451555D01*
X3520666Y1451601D01*
X3521037Y1451633D01*
X3521388Y1451651D01*
X3521719Y1451653D01*
X3522030Y1451637D01*
D02*
G37*
G36*
X3600866Y1425551D02*
X3601430Y1425376D01*
X3601548Y1425230D01*
X3601670Y1425037D01*
X3601794Y1424800D01*
X3601919Y1424521D01*
X3602045Y1424205D01*
X3602170Y1423854D01*
X3602293Y1423471D01*
X3602414Y1423060D01*
X3602532Y1422624D01*
X3602646Y1422166D01*
X3602754Y1421689D01*
X3602857Y1421196D01*
X3602952Y1420691D01*
X3603040Y1420177D01*
X3603120Y1419657D01*
X3603189Y1419133D01*
X3603252Y1418583D01*
X3603312Y1417982D01*
X3603368Y1417335D01*
X3603419Y1416650D01*
X3603467Y1415931D01*
X3603511Y1415185D01*
X3603550Y1414418D01*
X3603584Y1413636D01*
X3603612Y1412844D01*
X3603636Y1412049D01*
X3603654Y1411256D01*
X3603666Y1410472D01*
X3603673Y1409703D01*
X3603673Y1408954D01*
X3603667Y1408231D01*
X3603653Y1407541D01*
X3603492Y1401016D01*
X3587606Y1399918D01*
X3587398Y1399903D01*
X3587184Y1399888D01*
X3586963Y1399873D01*
X3586736Y1399857D01*
X3586502Y1399840D01*
X3586262Y1399823D01*
X3586016Y1399806D01*
X3585764Y1399788D01*
X3585506Y1399769D01*
X3585241Y1399750D01*
X3584971Y1399730D01*
X3584695Y1399710D01*
X3584413Y1399690D01*
X3584125Y1399669D01*
X3583831Y1399647D01*
X3583532Y1399625D01*
X3583227Y1399603D01*
X3582917Y1399580D01*
X3582601Y1399556D01*
X3582280Y1399533D01*
X3581953Y1399508D01*
X3581621Y1399484D01*
X3581284Y1399458D01*
X3580941Y1399433D01*
X3580593Y1399407D01*
X3580241Y1399380D01*
X3579883Y1399353D01*
X3579520Y1399326D01*
X3579153Y1399298D01*
X3578780Y1399270D01*
X3578403Y1399242D01*
X3578021Y1399213D01*
X3577635Y1399183D01*
X3577244Y1399154D01*
X3576848Y1399124D01*
X3576448Y1399093D01*
X3576043Y1399062D01*
X3575634Y1399031D01*
X3575221Y1398999D01*
X3574804Y1398967D01*
X3574382Y1398935D01*
X3573956Y1398902D01*
X3573526Y1398869D01*
X3573092Y1398836D01*
X3572655Y1398802D01*
X3572213Y1398768D01*
X3571767Y1398734D01*
X3571318Y1398699D01*
X3570865Y1398664D01*
X3570408Y1398629D01*
X3569948Y1398593D01*
X3569484Y1398557D01*
X3569017Y1398521D01*
X3568546Y1398484D01*
X3568072Y1398447D01*
X3567595Y1398410D01*
X3567114Y1398373D01*
X3566630Y1398335D01*
X3566143Y1398297D01*
X3565653Y1398259D01*
X3565160Y1398220D01*
X3564664Y1398181D01*
X3564166Y1398142D01*
X3563664Y1398103D01*
X3563160Y1398063D01*
X3562653Y1398024D01*
X3562143Y1397984D01*
X3561631Y1397943D01*
X3561116Y1397903D01*
X3560599Y1397862D01*
X3560079Y1397821D01*
X3559557Y1397780D01*
X3559032Y1397739D01*
X3558506Y1397697D01*
X3557977Y1397656D01*
X3557446Y1397613D01*
X3556913Y1397571D01*
X3556378Y1397529D01*
X3555842Y1397486D01*
X3555303Y1397444D01*
X3554762Y1397401D01*
X3554220Y1397358D01*
X3553676Y1397315D01*
X3553131Y1397271D01*
X3552583Y1397228D01*
X3552035Y1397184D01*
X3551485Y1397140D01*
X3550933Y1397097D01*
X3550380Y1397052D01*
X3549826Y1397008D01*
X3549271Y1396964D01*
X3548714Y1396919D01*
X3548156Y1396875D01*
X3547597Y1396830D01*
X3547038Y1396785D01*
X3546477Y1396741D01*
X3545916Y1396696D01*
X3545353Y1396650D01*
X3544790Y1396605D01*
X3544227Y1396560D01*
X3543662Y1396515D01*
X3543097Y1396469D01*
X3542532Y1396424D01*
X3541966Y1396378D01*
X3541400Y1396333D01*
X3540833Y1396287D01*
X3540266Y1396241D01*
X3539699Y1396196D01*
X3539132Y1396150D01*
X3538564Y1396104D01*
X3537997Y1396058D01*
X3537430Y1396012D01*
X3536863Y1395966D01*
X3536295Y1395920D01*
X3535728Y1395874D01*
X3535162Y1395828D01*
X3534595Y1395782D01*
X3534029Y1395736D01*
X3533464Y1395690D01*
X3532899Y1395644D01*
X3532334Y1395598D01*
X3531771Y1395553D01*
X3531207Y1395507D01*
X3530645Y1395461D01*
X3530083Y1395415D01*
X3529522Y1395369D01*
X3528962Y1395323D01*
X3528403Y1395277D01*
X3526167Y1395095D01*
X3523927Y1394913D01*
X3521687Y1394731D01*
X3519451Y1394549D01*
X3517222Y1394369D01*
X3515004Y1394190D01*
X3512801Y1394012D01*
X3510615Y1393836D01*
X3508451Y1393662D01*
X3506312Y1393491D01*
X3504201Y1393322D01*
X3502123Y1393156D01*
X3500081Y1392993D01*
X3498077Y1392833D01*
X3496117Y1392677D01*
X3494203Y1392526D01*
X3492340Y1392378D01*
X3490529Y1392235D01*
X3488776Y1392098D01*
X3487084Y1391965D01*
X3485456Y1391837D01*
X3483896Y1391716D01*
X3482407Y1391600D01*
X3480993Y1391491D01*
X3479658Y1391388D01*
X3478405Y1391292D01*
X3477237Y1391203D01*
X3476159Y1391121D01*
X3475174Y1391048D01*
X3474285Y1390982D01*
X3473495Y1390925D01*
X3472809Y1390876D01*
X3471535Y1390784D01*
X3470248Y1390687D01*
X3468958Y1390584D01*
X3467674Y1390477D01*
X3466403Y1390368D01*
X3465155Y1390255D01*
X3463939Y1390142D01*
X3462763Y1390027D01*
X3461635Y1389913D01*
X3460566Y1389800D01*
X3459562Y1389689D01*
X3458634Y1389581D01*
X3457789Y1389477D01*
X3457036Y1389377D01*
X3456385Y1389283D01*
X3455843Y1389196D01*
X3451149Y1388379D01*
Y1397831D01*
Y1407284D01*
X3456564Y1408120D01*
X3456712Y1408143D01*
X3456874Y1408167D01*
X3457052Y1408191D01*
X3457244Y1408218D01*
X3457450Y1408245D01*
X3457671Y1408274D01*
X3457905Y1408303D01*
X3458153Y1408334D01*
X3458415Y1408367D01*
X3458690Y1408400D01*
X3458978Y1408434D01*
X3459279Y1408470D01*
X3459592Y1408506D01*
X3459918Y1408544D01*
X3460255Y1408582D01*
X3460604Y1408622D01*
X3460965Y1408662D01*
X3461337Y1408703D01*
X3461721Y1408746D01*
X3462115Y1408789D01*
X3462519Y1408833D01*
X3462934Y1408878D01*
X3463359Y1408923D01*
X3463794Y1408969D01*
X3464239Y1409017D01*
X3464693Y1409064D01*
X3465156Y1409113D01*
X3465628Y1409162D01*
X3466109Y1409212D01*
X3466598Y1409263D01*
X3467095Y1409314D01*
X3467600Y1409365D01*
X3468113Y1409418D01*
X3468634Y1409470D01*
X3469161Y1409524D01*
X3469696Y1409578D01*
X3470237Y1409632D01*
X3470785Y1409686D01*
X3471340Y1409741D01*
X3471900Y1409797D01*
X3472466Y1409853D01*
X3473037Y1409909D01*
X3473614Y1409965D01*
X3474196Y1410022D01*
X3474783Y1410079D01*
X3475374Y1410136D01*
X3475970Y1410194D01*
X3476569Y1410251D01*
X3477173Y1410309D01*
X3477780Y1410367D01*
X3478391Y1410425D01*
X3479005Y1410483D01*
X3479622Y1410542D01*
X3480241Y1410600D01*
X3480863Y1410658D01*
X3481487Y1410716D01*
X3482113Y1410775D01*
X3482740Y1410833D01*
X3483369Y1410891D01*
X3484000Y1410949D01*
X3484631Y1411007D01*
X3485263Y1411065D01*
X3485896Y1411122D01*
X3486528Y1411179D01*
X3487229Y1411243D01*
X3487936Y1411308D01*
X3488647Y1411374D01*
X3489364Y1411440D01*
X3490087Y1411508D01*
X3490814Y1411578D01*
X3491546Y1411648D01*
X3492284Y1411719D01*
X3493026Y1411791D01*
X3493772Y1411864D01*
X3494523Y1411938D01*
X3495279Y1412013D01*
X3496039Y1412089D01*
X3496803Y1412166D01*
X3497571Y1412244D01*
X3498344Y1412323D01*
X3499120Y1412403D01*
X3499900Y1412483D01*
X3500683Y1412565D01*
X3501471Y1412647D01*
X3502261Y1412731D01*
X3503055Y1412815D01*
X3503852Y1412900D01*
X3504653Y1412985D01*
X3505456Y1413072D01*
X3506262Y1413159D01*
X3507072Y1413247D01*
X3507883Y1413336D01*
X3508698Y1413426D01*
X3509514Y1413516D01*
X3510334Y1413607D01*
X3511155Y1413699D01*
X3511978Y1413791D01*
X3512804Y1413884D01*
X3513631Y1413978D01*
X3514461Y1414072D01*
X3515292Y1414167D01*
X3516124Y1414263D01*
X3516958Y1414359D01*
X3517794Y1414456D01*
X3518631Y1414553D01*
X3519468Y1414651D01*
X3520307Y1414749D01*
X3521147Y1414848D01*
X3521988Y1414948D01*
X3522829Y1415048D01*
X3523671Y1415148D01*
X3524514Y1415249D01*
X3525357Y1415350D01*
X3526200Y1415452D01*
X3527043Y1415554D01*
X3527887Y1415657D01*
X3528730Y1415760D01*
X3529573Y1415864D01*
X3530416Y1415968D01*
X3531259Y1416072D01*
X3532101Y1416176D01*
X3532942Y1416281D01*
X3533783Y1416387D01*
X3534623Y1416492D01*
X3535462Y1416598D01*
X3536300Y1416704D01*
X3537137Y1416810D01*
X3537973Y1416917D01*
X3538807Y1417024D01*
X3539640Y1417131D01*
X3540471Y1417238D01*
X3541300Y1417346D01*
X3542128Y1417453D01*
X3542954Y1417561D01*
X3543778Y1417669D01*
X3544599Y1417777D01*
X3545419Y1417886D01*
X3546236Y1417994D01*
X3547050Y1418102D01*
X3547863Y1418211D01*
X3548672Y1418319D01*
X3549479Y1418428D01*
X3550282Y1418537D01*
X3551083Y1418645D01*
X3551881Y1418754D01*
X3552675Y1418863D01*
X3553466Y1418972D01*
X3554254Y1419080D01*
X3555038Y1419189D01*
X3555818Y1419297D01*
X3556595Y1419406D01*
X3557368Y1419514D01*
X3558136Y1419623D01*
X3558901Y1419731D01*
X3559662Y1419839D01*
X3560418Y1419947D01*
X3561169Y1420055D01*
X3561917Y1420162D01*
X3562659Y1420270D01*
X3563397Y1420377D01*
X3564130Y1420484D01*
X3564858Y1420591D01*
X3565581Y1420697D01*
X3566299Y1420804D01*
X3567011Y1420910D01*
X3567718Y1421015D01*
X3568419Y1421121D01*
X3569115Y1421226D01*
X3569805Y1421331D01*
X3570490Y1421435D01*
X3571168Y1421540D01*
X3571840Y1421643D01*
X3572506Y1421747D01*
X3573166Y1421850D01*
X3573820Y1421952D01*
X3574467Y1422054D01*
X3575107Y1422156D01*
X3575740Y1422257D01*
X3576367Y1422358D01*
X3576987Y1422459D01*
X3577600Y1422558D01*
X3578205Y1422658D01*
X3578804Y1422757D01*
X3579395Y1422855D01*
X3579978Y1422953D01*
X3580554Y1423050D01*
X3581122Y1423147D01*
X3581682Y1423243D01*
X3582235Y1423338D01*
X3582779Y1423433D01*
X3583316Y1423527D01*
X3583843Y1423620D01*
X3587172Y1424184D01*
X3590322Y1424663D01*
X3593221Y1425052D01*
X3595797Y1425342D01*
X3597978Y1425527D01*
X3599691Y1425599D01*
X3600866Y1425551D01*
D02*
G37*
G36*
X3562115Y1386432D02*
X3562642Y1386336D01*
X3562758Y1386235D01*
X3562870Y1386078D01*
X3562979Y1385869D01*
X3563084Y1385611D01*
X3563184Y1385308D01*
X3563278Y1384963D01*
X3563366Y1384579D01*
X3563447Y1384159D01*
X3563520Y1383707D01*
X3563586Y1383226D01*
X3563643Y1382720D01*
X3563691Y1382191D01*
X3563730Y1381643D01*
X3563758Y1381079D01*
X3563776Y1380503D01*
X3563782Y1379918D01*
Y1374206D01*
X3532341D01*
X3531626Y1378918D01*
X3531377Y1380779D01*
X3531225Y1382364D01*
X3531184Y1383505D01*
X3531265Y1384033D01*
X3531722Y1384201D01*
X3532772Y1384395D01*
X3534331Y1384608D01*
X3536313Y1384834D01*
X3538636Y1385068D01*
X3541215Y1385302D01*
X3543966Y1385531D01*
X3546806Y1385748D01*
X3549651Y1385948D01*
X3552416Y1386124D01*
X3555018Y1386271D01*
X3557373Y1386381D01*
X3559397Y1386448D01*
X3561005Y1386468D01*
X3562115Y1386432D01*
D02*
G37*
G36*
X3559234Y1372425D02*
X3561008Y1372317D01*
X3562331Y1372124D01*
X3563216Y1371844D01*
X3563677Y1371478D01*
X3563773Y1371291D01*
X3563860Y1371057D01*
X3563938Y1370780D01*
X3564008Y1370464D01*
X3564068Y1370110D01*
X3564118Y1369724D01*
X3564159Y1369309D01*
X3564190Y1368867D01*
X3564211Y1368402D01*
X3564222Y1367919D01*
X3564222Y1367419D01*
X3564211Y1366908D01*
X3564190Y1366387D01*
X3564157Y1365861D01*
X3564114Y1365332D01*
X3564059Y1364805D01*
X3563465Y1359715D01*
X3532014D01*
Y1365338D01*
Y1370963D01*
X3547358Y1372012D01*
X3551070Y1372241D01*
X3554278Y1372386D01*
X3556995Y1372448D01*
X3559234Y1372425D01*
D02*
G37*
G36*
X3523814Y1380555D02*
X3523986Y1379315D01*
X3524117Y1377940D01*
X3524207Y1376458D01*
X3524258Y1374897D01*
X3524273Y1373282D01*
X3524253Y1371641D01*
X3524199Y1370003D01*
X3524114Y1368393D01*
X3523999Y1366839D01*
X3523856Y1365369D01*
X3523687Y1364009D01*
X3523493Y1362787D01*
X3523276Y1361730D01*
X3523038Y1360865D01*
X3522780Y1360219D01*
X3522505Y1359821D01*
X3522484Y1359804D01*
X3522457Y1359789D01*
X3522424Y1359772D01*
X3522384Y1359756D01*
X3522338Y1359740D01*
X3522286Y1359724D01*
X3522227Y1359707D01*
X3522162Y1359691D01*
X3522091Y1359674D01*
X3522014Y1359658D01*
X3521930Y1359641D01*
X3521840Y1359624D01*
X3521744Y1359607D01*
X3521643Y1359591D01*
X3521535Y1359574D01*
X3521421Y1359557D01*
X3521302Y1359540D01*
X3521177Y1359523D01*
X3521045Y1359506D01*
X3520908Y1359489D01*
X3520766Y1359472D01*
X3520617Y1359454D01*
X3520463Y1359437D01*
X3520304Y1359420D01*
X3520139Y1359403D01*
X3519968Y1359385D01*
X3519792Y1359368D01*
X3519610Y1359351D01*
X3519423Y1359333D01*
X3519231Y1359316D01*
X3519033Y1359299D01*
X3518830Y1359281D01*
X3518622Y1359264D01*
X3518408Y1359246D01*
X3518190Y1359229D01*
X3517966Y1359211D01*
X3517738Y1359194D01*
X3517504Y1359176D01*
X3517265Y1359159D01*
X3517022Y1359141D01*
X3516773Y1359124D01*
X3516520Y1359106D01*
X3516262Y1359089D01*
X3515999Y1359071D01*
X3515731Y1359054D01*
X3515459Y1359036D01*
X3515182Y1359019D01*
X3514900Y1359002D01*
X3514614Y1358984D01*
X3514323Y1358967D01*
X3514028Y1358949D01*
X3513728Y1358932D01*
X3513424Y1358915D01*
X3513116Y1358898D01*
X3512803Y1358880D01*
X3512486Y1358863D01*
X3512165Y1358846D01*
X3511839Y1358829D01*
X3511510Y1358812D01*
X3511176Y1358794D01*
X3510838Y1358777D01*
X3510497Y1358760D01*
X3510151Y1358743D01*
X3509801Y1358726D01*
X3509447Y1358710D01*
X3509090Y1358693D01*
X3508729Y1358676D01*
X3508364Y1358659D01*
X3507995Y1358643D01*
X3507622Y1358626D01*
X3507246Y1358610D01*
X3506866Y1358593D01*
X3506483Y1358577D01*
X3506096Y1358560D01*
X3505706Y1358544D01*
X3505312Y1358528D01*
X3504915Y1358512D01*
X3504514Y1358496D01*
X3504110Y1358480D01*
X3503703Y1358464D01*
X3503293Y1358448D01*
X3502879Y1358432D01*
X3502462Y1358417D01*
X3502042Y1358401D01*
X3501619Y1358386D01*
X3501193Y1358370D01*
X3500765Y1358355D01*
X3500333Y1358340D01*
X3499898Y1358325D01*
X3499460Y1358310D01*
X3499020Y1358295D01*
X3498576Y1358280D01*
X3498130Y1358265D01*
X3497682Y1358251D01*
X3497230Y1358236D01*
X3496776Y1358222D01*
X3496319Y1358208D01*
X3495860Y1358194D01*
X3495399Y1358180D01*
X3494935Y1358166D01*
X3494468Y1358152D01*
X3493999Y1358139D01*
X3493528Y1358125D01*
X3493055Y1358112D01*
X3492579Y1358098D01*
X3492101Y1358085D01*
X3491621Y1358072D01*
X3491139Y1358059D01*
X3490654Y1358047D01*
X3490168Y1358034D01*
X3489680Y1358022D01*
X3489190Y1358009D01*
X3488697Y1357997D01*
X3488203Y1357985D01*
X3487707Y1357973D01*
X3487210Y1357961D01*
X3486710Y1357950D01*
X3486209Y1357939D01*
X3485706Y1357927D01*
X3485202Y1357916D01*
X3484696Y1357905D01*
X3484189Y1357895D01*
X3483680Y1357884D01*
X3483169Y1357873D01*
X3482657Y1357863D01*
X3482144Y1357853D01*
X3481629Y1357843D01*
X3481113Y1357833D01*
X3441041Y1357082D01*
Y1366966D01*
Y1376851D01*
X3446456Y1377703D01*
X3446604Y1377725D01*
X3446769Y1377749D01*
X3446950Y1377774D01*
X3447147Y1377801D01*
X3447359Y1377828D01*
X3447588Y1377857D01*
X3447831Y1377887D01*
X3448090Y1377918D01*
X3448363Y1377951D01*
X3448650Y1377984D01*
X3448952Y1378019D01*
X3449268Y1378054D01*
X3449598Y1378091D01*
X3449941Y1378128D01*
X3450298Y1378167D01*
X3450667Y1378206D01*
X3451049Y1378246D01*
X3451443Y1378288D01*
X3451850Y1378330D01*
X3452269Y1378373D01*
X3452699Y1378417D01*
X3453141Y1378461D01*
X3453593Y1378507D01*
X3454057Y1378553D01*
X3454532Y1378600D01*
X3455016Y1378648D01*
X3455511Y1378696D01*
X3456016Y1378745D01*
X3456530Y1378795D01*
X3457054Y1378845D01*
X3457587Y1378896D01*
X3458128Y1378947D01*
X3458679Y1378999D01*
X3459237Y1379051D01*
X3459804Y1379104D01*
X3460378Y1379158D01*
X3460960Y1379211D01*
X3461549Y1379266D01*
X3462146Y1379320D01*
X3462749Y1379375D01*
X3463358Y1379430D01*
X3463974Y1379486D01*
X3464596Y1379542D01*
X3465224Y1379598D01*
X3465857Y1379655D01*
X3466495Y1379711D01*
X3467138Y1379768D01*
X3467786Y1379825D01*
X3468439Y1379882D01*
X3469095Y1379939D01*
X3469756Y1379997D01*
X3470421Y1380054D01*
X3471088Y1380112D01*
X3471759Y1380169D01*
X3472433Y1380227D01*
X3473110Y1380284D01*
X3473789Y1380342D01*
X3474470Y1380399D01*
X3475153Y1380457D01*
X3475837Y1380514D01*
X3476523Y1380571D01*
X3477210Y1380627D01*
X3477898Y1380684D01*
X3478586Y1380741D01*
X3479967Y1380853D01*
X3481354Y1380967D01*
X3482744Y1381082D01*
X3484134Y1381197D01*
X3485524Y1381312D01*
X3486910Y1381428D01*
X3488290Y1381543D01*
X3489662Y1381659D01*
X3491023Y1381773D01*
X3492372Y1381887D01*
X3493706Y1382001D01*
X3495022Y1382113D01*
X3496319Y1382223D01*
X3497594Y1382333D01*
X3498845Y1382441D01*
X3500070Y1382546D01*
X3501266Y1382650D01*
X3502431Y1382752D01*
X3503563Y1382851D01*
X3504659Y1382948D01*
X3505717Y1383041D01*
X3506735Y1383132D01*
X3507711Y1383219D01*
X3508642Y1383303D01*
X3509526Y1383384D01*
X3510361Y1383460D01*
X3511145Y1383533D01*
X3511875Y1383601D01*
X3512548Y1383665D01*
X3513163Y1383724D01*
X3513718Y1383778D01*
X3514209Y1383828D01*
X3523122Y1384727D01*
X3523814Y1380555D01*
D02*
G37*
G36*
X4025254Y1737213D02*
X4033865D01*
Y1734800D01*
X4025254D01*
Y1724982D01*
X4022799D01*
Y1734800D01*
X4014188D01*
Y1737213D01*
X4022799D01*
Y1747030D01*
X4025254D01*
Y1737213D01*
D02*
G37*
G36*
Y1679138D02*
X4033865D01*
Y1676725D01*
X4025254D01*
Y1666908D01*
X4022799D01*
Y1676725D01*
X4014188D01*
Y1679138D01*
X4022799D01*
Y1688956D01*
X4025254D01*
Y1679138D01*
D02*
G37*
G36*
X3736219Y1965889D02*
X3736997Y1965778D01*
X3737886Y1965556D01*
X3739886Y1965111D01*
X3742219Y1964222D01*
X3743441Y1963556D01*
X3744663Y1962889D01*
X3745774Y1962000D01*
X3746996Y1961001D01*
X3748107Y1959889D01*
X3749218Y1958556D01*
X3749329Y1958445D01*
X3749440Y1958223D01*
X3749774Y1957779D01*
X3750107Y1957112D01*
X3750551Y1956223D01*
X3751107Y1955112D01*
X3751662Y1953779D01*
X3752329Y1952224D01*
X3752884Y1950446D01*
X3753551Y1948446D01*
X3754218Y1946224D01*
X3754884Y1943669D01*
X3755440Y1940780D01*
X3755995Y1937781D01*
X3756551Y1934336D01*
X3756995Y1930670D01*
X3761439D01*
X3761661D01*
X3762106D01*
X3762883Y1930781D01*
X3763883Y1930892D01*
X3764994Y1931115D01*
X3766105Y1931448D01*
X3767216Y1931892D01*
X3768216Y1932559D01*
X3768327Y1932670D01*
X3768661Y1932892D01*
X3769105Y1933448D01*
X3769549Y1934225D01*
X3769994Y1935447D01*
X3770438Y1936892D01*
X3770771Y1938669D01*
X3770883Y1939780D01*
Y1942225D01*
X3770771Y1943447D01*
X3770660Y1945002D01*
X3770327Y1946669D01*
X3769994Y1948446D01*
X3769438Y1950002D01*
X3768661Y1951224D01*
X3768550Y1951335D01*
X3768327Y1951668D01*
X3767883Y1952112D01*
X3767327Y1952557D01*
X3766772Y1952890D01*
X3766105Y1953224D01*
X3765328Y1953335D01*
X3764661Y1953224D01*
X3764439Y1953112D01*
X3763994Y1952890D01*
X3763217Y1952668D01*
X3762439Y1952557D01*
X3762217D01*
X3761550Y1952668D01*
X3760661Y1953001D01*
X3759328Y1953557D01*
X3759217D01*
X3759106Y1953779D01*
X3758773Y1954001D01*
X3758439Y1954446D01*
X3758106Y1955001D01*
X3757884Y1955779D01*
X3757662Y1956668D01*
X3757551Y1957890D01*
Y1958334D01*
X3757662Y1958778D01*
X3757773Y1959334D01*
X3758217Y1960556D01*
X3758550Y1961223D01*
X3758995Y1961778D01*
X3759106Y1961889D01*
X3759217Y1962000D01*
X3759662Y1962223D01*
X3760106Y1962445D01*
X3760661Y1962778D01*
X3761439Y1963000D01*
X3762328Y1963111D01*
X3763328Y1963223D01*
X3763550D01*
X3764106Y1963111D01*
X3764994Y1962889D01*
X3766216Y1962445D01*
X3767550Y1961667D01*
X3768216Y1961112D01*
X3768994Y1960556D01*
X3769660Y1959778D01*
X3770438Y1959001D01*
X3771216Y1958001D01*
X3771994Y1956890D01*
Y1956779D01*
X3772216Y1956556D01*
X3772327Y1956223D01*
X3772660Y1955779D01*
X3772882Y1955112D01*
X3773216Y1954334D01*
X3773660Y1953557D01*
X3773993Y1952557D01*
X3774771Y1950335D01*
X3775327Y1947668D01*
X3775771Y1944669D01*
X3775993Y1941447D01*
Y1939891D01*
X3775882Y1939003D01*
X3775771Y1938114D01*
X3775549Y1936003D01*
X3775104Y1933670D01*
X3774438Y1931226D01*
X3773438Y1928893D01*
X3772216Y1926782D01*
Y1926671D01*
X3771994Y1926560D01*
X3771549Y1926004D01*
X3770660Y1925226D01*
X3769438Y1924226D01*
X3767883Y1923338D01*
X3766105Y1922560D01*
X3763883Y1922004D01*
X3762772Y1921782D01*
X3761439D01*
X3731109D01*
X3730998D01*
X3730553D01*
X3730109D01*
X3729442D01*
X3728776Y1921671D01*
X3728220D01*
X3727776Y1921560D01*
X3727554Y1921449D01*
Y1921338D01*
X3727443Y1921116D01*
X3727331Y1920671D01*
X3727220Y1919893D01*
Y1919671D01*
X3727443Y1919005D01*
X3727887Y1918338D01*
X3728220Y1918005D01*
X3728776Y1917671D01*
X3728887D01*
X3729109Y1917560D01*
X3729553Y1917449D01*
X3730220Y1917227D01*
X3731109Y1917116D01*
X3732109Y1917005D01*
X3733553Y1916894D01*
X3735108D01*
Y1912117D01*
X3734997D01*
X3734775D01*
X3734331D01*
X3733775D01*
X3733109Y1912228D01*
X3732442D01*
X3730664Y1912450D01*
X3728887Y1912783D01*
X3726998Y1913227D01*
X3725443Y1913894D01*
X3724665Y1914339D01*
X3724110Y1914783D01*
X3723998Y1914894D01*
X3723665Y1915227D01*
X3723221Y1915894D01*
X3722665Y1916672D01*
X3722110Y1917671D01*
X3721665Y1918783D01*
X3721332Y1920116D01*
X3721221Y1921671D01*
Y1922227D01*
X3721332Y1922893D01*
X3721443Y1923782D01*
X3721887Y1925671D01*
X3722221Y1926671D01*
X3722776Y1927559D01*
X3722887Y1927670D01*
X3723110Y1927893D01*
X3723443Y1928226D01*
X3723998Y1928670D01*
X3724554Y1929115D01*
X3725332Y1929559D01*
X3726109Y1930004D01*
X3727109Y1930226D01*
X3726998Y1930337D01*
X3726554Y1930781D01*
X3725998Y1931448D01*
X3725332Y1932448D01*
X3724554Y1933559D01*
X3723776Y1934781D01*
X3722999Y1936114D01*
X3722332Y1937669D01*
X3722221Y1937892D01*
X3722110Y1938336D01*
X3721887Y1939225D01*
X3721554Y1940336D01*
X3721221Y1941780D01*
X3720999Y1943447D01*
X3720888Y1945335D01*
X3720776Y1947446D01*
Y1948224D01*
X3720888Y1948891D01*
Y1949557D01*
X3720999Y1950446D01*
X3721332Y1952446D01*
X3721776Y1954557D01*
X3722554Y1956890D01*
X3723554Y1959112D01*
X3724998Y1961112D01*
X3725220Y1961334D01*
X3725776Y1961889D01*
X3726665Y1962667D01*
X3727776Y1963556D01*
X3729220Y1964445D01*
X3730887Y1965222D01*
X3732775Y1965778D01*
X3733775Y1965889D01*
X3734775Y1966000D01*
X3734886D01*
X3735220D01*
X3735664D01*
X3736219Y1965889D01*
D02*
G37*
G36*
X3726443Y1896674D02*
X3726554Y1896007D01*
X3726665Y1895229D01*
X3726776Y1894896D01*
X3726998Y1894674D01*
X3727109Y1894563D01*
X3727443Y1894341D01*
X3727998Y1894118D01*
X3728887Y1894007D01*
X3766883D01*
X3766994D01*
X3767105D01*
X3767661Y1894118D01*
X3768438Y1894229D01*
X3769105Y1894674D01*
X3769216Y1894785D01*
X3769549Y1895118D01*
X3769772Y1895896D01*
X3769883Y1896340D01*
Y1906895D01*
X3774993D01*
Y1900784D01*
X3775104Y1899896D01*
Y1898896D01*
X3775327Y1897562D01*
X3775438Y1896229D01*
X3775660Y1894674D01*
Y1894452D01*
X3775771Y1894007D01*
X3775882Y1893229D01*
X3776104Y1892230D01*
X3776327Y1891230D01*
X3776660Y1890119D01*
X3776993Y1889008D01*
X3777326Y1888008D01*
Y1885119D01*
X3760995D01*
X3761217Y1885008D01*
X3761550Y1884897D01*
X3761995Y1884675D01*
X3763328Y1884119D01*
X3764883Y1883230D01*
X3766550Y1882120D01*
X3768438Y1880786D01*
X3770216Y1879120D01*
X3771883Y1877231D01*
Y1877120D01*
X3772105Y1877009D01*
X3772216Y1876676D01*
X3772549Y1876231D01*
X3773216Y1875120D01*
X3773993Y1873676D01*
X3774660Y1872009D01*
X3775327Y1870010D01*
X3775771Y1867899D01*
X3775993Y1865677D01*
Y1864899D01*
X3775882Y1863899D01*
X3775660Y1862788D01*
X3775438Y1861566D01*
X3774993Y1860233D01*
X3774327Y1858900D01*
X3773549Y1857789D01*
X3773438Y1857678D01*
X3773105Y1857344D01*
X3772660Y1856789D01*
X3771994Y1856233D01*
X3771216Y1855789D01*
X3770216Y1855233D01*
X3769216Y1854900D01*
X3767994Y1854789D01*
X3767883D01*
X3767550D01*
X3766994Y1854900D01*
X3766439Y1855011D01*
X3764883Y1855456D01*
X3764106Y1855789D01*
X3763439Y1856344D01*
X3763328Y1856455D01*
X3763217Y1856566D01*
X3762883Y1856900D01*
X3762661Y1857455D01*
X3762328Y1858011D01*
X3761995Y1858789D01*
X3761883Y1859677D01*
X3761772Y1860677D01*
Y1861122D01*
X3761883Y1861677D01*
X3761995Y1862344D01*
X3762217Y1863010D01*
X3762550Y1863788D01*
X3762994Y1864455D01*
X3763550Y1865121D01*
X3763661Y1865232D01*
X3763883Y1865343D01*
X3764217Y1865566D01*
X3764772Y1865788D01*
X3765439Y1866010D01*
X3766216Y1866121D01*
X3767105D01*
X3768105Y1866010D01*
X3768216D01*
X3768661D01*
X3768994Y1866121D01*
X3769438Y1866343D01*
X3769549D01*
X3769772Y1866677D01*
X3769883Y1867121D01*
X3769994Y1867565D01*
Y1868121D01*
X3769883Y1868565D01*
X3769772Y1869343D01*
X3769438Y1870232D01*
X3768883Y1871454D01*
X3768105Y1872898D01*
X3766994Y1874565D01*
X3765550Y1876342D01*
X3765328Y1876564D01*
X3764772Y1877231D01*
X3763772Y1878120D01*
X3762439Y1879342D01*
X3760661Y1880675D01*
X3758662Y1882120D01*
X3756217Y1883675D01*
X3753440Y1885119D01*
X3728998D01*
X3728887D01*
X3728776D01*
X3728220Y1885008D01*
X3727554Y1884786D01*
X3726998Y1884453D01*
X3726887Y1884341D01*
X3726776Y1883897D01*
X3726554Y1883230D01*
X3726443Y1882231D01*
Y1870898D01*
X3721332D01*
Y1907339D01*
X3726443D01*
Y1896674D01*
D02*
G37*
G36*
Y1846679D02*
X3726554Y1846012D01*
X3726776Y1845457D01*
X3726887Y1845345D01*
X3727109Y1845123D01*
X3727665Y1845012D01*
X3728442Y1844901D01*
X3768438D01*
X3768550D01*
X3768994D01*
X3769327Y1845012D01*
X3769660Y1845123D01*
X3769772D01*
X3769883Y1845345D01*
X3769994Y1845568D01*
Y1849123D01*
X3775104D01*
Y1845123D01*
X3775215Y1843679D01*
X3775438Y1842235D01*
Y1842123D01*
X3775549Y1841901D01*
X3775660Y1841457D01*
X3775771Y1841013D01*
X3776327Y1839790D01*
X3776993Y1838568D01*
Y1836013D01*
X3769327D01*
X3769772Y1835902D01*
X3770327Y1835791D01*
X3771105Y1835569D01*
X3771883Y1835235D01*
X3772660Y1834680D01*
X3773549Y1833902D01*
X3774216Y1832902D01*
X3774327Y1832791D01*
X3774549Y1832347D01*
X3774771Y1831680D01*
X3775104Y1830902D01*
X3775438Y1829902D01*
X3775771Y1828792D01*
X3775882Y1827569D01*
X3775993Y1826236D01*
Y1825458D01*
X3775882Y1824681D01*
X3775771Y1823681D01*
X3775549Y1822570D01*
X3775215Y1821348D01*
X3774771Y1820237D01*
X3774104Y1819126D01*
X3773993Y1819015D01*
X3773771Y1818681D01*
X3773327Y1818237D01*
X3772771Y1817681D01*
X3772105Y1817237D01*
X3771216Y1816793D01*
X3770327Y1816459D01*
X3769216Y1816348D01*
X3769327D01*
X3769772Y1816237D01*
X3770327Y1816015D01*
X3771105Y1815571D01*
X3771883Y1815126D01*
X3772660Y1814460D01*
X3773549Y1813571D01*
X3774216Y1812460D01*
X3774327Y1812349D01*
X3774549Y1811904D01*
X3774771Y1811238D01*
X3775104Y1810349D01*
X3775438Y1809349D01*
X3775771Y1808127D01*
X3775882Y1806905D01*
X3775993Y1805572D01*
Y1804572D01*
X3775771Y1803461D01*
X3775549Y1802239D01*
X3775104Y1800794D01*
X3774438Y1799461D01*
X3773549Y1798128D01*
X3772327Y1797128D01*
X3772216Y1797017D01*
X3771660Y1796795D01*
X3770883Y1796350D01*
X3769883Y1795906D01*
X3768550Y1795461D01*
X3766994Y1795017D01*
X3765216Y1794795D01*
X3763328Y1794684D01*
X3728442D01*
X3728220D01*
X3727776Y1794573D01*
X3727220Y1794462D01*
X3726776Y1794239D01*
Y1794128D01*
X3726665Y1793795D01*
X3726554Y1793128D01*
X3726443Y1792240D01*
Y1790129D01*
X3721332D01*
Y1808238D01*
X3726443D01*
Y1805349D01*
X3726554Y1804683D01*
X3726776Y1804127D01*
X3726887Y1804016D01*
X3727109Y1803794D01*
X3727665Y1803683D01*
X3728442Y1803572D01*
X3762883D01*
X3763106D01*
X3763661D01*
X3764439D01*
X3765328Y1803683D01*
X3766327Y1803794D01*
X3767327Y1803905D01*
X3768216Y1804127D01*
X3768772Y1804461D01*
X3768883D01*
X3768994Y1804572D01*
X3769438Y1805127D01*
X3769772Y1805905D01*
X3769994Y1806460D01*
Y1807460D01*
X3769883Y1808016D01*
X3769772Y1808682D01*
X3769438Y1809460D01*
X3769105Y1810238D01*
X3768550Y1811127D01*
X3767883Y1812015D01*
X3767772Y1812127D01*
X3767550Y1812349D01*
X3767105Y1812793D01*
X3766439Y1813237D01*
X3765661Y1813793D01*
X3764661Y1814349D01*
X3763550Y1814904D01*
X3762217Y1815348D01*
X3728442D01*
X3728220D01*
X3727776Y1815237D01*
X3727220Y1815126D01*
X3726776Y1814904D01*
Y1814793D01*
X3726665Y1814460D01*
X3726554Y1813793D01*
X3726443Y1812904D01*
Y1810793D01*
X3721332D01*
Y1828903D01*
X3726443D01*
Y1826014D01*
X3726554Y1825347D01*
X3726776Y1824792D01*
X3726887Y1824681D01*
X3727109Y1824459D01*
X3727665Y1824348D01*
X3728442Y1824236D01*
X3762883D01*
X3763106D01*
X3763550D01*
X3764217D01*
X3764994Y1824348D01*
X3766772Y1824570D01*
X3767661Y1824792D01*
X3768327Y1825014D01*
X3768438D01*
X3768550Y1825125D01*
X3769216Y1825570D01*
X3769772Y1826458D01*
X3769883Y1827014D01*
X3769994Y1827680D01*
Y1828125D01*
X3769883Y1828680D01*
X3769772Y1829347D01*
X3769438Y1830125D01*
X3769105Y1830902D01*
X3768550Y1831791D01*
X3767883Y1832680D01*
X3767772Y1832791D01*
X3767550Y1833013D01*
X3766994Y1833458D01*
X3766327Y1833902D01*
X3765550Y1834458D01*
X3764439Y1835013D01*
X3763217Y1835569D01*
X3761772Y1836013D01*
X3728442D01*
X3728220D01*
X3727776Y1835902D01*
X3727220Y1835791D01*
X3726776Y1835569D01*
Y1835457D01*
X3726665Y1835124D01*
X3726554Y1834458D01*
X3726443Y1833569D01*
Y1831458D01*
X3721332D01*
Y1849567D01*
X3726443D01*
Y1846679D01*
D02*
G37*
G36*
X3790103Y1766798D02*
X3790214D01*
X3790658Y1766687D01*
X3791325Y1766575D01*
X3792214Y1766353D01*
X3793436Y1766131D01*
X3794769Y1765909D01*
X3796325Y1765576D01*
X3798102Y1765353D01*
X3800102Y1765020D01*
X3802213Y1764687D01*
X3804435Y1764353D01*
X3806879Y1764020D01*
X3809323Y1763687D01*
X3811990Y1763354D01*
X3817434Y1762687D01*
X3811767Y1750244D01*
X3807657Y1754132D01*
X3807546D01*
X3807212Y1754243D01*
X3806657Y1754354D01*
X3805990Y1754577D01*
X3805101Y1754799D01*
X3804102Y1755021D01*
X3802879Y1755354D01*
X3801657Y1755688D01*
X3798880Y1756354D01*
X3795991Y1757132D01*
X3792992Y1757799D01*
X3790103Y1758576D01*
Y1745244D01*
X3794436Y1742133D01*
X3787103Y1733690D01*
X3783770Y1737023D01*
X3783548D01*
X3782992Y1737134D01*
X3781993Y1737356D01*
X3780659Y1737578D01*
X3778993Y1738023D01*
X3776993Y1738467D01*
X3774660Y1738912D01*
X3772216Y1739578D01*
X3769438Y1740245D01*
X3766439Y1741023D01*
X3763217Y1741911D01*
X3759773Y1742911D01*
X3756329Y1744022D01*
X3752662Y1745244D01*
X3744996Y1747911D01*
Y1747800D01*
X3744885Y1747577D01*
X3744663Y1747244D01*
X3744441Y1746689D01*
X3743774Y1745466D01*
X3742885Y1743911D01*
X3741885Y1742356D01*
X3740774Y1740800D01*
X3739552Y1739467D01*
X3738997Y1738912D01*
X3738330Y1738467D01*
X3738219Y1738356D01*
X3737775Y1738134D01*
X3737108Y1737912D01*
X3736219Y1737578D01*
X3735220Y1737356D01*
X3734108Y1737134D01*
X3732886D01*
X3731805Y1737314D01*
X3732997Y1736690D01*
X3735331Y1735579D01*
X3735442Y1735467D01*
X3735886Y1735356D01*
X3736553Y1735023D01*
X3737553Y1734690D01*
X3738775Y1734245D01*
X3740108Y1733801D01*
X3741774Y1733245D01*
X3743552Y1732579D01*
X3745441Y1732023D01*
X3747552Y1731468D01*
X3749885Y1730801D01*
X3752218Y1730246D01*
X3754773Y1729690D01*
X3757328Y1729135D01*
X3762772Y1728357D01*
X3762994D01*
X3763439Y1728246D01*
X3764328Y1728135D01*
X3765439Y1728024D01*
X3766994Y1727913D01*
X3768772Y1727690D01*
X3770883Y1727579D01*
X3773216Y1727357D01*
X3775882Y1727135D01*
X3778771Y1726913D01*
X3781993Y1726802D01*
X3785437Y1726580D01*
X3789214Y1726357D01*
X3793103Y1726246D01*
X3797324Y1726135D01*
X3801657Y1726024D01*
Y1726691D01*
X3801546Y1727802D01*
X3801435Y1729357D01*
X3801324Y1731024D01*
X3801102Y1733023D01*
X3800657Y1735023D01*
X3800213Y1737134D01*
X3806657Y1742133D01*
Y1700693D01*
X3810990Y1697027D01*
X3804102Y1688694D01*
X3800769Y1692472D01*
X3800657D01*
X3800213Y1692583D01*
X3799435Y1692694D01*
X3798546Y1692805D01*
X3797324Y1693027D01*
X3795880Y1693361D01*
X3794214Y1693583D01*
X3792436Y1693916D01*
X3790436Y1694249D01*
X3788325Y1694583D01*
X3785992Y1695027D01*
X3783659Y1695472D01*
X3778548Y1696360D01*
X3773105Y1697360D01*
Y1689139D01*
X3778326Y1685139D01*
X3770994Y1676251D01*
X3767661Y1680029D01*
X3767550D01*
X3767216D01*
X3766661Y1680140D01*
X3765883D01*
X3764994Y1680251D01*
X3763883D01*
X3762661Y1680362D01*
X3761328Y1680473D01*
X3759773Y1680584D01*
X3758106Y1680806D01*
X3754551Y1681140D01*
X3750773Y1681473D01*
X3746774Y1681917D01*
X3742663Y1682362D01*
X3738552Y1682806D01*
X3734553Y1683362D01*
X3730887Y1684028D01*
X3729109Y1684361D01*
X3727554Y1684695D01*
X3725998Y1685028D01*
X3724554Y1685361D01*
X3723332Y1685695D01*
X3722221Y1686028D01*
X3721332Y1686472D01*
X3720554Y1686806D01*
X3720443D01*
X3720221Y1687028D01*
X3719888Y1687250D01*
X3719443Y1687583D01*
X3718888Y1688139D01*
X3718221Y1688694D01*
X3717555Y1689472D01*
X3716777Y1690361D01*
X3715999Y1691361D01*
X3715222Y1692472D01*
X3714444Y1693805D01*
X3713666Y1695138D01*
X3712999Y1696805D01*
X3712333Y1698582D01*
X3711666Y1700471D01*
X3711222Y1702582D01*
X3711333D01*
X3711555D01*
X3711889D01*
X3712333Y1702693D01*
X3712888Y1702804D01*
X3713555Y1703026D01*
X3714333Y1703471D01*
X3715222Y1703915D01*
X3715999Y1704693D01*
X3716888Y1705582D01*
X3717888Y1706693D01*
X3718777Y1708026D01*
X3719777Y1709692D01*
X3720665Y1711581D01*
X3721554Y1713803D01*
X3722443Y1716358D01*
X3726887Y1715692D01*
Y1715581D01*
X3726776Y1715247D01*
X3726665Y1714803D01*
X3726554Y1714136D01*
X3726443Y1713359D01*
X3726220Y1712470D01*
X3725776Y1710359D01*
X3725332Y1708026D01*
X3724887Y1705693D01*
X3724554Y1703360D01*
X3724221Y1701360D01*
Y1699693D01*
X3724332Y1698582D01*
X3724665Y1697471D01*
X3725220Y1696249D01*
X3725998Y1695027D01*
X3727109Y1694027D01*
X3727331Y1693916D01*
X3727665Y1693805D01*
X3728220Y1693583D01*
X3729109Y1693361D01*
X3730220Y1693027D01*
X3731664Y1692805D01*
X3733553Y1692361D01*
X3734664Y1692250D01*
X3735886Y1692027D01*
X3737219Y1691805D01*
X3738664Y1691583D01*
X3740219Y1691361D01*
X3741997Y1691139D01*
X3743885Y1690805D01*
X3745885Y1690583D01*
X3747996Y1690361D01*
X3750329Y1690028D01*
X3752884Y1689805D01*
X3755551Y1689472D01*
X3758439Y1689250D01*
X3761439Y1688917D01*
X3764661Y1688694D01*
X3768105Y1688361D01*
Y1697694D01*
X3764328Y1701804D01*
X3770660Y1709026D01*
X3773549Y1705693D01*
X3773660D01*
X3774104Y1705582D01*
X3774882Y1705470D01*
X3775882Y1705248D01*
X3777104Y1705026D01*
X3778548Y1704804D01*
X3780215Y1704471D01*
X3782104Y1704137D01*
X3784104Y1703804D01*
X3786325Y1703471D01*
X3788548Y1703026D01*
X3790992Y1702693D01*
X3796213Y1701915D01*
X3801657Y1701249D01*
Y1717247D01*
X3801546D01*
X3801324D01*
X3800991D01*
X3800546D01*
X3799991D01*
X3799213D01*
X3797436Y1717358D01*
X3795325D01*
X3792880Y1717469D01*
X3790214Y1717580D01*
X3787214Y1717691D01*
X3784104Y1717914D01*
X3780771Y1718025D01*
X3774104Y1718469D01*
X3770883Y1718803D01*
X3767661Y1719136D01*
X3764550Y1719469D01*
X3761661Y1719802D01*
X3761550D01*
X3760995Y1719914D01*
X3760217Y1720025D01*
X3759106Y1720247D01*
X3757884Y1720469D01*
X3756329Y1720802D01*
X3754551Y1721136D01*
X3752662Y1721580D01*
X3750551Y1722136D01*
X3748329Y1722802D01*
X3743552Y1724246D01*
X3738552Y1726135D01*
X3733553Y1728357D01*
X3733442Y1728468D01*
X3732997Y1728690D01*
X3732220Y1729024D01*
X3731331Y1729579D01*
X3730109Y1730357D01*
X3728776Y1731246D01*
X3727220Y1732357D01*
X3725443Y1733579D01*
X3723554Y1735023D01*
X3721665Y1736690D01*
X3719554Y1738467D01*
X3717332Y1740578D01*
X3715222Y1742800D01*
X3712888Y1745244D01*
X3710666Y1747800D01*
X3708444Y1750688D01*
X3711111Y1753132D01*
X3711222Y1753021D01*
X3711666Y1752577D01*
X3712222Y1752021D01*
X3713111Y1751133D01*
X3714222Y1750133D01*
X3715444Y1749022D01*
X3716888Y1747800D01*
X3718443Y1746355D01*
X3720221Y1745022D01*
X3722110Y1743467D01*
X3724110Y1742022D01*
X3726220Y1740578D01*
X3728216Y1739381D01*
X3728220Y1739356D01*
X3728665Y1738801D01*
X3729220Y1738356D01*
X3729887Y1738023D01*
X3730442Y1737689D01*
X3730998Y1737467D01*
X3731442Y1737356D01*
X3731553D01*
X3731805Y1737314D01*
X3730664Y1737912D01*
X3728216Y1739381D01*
X3728109Y1740023D01*
Y1740356D01*
X3728220Y1740689D01*
X3728442Y1741245D01*
X3728776Y1741800D01*
X3729331Y1742356D01*
X3729998Y1743022D01*
X3730887Y1743689D01*
X3731109Y1743800D01*
X3731553Y1744355D01*
X3732331Y1745022D01*
X3733331Y1745911D01*
X3734442Y1747022D01*
X3735664Y1748355D01*
X3738219Y1751133D01*
X3738108Y1751244D01*
X3737775Y1751355D01*
X3737330Y1751688D01*
X3736664Y1752132D01*
X3735886Y1752577D01*
X3734886Y1753244D01*
X3733775Y1754021D01*
X3732664Y1754910D01*
X3729998Y1756910D01*
X3727220Y1759243D01*
X3724221Y1762020D01*
X3721332Y1765131D01*
X3721221Y1765242D01*
X3720999Y1765465D01*
X3720554Y1766020D01*
X3720110Y1766575D01*
X3719443Y1767353D01*
X3718666Y1768353D01*
X3717888Y1769353D01*
X3716999Y1770575D01*
X3714999Y1773130D01*
X3712999Y1776130D01*
X3710889Y1779241D01*
X3709000Y1782463D01*
X3711666Y1784907D01*
X3711777Y1784796D01*
X3712000Y1784574D01*
X3712333Y1784129D01*
X3712777Y1783574D01*
X3713333Y1782907D01*
X3713999Y1782018D01*
X3715777Y1780130D01*
X3717777Y1777797D01*
X3720110Y1775241D01*
X3722665Y1772575D01*
X3725443Y1769909D01*
X3725554Y1769797D01*
X3725776Y1769575D01*
X3726220Y1769242D01*
X3726776Y1768686D01*
X3727554Y1768131D01*
X3728331Y1767353D01*
X3729331Y1766575D01*
X3730442Y1765687D01*
X3732886Y1763798D01*
X3735664Y1761798D01*
X3738775Y1759687D01*
X3742108Y1757799D01*
X3742219Y1757910D01*
X3742330Y1758243D01*
X3742552Y1758799D01*
X3742885Y1759576D01*
X3743330Y1760465D01*
X3743774Y1761576D01*
X3744330Y1762798D01*
X3744774Y1764131D01*
X3745996Y1767020D01*
X3747107Y1770131D01*
X3748218Y1773353D01*
X3749107Y1776574D01*
X3749329Y1776463D01*
X3749885Y1776352D01*
X3750773Y1776130D01*
X3751996Y1775797D01*
X3753551Y1775352D01*
X3755329Y1774908D01*
X3757439Y1774352D01*
X3759773Y1773686D01*
X3762328Y1773019D01*
X3765105Y1772353D01*
X3767994Y1771575D01*
X3771216Y1770797D01*
X3774438Y1770020D01*
X3777882Y1769131D01*
X3781437Y1768353D01*
X3785103Y1767464D01*
Y1769909D01*
X3784992Y1771020D01*
X3784881Y1772575D01*
X3784770Y1774241D01*
X3784548Y1776241D01*
X3784104Y1778241D01*
X3783659Y1780352D01*
X3790103Y1785351D01*
Y1766798D01*
D02*
G37*
G36*
X3803546Y1632589D02*
X3803657D01*
X3803879D01*
X3804213D01*
X3804657D01*
X3805213D01*
X3805990D01*
X3806768D01*
X3807768D01*
X3809879Y1632700D01*
X3812434Y1632811D01*
X3815323Y1632922D01*
X3818433Y1633033D01*
X3812323Y1619590D01*
X3808323Y1623701D01*
X3803546D01*
Y1598592D01*
X3803657D01*
X3803879D01*
X3804213D01*
X3804657D01*
X3805213D01*
X3805990D01*
X3806768D01*
X3807768D01*
X3809879Y1598703D01*
X3812434Y1598814D01*
X3815323Y1598926D01*
X3818433Y1599037D01*
X3812878Y1586038D01*
X3808768Y1589704D01*
X3803546D01*
Y1575817D01*
X3810101Y1566929D01*
X3798546Y1556152D01*
Y1589704D01*
X3798435D01*
X3797880D01*
X3797102D01*
X3796102Y1589593D01*
X3794769D01*
X3793214Y1589482D01*
X3791325Y1589371D01*
X3789325Y1589260D01*
X3785659Y1598592D01*
X3798546D01*
Y1623701D01*
X3787436D01*
X3783326Y1633033D01*
X3783437D01*
X3783770D01*
X3784215D01*
X3784881Y1632922D01*
X3785659D01*
X3786548D01*
X3788659Y1632811D01*
X3791103Y1632700D01*
X3793547D01*
X3796102Y1632589D01*
X3798546D01*
Y1648810D01*
X3798435Y1649809D01*
X3798324Y1651032D01*
X3798213Y1652587D01*
X3797991Y1654476D01*
X3797547Y1656364D01*
X3797102Y1658475D01*
X3803546Y1663364D01*
Y1632589D01*
D02*
G37*
G36*
X3715555Y1659586D02*
X3715777Y1659253D01*
X3716221Y1658809D01*
X3716666Y1658142D01*
X3717332Y1657364D01*
X3718221Y1656475D01*
X3719110Y1655476D01*
X3720110Y1654253D01*
X3722332Y1651809D01*
X3724887Y1649143D01*
X3727554Y1646476D01*
X3730442Y1643810D01*
X3730553Y1643699D01*
X3730776Y1643477D01*
X3731220Y1643143D01*
X3731775Y1642699D01*
X3732553Y1642143D01*
X3733331Y1641366D01*
X3734331Y1640699D01*
X3735442Y1639810D01*
X3737775Y1638033D01*
X3740552Y1636033D01*
X3743552Y1634144D01*
X3746663Y1632256D01*
X3738108Y1622368D01*
X3735664Y1627478D01*
X3735442Y1627700D01*
X3734997Y1628145D01*
X3734220Y1629034D01*
X3733220Y1630145D01*
X3731887Y1631589D01*
X3730442Y1633144D01*
X3728887Y1635033D01*
X3727109Y1637144D01*
X3725332Y1639366D01*
X3723443Y1641810D01*
X3721554Y1644254D01*
X3719554Y1646921D01*
X3715888Y1652365D01*
X3714222Y1655253D01*
X3712666Y1658031D01*
X3715444Y1659697D01*
X3715555Y1659586D01*
D02*
G37*
G36*
X3753884Y1615146D02*
X3753995D01*
X3754329D01*
X3754884D01*
X3755662D01*
X3756551D01*
X3757551D01*
X3758662D01*
X3759995D01*
X3762772Y1615257D01*
X3765661Y1615368D01*
X3768661Y1615479D01*
X3771549Y1615591D01*
X3764439Y1601703D01*
X3760439Y1606258D01*
X3753884D01*
Y1589593D01*
X3760439Y1580705D01*
X3748885Y1570373D01*
Y1606258D01*
X3721221D01*
X3721110D01*
X3720999D01*
X3720332Y1606369D01*
X3719332Y1606591D01*
X3718110Y1606814D01*
X3716777Y1607258D01*
X3715555Y1607703D01*
X3714333Y1608369D01*
X3713333Y1609147D01*
X3713222Y1609258D01*
X3712888Y1609591D01*
X3712444Y1610147D01*
X3711889Y1611035D01*
X3711222Y1612147D01*
X3710444Y1613591D01*
X3709666Y1615257D01*
X3708889Y1617368D01*
X3709000D01*
X3709222Y1617479D01*
X3709555Y1617701D01*
X3710111Y1618035D01*
X3710666Y1618368D01*
X3711333Y1618924D01*
X3712111Y1619479D01*
X3712888Y1620257D01*
X3713666Y1621034D01*
X3714555Y1622034D01*
X3715444Y1623256D01*
X3716332Y1624479D01*
X3717110Y1625923D01*
X3717888Y1627478D01*
X3718666Y1629256D01*
X3719332Y1631256D01*
X3723221D01*
Y1631145D01*
X3723110Y1630811D01*
Y1630256D01*
X3722999Y1629589D01*
X3722887Y1628812D01*
X3722665Y1627812D01*
X3722443Y1625812D01*
X3721999Y1623590D01*
X3721776Y1621368D01*
X3721554Y1620479D01*
X3721443Y1619590D01*
X3721332Y1618812D01*
X3721221Y1618146D01*
Y1617701D01*
X3721332Y1617146D01*
X3721443Y1616591D01*
X3721776Y1616146D01*
X3722221Y1615591D01*
X3722887Y1615257D01*
X3723887Y1615146D01*
X3748885D01*
Y1635700D01*
X3748774Y1636922D01*
X3748663Y1638477D01*
X3748552Y1640255D01*
X3748329Y1642255D01*
X3747885Y1644366D01*
X3747441Y1646476D01*
X3753884Y1651476D01*
Y1615146D01*
D02*
G37*
G36*
X3754773Y1664697D02*
X3754884Y1664586D01*
X3754995Y1664252D01*
X3755218Y1663808D01*
X3755551Y1663253D01*
X3755773Y1662586D01*
X3756551Y1660919D01*
X3757551Y1659031D01*
X3758662Y1656809D01*
X3759884Y1654364D01*
X3761328Y1651698D01*
X3762772Y1648921D01*
X3764439Y1646032D01*
X3767883Y1640366D01*
X3769772Y1637699D01*
X3771660Y1635033D01*
X3773549Y1632589D01*
X3775438Y1630478D01*
X3775549Y1630367D01*
X3775882Y1630034D01*
X3776438Y1629478D01*
X3777215Y1628700D01*
X3778215Y1627700D01*
X3779326Y1626701D01*
X3780659Y1625478D01*
X3782104Y1624256D01*
X3783659Y1622812D01*
X3785437Y1621479D01*
X3787214Y1620035D01*
X3789214Y1618479D01*
X3793325Y1615702D01*
X3797769Y1613035D01*
X3790881Y1603036D01*
X3788325Y1607147D01*
X3788214Y1607036D01*
X3788103Y1606925D01*
X3787770Y1606591D01*
X3787325Y1606147D01*
X3786881Y1605592D01*
X3786325Y1604925D01*
X3785659Y1604147D01*
X3784881Y1603370D01*
X3783104Y1601259D01*
X3781215Y1598814D01*
X3779215Y1595926D01*
X3776993Y1592704D01*
X3774882Y1589038D01*
X3772660Y1585149D01*
X3770660Y1580927D01*
X3768772Y1576372D01*
X3767105Y1571595D01*
X3765661Y1566484D01*
X3764550Y1561263D01*
X3764217Y1558485D01*
X3763883Y1555708D01*
X3759884D01*
Y1556374D01*
X3759773Y1556819D01*
X3759550Y1558041D01*
X3759106Y1559485D01*
X3758439Y1561152D01*
X3757328Y1562707D01*
X3756662Y1563485D01*
X3755884Y1564262D01*
X3754995Y1564929D01*
X3753884Y1565485D01*
Y1565596D01*
X3753995Y1565818D01*
X3754106Y1566151D01*
X3754329Y1566707D01*
X3754551Y1567262D01*
X3754884Y1568040D01*
X3755218Y1568929D01*
X3755662Y1569928D01*
X3756662Y1572150D01*
X3757884Y1574817D01*
X3759439Y1577817D01*
X3761217Y1581039D01*
X3763328Y1584483D01*
X3765661Y1588038D01*
X3768327Y1591704D01*
X3771216Y1595482D01*
X3774438Y1599148D01*
X3777993Y1602814D01*
X3781881Y1606369D01*
X3786103Y1609813D01*
X3785992Y1609925D01*
X3785659Y1610147D01*
X3785103Y1610591D01*
X3784326Y1611258D01*
X3783326Y1612035D01*
X3782215Y1612924D01*
X3780993Y1613924D01*
X3779660Y1615146D01*
X3778215Y1616479D01*
X3776771Y1618035D01*
X3775215Y1619590D01*
X3773549Y1621257D01*
X3770327Y1625034D01*
X3767216Y1629145D01*
X3767105Y1629256D01*
X3766883Y1629700D01*
X3766439Y1630367D01*
X3765883Y1631256D01*
X3765105Y1632478D01*
X3764217Y1633922D01*
X3763328Y1635700D01*
X3762217Y1637699D01*
X3761106Y1640033D01*
X3759884Y1642588D01*
X3758550Y1645476D01*
X3757217Y1648587D01*
X3755773Y1652031D01*
X3754440Y1655698D01*
X3752995Y1659697D01*
X3751551Y1663919D01*
X3754773Y1664808D01*
Y1664697D01*
D02*
G37*
G36*
X3745330Y1598703D02*
Y1598592D01*
X3745218Y1598481D01*
X3744885Y1597815D01*
X3744330Y1596815D01*
X3743663Y1595370D01*
X3742774Y1593815D01*
X3741774Y1591926D01*
X3740663Y1589927D01*
X3739441Y1587816D01*
X3736997Y1583483D01*
X3735664Y1581261D01*
X3734442Y1579261D01*
X3733220Y1577372D01*
X3731998Y1575595D01*
X3730998Y1574150D01*
X3729998Y1573039D01*
Y1572928D01*
X3729776Y1572817D01*
X3729220Y1572150D01*
X3728331Y1571373D01*
X3727109Y1570373D01*
X3725887Y1569373D01*
X3724443Y1568484D01*
X3722999Y1567929D01*
X3722221Y1567818D01*
X3721554Y1567707D01*
X3721443D01*
X3721221D01*
X3720888Y1567818D01*
X3720443Y1567929D01*
X3719777Y1568151D01*
X3718999Y1568373D01*
X3718221Y1568818D01*
X3717221Y1569373D01*
X3717110Y1569484D01*
X3716777Y1569595D01*
X3716332Y1569928D01*
X3715888Y1570373D01*
X3715333Y1570817D01*
X3714888Y1571373D01*
X3714555Y1571928D01*
X3714444Y1572595D01*
Y1572706D01*
X3714555Y1573039D01*
X3714777Y1573595D01*
X3715222Y1574261D01*
X3715999Y1575261D01*
X3716555Y1575706D01*
X3717221Y1576261D01*
X3717999Y1576817D01*
X3718888Y1577372D01*
X3719888Y1578039D01*
X3720999Y1578705D01*
X3721110D01*
X3721332Y1578928D01*
X3721776Y1579261D01*
X3722443Y1579705D01*
X3723221Y1580372D01*
X3724110Y1581150D01*
X3725220Y1582149D01*
X3726554Y1583261D01*
X3727998Y1584594D01*
X3729553Y1586149D01*
X3731331Y1587927D01*
X3733220Y1589927D01*
X3735331Y1592149D01*
X3737553Y1594704D01*
X3739886Y1597481D01*
X3742441Y1600481D01*
X3745330Y1598703D01*
D02*
G37*
G36*
X3806768Y1533932D02*
Y1503602D01*
X3811101Y1498936D01*
X3803546Y1491714D01*
X3800880Y1495380D01*
X3764328D01*
X3764217D01*
X3763994D01*
X3763661D01*
X3763106D01*
X3762439D01*
X3761661D01*
X3760773D01*
X3759773Y1495269D01*
X3757439D01*
X3754773Y1495158D01*
X3751662Y1495047D01*
X3748329Y1494936D01*
X3745218Y1503824D01*
X3751218D01*
Y1514712D01*
X3751107D01*
X3750885D01*
X3750440D01*
X3749885D01*
X3749107D01*
X3748218D01*
X3747329D01*
X3746218D01*
X3743663D01*
X3740886D01*
X3737775D01*
X3734442Y1514601D01*
X3727665D01*
X3724332Y1514490D01*
X3721110D01*
X3718110Y1514379D01*
X3715444D01*
X3714222Y1514267D01*
X3713111D01*
X3712111Y1514156D01*
X3711222D01*
X3708000Y1523044D01*
X3708111D01*
X3708222D01*
X3708555D01*
X3709000D01*
X3709555D01*
X3710111D01*
X3711777Y1522933D01*
X3713777D01*
X3715999D01*
X3718666Y1522822D01*
X3721665D01*
X3724776D01*
X3728220Y1522711D01*
X3731775D01*
X3735442D01*
X3739330Y1522600D01*
X3743219D01*
X3751218D01*
Y1533043D01*
X3746441D01*
X3743774Y1541931D01*
X3743885D01*
X3744219D01*
X3744663D01*
X3745441Y1541820D01*
X3746552D01*
X3747774D01*
X3749329Y1541709D01*
X3751218D01*
X3753440D01*
X3755995Y1541598D01*
X3758884D01*
X3762106D01*
X3765772Y1541487D01*
X3769772D01*
X3774104D01*
X3778993D01*
X3779104D01*
X3779326D01*
X3779660D01*
X3780215D01*
X3780771D01*
X3781548D01*
X3783326D01*
X3785437D01*
X3787770D01*
X3790436D01*
X3793103D01*
X3798658Y1541598D01*
X3801435D01*
X3803879Y1541709D01*
X3806212D01*
X3808212Y1541820D01*
X3809879D01*
X3810545Y1541931D01*
X3811101D01*
X3806768Y1533932D01*
D02*
G37*
G36*
X3757551Y1488603D02*
X3757662D01*
X3757995D01*
X3758550D01*
X3759217D01*
X3760106D01*
X3761106D01*
X3762328D01*
X3763661D01*
X3765105D01*
X3766661D01*
X3770105D01*
X3773882D01*
X3777771D01*
X3785881Y1488714D01*
X3789770D01*
X3793547Y1488825D01*
X3796991D01*
X3798546D01*
X3799991Y1488937D01*
X3801435D01*
X3802546D01*
X3803657Y1489048D01*
X3804546D01*
X3801213Y1481604D01*
Y1476382D01*
X3801324D01*
X3801657Y1476271D01*
X3802102Y1476049D01*
X3802768Y1475938D01*
X3803546Y1475716D01*
X3804435Y1475382D01*
X3805435Y1475160D01*
X3806657Y1474827D01*
X3809212Y1474160D01*
X3811990Y1473605D01*
X3814989Y1473160D01*
X3817989Y1472827D01*
X3812545Y1461828D01*
X3812434Y1462050D01*
X3811878Y1462606D01*
X3811101Y1463495D01*
X3809879Y1464717D01*
X3808323Y1466161D01*
X3806435Y1467828D01*
X3803990Y1469605D01*
X3802657Y1470494D01*
X3801213Y1471494D01*
Y1452607D01*
X3805546Y1448496D01*
X3798546Y1440164D01*
X3795769Y1443941D01*
X3795658D01*
X3795547D01*
X3795213D01*
X3794769D01*
X3793658Y1444052D01*
X3792214D01*
X3790436Y1444163D01*
X3788436Y1444274D01*
X3786325Y1444497D01*
X3783992Y1444608D01*
X3779326Y1445052D01*
X3776993Y1445274D01*
X3774771Y1445496D01*
X3772660Y1445830D01*
X3770771Y1446163D01*
X3769216Y1446496D01*
X3767994Y1446830D01*
X3767883D01*
X3767772Y1446941D01*
X3767105Y1447274D01*
X3766105Y1447941D01*
X3765550Y1448496D01*
X3764883Y1449052D01*
X3764328Y1449829D01*
X3763661Y1450718D01*
X3762994Y1451718D01*
X3762328Y1452829D01*
X3761772Y1454162D01*
X3761217Y1455607D01*
X3760773Y1457273D01*
X3760328Y1459162D01*
X3760439D01*
X3760550D01*
X3761217Y1459273D01*
X3762217Y1459717D01*
X3762772Y1460051D01*
X3763439Y1460495D01*
X3764106Y1461051D01*
X3764772Y1461717D01*
X3765550Y1462606D01*
X3766216Y1463606D01*
X3766994Y1464828D01*
X3767661Y1466272D01*
X3768327Y1467828D01*
X3768994Y1469716D01*
X3772882Y1469050D01*
Y1468939D01*
X3772771Y1468716D01*
Y1468272D01*
X3772660Y1467716D01*
X3772549Y1467050D01*
X3772327Y1466272D01*
X3772105Y1464495D01*
X3771771Y1462606D01*
X3771438Y1460828D01*
X3771216Y1459162D01*
Y1458495D01*
X3771105Y1457940D01*
Y1457495D01*
X3771216Y1457051D01*
X3771327Y1456495D01*
X3771438Y1455829D01*
X3771771Y1455273D01*
X3772216Y1454829D01*
X3772771Y1454496D01*
X3772882D01*
X3773105Y1454384D01*
X3773438D01*
X3773882Y1454273D01*
X3774549Y1454162D01*
X3775327Y1454051D01*
X3776438Y1453940D01*
X3777771Y1453829D01*
X3779326Y1453607D01*
X3781215Y1453385D01*
X3783437Y1453274D01*
X3786103Y1453051D01*
X3788992Y1452829D01*
X3792436Y1452496D01*
X3794214Y1452385D01*
X3796213Y1452274D01*
Y1480604D01*
X3757106D01*
Y1448830D01*
X3761439Y1444163D01*
X3753884Y1436942D01*
X3751218Y1440719D01*
X3751107D01*
X3750996D01*
X3750662D01*
X3750218D01*
X3749107Y1440830D01*
X3747663D01*
X3745885Y1440941D01*
X3743885Y1441053D01*
X3741663Y1441164D01*
X3739330Y1441275D01*
X3734553Y1441608D01*
X3732220Y1441719D01*
X3729887Y1441941D01*
X3727776Y1442052D01*
X3725776Y1442275D01*
X3724110Y1442386D01*
X3722776Y1442608D01*
X3722665D01*
X3722554D01*
X3722221Y1442719D01*
X3721776Y1442830D01*
X3720665Y1443052D01*
X3719221Y1443497D01*
X3717555Y1444052D01*
X3715888Y1444830D01*
X3714333Y1445830D01*
X3712777Y1447052D01*
X3712666Y1447163D01*
X3712222Y1447718D01*
X3711555Y1448496D01*
X3710778Y1449718D01*
X3710000Y1451163D01*
X3709222Y1453051D01*
X3708444Y1455273D01*
X3708000Y1457829D01*
X3708111D01*
X3708222D01*
X3708889Y1458051D01*
X3710000Y1458495D01*
X3710555Y1458829D01*
X3711333Y1459384D01*
X3712111Y1460051D01*
X3712888Y1460828D01*
X3713666Y1461828D01*
X3714555Y1463050D01*
X3715444Y1464495D01*
X3716332Y1466161D01*
X3717221Y1468050D01*
X3718110Y1470272D01*
X3721887Y1469494D01*
Y1469383D01*
X3721776Y1469050D01*
X3721665Y1468605D01*
X3721554Y1467939D01*
X3721443Y1467161D01*
X3721221Y1466161D01*
X3720888Y1464161D01*
X3720443Y1462050D01*
X3720110Y1459828D01*
X3719888Y1458940D01*
X3719777Y1458051D01*
X3719666Y1457273D01*
X3719554Y1456607D01*
Y1455607D01*
X3719666Y1454940D01*
X3719888Y1454162D01*
X3720332Y1453385D01*
X3720888Y1452718D01*
X3721665Y1452051D01*
X3721887Y1451940D01*
X3722110D01*
X3722554Y1451829D01*
X3723110Y1451607D01*
X3723998Y1451496D01*
X3724998Y1451274D01*
X3726443Y1451052D01*
X3728109Y1450829D01*
X3730220Y1450496D01*
X3732664Y1450274D01*
X3734108Y1450052D01*
X3735553Y1449940D01*
X3737219Y1449829D01*
X3738997Y1449607D01*
X3740774Y1449496D01*
X3742774Y1449274D01*
X3744885Y1449163D01*
X3747218Y1448941D01*
X3749551Y1448830D01*
X3752107Y1448607D01*
Y1480382D01*
X3748329Y1484604D01*
X3754662Y1491825D01*
X3757551Y1488603D01*
D02*
G37*
G36*
X3793991Y1473160D02*
Y1473049D01*
X3793769Y1472827D01*
X3793547Y1472383D01*
X3793214Y1471938D01*
X3792436Y1470605D01*
X3791325Y1468939D01*
X3790103Y1467161D01*
X3788881Y1465495D01*
X3787659Y1463939D01*
X3786992Y1463273D01*
X3786437Y1462717D01*
X3786325Y1462606D01*
X3785992Y1462273D01*
X3785437Y1461828D01*
X3784770Y1461273D01*
X3783881Y1460828D01*
X3783104Y1460384D01*
X3782215Y1460051D01*
X3781326Y1459939D01*
X3781215D01*
X3780882D01*
X3780326Y1460051D01*
X3779660Y1460162D01*
X3778882Y1460495D01*
X3777993Y1460828D01*
X3776993Y1461384D01*
X3776104Y1462161D01*
X3775993Y1462273D01*
X3775771Y1462495D01*
X3775327Y1462828D01*
X3774882Y1463384D01*
X3774438Y1463828D01*
X3773993Y1464383D01*
X3773771Y1464828D01*
X3773660Y1465272D01*
Y1465383D01*
X3773771Y1465717D01*
X3773882Y1466161D01*
X3774216Y1466605D01*
X3774771Y1467161D01*
X3775549Y1467605D01*
X3776660Y1468050D01*
X3778215Y1468383D01*
X3778326D01*
X3778437Y1468494D01*
X3778771D01*
X3779215Y1468716D01*
X3779771Y1468828D01*
X3780326Y1469161D01*
X3781993Y1469827D01*
X3783992Y1470716D01*
X3786325Y1472049D01*
X3789103Y1473716D01*
X3792103Y1475716D01*
X3793991Y1473160D01*
D02*
G37*
G36*
X3739219Y1465828D02*
X3744441Y1459273D01*
X3734220Y1450829D01*
Y1486381D01*
X3734108Y1487492D01*
X3733997Y1488937D01*
X3733886Y1490603D01*
X3733664Y1492381D01*
X3733220Y1494380D01*
X3732775Y1496491D01*
X3739219Y1501491D01*
Y1465828D01*
D02*
G37*
G36*
X4031691Y1511602D02*
X4029278D01*
Y1531611D01*
X4031691D01*
Y1511602D01*
D02*
G37*
G36*
X4042293Y1606563D02*
X4040379D01*
Y1608810D01*
X4040338Y1609101D01*
X4040296Y1609392D01*
X4040130Y1610141D01*
X4040005Y1610432D01*
X4039838Y1610723D01*
X4039797Y1610765D01*
X4039714Y1610848D01*
X4039589Y1610931D01*
X4039381Y1611056D01*
X4039131Y1611181D01*
X4038840Y1611305D01*
X4038466Y1611347D01*
X4038050Y1611389D01*
X4017291D01*
X4017250D01*
X4017208D01*
X4017000Y1611347D01*
X4016750Y1611264D01*
X4016501Y1611056D01*
X4016459Y1611014D01*
X4016334Y1610848D01*
X4016210Y1610515D01*
X4016168Y1610099D01*
Y1606563D01*
X4014254D01*
Y1608893D01*
X4014213Y1609226D01*
X4014171Y1609683D01*
X4014130Y1610182D01*
X4014005Y1610723D01*
X4013880Y1611222D01*
X4013672Y1611680D01*
X4013630Y1611722D01*
X4013547Y1611888D01*
X4013381Y1612096D01*
X4013173Y1612345D01*
X4012882Y1612678D01*
X4012507Y1612969D01*
X4012050Y1613302D01*
X4011509Y1613593D01*
Y1615050D01*
X4038050D01*
X4038091D01*
X4038258D01*
X4038466Y1615091D01*
X4038715Y1615133D01*
X4039006Y1615216D01*
X4039298Y1615341D01*
X4039589Y1615507D01*
X4039838Y1615757D01*
X4039880Y1615798D01*
X4039922Y1615881D01*
X4040005Y1616048D01*
X4040088Y1616297D01*
X4040213Y1616589D01*
X4040296Y1616921D01*
X4040338Y1617338D01*
X4040379Y1617837D01*
Y1620000D01*
X4042293D01*
Y1606563D01*
D02*
G37*
G36*
X4034888Y1600448D02*
X4035179Y1600406D01*
X4035554Y1600365D01*
X4036386Y1600157D01*
X4037301Y1599866D01*
X4037800Y1599658D01*
X4038299Y1599408D01*
X4038757Y1599117D01*
X4039256Y1598742D01*
X4039714Y1598368D01*
X4040130Y1597910D01*
X4040171Y1597869D01*
X4040213Y1597785D01*
X4040338Y1597661D01*
X4040462Y1597453D01*
X4040629Y1597203D01*
X4040795Y1596870D01*
X4041003Y1596537D01*
X4041211Y1596121D01*
X4041419Y1595622D01*
X4041627Y1595123D01*
X4041794Y1594541D01*
X4041960Y1593958D01*
X4042085Y1593293D01*
X4042210Y1592585D01*
X4042251Y1591837D01*
X4042293Y1591046D01*
Y1579773D01*
X4040379D01*
Y1581686D01*
X4040338Y1581936D01*
X4040296Y1582227D01*
X4040254Y1582352D01*
X4040171Y1582435D01*
X4040130Y1582477D01*
X4040005Y1582560D01*
X4039755Y1582643D01*
X4039422Y1582685D01*
X4014878D01*
X4014837D01*
X4014795D01*
X4014587Y1582643D01*
X4014379Y1582601D01*
X4014171Y1582435D01*
X4014130Y1582393D01*
X4014046Y1582269D01*
X4013963Y1581977D01*
X4013922Y1581811D01*
Y1580105D01*
X4012008D01*
Y1590963D01*
X4012050Y1591254D01*
Y1591587D01*
X4012091Y1592003D01*
X4012174Y1592461D01*
X4012216Y1592960D01*
X4012424Y1594000D01*
X4012757Y1595040D01*
X4013214Y1596080D01*
X4013464Y1596537D01*
X4013797Y1596954D01*
Y1596995D01*
X4013880Y1597037D01*
X4013963Y1597161D01*
X4014130Y1597286D01*
X4014296Y1597453D01*
X4014546Y1597619D01*
X4014795Y1597827D01*
X4015128Y1598035D01*
X4015461Y1598243D01*
X4015877Y1598451D01*
X4016293Y1598618D01*
X4016792Y1598784D01*
X4017333Y1598909D01*
X4017874Y1599034D01*
X4018498Y1599075D01*
X4019163Y1599117D01*
X4019205D01*
X4019288D01*
X4019413D01*
X4019579D01*
X4020037Y1599075D01*
X4020619Y1598992D01*
X4021285Y1598825D01*
X4021992Y1598659D01*
X4022699Y1598368D01*
X4023365Y1597994D01*
X4023448Y1597952D01*
X4023656Y1597785D01*
X4023947Y1597494D01*
X4024280Y1597037D01*
X4024696Y1596454D01*
X4024904Y1596121D01*
X4025112Y1595747D01*
X4025278Y1595290D01*
X4025486Y1594832D01*
X4025653Y1594333D01*
X4025819Y1593750D01*
Y1593792D01*
X4025861Y1593917D01*
X4025902Y1594125D01*
X4025986Y1594374D01*
X4026110Y1594666D01*
X4026235Y1595040D01*
X4026568Y1595830D01*
X4027026Y1596704D01*
X4027608Y1597578D01*
X4028274Y1598409D01*
X4028690Y1598742D01*
X4029106Y1599034D01*
X4029147D01*
X4029230Y1599117D01*
X4029355Y1599158D01*
X4029522Y1599283D01*
X4029730Y1599366D01*
X4029979Y1599491D01*
X4030603Y1599782D01*
X4031394Y1600032D01*
X4032267Y1600282D01*
X4033224Y1600448D01*
X4034264Y1600489D01*
X4034306D01*
X4034430D01*
X4034597D01*
X4034888Y1600448D01*
D02*
G37*
G36*
X4029274Y1811474D02*
X4029856Y1811432D01*
X4030563Y1811390D01*
X4031354Y1811307D01*
X4032186Y1811182D01*
X4033101Y1811058D01*
X4034016Y1810891D01*
X4034973Y1810683D01*
X4035930Y1810392D01*
X4036845Y1810101D01*
X4037760Y1809768D01*
X4038634Y1809352D01*
X4039466Y1808894D01*
X4039507Y1808853D01*
X4039632Y1808770D01*
X4039840Y1808645D01*
X4040131Y1808437D01*
X4040422Y1808187D01*
X4040797Y1807854D01*
X4041171Y1807522D01*
X4041546Y1807106D01*
X4041962Y1806648D01*
X4042336Y1806149D01*
X4042710Y1805608D01*
X4043002Y1805026D01*
X4043293Y1804402D01*
X4043501Y1803736D01*
X4043626Y1803029D01*
X4043667Y1802280D01*
Y1802114D01*
X4043626Y1801906D01*
X4043584Y1801614D01*
X4043542Y1801282D01*
X4043459Y1800866D01*
X4043334Y1800408D01*
X4043168Y1799909D01*
X4042960Y1799410D01*
X4042669Y1798869D01*
X4042336Y1798286D01*
X4041962Y1797746D01*
X4041462Y1797163D01*
X4040922Y1796622D01*
X4040298Y1796082D01*
X4039590Y1795541D01*
X4039549Y1795499D01*
X4039382Y1795416D01*
X4039174Y1795291D01*
X4038842Y1795125D01*
X4038426Y1794917D01*
X4037885Y1794709D01*
X4037302Y1794459D01*
X4036595Y1794210D01*
X4035846Y1793960D01*
X4034973Y1793710D01*
X4034016Y1793502D01*
X4032976Y1793294D01*
X4031894Y1793128D01*
X4030688Y1793003D01*
X4029398Y1792920D01*
X4028067Y1792878D01*
X4027984D01*
X4027776D01*
X4027402D01*
X4026944Y1792920D01*
X4026362Y1792962D01*
X4025696Y1793003D01*
X4024947Y1793086D01*
X4024115Y1793211D01*
X4023242Y1793336D01*
X4022368Y1793502D01*
X4021453Y1793710D01*
X4020496Y1793960D01*
X4019581Y1794251D01*
X4018666Y1794626D01*
X4017792Y1795000D01*
X4016960Y1795458D01*
X4016918Y1795499D01*
X4016794Y1795582D01*
X4016544Y1795707D01*
X4016294Y1795915D01*
X4015962Y1796206D01*
X4015587Y1796498D01*
X4015213Y1796872D01*
X4014797Y1797288D01*
X4014422Y1797746D01*
X4014048Y1798245D01*
X4013674Y1798827D01*
X4013341Y1799410D01*
X4013050Y1800075D01*
X4012842Y1800782D01*
X4012717Y1801490D01*
X4012675Y1802280D01*
Y1802446D01*
X4012717Y1802654D01*
X4012758Y1802946D01*
X4012800Y1803278D01*
X4012883Y1803694D01*
X4013008Y1804152D01*
X4013174Y1804610D01*
X4013424Y1805150D01*
X4013674Y1805650D01*
X4014006Y1806232D01*
X4014422Y1806773D01*
X4014880Y1807314D01*
X4015421Y1807854D01*
X4016086Y1808395D01*
X4016794Y1808894D01*
X4016835Y1808936D01*
X4017002Y1809019D01*
X4017210Y1809144D01*
X4017542Y1809310D01*
X4017958Y1809518D01*
X4018458Y1809726D01*
X4019082Y1809976D01*
X4019747Y1810226D01*
X4020496Y1810434D01*
X4021370Y1810683D01*
X4022285Y1810891D01*
X4023283Y1811099D01*
X4024365Y1811266D01*
X4025530Y1811390D01*
X4026778Y1811474D01*
X4028067Y1811515D01*
X4028150D01*
X4028400D01*
X4028774D01*
X4029274Y1811474D01*
D02*
G37*
G36*
X4035888Y1789675D02*
X4036179Y1789634D01*
X4036554Y1789592D01*
X4037386Y1789384D01*
X4038301Y1789093D01*
X4038800Y1788885D01*
X4039299Y1788635D01*
X4039757Y1788344D01*
X4040256Y1787970D01*
X4040714Y1787595D01*
X4041130Y1787138D01*
X4041171Y1787096D01*
X4041213Y1787013D01*
X4041338Y1786888D01*
X4041462Y1786680D01*
X4041629Y1786430D01*
X4041795Y1786098D01*
X4042003Y1785765D01*
X4042211Y1785349D01*
X4042419Y1784850D01*
X4042627Y1784350D01*
X4042794Y1783768D01*
X4042960Y1783186D01*
X4043085Y1782520D01*
X4043210Y1781813D01*
X4043251Y1781064D01*
X4043293Y1780274D01*
Y1769000D01*
X4041379D01*
Y1770914D01*
X4041338Y1771163D01*
X4041296Y1771454D01*
X4041254Y1771579D01*
X4041171Y1771662D01*
X4041130Y1771704D01*
X4041005Y1771787D01*
X4040755Y1771870D01*
X4040422Y1771912D01*
X4015878D01*
X4015837D01*
X4015795D01*
X4015587Y1771870D01*
X4015379Y1771829D01*
X4015171Y1771662D01*
X4015130Y1771621D01*
X4015046Y1771496D01*
X4014963Y1771205D01*
X4014922Y1771038D01*
Y1769333D01*
X4013008D01*
Y1780190D01*
X4013050Y1780482D01*
Y1780814D01*
X4013091Y1781230D01*
X4013174Y1781688D01*
X4013216Y1782187D01*
X4013424Y1783227D01*
X4013757Y1784267D01*
X4014214Y1785307D01*
X4014464Y1785765D01*
X4014797Y1786181D01*
Y1786222D01*
X4014880Y1786264D01*
X4014963Y1786389D01*
X4015130Y1786514D01*
X4015296Y1786680D01*
X4015546Y1786846D01*
X4015795Y1787054D01*
X4016128Y1787262D01*
X4016461Y1787470D01*
X4016877Y1787678D01*
X4017293Y1787845D01*
X4017792Y1788011D01*
X4018333Y1788136D01*
X4018874Y1788261D01*
X4019498Y1788302D01*
X4020163Y1788344D01*
X4020205D01*
X4020288D01*
X4020413D01*
X4020579D01*
X4021037Y1788302D01*
X4021619Y1788219D01*
X4022285Y1788053D01*
X4022992Y1787886D01*
X4023699Y1787595D01*
X4024365Y1787221D01*
X4024448Y1787179D01*
X4024656Y1787013D01*
X4024947Y1786722D01*
X4025280Y1786264D01*
X4025696Y1785682D01*
X4025904Y1785349D01*
X4026112Y1784974D01*
X4026278Y1784517D01*
X4026486Y1784059D01*
X4026653Y1783560D01*
X4026819Y1782978D01*
Y1783019D01*
X4026861Y1783144D01*
X4026902Y1783352D01*
X4026986Y1783602D01*
X4027110Y1783893D01*
X4027235Y1784267D01*
X4027568Y1785058D01*
X4028026Y1785931D01*
X4028608Y1786805D01*
X4029274Y1787637D01*
X4029690Y1787970D01*
X4030106Y1788261D01*
X4030147D01*
X4030230Y1788344D01*
X4030355Y1788386D01*
X4030522Y1788510D01*
X4030730Y1788594D01*
X4030979Y1788718D01*
X4031603Y1789010D01*
X4032394Y1789259D01*
X4033267Y1789509D01*
X4034224Y1789675D01*
X4035264Y1789717D01*
X4035306D01*
X4035430D01*
X4035597D01*
X4035888Y1789675D01*
D02*
G37*
G36*
X4029691Y1878414D02*
X4027278D01*
Y1898424D01*
X4029691D01*
Y1878414D01*
D02*
G37*
%LPC*%
G36*
X3443889Y1955263D02*
X3443558Y1955226D01*
X3443190Y1955094D01*
X3442784Y1954869D01*
X3442339Y1954551D01*
X3441855Y1954140D01*
X3441329Y1953639D01*
X3440886Y1953158D01*
X3440513Y1952676D01*
X3440209Y1952196D01*
X3439974Y1951718D01*
X3439809Y1951244D01*
X3439712Y1950776D01*
X3439684Y1950313D01*
X3439725Y1949859D01*
X3439834Y1949415D01*
X3440011Y1948981D01*
X3440255Y1948559D01*
X3440568Y1948151D01*
X3440947Y1947758D01*
X3441393Y1947381D01*
X3441907Y1947022D01*
X3442486Y1946682D01*
X3442953Y1946438D01*
X3443367Y1946238D01*
X3443731Y1946086D01*
X3444048Y1945986D01*
X3444323Y1945943D01*
X3444557Y1945958D01*
X3444754Y1946038D01*
X3444917Y1946185D01*
X3445050Y1946403D01*
X3445154Y1946697D01*
X3445234Y1947069D01*
X3445293Y1947525D01*
X3445333Y1948067D01*
X3445357Y1948700D01*
X3445370Y1949427D01*
X3445374Y1950253D01*
X3445360Y1951206D01*
X3445319Y1952056D01*
X3445250Y1952805D01*
X3445151Y1953453D01*
X3445022Y1954000D01*
X3444862Y1954448D01*
X3444669Y1954798D01*
X3444443Y1955050D01*
X3444184Y1955204D01*
X3443889Y1955263D01*
D02*
G37*
G36*
X3444557Y1845954D02*
X3444048Y1845926D01*
X3443367Y1845674D01*
X3442486Y1845229D01*
X3441365Y1844483D01*
X3440447Y1843596D01*
X3439826Y1842679D01*
X3439599Y1841845D01*
X3439724Y1841030D01*
X3440070Y1840152D01*
X3440591Y1839266D01*
X3441241Y1838422D01*
X3441974Y1837675D01*
X3442746Y1837076D01*
X3443509Y1836678D01*
X3444218Y1836534D01*
X3444336Y1836560D01*
X3444451Y1836638D01*
X3444561Y1836765D01*
X3444667Y1836938D01*
X3444768Y1837155D01*
X3444863Y1837412D01*
X3444952Y1837708D01*
X3445035Y1838039D01*
X3445109Y1838403D01*
X3445176Y1838798D01*
X3445234Y1839220D01*
X3445282Y1839668D01*
X3445321Y1840138D01*
X3445350Y1840628D01*
X3445367Y1841135D01*
X3445374Y1841657D01*
X3445357Y1843210D01*
X3445293Y1844386D01*
X3445154Y1845214D01*
X3444917Y1845727D01*
X3444557Y1845954D01*
D02*
G37*
G36*
X3533813Y1976870D02*
X3533233Y1976870D01*
X3532649Y1976870D01*
X3532061Y1976869D01*
X3531470Y1976869D01*
X3530875Y1976868D01*
X3530276Y1976868D01*
X3529674Y1976867D01*
X3529069Y1976866D01*
X3528459Y1976865D01*
X3527847Y1976864D01*
X3527231Y1976863D01*
X3526612Y1976861D01*
X3525990Y1976860D01*
X3525365Y1976858D01*
X3524736Y1976857D01*
X3524105Y1976855D01*
X3523470Y1976853D01*
X3522833Y1976851D01*
X3522193Y1976849D01*
X3521550Y1976846D01*
X3520904Y1976844D01*
X3520255Y1976841D01*
X3519604Y1976839D01*
X3518950Y1976836D01*
X3518294Y1976833D01*
X3517635Y1976830D01*
X3516974Y1976827D01*
X3516310Y1976823D01*
X3515644Y1976820D01*
X3514976Y1976816D01*
X3514306Y1976813D01*
X3513633Y1976809D01*
X3512958Y1976805D01*
X3512282Y1976801D01*
X3511603Y1976796D01*
X3510922Y1976792D01*
X3510240Y1976788D01*
X3509555Y1976783D01*
X3508869Y1976778D01*
X3508182Y1976774D01*
X3454760Y1976391D01*
X3454387Y1896300D01*
X3454014Y1816211D01*
X3509258Y1816589D01*
X3564503Y1816972D01*
X3564876Y1896360D01*
X3564925Y1907613D01*
X3564958Y1917828D01*
X3564976Y1927048D01*
X3564977Y1935318D01*
X3564962Y1942681D01*
X3564928Y1949182D01*
X3564875Y1954865D01*
X3564803Y1959773D01*
X3564711Y1963951D01*
X3564597Y1967443D01*
X3564462Y1970292D01*
X3564303Y1972544D01*
X3564121Y1974242D01*
X3563915Y1975430D01*
X3563684Y1976153D01*
X3563427Y1976454D01*
X3563399Y1976463D01*
X3563362Y1976471D01*
X3563317Y1976480D01*
X3563263Y1976489D01*
X3563201Y1976497D01*
X3563130Y1976506D01*
X3563051Y1976514D01*
X3562964Y1976523D01*
X3562868Y1976531D01*
X3562764Y1976539D01*
X3562652Y1976547D01*
X3562532Y1976555D01*
X3562403Y1976563D01*
X3562267Y1976571D01*
X3562122Y1976579D01*
X3561970Y1976586D01*
X3561810Y1976594D01*
X3561642Y1976601D01*
X3561466Y1976608D01*
X3561283Y1976616D01*
X3561092Y1976623D01*
X3560894Y1976630D01*
X3560688Y1976637D01*
X3560474Y1976644D01*
X3560253Y1976650D01*
X3560025Y1976657D01*
X3559789Y1976664D01*
X3559546Y1976670D01*
X3559296Y1976677D01*
X3559039Y1976683D01*
X3558775Y1976689D01*
X3558504Y1976695D01*
X3558226Y1976701D01*
X3557940Y1976707D01*
X3557648Y1976713D01*
X3557350Y1976718D01*
X3557044Y1976724D01*
X3556732Y1976729D01*
X3556413Y1976735D01*
X3556088Y1976740D01*
X3555756Y1976745D01*
X3555417Y1976751D01*
X3555072Y1976755D01*
X3554721Y1976760D01*
X3554364Y1976765D01*
X3554000Y1976770D01*
X3553630Y1976774D01*
X3553254Y1976779D01*
X3552872Y1976783D01*
X3552483Y1976787D01*
X3552089Y1976792D01*
X3551689Y1976796D01*
X3551283Y1976800D01*
X3550872Y1976804D01*
X3550454Y1976807D01*
X3550031Y1976811D01*
X3549602Y1976814D01*
X3549168Y1976818D01*
X3548728Y1976821D01*
X3548282Y1976824D01*
X3547831Y1976828D01*
X3547375Y1976831D01*
X3546914Y1976833D01*
X3546447Y1976836D01*
X3545975Y1976839D01*
X3545498Y1976841D01*
X3545016Y1976844D01*
X3544528Y1976846D01*
X3544036Y1976849D01*
X3543539Y1976851D01*
X3543037Y1976853D01*
X3542530Y1976855D01*
X3542019Y1976856D01*
X3541503Y1976858D01*
X3540982Y1976860D01*
X3540456Y1976861D01*
X3539926Y1976862D01*
X3539392Y1976864D01*
X3538853Y1976865D01*
X3538310Y1976866D01*
X3537762Y1976867D01*
X3537210Y1976868D01*
X3536654Y1976868D01*
X3536094Y1976869D01*
X3535530Y1976869D01*
X3534961Y1976869D01*
X3534389Y1976870D01*
X3533813Y1976870D01*
D02*
G37*
%LPD*%
G36*
X3514068Y1970144D02*
X3518181Y1970113D01*
X3522230Y1970063D01*
X3526186Y1969992D01*
X3530021Y1969901D01*
X3533705Y1969791D01*
X3537207Y1969660D01*
X3540499Y1969510D01*
X3543552Y1969340D01*
X3546336Y1969150D01*
X3548820Y1968940D01*
X3550977Y1968710D01*
X3552777Y1968460D01*
X3554189Y1968190D01*
X3555186Y1967901D01*
X3555736Y1967591D01*
X3555760Y1967568D01*
X3555783Y1967543D01*
X3555806Y1967518D01*
X3555829Y1967493D01*
X3555852Y1967466D01*
X3555874Y1967439D01*
X3555897Y1967412D01*
X3555919Y1967383D01*
X3555941Y1967354D01*
X3555963Y1967324D01*
X3555985Y1967294D01*
X3556006Y1967262D01*
X3556028Y1967230D01*
X3556049Y1967197D01*
X3556070Y1967163D01*
X3556092Y1967129D01*
X3556113Y1967093D01*
X3556133Y1967057D01*
X3556154Y1967020D01*
X3556174Y1966981D01*
X3556195Y1966942D01*
X3556215Y1966902D01*
X3556235Y1966861D01*
X3556255Y1966819D01*
X3556274Y1966776D01*
X3556294Y1966732D01*
X3556313Y1966687D01*
X3556332Y1966641D01*
X3556352Y1966594D01*
X3556371Y1966546D01*
X3556390Y1966497D01*
X3556408Y1966446D01*
X3556427Y1966395D01*
X3556445Y1966342D01*
X3556463Y1966289D01*
X3556482Y1966234D01*
X3556500Y1966177D01*
X3556517Y1966120D01*
X3556535Y1966062D01*
X3556553Y1966002D01*
X3556570Y1965941D01*
X3556588Y1965879D01*
X3556605Y1965815D01*
X3556622Y1965750D01*
X3556639Y1965684D01*
X3556655Y1965616D01*
X3556672Y1965547D01*
X3556689Y1965477D01*
X3556705Y1965406D01*
X3556721Y1965332D01*
X3556737Y1965258D01*
X3556753Y1965182D01*
X3556769Y1965105D01*
X3556785Y1965026D01*
X3556800Y1964946D01*
X3556816Y1964864D01*
X3556831Y1964781D01*
X3556846Y1964696D01*
X3556861Y1964610D01*
X3556876Y1964522D01*
X3556891Y1964432D01*
X3556906Y1964341D01*
X3556920Y1964248D01*
X3556935Y1964154D01*
X3556949Y1964058D01*
X3556963Y1963960D01*
X3556977Y1963861D01*
X3556991Y1963760D01*
X3557005Y1963657D01*
X3557019Y1963553D01*
X3557032Y1963446D01*
X3557046Y1963338D01*
X3557059Y1963229D01*
X3557072Y1963117D01*
X3557085Y1963004D01*
X3557098Y1962889D01*
X3557111Y1962772D01*
X3557124Y1962653D01*
X3557136Y1962532D01*
X3557149Y1962409D01*
X3557161Y1962285D01*
X3557173Y1962158D01*
X3557186Y1962030D01*
X3557198Y1961899D01*
X3557209Y1961767D01*
X3557221Y1961632D01*
X3557233Y1961496D01*
X3557244Y1961358D01*
X3557256Y1961217D01*
X3557267Y1961075D01*
X3557278Y1960930D01*
X3557290Y1960784D01*
X3557301Y1960635D01*
X3557311Y1960484D01*
X3557322Y1960331D01*
X3557333Y1960176D01*
X3557344Y1960018D01*
X3557354Y1959859D01*
X3557364Y1959697D01*
X3557375Y1959533D01*
X3557385Y1959367D01*
X3557395Y1959198D01*
X3557405Y1959027D01*
X3557415Y1958854D01*
X3557424Y1958679D01*
X3557434Y1958502D01*
X3557443Y1958322D01*
X3557453Y1958139D01*
X3557462Y1957954D01*
X3557471Y1957767D01*
X3557481Y1957578D01*
X3557490Y1957386D01*
X3557499Y1957191D01*
X3557507Y1956995D01*
X3557516Y1956795D01*
X3557525Y1956594D01*
X3557533Y1956389D01*
X3557541Y1956183D01*
X3557550Y1955973D01*
X3557558Y1955761D01*
X3557566Y1955547D01*
X3557574Y1955330D01*
X3557582Y1955110D01*
X3557590Y1954888D01*
X3557598Y1954663D01*
X3557606Y1954436D01*
X3557613Y1954206D01*
X3557620Y1953973D01*
X3557628Y1953737D01*
X3557635Y1953499D01*
X3557642Y1953258D01*
X3557649Y1953014D01*
X3557657Y1952767D01*
X3557663Y1952518D01*
X3557670Y1952266D01*
X3557677Y1952011D01*
X3557684Y1951753D01*
X3557690Y1951493D01*
X3557697Y1951229D01*
X3557703Y1950963D01*
X3557709Y1950694D01*
X3557716Y1950422D01*
X3557722Y1950147D01*
X3557728Y1949869D01*
X3557734Y1949588D01*
X3557740Y1949304D01*
X3557746Y1949017D01*
X3557751Y1948727D01*
X3557757Y1948434D01*
X3557763Y1948138D01*
X3557768Y1947839D01*
X3557774Y1947536D01*
X3557779Y1947231D01*
X3557784Y1946923D01*
X3557789Y1946611D01*
X3557795Y1946297D01*
X3557800Y1945979D01*
X3557805Y1945658D01*
X3557809Y1945334D01*
X3557814Y1945006D01*
X3557819Y1944676D01*
X3557824Y1944342D01*
X3557828Y1944005D01*
X3557833Y1943664D01*
X3557837Y1943321D01*
X3557841Y1942974D01*
X3557846Y1942623D01*
X3557850Y1942270D01*
X3557854Y1941913D01*
X3557858Y1941553D01*
X3557862Y1941189D01*
X3557866Y1940822D01*
X3557870Y1940451D01*
X3557874Y1940077D01*
X3557878Y1939699D01*
X3557881Y1939319D01*
X3557885Y1938934D01*
X3557889Y1938546D01*
X3557892Y1938155D01*
X3557895Y1937760D01*
X3557899Y1937361D01*
X3557902Y1936959D01*
X3557905Y1936553D01*
X3557908Y1936144D01*
X3557911Y1935731D01*
X3557914Y1935315D01*
X3557917Y1934894D01*
X3557920Y1934470D01*
X3557923Y1934043D01*
X3557926Y1933612D01*
X3557929Y1933177D01*
X3557931Y1932738D01*
X3557934Y1932295D01*
X3557936Y1931849D01*
X3557939Y1931399D01*
X3557941Y1930946D01*
X3557944Y1930488D01*
X3557946Y1930026D01*
X3557948Y1929561D01*
X3557951Y1929092D01*
X3557953Y1928619D01*
X3557955Y1928142D01*
X3557957Y1927661D01*
X3557959Y1927176D01*
X3557961Y1926687D01*
X3557963Y1926195D01*
X3557965Y1925698D01*
X3557967Y1925197D01*
X3557968Y1924693D01*
X3557970Y1924184D01*
X3557972Y1923671D01*
X3557973Y1923154D01*
X3557975Y1922633D01*
X3557976Y1922108D01*
X3557978Y1921579D01*
X3557979Y1921046D01*
X3557981Y1920508D01*
X3557982Y1919967D01*
X3557983Y1919421D01*
X3557985Y1918871D01*
X3557986Y1918317D01*
X3557987Y1917758D01*
X3557988Y1917196D01*
X3557989Y1916629D01*
X3557990Y1916058D01*
X3557991Y1915482D01*
X3557992Y1914903D01*
X3557993Y1914319D01*
X3557994Y1913730D01*
X3557995Y1913137D01*
X3557995Y1912540D01*
X3557996Y1911938D01*
X3557997Y1911332D01*
X3557998Y1910722D01*
X3557998Y1910107D01*
X3557999Y1909488D01*
X3557999Y1908864D01*
X3558000Y1908236D01*
X3558001Y1907603D01*
X3558001Y1906966D01*
X3558001Y1906324D01*
X3558002Y1905678D01*
X3558002Y1905027D01*
X3558003Y1904371D01*
X3558003Y1903711D01*
X3558003Y1903046D01*
X3558003Y1902377D01*
X3558004Y1901703D01*
X3558004Y1901024D01*
X3558004Y1900341D01*
X3558004Y1899652D01*
X3558004Y1898959D01*
X3558004Y1898262D01*
X3558005Y1897560D01*
Y1896852D01*
Y1896140D01*
X3557999Y1886811D01*
X3557983Y1878256D01*
X3557956Y1870448D01*
X3557916Y1863363D01*
X3557864Y1856974D01*
X3557799Y1851255D01*
X3557720Y1846180D01*
X3557626Y1841724D01*
X3557516Y1837861D01*
X3557391Y1834564D01*
X3557249Y1831807D01*
X3557091Y1829566D01*
X3556914Y1827813D01*
X3556719Y1826524D01*
X3556505Y1825671D01*
X3556271Y1825229D01*
X3556240Y1825200D01*
X3556203Y1825170D01*
X3556163Y1825141D01*
X3556119Y1825112D01*
X3556070Y1825083D01*
X3556017Y1825055D01*
X3555959Y1825027D01*
X3555898Y1824999D01*
X3555831Y1824972D01*
X3555761Y1824945D01*
X3555686Y1824918D01*
X3555607Y1824891D01*
X3555523Y1824865D01*
X3555435Y1824839D01*
X3555342Y1824813D01*
X3555244Y1824787D01*
X3555142Y1824762D01*
X3555036Y1824737D01*
X3554925Y1824713D01*
X3554809Y1824688D01*
X3554688Y1824665D01*
X3554562Y1824641D01*
X3554432Y1824617D01*
X3554297Y1824594D01*
X3554158Y1824571D01*
X3554013Y1824548D01*
X3553864Y1824526D01*
X3553709Y1824504D01*
X3553550Y1824482D01*
X3553386Y1824460D01*
X3553216Y1824439D01*
X3553042Y1824418D01*
X3552863Y1824397D01*
X3552678Y1824377D01*
X3552489Y1824357D01*
X3552294Y1824336D01*
X3552095Y1824317D01*
X3551890Y1824297D01*
X3551680Y1824278D01*
X3551464Y1824259D01*
X3551244Y1824241D01*
X3551018Y1824222D01*
X3550786Y1824204D01*
X3550550Y1824186D01*
X3550308Y1824168D01*
X3550060Y1824151D01*
X3549807Y1824134D01*
X3549549Y1824117D01*
X3549285Y1824100D01*
X3549016Y1824084D01*
X3548741Y1824068D01*
X3548461Y1824052D01*
X3548175Y1824036D01*
X3547883Y1824021D01*
X3547586Y1824006D01*
X3547282Y1823991D01*
X3546974Y1823976D01*
X3546659Y1823961D01*
X3546339Y1823947D01*
X3546013Y1823933D01*
X3545681Y1823920D01*
X3545343Y1823906D01*
X3544999Y1823893D01*
X3544650Y1823880D01*
X3544294Y1823867D01*
X3543932Y1823854D01*
X3543565Y1823842D01*
X3543191Y1823830D01*
X3542812Y1823818D01*
X3542426Y1823807D01*
X3542034Y1823795D01*
X3541636Y1823784D01*
X3541232Y1823773D01*
X3540822Y1823762D01*
X3540405Y1823752D01*
X3539982Y1823742D01*
X3539553Y1823732D01*
X3539118Y1823722D01*
X3538676Y1823712D01*
X3538228Y1823703D01*
X3537773Y1823694D01*
X3537312Y1823685D01*
X3536845Y1823676D01*
X3536371Y1823667D01*
X3535890Y1823659D01*
X3535403Y1823651D01*
X3534910Y1823643D01*
X3534410Y1823636D01*
X3533903Y1823628D01*
X3533390Y1823621D01*
X3532870Y1823614D01*
X3532343Y1823607D01*
X3531809Y1823600D01*
X3531269Y1823594D01*
X3530722Y1823588D01*
X3530168Y1823582D01*
X3529607Y1823576D01*
X3529040Y1823570D01*
X3528465Y1823565D01*
X3527883Y1823559D01*
X3527295Y1823554D01*
X3526700Y1823550D01*
X3526097Y1823545D01*
X3525488Y1823541D01*
X3524871Y1823536D01*
X3524247Y1823532D01*
X3523617Y1823528D01*
X3522979Y1823525D01*
X3522333Y1823521D01*
X3521681Y1823518D01*
X3521021Y1823515D01*
X3520354Y1823512D01*
X3519680Y1823509D01*
X3518999Y1823506D01*
X3518310Y1823504D01*
X3517613Y1823502D01*
X3516910Y1823500D01*
X3516199Y1823498D01*
X3515480Y1823496D01*
X3514754Y1823495D01*
X3514020Y1823494D01*
X3513279Y1823493D01*
X3512530Y1823492D01*
X3511774Y1823491D01*
X3511010Y1823490D01*
X3510238Y1823490D01*
X3509459Y1823490D01*
X3508671Y1823489D01*
X3500926Y1823492D01*
X3494099Y1823500D01*
X3488133Y1823518D01*
X3482965Y1823551D01*
X3478535Y1823600D01*
X3474784Y1823669D01*
X3471651Y1823764D01*
X3469075Y1823886D01*
X3466997Y1824039D01*
X3465356Y1824228D01*
X3464091Y1824455D01*
X3463143Y1824724D01*
X3462451Y1825039D01*
X3461955Y1825403D01*
X3461594Y1825820D01*
X3461309Y1826293D01*
X3461297Y1826316D01*
X3461286Y1826340D01*
X3461275Y1826367D01*
X3461263Y1826396D01*
X3461252Y1826427D01*
X3461241Y1826460D01*
X3461230Y1826495D01*
X3461219Y1826532D01*
X3461208Y1826571D01*
X3461197Y1826612D01*
X3461186Y1826656D01*
X3461175Y1826702D01*
X3461164Y1826749D01*
X3461153Y1826799D01*
X3461143Y1826851D01*
X3461132Y1826905D01*
X3461121Y1826961D01*
X3461111Y1827019D01*
X3461100Y1827079D01*
X3461090Y1827142D01*
X3461079Y1827206D01*
X3461068Y1827273D01*
X3461058Y1827341D01*
X3461048Y1827412D01*
X3461037Y1827485D01*
X3461027Y1827559D01*
X3461017Y1827636D01*
X3461007Y1827715D01*
X3460996Y1827796D01*
X3460986Y1827880D01*
X3460976Y1827965D01*
X3460966Y1828052D01*
X3460956Y1828141D01*
X3460946Y1828233D01*
X3460936Y1828326D01*
X3460926Y1828422D01*
X3460916Y1828520D01*
X3460907Y1828619D01*
X3460897Y1828721D01*
X3460887Y1828825D01*
X3460877Y1828931D01*
X3460868Y1829039D01*
X3460858Y1829149D01*
X3460849Y1829261D01*
X3460839Y1829375D01*
X3460829Y1829491D01*
X3460820Y1829609D01*
X3460811Y1829729D01*
X3460801Y1829852D01*
X3460792Y1829976D01*
X3460783Y1830102D01*
X3460773Y1830231D01*
X3460764Y1830361D01*
X3460755Y1830494D01*
X3460746Y1830629D01*
X3460737Y1830765D01*
X3460728Y1830904D01*
X3460719Y1831044D01*
X3460710Y1831187D01*
X3460701Y1831332D01*
X3460692Y1831479D01*
X3460684Y1831628D01*
X3460675Y1831778D01*
X3460666Y1831931D01*
X3460657Y1832086D01*
X3460649Y1832243D01*
X3460640Y1832402D01*
X3460632Y1832563D01*
X3460623Y1832726D01*
X3460615Y1832891D01*
X3460606Y1833058D01*
X3460598Y1833227D01*
X3460590Y1833398D01*
X3460581Y1833571D01*
X3460573Y1833746D01*
X3460565Y1833924D01*
X3460557Y1834103D01*
X3460548Y1834284D01*
X3460540Y1834467D01*
X3460532Y1834652D01*
X3460524Y1834839D01*
X3460516Y1835028D01*
X3460508Y1835219D01*
X3460501Y1835413D01*
X3460493Y1835608D01*
X3460485Y1835805D01*
X3460477Y1836004D01*
X3460470Y1836205D01*
X3460462Y1836409D01*
X3460454Y1836614D01*
X3460447Y1836821D01*
X3460439Y1837030D01*
X3460432Y1837241D01*
X3460424Y1837454D01*
X3460417Y1837669D01*
X3460410Y1837886D01*
X3460402Y1838105D01*
X3460395Y1838326D01*
X3460388Y1838549D01*
X3460381Y1838774D01*
X3460374Y1839001D01*
X3460367Y1839230D01*
X3460359Y1839461D01*
X3460352Y1839694D01*
X3460345Y1839929D01*
X3460339Y1840166D01*
X3460332Y1840405D01*
X3460325Y1840645D01*
X3460318Y1840888D01*
X3460311Y1841133D01*
X3460305Y1841380D01*
X3460298Y1841628D01*
X3460291Y1841879D01*
X3460285Y1842131D01*
X3460278Y1842386D01*
X3460272Y1842642D01*
X3460265Y1842901D01*
X3460259Y1843161D01*
X3460253Y1843423D01*
X3460246Y1843688D01*
X3460240Y1843954D01*
X3460234Y1844222D01*
X3460228Y1844492D01*
X3460222Y1844764D01*
X3460216Y1845038D01*
X3460210Y1845314D01*
X3460204Y1845592D01*
X3460198Y1845872D01*
X3460192Y1846154D01*
X3460186Y1846438D01*
X3460180Y1846723D01*
X3460174Y1847011D01*
X3460169Y1847301D01*
X3460163Y1847592D01*
X3460157Y1847885D01*
X3460152Y1848181D01*
X3460146Y1848478D01*
X3460141Y1848777D01*
X3460135Y1849078D01*
X3460130Y1849381D01*
X3460124Y1849686D01*
X3460119Y1849993D01*
X3460114Y1850302D01*
X3460109Y1850613D01*
X3460103Y1850925D01*
X3460098Y1851240D01*
X3460093Y1851556D01*
X3460088Y1851875D01*
X3460083Y1852195D01*
X3460078Y1852517D01*
X3460073Y1852841D01*
X3460068Y1853167D01*
X3460064Y1853495D01*
X3460059Y1853825D01*
X3460054Y1854157D01*
X3460049Y1854491D01*
X3460045Y1854826D01*
X3460040Y1855164D01*
X3460035Y1855503D01*
X3460031Y1855844D01*
X3460027Y1856187D01*
X3460022Y1856532D01*
X3460018Y1856879D01*
X3460013Y1857228D01*
X3460009Y1857579D01*
X3460005Y1857931D01*
X3460001Y1858286D01*
X3459997Y1858642D01*
X3459992Y1859000D01*
X3459988Y1859361D01*
X3459984Y1859723D01*
X3459981Y1860086D01*
X3459977Y1860452D01*
X3459973Y1860820D01*
X3459969Y1861189D01*
X3459965Y1861561D01*
X3459961Y1861934D01*
X3459958Y1862309D01*
X3459954Y1862686D01*
X3459950Y1863065D01*
X3459947Y1863446D01*
X3459943Y1863829D01*
X3459940Y1864213D01*
X3459936Y1864599D01*
X3459933Y1864988D01*
X3459930Y1865378D01*
X3459927Y1865770D01*
X3459923Y1866163D01*
X3459920Y1866559D01*
X3459917Y1866957D01*
X3459914Y1867356D01*
X3459911Y1867757D01*
X3459908Y1868160D01*
X3459905Y1868565D01*
X3459902Y1868972D01*
X3459899Y1869381D01*
X3459896Y1869791D01*
X3459894Y1870203D01*
X3459891Y1870618D01*
X3459888Y1871034D01*
X3459885Y1871451D01*
X3459883Y1871871D01*
X3459880Y1872293D01*
X3459878Y1872716D01*
X3459876Y1873141D01*
X3459873Y1873568D01*
X3459871Y1873997D01*
X3459868Y1874428D01*
X3459866Y1874860D01*
X3459864Y1875294D01*
X3459862Y1875731D01*
X3459860Y1876169D01*
X3459858Y1876609D01*
X3459856Y1877050D01*
X3459854Y1877494D01*
X3459852Y1877939D01*
X3459850Y1878386D01*
X3459848Y1878835D01*
X3459846Y1879286D01*
X3459845Y1879738D01*
X3459843Y1880193D01*
X3459841Y1880649D01*
X3459840Y1881107D01*
X3459838Y1881567D01*
X3459836Y1882028D01*
X3459835Y1882492D01*
X3459834Y1882957D01*
X3459832Y1883424D01*
X3459831Y1883893D01*
X3459830Y1884363D01*
X3459829Y1884836D01*
X3459827Y1885310D01*
X3459826Y1885786D01*
X3459825Y1886264D01*
X3459824Y1886744D01*
X3459823Y1887225D01*
X3459822Y1887708D01*
X3459821Y1888193D01*
X3459820Y1888680D01*
X3459820Y1889168D01*
X3459819Y1889659D01*
X3459818Y1890151D01*
X3459818Y1890645D01*
X3459817Y1891141D01*
X3459816Y1891638D01*
X3459816Y1892137D01*
X3459815Y1892638D01*
X3459815Y1893141D01*
X3459815Y1893646D01*
X3459814Y1894152D01*
X3459814Y1894660D01*
X3459814Y1895170D01*
X3459814Y1895682D01*
X3459814Y1896195D01*
X3459814Y1896710D01*
Y1897227D01*
Y1965358D01*
X3463023Y1967613D01*
X3463706Y1967922D01*
X3464825Y1968211D01*
X3466352Y1968480D01*
X3468257Y1968729D01*
X3470512Y1968957D01*
X3473085Y1969166D01*
X3475949Y1969355D01*
X3479074Y1969524D01*
X3482430Y1969673D01*
X3485987Y1969802D01*
X3489717Y1969910D01*
X3493590Y1969999D01*
X3497577Y1970068D01*
X3501647Y1970117D01*
X3505772Y1970146D01*
X3509922Y1970155D01*
X3514068Y1970144D01*
D02*
G37*
%LPC*%
G36*
X3546454Y1958277D02*
X3471365D01*
Y1896679D01*
Y1835084D01*
X3546454D01*
Y1896679D01*
Y1958277D01*
D02*
G37*
%LPD*%
G36*
X3515017Y1951026D02*
X3515340Y1951016D01*
X3515649Y1950997D01*
X3515945Y1950968D01*
X3516229Y1950928D01*
X3516502Y1950877D01*
X3516765Y1950811D01*
X3517019Y1950731D01*
X3517265Y1950636D01*
X3517505Y1950523D01*
X3517739Y1950392D01*
X3517969Y1950241D01*
X3518195Y1950070D01*
X3518419Y1949877D01*
X3518642Y1949660D01*
X3518865Y1949419D01*
X3519088Y1949153D01*
X3519314Y1948859D01*
X3519542Y1948538D01*
X3519774Y1948187D01*
X3520012Y1947805D01*
X3520256Y1947392D01*
X3520508Y1946946D01*
X3520768Y1946466D01*
X3521037Y1945950D01*
X3521317Y1945398D01*
X3521609Y1944808D01*
X3521913Y1944178D01*
X3522231Y1943509D01*
X3522564Y1942797D01*
X3522913Y1942043D01*
X3523280Y1941245D01*
X3523746Y1940230D01*
X3524220Y1939207D01*
X3524700Y1938182D01*
X3525181Y1937162D01*
X3525660Y1936155D01*
X3526134Y1935166D01*
X3526599Y1934204D01*
X3527052Y1933274D01*
X3527490Y1932383D01*
X3527910Y1931540D01*
X3528307Y1930749D01*
X3528678Y1930019D01*
X3529021Y1929356D01*
X3529332Y1928767D01*
X3529607Y1928258D01*
X3529843Y1927838D01*
X3530320Y1926989D01*
X3530733Y1926203D01*
X3531081Y1925472D01*
X3531364Y1924792D01*
X3531582Y1924156D01*
X3531735Y1923558D01*
X3531824Y1922994D01*
X3531847Y1922457D01*
X3531804Y1921941D01*
X3531697Y1921442D01*
X3531523Y1920952D01*
X3531285Y1920466D01*
X3530980Y1919979D01*
X3530610Y1919485D01*
X3530174Y1918978D01*
X3529671Y1918453D01*
X3529474Y1918258D01*
X3529279Y1918074D01*
X3529086Y1917899D01*
X3528895Y1917735D01*
X3528706Y1917581D01*
X3528518Y1917438D01*
X3528332Y1917305D01*
X3528147Y1917182D01*
X3527964Y1917071D01*
X3527781Y1916970D01*
X3527600Y1916880D01*
X3527419Y1916802D01*
X3527239Y1916735D01*
X3527059Y1916679D01*
X3526880Y1916635D01*
X3526702Y1916602D01*
X3526523Y1916581D01*
X3526344Y1916572D01*
X3526165Y1916575D01*
X3525986Y1916591D01*
X3525806Y1916618D01*
X3525626Y1916658D01*
X3525445Y1916711D01*
X3525263Y1916776D01*
X3525081Y1916854D01*
X3524897Y1916945D01*
X3524711Y1917049D01*
X3524525Y1917166D01*
X3524337Y1917296D01*
X3524147Y1917440D01*
X3523955Y1917598D01*
X3523762Y1917769D01*
X3523566Y1917954D01*
X3523368Y1918153D01*
X3523168Y1918366D01*
X3522965Y1918593D01*
X3522760Y1918834D01*
X3522552Y1919090D01*
X3522341Y1919361D01*
X3522127Y1919646D01*
X3521909Y1919946D01*
X3521689Y1920261D01*
X3521464Y1920591D01*
X3521237Y1920936D01*
X3521005Y1921296D01*
X3520770Y1921672D01*
X3520530Y1922064D01*
X3520287Y1922471D01*
X3520039Y1922894D01*
X3519786Y1923333D01*
X3519529Y1923788D01*
X3519268Y1924260D01*
X3519001Y1924747D01*
X3518730Y1925252D01*
X3518453Y1925772D01*
X3518171Y1926310D01*
X3517884Y1926864D01*
X3517591Y1927435D01*
X3517292Y1928024D01*
X3516988Y1928629D01*
X3516678Y1929252D01*
X3516361Y1929893D01*
X3516039Y1930551D01*
X3515709Y1931226D01*
X3515014Y1932671D01*
X3514362Y1934048D01*
X3513753Y1935359D01*
X3513188Y1936605D01*
X3512666Y1937789D01*
X3512187Y1938910D01*
X3511752Y1939972D01*
X3511359Y1940974D01*
X3511010Y1941919D01*
X3510704Y1942808D01*
X3510440Y1943642D01*
X3510219Y1944423D01*
X3510041Y1945152D01*
X3509906Y1945831D01*
X3509813Y1946460D01*
X3509763Y1947042D01*
X3509755Y1947578D01*
X3509790Y1948069D01*
X3509866Y1948516D01*
X3509985Y1948922D01*
X3510146Y1949287D01*
X3510350Y1949613D01*
X3510595Y1949901D01*
X3510882Y1950153D01*
X3511211Y1950370D01*
X3511582Y1950553D01*
X3511994Y1950705D01*
X3512448Y1950825D01*
X3512943Y1950917D01*
X3513481Y1950980D01*
X3514059Y1951017D01*
X3514678Y1951030D01*
X3515017Y1951026D01*
D02*
G37*
G36*
X3497882Y1926463D02*
X3498550Y1926424D01*
X3499194Y1926347D01*
X3499813Y1926230D01*
X3500403Y1926072D01*
X3500962Y1925874D01*
X3501488Y1925633D01*
X3501979Y1925350D01*
X3502432Y1925023D01*
X3502845Y1924652D01*
X3503173Y1924301D01*
X3503466Y1923946D01*
X3503722Y1923587D01*
X3503942Y1923225D01*
X3504127Y1922861D01*
X3504277Y1922495D01*
X3504393Y1922129D01*
X3504475Y1921763D01*
X3504523Y1921398D01*
X3504538Y1921035D01*
X3504520Y1920674D01*
X3504470Y1920316D01*
X3504388Y1919963D01*
X3504274Y1919614D01*
X3504130Y1919270D01*
X3503955Y1918932D01*
X3503749Y1918602D01*
X3503515Y1918279D01*
X3503250Y1917965D01*
X3502957Y1917659D01*
X3502635Y1917364D01*
X3502285Y1917080D01*
X3501908Y1916807D01*
X3501504Y1916546D01*
X3501073Y1916298D01*
X3500615Y1916064D01*
X3500132Y1915844D01*
X3499623Y1915639D01*
X3499089Y1915451D01*
X3498530Y1915279D01*
X3497948Y1915125D01*
X3497341Y1914988D01*
X3496351Y1914730D01*
X3495345Y1914366D01*
X3494352Y1913912D01*
X3493399Y1913386D01*
X3492515Y1912804D01*
X3491727Y1912183D01*
X3491064Y1911541D01*
X3490552Y1910892D01*
X3490226Y1910390D01*
X3489948Y1909933D01*
X3489717Y1909514D01*
X3489535Y1909128D01*
X3489402Y1908768D01*
X3489320Y1908428D01*
X3489289Y1908101D01*
X3489310Y1907782D01*
X3489385Y1907465D01*
X3489513Y1907142D01*
X3489697Y1906808D01*
X3489937Y1906457D01*
X3490234Y1906083D01*
X3490589Y1905679D01*
X3491003Y1905239D01*
X3491477Y1904756D01*
X3492152Y1904153D01*
X3492926Y1903590D01*
X3493771Y1903080D01*
X3494660Y1902635D01*
X3495566Y1902268D01*
X3496461Y1901990D01*
X3497318Y1901815D01*
X3498110Y1901754D01*
X3498965Y1901686D01*
X3499780Y1901490D01*
X3500547Y1901180D01*
X3501261Y1900767D01*
X3501914Y1900265D01*
X3502500Y1899685D01*
X3503012Y1899040D01*
X3503442Y1898343D01*
X3503785Y1897605D01*
X3504034Y1896841D01*
X3504182Y1896061D01*
X3504222Y1895279D01*
X3504148Y1894507D01*
X3503952Y1893758D01*
X3503628Y1893043D01*
X3503169Y1892377D01*
X3502731Y1891931D01*
X3502186Y1891515D01*
X3501557Y1891138D01*
X3500866Y1890810D01*
X3500133Y1890538D01*
X3499381Y1890333D01*
X3498630Y1890204D01*
X3497903Y1890159D01*
X3497153Y1890097D01*
X3496334Y1889921D01*
X3495474Y1889644D01*
X3494599Y1889276D01*
X3493736Y1888831D01*
X3492910Y1888321D01*
X3492148Y1887759D01*
X3491477Y1887156D01*
X3491002Y1886672D01*
X3490588Y1886231D01*
X3490233Y1885826D01*
X3489936Y1885451D01*
X3489696Y1885100D01*
X3489512Y1884766D01*
X3489383Y1884443D01*
X3489309Y1884124D01*
X3489288Y1883804D01*
X3489320Y1883477D01*
X3489403Y1883135D01*
X3489536Y1882773D01*
X3489719Y1882384D01*
X3489951Y1881963D01*
X3490230Y1881502D01*
X3490557Y1880995D01*
X3491048Y1880352D01*
X3491651Y1879735D01*
X3492341Y1879158D01*
X3493096Y1878637D01*
X3493892Y1878185D01*
X3494705Y1877818D01*
X3495511Y1877550D01*
X3496289Y1877396D01*
X3497255Y1877228D01*
X3498188Y1876970D01*
X3499080Y1876629D01*
X3499924Y1876215D01*
X3500712Y1875735D01*
X3501438Y1875200D01*
X3502093Y1874618D01*
X3502670Y1873997D01*
X3503163Y1873346D01*
X3503563Y1872675D01*
X3503863Y1871991D01*
X3504056Y1871304D01*
X3504135Y1870622D01*
X3504091Y1869955D01*
X3503919Y1869310D01*
X3503610Y1868697D01*
X3503382Y1868379D01*
X3503125Y1868086D01*
X3502834Y1867818D01*
X3502509Y1867574D01*
X3502147Y1867354D01*
X3501746Y1867158D01*
X3501305Y1866984D01*
X3500821Y1866832D01*
X3500291Y1866702D01*
X3499715Y1866593D01*
X3499090Y1866505D01*
X3498415Y1866436D01*
X3497686Y1866386D01*
X3496902Y1866355D01*
X3496061Y1866343D01*
X3495162Y1866348D01*
X3494611Y1866358D01*
X3494085Y1866373D01*
X3493584Y1866392D01*
X3493105Y1866417D01*
X3492647Y1866448D01*
X3492209Y1866485D01*
X3491790Y1866529D01*
X3491388Y1866581D01*
X3491002Y1866642D01*
X3490631Y1866711D01*
X3490272Y1866790D01*
X3489926Y1866880D01*
X3489590Y1866980D01*
X3489263Y1867091D01*
X3488944Y1867215D01*
X3488632Y1867351D01*
X3488325Y1867501D01*
X3488022Y1867664D01*
X3487721Y1867842D01*
X3487421Y1868036D01*
X3487122Y1868245D01*
X3486821Y1868470D01*
X3486517Y1868713D01*
X3486209Y1868973D01*
X3485895Y1869252D01*
X3485575Y1869549D01*
X3485246Y1869866D01*
X3484908Y1870203D01*
X3484559Y1870560D01*
X3484198Y1870939D01*
X3483824Y1871340D01*
X3483434Y1871764D01*
X3482748Y1872530D01*
X3482126Y1873259D01*
X3481564Y1873956D01*
X3481060Y1874628D01*
X3480612Y1875281D01*
X3480216Y1875921D01*
X3479871Y1876554D01*
X3479573Y1877186D01*
X3479320Y1877823D01*
X3479110Y1878471D01*
X3478939Y1879137D01*
X3478805Y1879826D01*
X3478705Y1880545D01*
X3478638Y1881299D01*
X3478599Y1882095D01*
X3478586Y1882939D01*
X3478633Y1884191D01*
X3478767Y1885497D01*
X3478979Y1886819D01*
X3479259Y1888119D01*
X3479598Y1889357D01*
X3479987Y1890495D01*
X3480416Y1891496D01*
X3480876Y1892320D01*
X3481244Y1892891D01*
X3481563Y1893409D01*
X3481833Y1893881D01*
X3482054Y1894313D01*
X3482226Y1894713D01*
X3482348Y1895089D01*
X3482422Y1895447D01*
X3482446Y1895795D01*
X3482422Y1896142D01*
X3482348Y1896493D01*
X3482226Y1896856D01*
X3482054Y1897239D01*
X3481833Y1897649D01*
X3481563Y1898094D01*
X3481244Y1898580D01*
X3480876Y1899116D01*
X3480577Y1899574D01*
X3480300Y1900060D01*
X3480044Y1900571D01*
X3479809Y1901106D01*
X3479595Y1901663D01*
X3479402Y1902240D01*
X3479231Y1902835D01*
X3479080Y1903447D01*
X3478951Y1904073D01*
X3478842Y1904712D01*
X3478755Y1905361D01*
X3478688Y1906020D01*
X3478641Y1906686D01*
X3478616Y1907357D01*
X3478611Y1908032D01*
X3478626Y1908708D01*
X3478662Y1909384D01*
X3478718Y1910058D01*
X3478794Y1910728D01*
X3478891Y1911393D01*
X3479008Y1912050D01*
X3479144Y1912698D01*
X3479301Y1913334D01*
X3479478Y1913957D01*
X3479675Y1914566D01*
X3479891Y1915157D01*
X3480127Y1915730D01*
X3480383Y1916283D01*
X3480659Y1916813D01*
X3480953Y1917320D01*
X3481268Y1917800D01*
X3481602Y1918253D01*
X3482142Y1918910D01*
X3482715Y1919546D01*
X3483318Y1920159D01*
X3483947Y1920748D01*
X3484602Y1921312D01*
X3485279Y1921851D01*
X3485976Y1922365D01*
X3486691Y1922852D01*
X3487421Y1923311D01*
X3488164Y1923742D01*
X3488917Y1924145D01*
X3489678Y1924518D01*
X3490444Y1924861D01*
X3491214Y1925172D01*
X3491984Y1925452D01*
X3492753Y1925700D01*
X3493517Y1925914D01*
X3494275Y1926094D01*
X3495024Y1926240D01*
X3495762Y1926351D01*
X3496485Y1926425D01*
X3497193Y1926463D01*
X3497882Y1926463D01*
D02*
G37*
G36*
X3529218Y1879962D02*
X3529933Y1879813D01*
X3530639Y1879579D01*
X3531316Y1879269D01*
X3531945Y1878893D01*
X3532505Y1878462D01*
X3532977Y1877986D01*
X3533341Y1877476D01*
X3533917Y1876458D01*
X3534394Y1875559D01*
X3534725Y1874876D01*
X3534858Y1874507D01*
X3534852Y1874475D01*
X3534829Y1874415D01*
X3534789Y1874328D01*
X3534734Y1874215D01*
X3534664Y1874076D01*
X3534579Y1873912D01*
X3534479Y1873723D01*
X3534365Y1873511D01*
X3534237Y1873276D01*
X3534097Y1873019D01*
X3533943Y1872740D01*
X3533776Y1872441D01*
X3533598Y1872121D01*
X3533408Y1871782D01*
X3533207Y1871424D01*
X3532994Y1871049D01*
X3532772Y1870655D01*
X3532539Y1870246D01*
X3532297Y1869820D01*
X3532045Y1869379D01*
X3531785Y1868924D01*
X3531516Y1868454D01*
X3531239Y1867972D01*
X3530955Y1867477D01*
X3530663Y1866970D01*
X3530365Y1866453D01*
X3530060Y1865925D01*
X3529749Y1865387D01*
X3529433Y1864841D01*
X3529111Y1864286D01*
X3528785Y1863724D01*
X3528454Y1863155D01*
X3528119Y1862579D01*
X3527781Y1861998D01*
X3527440Y1861413D01*
X3527096Y1860823D01*
X3526749Y1860230D01*
X3526401Y1859635D01*
X3526051Y1859037D01*
X3525700Y1858439D01*
X3525348Y1857839D01*
X3524996Y1857240D01*
X3524644Y1856642D01*
X3524293Y1856045D01*
X3523942Y1855450D01*
X3523593Y1854859D01*
X3523245Y1854270D01*
X3522900Y1853687D01*
X3522557Y1853108D01*
X3522217Y1852535D01*
X3521881Y1851968D01*
X3521548Y1851409D01*
X3521219Y1850857D01*
X3520895Y1850314D01*
X3520576Y1849780D01*
X3520262Y1849256D01*
X3519954Y1848743D01*
X3519652Y1848241D01*
X3519357Y1847751D01*
X3519069Y1847274D01*
X3518788Y1846810D01*
X3518515Y1846360D01*
X3518251Y1845925D01*
X3517994Y1845505D01*
X3517438Y1844686D01*
X3516852Y1844005D01*
X3516226Y1843460D01*
X3515554Y1843046D01*
X3514825Y1842758D01*
X3514031Y1842592D01*
X3513163Y1842543D01*
X3512213Y1842607D01*
X3511859Y1842651D01*
X3511517Y1842700D01*
X3511186Y1842752D01*
X3510868Y1842808D01*
X3510562Y1842868D01*
X3510268Y1842933D01*
X3509986Y1843003D01*
X3509716Y1843077D01*
X3509459Y1843157D01*
X3509214Y1843242D01*
X3508981Y1843334D01*
X3508760Y1843431D01*
X3508552Y1843535D01*
X3508357Y1843646D01*
X3508174Y1843764D01*
X3508003Y1843888D01*
X3507846Y1844021D01*
X3507700Y1844161D01*
X3507568Y1844309D01*
X3507448Y1844466D01*
X3507341Y1844631D01*
X3507247Y1844806D01*
X3507165Y1844989D01*
X3507097Y1845182D01*
X3507041Y1845384D01*
X3506998Y1845597D01*
X3506968Y1845820D01*
X3506952Y1846054D01*
X3506948Y1846298D01*
X3506958Y1846553D01*
X3506981Y1846820D01*
X3507017Y1847099D01*
X3507066Y1847389D01*
X3507128Y1847692D01*
X3507204Y1848007D01*
X3507293Y1848335D01*
X3507396Y1848676D01*
X3507512Y1849031D01*
X3507642Y1849399D01*
X3507785Y1849781D01*
X3507941Y1850177D01*
X3508112Y1850587D01*
X3508296Y1851012D01*
X3508494Y1851452D01*
X3508705Y1851908D01*
X3508930Y1852379D01*
X3509169Y1852866D01*
X3509422Y1853368D01*
X3509689Y1853888D01*
X3509970Y1854424D01*
X3510265Y1854976D01*
X3510573Y1855546D01*
X3510896Y1856134D01*
X3511233Y1856739D01*
X3511585Y1857362D01*
X3511950Y1858004D01*
X3512330Y1858664D01*
X3512724Y1859343D01*
X3513132Y1860041D01*
X3513555Y1860758D01*
X3513992Y1861495D01*
X3514443Y1862252D01*
X3514909Y1863030D01*
X3515390Y1863828D01*
X3516816Y1866178D01*
X3518122Y1868301D01*
X3519316Y1870208D01*
X3520407Y1871908D01*
X3521403Y1873412D01*
X3522313Y1874732D01*
X3523145Y1875876D01*
X3523907Y1876855D01*
X3524608Y1877680D01*
X3525257Y1878362D01*
X3525861Y1878910D01*
X3526430Y1879335D01*
X3526971Y1879647D01*
X3527493Y1879858D01*
X3528005Y1879976D01*
X3528515Y1880014D01*
X3529218Y1879962D01*
D02*
G37*
%LPC*%
G36*
X3479729Y1739172D02*
X3479100Y1739119D01*
X3478358Y1738998D01*
X3477503Y1738828D01*
X3477286Y1738783D01*
X3477043Y1738735D01*
X3476776Y1738683D01*
X3476486Y1738629D01*
X3476174Y1738572D01*
X3475841Y1738513D01*
X3475487Y1738450D01*
X3475114Y1738386D01*
X3474722Y1738319D01*
X3474313Y1738250D01*
X3473887Y1738179D01*
X3473446Y1738106D01*
X3472990Y1738032D01*
X3472520Y1737956D01*
X3472037Y1737879D01*
X3471543Y1737801D01*
X3471037Y1737721D01*
X3470522Y1737641D01*
X3469998Y1737560D01*
X3469465Y1737478D01*
X3468926Y1737396D01*
X3468380Y1737313D01*
X3467829Y1737231D01*
X3467274Y1737148D01*
X3466715Y1737066D01*
X3466154Y1736984D01*
X3465591Y1736902D01*
X3465028Y1736821D01*
X3464465Y1736740D01*
X3463904Y1736660D01*
X3463345Y1736582D01*
X3462789Y1736505D01*
X3460618Y1736194D01*
X3458570Y1735880D01*
X3456691Y1735572D01*
X3455028Y1735279D01*
X3453626Y1735009D01*
X3452532Y1734771D01*
X3451794Y1734573D01*
X3451456Y1734425D01*
X3451534Y1734056D01*
X3451974Y1733236D01*
X3452729Y1732026D01*
X3453753Y1730491D01*
X3454998Y1728693D01*
X3456416Y1726698D01*
X3457961Y1724568D01*
X3459586Y1722367D01*
X3461242Y1720158D01*
X3462882Y1718005D01*
X3464460Y1715972D01*
X3465928Y1714121D01*
X3467239Y1712518D01*
X3468345Y1711225D01*
X3469199Y1710305D01*
X3469755Y1709823D01*
X3469816Y1709787D01*
X3469877Y1709753D01*
X3469937Y1709724D01*
X3469997Y1709698D01*
X3470056Y1709677D01*
X3470115Y1709661D01*
X3470174Y1709650D01*
X3470233Y1709644D01*
X3470291Y1709644D01*
X3470351Y1709649D01*
X3470410Y1709661D01*
X3470470Y1709679D01*
X3470531Y1709705D01*
X3470593Y1709737D01*
X3470655Y1709776D01*
X3470719Y1709824D01*
X3470784Y1709879D01*
X3470851Y1709942D01*
X3470919Y1710014D01*
X3470988Y1710095D01*
X3471059Y1710186D01*
X3471133Y1710285D01*
X3471208Y1710394D01*
X3471286Y1710514D01*
X3471366Y1710643D01*
X3471448Y1710784D01*
X3471533Y1710935D01*
X3471621Y1711098D01*
X3471712Y1711272D01*
X3471806Y1711457D01*
X3471903Y1711655D01*
X3472003Y1711866D01*
X3472107Y1712089D01*
X3472215Y1712325D01*
X3472326Y1712574D01*
X3472441Y1712837D01*
X3472561Y1713114D01*
X3472684Y1713405D01*
X3472812Y1713711D01*
X3472944Y1714031D01*
X3473081Y1714366D01*
X3473222Y1714717D01*
X3473368Y1715084D01*
X3473520Y1715466D01*
X3473676Y1715865D01*
X3473838Y1716280D01*
X3474005Y1716712D01*
X3474178Y1717161D01*
X3474356Y1717628D01*
X3474541Y1718112D01*
X3474731Y1718614D01*
X3474928Y1719135D01*
X3475130Y1719674D01*
X3475339Y1720233D01*
X3475555Y1720810D01*
X3475778Y1721407D01*
X3476007Y1722024D01*
X3476243Y1722661D01*
X3476486Y1723318D01*
X3476736Y1723996D01*
X3476994Y1724695D01*
X3477260Y1725415D01*
X3477533Y1726157D01*
X3477814Y1726920D01*
X3478616Y1729113D01*
X3479311Y1731041D01*
X3479897Y1732720D01*
X3480375Y1734166D01*
X3480744Y1735393D01*
X3481004Y1736417D01*
X3481154Y1737252D01*
X3481194Y1737916D01*
X3481124Y1738421D01*
X3480943Y1738784D01*
X3480650Y1739021D01*
X3480246Y1739145D01*
X3479729Y1739172D01*
D02*
G37*
G36*
X3479486Y1516914D02*
X3478877Y1516887D01*
X3478224Y1516813D01*
X3478042Y1516787D01*
X3477829Y1516757D01*
X3477587Y1516723D01*
X3477317Y1516686D01*
X3477020Y1516645D01*
X3476697Y1516600D01*
X3476350Y1516553D01*
X3475978Y1516502D01*
X3475583Y1516448D01*
X3475166Y1516392D01*
X3474729Y1516332D01*
X3474271Y1516271D01*
X3473794Y1516207D01*
X3473300Y1516140D01*
X3472789Y1516072D01*
X3472261Y1516001D01*
X3471719Y1515929D01*
X3471163Y1515855D01*
X3470594Y1515779D01*
X3470013Y1515702D01*
X3469422Y1515624D01*
X3468820Y1515544D01*
X3468210Y1515463D01*
X3467592Y1515381D01*
X3466967Y1515299D01*
X3466336Y1515216D01*
X3465701Y1515132D01*
X3465061Y1515048D01*
X3464419Y1514964D01*
X3463775Y1514880D01*
X3463131Y1514796D01*
X3462486Y1514711D01*
X3449997Y1513081D01*
X3456709Y1503982D01*
X3457410Y1503033D01*
X3458121Y1502069D01*
X3458840Y1501095D01*
X3459560Y1500119D01*
X3460277Y1499148D01*
X3460985Y1498188D01*
X3461680Y1497246D01*
X3462357Y1496329D01*
X3463010Y1495444D01*
X3463634Y1494597D01*
X3464226Y1493795D01*
X3464778Y1493046D01*
X3465288Y1492356D01*
X3465749Y1491731D01*
X3466156Y1491179D01*
X3466505Y1490707D01*
X3467779Y1489157D01*
X3468970Y1488030D01*
X3469945Y1487432D01*
X3470572Y1487468D01*
X3470628Y1487534D01*
X3470698Y1487634D01*
X3470778Y1487766D01*
X3470871Y1487931D01*
X3470974Y1488126D01*
X3471088Y1488352D01*
X3471212Y1488607D01*
X3471345Y1488890D01*
X3471489Y1489201D01*
X3471641Y1489538D01*
X3471802Y1489901D01*
X3471971Y1490288D01*
X3472149Y1490699D01*
X3472333Y1491133D01*
X3472525Y1491589D01*
X3472724Y1492066D01*
X3472929Y1492562D01*
X3473140Y1493078D01*
X3473357Y1493612D01*
X3473579Y1494164D01*
X3473806Y1494732D01*
X3474037Y1495315D01*
X3474273Y1495913D01*
X3474512Y1496524D01*
X3474755Y1497149D01*
X3475000Y1497784D01*
X3475248Y1498431D01*
X3475499Y1499088D01*
X3475751Y1499754D01*
X3476005Y1500428D01*
X3476259Y1501109D01*
X3476515Y1501796D01*
X3477510Y1504507D01*
X3478440Y1507077D01*
X3479282Y1509447D01*
X3480017Y1511559D01*
X3480624Y1513353D01*
X3481082Y1514770D01*
X3481372Y1515750D01*
X3481474Y1516235D01*
X3481407Y1516436D01*
X3481217Y1516605D01*
X3480917Y1516741D01*
X3480519Y1516839D01*
X3480038Y1516897D01*
X3479486Y1516914D01*
D02*
G37*
G36*
X3736219Y1955779D02*
X3735997D01*
X3735553D01*
X3734886Y1955668D01*
X3733886Y1955446D01*
X3732886Y1955223D01*
X3731664Y1954890D01*
X3730442Y1954334D01*
X3729331Y1953557D01*
X3729220Y1953446D01*
X3728887Y1953112D01*
X3728331Y1952557D01*
X3727887Y1951779D01*
X3727331Y1950890D01*
X3726776Y1949668D01*
X3726443Y1948113D01*
X3726331Y1946446D01*
Y1945780D01*
X3726443Y1945002D01*
X3726554Y1944002D01*
X3726665Y1942780D01*
X3726998Y1941558D01*
X3727331Y1940114D01*
X3727776Y1938669D01*
X3727887Y1938447D01*
X3728109Y1938003D01*
X3728442Y1937225D01*
X3728887Y1936114D01*
X3729553Y1935003D01*
X3730220Y1933559D01*
X3731109Y1932114D01*
X3732109Y1930670D01*
X3751996D01*
Y1930781D01*
X3751885Y1931226D01*
X3751773Y1932003D01*
X3751662Y1932892D01*
X3751440Y1934114D01*
X3751218Y1935336D01*
X3750885Y1936781D01*
X3750551Y1938336D01*
X3749774Y1941558D01*
X3748774Y1944780D01*
X3748218Y1946335D01*
X3747552Y1947780D01*
X3746885Y1949113D01*
X3746107Y1950224D01*
Y1950335D01*
X3745885Y1950446D01*
X3745330Y1951113D01*
X3744552Y1952001D01*
X3743330Y1953001D01*
X3741885Y1954001D01*
X3740219Y1954890D01*
X3738330Y1955557D01*
X3737330Y1955668D01*
X3736219Y1955779D01*
D02*
G37*
G36*
X3752218Y1768131D02*
Y1767909D01*
X3751996Y1767353D01*
X3751773Y1766464D01*
X3751440Y1765131D01*
X3750885Y1763354D01*
X3750551Y1762354D01*
X3750107Y1761243D01*
X3749662Y1759909D01*
X3749218Y1758576D01*
X3748663Y1757021D01*
X3747996Y1755466D01*
X3748107D01*
X3748218Y1755354D01*
X3748885Y1755132D01*
X3749885Y1754799D01*
X3751329Y1754354D01*
X3752995Y1753799D01*
X3754995Y1753132D01*
X3757328Y1752466D01*
X3759884Y1751688D01*
X3762550Y1750910D01*
X3765550Y1750022D01*
X3768550Y1749244D01*
X3771771Y1748466D01*
X3778326Y1747022D01*
X3785103Y1745800D01*
Y1759243D01*
X3784881D01*
X3784437Y1759465D01*
X3783548Y1759576D01*
X3782437Y1759909D01*
X3781104Y1760243D01*
X3779437Y1760687D01*
X3777438Y1761243D01*
X3775327Y1761798D01*
X3772994Y1762465D01*
X3770438Y1763131D01*
X3767772Y1763798D01*
X3764883Y1764576D01*
X3761883Y1765465D01*
X3758773Y1766353D01*
X3752218Y1768131D01*
D02*
G37*
G36*
X3801768Y1533043D02*
X3781437D01*
Y1522600D01*
X3801768D01*
Y1533043D01*
D02*
G37*
G36*
X3776438D02*
X3756217D01*
Y1522600D01*
X3776438D01*
Y1533043D01*
D02*
G37*
G36*
X3801768Y1514712D02*
X3781437D01*
Y1503824D01*
X3801768D01*
Y1514712D01*
D02*
G37*
G36*
X3776438D02*
X3756217D01*
Y1503824D01*
X3776438D01*
Y1514712D01*
D02*
G37*
G36*
X4033931Y1596288D02*
X4033890D01*
X4033765D01*
X4033598D01*
X4033349Y1596246D01*
X4033058D01*
X4032725Y1596205D01*
X4031934Y1596080D01*
X4031061Y1595914D01*
X4030229Y1595622D01*
X4029397Y1595206D01*
X4029022Y1594957D01*
X4028690Y1594666D01*
X4028606Y1594582D01*
X4028440Y1594374D01*
X4028149Y1594000D01*
X4027816Y1593459D01*
X4027525Y1592793D01*
X4027234Y1591961D01*
X4027067Y1590963D01*
X4026984Y1589840D01*
Y1586345D01*
X4039422D01*
X4039464D01*
X4039506D01*
X4039714Y1586387D01*
X4039963Y1586470D01*
X4040171Y1586595D01*
X4040213Y1586637D01*
X4040254Y1586803D01*
X4040338Y1587053D01*
X4040379Y1587427D01*
Y1590755D01*
X4040338Y1590963D01*
X4040296Y1591462D01*
X4040171Y1592086D01*
X4039963Y1592752D01*
X4039672Y1593459D01*
X4039256Y1594125D01*
X4038715Y1594749D01*
X4038632Y1594832D01*
X4038424Y1594998D01*
X4038008Y1595248D01*
X4037509Y1595539D01*
X4036802Y1595789D01*
X4036011Y1596038D01*
X4035013Y1596205D01*
X4033931Y1596288D01*
D02*
G37*
G36*
X4019163Y1595290D02*
X4019122D01*
X4019038D01*
X4018872D01*
X4018706Y1595248D01*
X4018206Y1595206D01*
X4017582Y1595082D01*
X4016917Y1594915D01*
X4016251Y1594624D01*
X4015627Y1594208D01*
X4015128Y1593667D01*
X4015086Y1593584D01*
X4014920Y1593376D01*
X4014754Y1593043D01*
X4014504Y1592544D01*
X4014296Y1591961D01*
X4014088Y1591254D01*
X4013963Y1590422D01*
X4013922Y1589507D01*
Y1587344D01*
X4013963Y1587136D01*
X4014005Y1586845D01*
X4014171Y1586595D01*
X4014213Y1586553D01*
X4014338Y1586470D01*
X4014546Y1586387D01*
X4014878Y1586345D01*
X4025070D01*
Y1590464D01*
X4025029Y1590672D01*
X4024987Y1591005D01*
X4024904Y1591421D01*
X4024738Y1591920D01*
X4024488Y1592502D01*
X4024114Y1593085D01*
X4023656Y1593667D01*
X4023573Y1593750D01*
X4023365Y1593917D01*
X4023032Y1594166D01*
X4022574Y1594499D01*
X4021950Y1594790D01*
X4021160Y1595040D01*
X4020245Y1595206D01*
X4019163Y1595290D01*
D02*
G37*
G36*
X4029232Y1807314D02*
X4028067D01*
X4027984D01*
X4027818D01*
X4027485D01*
X4027069D01*
X4026570Y1807272D01*
X4025946Y1807230D01*
X4025280Y1807189D01*
X4024573Y1807147D01*
X4023034Y1806981D01*
X4021453Y1806773D01*
X4019872Y1806440D01*
X4019165Y1806232D01*
X4018458Y1805982D01*
X4018416D01*
X4018291Y1805941D01*
X4018125Y1805858D01*
X4017917Y1805733D01*
X4017334Y1805442D01*
X4016669Y1805026D01*
X4016045Y1804526D01*
X4015462Y1803861D01*
X4015254Y1803528D01*
X4015088Y1803154D01*
X4014963Y1802738D01*
X4014922Y1802280D01*
Y1802197D01*
X4014963Y1802072D01*
Y1801906D01*
X4015088Y1801531D01*
X4015379Y1801032D01*
X4015546Y1800741D01*
X4015795Y1800450D01*
X4016086Y1800158D01*
X4016419Y1799826D01*
X4016835Y1799534D01*
X4017293Y1799202D01*
X4017834Y1798910D01*
X4018458Y1798619D01*
X4018499D01*
X4018624Y1798536D01*
X4018832Y1798494D01*
X4019123Y1798370D01*
X4019456Y1798245D01*
X4019914Y1798120D01*
X4020413Y1797995D01*
X4020995Y1797870D01*
X4021619Y1797704D01*
X4022368Y1797579D01*
X4023158Y1797454D01*
X4023990Y1797330D01*
X4024906Y1797205D01*
X4025904Y1797163D01*
X4026944Y1797080D01*
X4028067D01*
X4028150D01*
X4028358D01*
X4028691D01*
X4029149Y1797122D01*
X4029690D01*
X4030314Y1797163D01*
X4030979Y1797205D01*
X4031728Y1797288D01*
X4033350Y1797454D01*
X4035014Y1797746D01*
X4035805Y1797912D01*
X4036595Y1798120D01*
X4037344Y1798370D01*
X4038010Y1798619D01*
X4038051D01*
X4038134Y1798702D01*
X4038342Y1798786D01*
X4038550Y1798910D01*
X4039091Y1799202D01*
X4039715Y1799659D01*
X4040339Y1800200D01*
X4040880Y1800824D01*
X4041088Y1801157D01*
X4041254Y1801531D01*
X4041379Y1801906D01*
X4041421Y1802280D01*
Y1802363D01*
X4041379Y1802488D01*
Y1802654D01*
X4041254Y1803070D01*
X4041005Y1803570D01*
X4040797Y1803861D01*
X4040589Y1804152D01*
X4040298Y1804443D01*
X4039965Y1804776D01*
X4039590Y1805067D01*
X4039133Y1805358D01*
X4038592Y1805650D01*
X4038010Y1805899D01*
X4037968D01*
X4037843Y1805941D01*
X4037635Y1806024D01*
X4037386Y1806107D01*
X4037011Y1806232D01*
X4036554Y1806357D01*
X4036054Y1806482D01*
X4035472Y1806606D01*
X4034806Y1806731D01*
X4034058Y1806856D01*
X4033267Y1806981D01*
X4032352Y1807106D01*
X4031395Y1807189D01*
X4030355Y1807272D01*
X4029232Y1807314D01*
D02*
G37*
G36*
X4034931Y1785515D02*
X4034890D01*
X4034765D01*
X4034598D01*
X4034349Y1785474D01*
X4034058D01*
X4033725Y1785432D01*
X4032934Y1785307D01*
X4032061Y1785141D01*
X4031229Y1784850D01*
X4030397Y1784434D01*
X4030022Y1784184D01*
X4029690Y1783893D01*
X4029606Y1783810D01*
X4029440Y1783602D01*
X4029149Y1783227D01*
X4028816Y1782686D01*
X4028525Y1782021D01*
X4028234Y1781189D01*
X4028067Y1780190D01*
X4027984Y1779067D01*
Y1775573D01*
X4040422D01*
X4040464D01*
X4040506D01*
X4040714Y1775614D01*
X4040963Y1775698D01*
X4041171Y1775822D01*
X4041213Y1775864D01*
X4041254Y1776030D01*
X4041338Y1776280D01*
X4041379Y1776654D01*
Y1779982D01*
X4041338Y1780190D01*
X4041296Y1780690D01*
X4041171Y1781314D01*
X4040963Y1781979D01*
X4040672Y1782686D01*
X4040256Y1783352D01*
X4039715Y1783976D01*
X4039632Y1784059D01*
X4039424Y1784226D01*
X4039008Y1784475D01*
X4038509Y1784766D01*
X4037802Y1785016D01*
X4037011Y1785266D01*
X4036013Y1785432D01*
X4034931Y1785515D01*
D02*
G37*
G36*
X4020163Y1784517D02*
X4020122D01*
X4020038D01*
X4019872D01*
X4019706Y1784475D01*
X4019206Y1784434D01*
X4018582Y1784309D01*
X4017917Y1784142D01*
X4017251Y1783851D01*
X4016627Y1783435D01*
X4016128Y1782894D01*
X4016086Y1782811D01*
X4015920Y1782603D01*
X4015754Y1782270D01*
X4015504Y1781771D01*
X4015296Y1781189D01*
X4015088Y1780482D01*
X4014963Y1779650D01*
X4014922Y1778734D01*
Y1776571D01*
X4014963Y1776363D01*
X4015005Y1776072D01*
X4015171Y1775822D01*
X4015213Y1775781D01*
X4015338Y1775698D01*
X4015546Y1775614D01*
X4015878Y1775573D01*
X4026070D01*
Y1779691D01*
X4026029Y1779899D01*
X4025987Y1780232D01*
X4025904Y1780648D01*
X4025738Y1781147D01*
X4025488Y1781730D01*
X4025114Y1782312D01*
X4024656Y1782894D01*
X4024573Y1782978D01*
X4024365Y1783144D01*
X4024032Y1783394D01*
X4023574Y1783726D01*
X4022950Y1784018D01*
X4022160Y1784267D01*
X4021245Y1784434D01*
X4020163Y1784517D01*
D02*
G37*
%LPD*%
D51*
X3266500Y1483774D02*
G03*
X3290997Y1508768I-503J24995D01*
G01*
X3195500Y1986082D02*
G03*
X3220184Y1961397I24685J-0D01*
G01*
X3291500Y1936578D02*
G03*
X3266500Y1961578I-25000J0D01*
G01*
X3218500Y1483351D02*
G03*
X3193500Y1458351I-0J-25000D01*
G01*
X4156437Y2698000D02*
G03*
X4061437Y2793000I-95000J0D01*
G01*
X3290701Y2793000D02*
G03*
X3195578Y2698307I0J-95124D01*
G01*
X4127500Y1181063D02*
G03*
X4156437Y1208794I603J28334D01*
G01*
X3193769Y1210437D02*
G03*
X3221500Y1181500I28334J-603D01*
G01*
X3452320Y1137756D02*
G03*
X3428698Y1161378I-23622J0D01*
G01*
D02*
G03*
X3405076Y1137756I0J-23622D01*
G01*
X4080275Y1181063D02*
G03*
X4060590Y1161378I0J-19685D01*
G01*
X3279094D02*
G03*
X3259409Y1181063I-19685J0D01*
G01*
X3195500Y1986082D02*
Y2698376D01*
X3220684Y1961417D02*
X3266231D01*
X3290997Y1508768D02*
Y1936578D01*
X3218500Y1483351D02*
X3266078D01*
X3193769Y1437795D02*
Y1458082D01*
Y1210437D02*
Y1437795D01*
X3221937Y1181063D02*
X3259409D01*
X3290701Y2793000D02*
X4061437Y2793000D01*
X4156437Y2683794D02*
Y2698000D01*
X4097643Y2625000D02*
X4156437Y2683794D01*
X4132810Y2184833D02*
X4156437Y2161206D01*
Y1208794D02*
Y2161206D01*
X4080275Y1181063D02*
X4127500D01*
X3255000Y2477968D02*
Y2519968D01*
X3315000Y2477968D02*
Y2519968D01*
X3255000Y2544968D02*
Y2589968D01*
X3315000Y2544968D02*
Y2589968D01*
X3255000Y2477968D02*
X3315000D01*
X3255000Y2589968D02*
X3315000D01*
X3942000Y2737589D02*
X4002000D01*
X3942000Y2657983D02*
X4002000D01*
X3942000Y2704786D02*
Y2737589D01*
X4002000Y2704786D02*
Y2737589D01*
X3942000Y2657983D02*
Y2686786D01*
X4002000Y2657983D02*
Y2686786D01*
X4097643Y2220000D02*
Y2625000D01*
Y2220000D02*
X4132810Y2184833D01*
X4002810Y1235000D02*
Y2185000D01*
X3340000D02*
X4002810D01*
X3340000Y1235000D02*
Y2185000D01*
Y1235000D02*
X4002810D01*
X3279000Y1015000D02*
Y1161285D01*
X3279045Y1015045D02*
X3405076D01*
Y1135000D01*
X3452320Y1015111D02*
Y1137756D01*
Y1015111D02*
X4060520D01*
X4060631Y1015000D02*
Y1159959D01*
X3254827Y2601197D02*
X3475299D01*
Y2750803D01*
X3254827D02*
X3475299D01*
X3254827Y2601197D02*
Y2750803D01*
X3934235Y2600160D02*
X3993335D01*
X3934235Y2245860D02*
X3993335D01*
X4074435D02*
X4133435D01*
Y2600160D01*
X4074435D02*
X4133435D01*
D52*
X3255495Y2042749D02*
X3283239Y2015005D01*
X3311495Y2043261D01*
Y2044000D01*
Y2132000D02*
Y2185000D01*
Y2186000D01*
X3257495D02*
X3311495D01*
X3255495D02*
X3257495D01*
X3255495Y2132000D02*
Y2186000D01*
X3311495Y2044000D02*
Y2098000D01*
X3255495Y2042749D02*
Y2098000D01*
X3253744Y1373754D02*
X3283495Y1403505D01*
X3253744Y1322005D02*
Y1373754D01*
X3283495Y1403505D02*
X3309744Y1377256D01*
Y1322005D02*
Y1377256D01*
Y1234005D02*
Y1288005D01*
X3307744Y1234005D02*
X3309744D01*
X3253744D02*
X3307744D01*
X3253744D02*
Y1235005D01*
Y1288005D01*
D57*
X3540440Y2301630D02*
Y2500842D01*
X3341228D02*
X3540440D01*
X3340440Y2351236D02*
Y2500054D01*
Y2301630D02*
Y2351236D01*
Y2301630D02*
X3540440D01*
%TF.MD5,ee73d8903078578dcf9d314fc4c66afa*%
M02*
