%TF.GenerationSoftware,Altium Limited,Altium Designer,19.0.4 (130)*%
G04 Layer_Color=0*
%FSLAX26Y26*%
%MOIN*%
%TF.FileFunction,Profile,NP*%
%TF.Part,Single*%
G01*
G75*
%TA.AperFunction,Profile*%
%ADD94C,0.001000*%
D94*
X3219722Y1176564D02*
G03*
X3221937Y1176048I2215J4499D01*
G01*
X3259409D01*
D02*
G02*
X3274059Y1162143I0J-14670D01*
G01*
D02*
G03*
X3273985Y1161285I4941J-858D01*
G01*
Y1015000D01*
D02*
G03*
X3279670Y1010030I5015J0D01*
G01*
X3405076D01*
D02*
G03*
X3410091Y1015045I0J5015D01*
G01*
Y1135000D01*
D02*
G03*
X3409898Y1136378I-5015J0D01*
G01*
D02*
G03*
X3410091Y1137756I-4822J1378D01*
G01*
D02*
G02*
X3428698Y1156363I18607J0D01*
G01*
D02*
G02*
X3447305Y1137756I0J-18607D01*
G01*
Y1015111D01*
D02*
G03*
X3452320Y1010096I5015J0D01*
G01*
X4059582D01*
D02*
G03*
X4065646Y1015000I1049J4904D01*
G01*
Y1159959D01*
D02*
G03*
X4065573Y1160812I-5015J0D01*
G01*
X4065573Y1160812D01*
D02*
G03*
X4065605Y1161378I-4983J566D01*
G01*
D02*
G02*
X4080275Y1176048I14670J0D01*
G01*
X4127450D01*
D02*
G02*
X4127393Y1176049I653J33349D01*
G01*
X4127450Y1176048D01*
D02*
G03*
X4161451Y1208687I653J33349D01*
G01*
D02*
G03*
X4161452Y1208794I-5014J107D01*
G01*
Y2161206D01*
D02*
G03*
X4159966Y2164769I-5015J0D01*
G01*
X4159983Y2164752D01*
X4136373Y2188362D01*
D02*
G03*
X4136356Y2188379I-3563J-3529D01*
G01*
D02*
G03*
X4136339Y2188396I-3546J-3546D01*
G01*
X4136373Y2188362D01*
X4102658Y2222077D01*
Y2240845D01*
X4133435D01*
D02*
G03*
X4138450Y2245860I0J5015D01*
G01*
Y2600160D01*
D02*
G03*
X4133435Y2605175I-5015J0D01*
G01*
X4102658D01*
Y2622923D01*
X4159983Y2680248D01*
X4159966Y2680231D01*
D02*
G03*
X4161452Y2683794I-3529J3563D01*
G01*
Y2698000D01*
D02*
G03*
X4061437Y2798015I-100015J0D01*
G01*
X3290701Y2798015D01*
D02*
G03*
X3190573Y2699309I0J-100139D01*
G01*
X3190572D01*
D02*
G03*
X3190485Y2698376I4928J-933D01*
G01*
Y1986082D01*
D02*
G03*
X3220184Y1956382I29700J0D01*
G01*
D02*
G03*
X3220635Y1956403I0J5015D01*
G01*
X3220635D01*
D02*
G03*
X3220684Y1956402I50J5015D01*
G01*
X3266231D01*
D02*
G03*
X3267407Y1956542I0J5015D01*
G01*
Y1956542D01*
D02*
G02*
X3286387Y1938553I-907J-19964D01*
G01*
D02*
G03*
X3285982Y1936578I4609J-1976D01*
G01*
Y1508768D01*
D02*
G02*
X3266399Y1488787I-19985J0D01*
G01*
D02*
G03*
X3264486Y1488366I101J-5014D01*
G01*
X3218500D01*
D02*
G03*
X3188485Y1458351I0J-30015D01*
G01*
D02*
G03*
X3188754Y1456731I5015J0D01*
G01*
Y1210487D01*
D02*
G02*
X3188755Y1210544I33349J-653D01*
G01*
X3188754Y1210487D01*
D02*
G03*
X3219722Y1176564I33349J-653D01*
G01*
%TF.MD5,a662dbca14a7d8ae857c00cfd1cdcd51*%
M02*
