%TF.GenerationSoftware,Altium Limited,Altium Designer,19.0.4 (130)*%
G04 Layer_Color=16711935*
%FSLAX26Y26*%
%MOIN*%
%TF.FileFunction,Soldermask,Bot*%
%TF.Part,Single*%
G01*
G75*
%TA.AperFunction,SMDPad,CuDef*%
%ADD60R,0.068000X0.058000*%
%ADD61R,0.039496X0.045992*%
%ADD62R,0.045992X0.039496*%
%ADD63R,0.038000X0.038000*%
%ADD64R,0.063118X0.029654*%
%ADD65R,0.019811X0.023748*%
%ADD66R,0.058000X0.044000*%
%ADD67R,0.044000X0.044000*%
%ADD68C,0.063118*%
%ADD69R,0.038000X0.038000*%
%ADD70R,0.055244X0.067055*%
%ADD71R,0.102488X0.094614*%
%ADD72R,0.045402X0.037528*%
%ADD73R,0.094614X0.102488*%
G04:AMPARAMS|DCode=74|XSize=17.843mil|YSize=69.024mil|CornerRadius=0mil|HoleSize=0mil|Usage=FLASHONLY|Rotation=225.000|XOffset=0mil|YOffset=0mil|HoleType=Round|Shape=Round|*
%AMOVALD74*
21,1,0.051181,0.017843,0.000000,0.000000,315.0*
1,1,0.017843,-0.018095,0.018095*
1,1,0.017843,0.018095,-0.018095*
%
%ADD74OVALD74*%

G04:AMPARAMS|DCode=75|XSize=17.843mil|YSize=69.024mil|CornerRadius=0mil|HoleSize=0mil|Usage=FLASHONLY|Rotation=135.000|XOffset=0mil|YOffset=0mil|HoleType=Round|Shape=Round|*
%AMOVALD75*
21,1,0.051181,0.017843,0.000000,0.000000,225.0*
1,1,0.017843,0.018095,0.018095*
1,1,0.017843,-0.018095,-0.018095*
%
%ADD75OVALD75*%

%ADD76R,0.059181X0.019811*%
%ADD77R,0.094614X0.078866*%
%TA.AperFunction,ConnectorPad*%
%ADD78R,0.021386X0.098551*%
%ADD79R,0.021386X0.098551*%
%TA.AperFunction,ComponentPad*%
%ADD80C,0.358000*%
%ADD81C,0.043000*%
%ADD82R,0.071000X0.047400*%
%ADD83R,0.090700X0.047400*%
G36*
X3269842Y1011063D02*
X4069842D01*
X4069841Y1128065D01*
X3269841D01*
X3269842Y1011063D01*
D02*
G37*
D60*
X3924307Y2169000D02*
D03*
X4014307D02*
D03*
X3859999Y1254599D02*
D03*
X3949999D02*
D03*
X3381918Y1317954D02*
D03*
X3471918D02*
D03*
X3383000Y1408000D02*
D03*
X3473000D02*
D03*
D61*
X3833992Y2502000D02*
D03*
X3771000D02*
D03*
X3721000Y2557000D02*
D03*
X3783992D02*
D03*
X3344000Y1243000D02*
D03*
X3406992D02*
D03*
X3681000Y1471000D02*
D03*
X3743992D02*
D03*
X3742943Y1533494D02*
D03*
X3679951D02*
D03*
X3742935Y1718000D02*
D03*
X3679943D02*
D03*
X3743000Y1657000D02*
D03*
X3680008D02*
D03*
X3742943Y1778494D02*
D03*
X3679951D02*
D03*
X3742943Y1899494D02*
D03*
X3679951D02*
D03*
X3742943Y1959494D02*
D03*
X3679951D02*
D03*
X3742935Y1594494D02*
D03*
X3679943D02*
D03*
X3742943Y1838494D02*
D03*
X3679951D02*
D03*
D62*
X4081127Y1314803D02*
D03*
Y1251811D02*
D03*
X4084213Y1808000D02*
D03*
Y1745008D02*
D03*
D63*
X3489000Y1942000D02*
D03*
X3434000Y1941000D02*
D03*
X3740000Y1366000D02*
D03*
X3685000Y1365000D02*
D03*
X3434000Y1826000D02*
D03*
X3489000Y1827000D02*
D03*
X3434000Y1883000D02*
D03*
X3489000Y1884000D02*
D03*
Y1770000D02*
D03*
X3434000Y1769000D02*
D03*
X3542000Y1247000D02*
D03*
X3487000Y1246000D02*
D03*
X3488000Y1484000D02*
D03*
X3433000Y1483000D02*
D03*
X3489000Y1541000D02*
D03*
X3434000Y1540000D02*
D03*
X3489000Y1598000D02*
D03*
X3434000Y1597000D02*
D03*
X3489000Y1655000D02*
D03*
X3434000Y1654000D02*
D03*
X3489000Y1713000D02*
D03*
X3434000Y1712000D02*
D03*
X3941000Y2654000D02*
D03*
X3886000Y2653000D02*
D03*
X4056000Y2654000D02*
D03*
X4001000Y2653000D02*
D03*
X3859000Y2456000D02*
D03*
X3914000Y2457000D02*
D03*
X3859000Y2389000D02*
D03*
X3914000Y2390000D02*
D03*
D64*
X3620000Y1228000D02*
D03*
Y1302803D02*
D03*
X3738110Y1265402D02*
D03*
Y1302803D02*
D03*
Y1228000D02*
D03*
D65*
X3745000Y1416779D02*
D03*
X3679000D02*
D03*
D66*
X3249000Y2542000D02*
D03*
D67*
X3329000Y2505000D02*
D03*
Y2580000D02*
D03*
D68*
X3531000Y2614000D02*
D03*
D69*
X4084000Y1886000D02*
D03*
X4083000Y1941000D02*
D03*
Y2057000D02*
D03*
X4084000Y2002000D02*
D03*
X4080629Y1658787D02*
D03*
X4081629Y1603787D02*
D03*
X4083000Y1429000D02*
D03*
X4084000Y1374000D02*
D03*
X4081725Y1544000D02*
D03*
X4082725Y1489000D02*
D03*
D70*
X4037000Y2723000D02*
D03*
X3907079D02*
D03*
D71*
X4013000Y2355102D02*
D03*
Y2492898D02*
D03*
D72*
X3467000Y2706000D02*
D03*
X3466000Y2644500D02*
D03*
X3247000D02*
D03*
Y2706000D02*
D03*
D73*
X3332000Y2675000D02*
D03*
D74*
X3475302Y2542494D02*
D03*
X3461383Y2528574D02*
D03*
X3447463Y2514655D02*
D03*
X3433544Y2500735D02*
D03*
X3419625Y2486816D02*
D03*
X3405705Y2472896D02*
D03*
X3391786Y2458977D02*
D03*
X3377866Y2445058D02*
D03*
X3363947Y2431138D02*
D03*
X3350027Y2417219D02*
D03*
X3336108Y2403300D02*
D03*
X3322189Y2389380D02*
D03*
X3308269Y2375461D02*
D03*
X3294350Y2361541D02*
D03*
X3280430Y2347622D02*
D03*
X3266511Y2333702D02*
D03*
X3572716Y2027497D02*
D03*
X3586635Y2041417D02*
D03*
X3600555Y2055336D02*
D03*
X3614474Y2069256D02*
D03*
X3628394Y2083175D02*
D03*
X3642313Y2097094D02*
D03*
X3656233Y2111014D02*
D03*
X3670152Y2124933D02*
D03*
X3684071Y2138853D02*
D03*
X3697991Y2152772D02*
D03*
X3711910Y2166691D02*
D03*
X3725830Y2180611D02*
D03*
X3739749Y2194530D02*
D03*
X3753669Y2208450D02*
D03*
X3767588Y2222369D02*
D03*
X3781507Y2236289D02*
D03*
D75*
X3266511D02*
D03*
X3280430Y2222369D02*
D03*
X3294350Y2208450D02*
D03*
X3308269Y2194530D02*
D03*
X3322189Y2180611D02*
D03*
X3336108Y2166691D02*
D03*
X3350027Y2152772D02*
D03*
X3363947Y2138853D02*
D03*
X3377866Y2124933D02*
D03*
X3391786Y2111014D02*
D03*
X3405705Y2097094D02*
D03*
X3419624Y2083175D02*
D03*
X3433544Y2069256D02*
D03*
X3447463Y2055336D02*
D03*
X3461383Y2041417D02*
D03*
X3475302Y2027497D02*
D03*
X3781507Y2333702D02*
D03*
X3767588Y2347622D02*
D03*
X3753669Y2361541D02*
D03*
X3739749Y2375461D02*
D03*
X3725830Y2389380D02*
D03*
X3711910Y2403299D02*
D03*
X3697991Y2417219D02*
D03*
X3684071Y2431138D02*
D03*
X3670152Y2445058D02*
D03*
X3656233Y2458977D02*
D03*
X3642313Y2472896D02*
D03*
X3628394Y2486816D02*
D03*
X3614474Y2500735D02*
D03*
X3600555Y2514655D02*
D03*
X3586635Y2528574D02*
D03*
X3572716Y2542494D02*
D03*
D76*
X4014307Y1995039D02*
D03*
Y1975354D02*
D03*
Y1955669D02*
D03*
Y1935984D02*
D03*
Y1916299D02*
D03*
Y1896614D02*
D03*
Y1876929D02*
D03*
Y1857244D02*
D03*
Y1837559D02*
D03*
Y1817874D02*
D03*
Y1798189D02*
D03*
Y1778504D02*
D03*
Y1758819D02*
D03*
Y1739134D02*
D03*
Y1719449D02*
D03*
Y1699764D02*
D03*
Y1680079D02*
D03*
Y1660393D02*
D03*
Y1640708D02*
D03*
Y1621023D02*
D03*
Y1601338D02*
D03*
Y1542283D02*
D03*
Y1522598D02*
D03*
Y1502913D02*
D03*
Y1483228D02*
D03*
Y1463543D02*
D03*
Y1443858D02*
D03*
Y1424173D02*
D03*
Y1561968D02*
D03*
Y1581653D02*
D03*
D77*
X3916000Y2060000D02*
D03*
X3916000Y1359212D02*
D03*
D78*
X3472987Y1084995D02*
D03*
X3591105D02*
D03*
D79*
X3945441Y1085001D02*
D03*
X4024169Y1084997D02*
D03*
X4004494Y1084998D02*
D03*
X3335202Y1084996D02*
D03*
X3315508Y1084999D02*
D03*
X3374572Y1084996D02*
D03*
X3354878Y1084999D02*
D03*
X3492673Y1084988D02*
D03*
X3512358Y1084998D02*
D03*
X3571423Y1084997D02*
D03*
X3551729Y1084998D02*
D03*
X3532052Y1084997D02*
D03*
X3610793D02*
D03*
X3630477Y1085002D02*
D03*
X3925742Y1085000D02*
D03*
X3906068Y1085002D02*
D03*
X3886374Y1085003D02*
D03*
X3965115Y1085002D02*
D03*
X3984800Y1084997D02*
D03*
X3807633Y1085003D02*
D03*
X3787957Y1085002D02*
D03*
X3768264Y1085003D02*
D03*
X3847003D02*
D03*
X3866698Y1085002D02*
D03*
X3827327D02*
D03*
X3728894Y1085003D02*
D03*
X3748588Y1085002D02*
D03*
X3709218D02*
D03*
X3650153Y1085003D02*
D03*
X3689523D02*
D03*
X3669847Y1085001D02*
D03*
D80*
X3670000Y2790000D02*
D03*
D81*
X3609000Y2895655D02*
D03*
X3731000D02*
D03*
X3792000Y2790000D02*
D03*
X3731000Y2684345D02*
D03*
X3609000D02*
D03*
X3548000Y2790000D02*
D03*
D82*
X4033872Y2593071D02*
D03*
X4033872Y2252939D02*
D03*
D83*
X3869285Y2593068D02*
D03*
Y2252944D02*
D03*
%TF.MD5,64bade41d11403c05c1427d35666bde6*%
M02*
