%TF.GenerationSoftware,Altium Limited,Altium Designer,19.0.4 (130)*%
G04 Layer_Color=0*
%FSLAX26Y26*%
%MOIN*%
%TF.FileFunction,Plated,1,4,PTH,Drill*%
%TF.Part,Single*%
G01*
G75*
%TA.AperFunction,ComponentDrill*%
%ADD95C,0.140000*%
%ADD96C,0.040000*%
%ADD97C,0.040000*%
%ADD98C,0.040000*%
%ADD99O,0.047220X0.023620*%
%ADD100O,0.066920X0.023620*%
%TA.AperFunction,ViaDrill,NotFilled*%
%ADD101C,0.017716*%
%ADD102C,0.025591*%
D95*
X3670000Y2790000D02*
D03*
D96*
X3609000Y2895655D02*
D03*
X3731000Y2684345D02*
D03*
D97*
Y2895655D02*
D03*
X3609000Y2684345D02*
D03*
D98*
X3792000Y2790000D02*
D03*
X3548000D02*
D03*
D99*
X4033865Y2593080D02*
D03*
Y2252920D02*
D03*
D100*
X3869305Y2593080D02*
D03*
Y2252920D02*
D03*
D101*
X3962500Y1918000D02*
D03*
X4121053Y1463447D02*
D03*
X3974088Y1728500D02*
D03*
Y1654000D02*
D03*
X3308000Y2504000D02*
D03*
X3627000Y1269000D02*
D03*
X3432000Y1483000D02*
D03*
X3641000Y1679000D02*
D03*
X3562000Y1799000D02*
D03*
X3787000Y1626000D02*
D03*
X3282000Y1363000D02*
D03*
X3914000Y1927000D02*
D03*
X3560000Y1493000D02*
D03*
X3500000Y1595000D02*
D03*
X3501000Y1654000D02*
D03*
X4109000Y1207000D02*
D03*
X4024000Y2195000D02*
D03*
X3245000Y2559000D02*
D03*
X3723000Y1301000D02*
D03*
X3620000Y1900126D02*
D03*
X3551858Y2001000D02*
D03*
X3739000Y1715000D02*
D03*
X3511000Y2008000D02*
D03*
X3435000Y1826000D02*
D03*
X3908000Y1507000D02*
D03*
X4081629Y1707000D02*
D03*
X3802000Y2259000D02*
D03*
X3671000Y1720000D02*
D03*
X3318000Y1396000D02*
D03*
X3790000Y1436000D02*
D03*
X3929000Y1886000D02*
D03*
X3875000Y1997000D02*
D03*
X3278000Y2141000D02*
D03*
X3403000Y1249000D02*
D03*
X3346000Y1245000D02*
D03*
X3742000Y1657000D02*
D03*
X3468000Y2458000D02*
D03*
X3779000Y2545000D02*
D03*
X3710333Y2550000D02*
D03*
X3844000D02*
D03*
X3579000Y2134000D02*
D03*
X3638684Y2171000D02*
D03*
X3755000Y2081000D02*
D03*
X3768000Y2122000D02*
D03*
X3710333Y2069367D02*
D03*
X3554950Y2105000D02*
D03*
X4098465Y2160000D02*
D03*
X3930957Y1996000D02*
D03*
X4034016Y2115000D02*
D03*
X3847000Y1850000D02*
D03*
X3682000Y1971000D02*
D03*
X3991000Y2072000D02*
D03*
X3624000Y1785000D02*
D03*
X3535000Y1728000D02*
D03*
Y1666000D02*
D03*
X3559000Y1618000D02*
D03*
X3914000Y1434000D02*
D03*
X3947000Y1271000D02*
D03*
X4032000Y1334000D02*
D03*
X4084000Y2058000D02*
D03*
X3740000Y1365000D02*
D03*
X3488000Y1442000D02*
D03*
X3679951Y1533494D02*
D03*
X4112000Y2672000D02*
D03*
X4075346Y2107000D02*
D03*
X3359000Y2702000D02*
D03*
X3420000Y2704000D02*
D03*
X3332000Y2590000D02*
D03*
X3300000Y2763000D02*
D03*
X3278000Y2582000D02*
D03*
X3728000Y2271000D02*
D03*
X3249000Y1436000D02*
D03*
X3728000Y1265000D02*
D03*
X3560000Y1382000D02*
D03*
X3338841Y2345000D02*
D03*
X3310000Y2317000D02*
D03*
X3535000Y2277295D02*
D03*
X3429000Y2328000D02*
D03*
X3391786Y2369000D02*
D03*
X3261000Y2030000D02*
D03*
X4084000Y1887000D02*
D03*
X3289000Y2431000D02*
D03*
X3502000Y2322000D02*
D03*
X4052000Y2671000D02*
D03*
X3879000Y2380000D02*
D03*
Y2464000D02*
D03*
X3807000Y2292000D02*
D03*
X3481000Y2592080D02*
D03*
X3392000Y2752000D02*
D03*
X3607000Y1956000D02*
D03*
X3313000Y2451000D02*
D03*
X3347000Y2042000D02*
D03*
X3325000Y2069000D02*
D03*
X3410091Y2016000D02*
D03*
X3378000Y2024000D02*
D03*
X3293000Y2017000D02*
D03*
X3434000Y2176000D02*
D03*
X3412000Y2205000D02*
D03*
X3391786Y2234000D02*
D03*
X3445000Y2210000D02*
D03*
X3413000Y2266000D02*
D03*
X3454000Y2263000D02*
D03*
X3322000D02*
D03*
X3509000Y2045489D02*
D03*
X3466000Y2319000D02*
D03*
X3484000Y2355102D02*
D03*
X3496000Y2390000D02*
D03*
X3505000Y2448000D02*
D03*
X3535000Y2189000D02*
D03*
X3576000Y2190000D02*
D03*
X3608000Y2263000D02*
D03*
X3850000Y2172000D02*
D03*
X3674000Y2282000D02*
D03*
X3644000Y2304000D02*
D03*
X3875000Y1575000D02*
D03*
X3640000Y2360000D02*
D03*
X3599000Y2355102D02*
D03*
X3592874Y2389000D02*
D03*
X3567441Y2410000D02*
D03*
X3572000Y2467000D02*
D03*
X3389000Y2569000D02*
D03*
X3421000Y2589000D02*
D03*
X3541890Y1245000D02*
D03*
X4119000Y1285000D02*
D03*
X3869305Y1206000D02*
D03*
X3369000Y1319000D02*
D03*
X3981000Y1356000D02*
D03*
X3652000Y1144000D02*
D03*
X3328000Y1157000D02*
D03*
X3325000Y1322000D02*
D03*
X3748000Y1196000D02*
D03*
X3818000Y1407000D02*
D03*
X3711910Y1418000D02*
D03*
X3680008Y1328000D02*
D03*
X3630000Y1399000D02*
D03*
X3624000Y1181063D02*
D03*
X3563000Y1565000D02*
D03*
X3530000Y1408000D02*
D03*
X3325000Y1288000D02*
D03*
X3366000Y1193000D02*
D03*
X3818000Y1364000D02*
D03*
X3814000Y1469000D02*
D03*
X3898000Y1301000D02*
D03*
X4004489Y1380000D02*
D03*
X4036000Y1299000D02*
D03*
D102*
X3888985Y2536780D02*
D03*
Y2309220D02*
D03*
%TF.MD5,d9c4d7582a4b3445843eae47f4eab66c*%
M02*
