%TF.GenerationSoftware,Altium Limited,Altium Designer,19.0.4 (130)*%
G04 Layer_Color=128*
%FSLAX26Y26*%
%MOIN*%
%TF.FileFunction,Drillmap*%
%TF.Part,Single*%
G01*
G75*
%TA.AperFunction,NonConductor*%
%ADD93C,0.005000*%
D93*
X3600000Y2790000D02*
X3740000D01*
X3670000Y2720000D02*
Y2860000D01*
X3589000Y2895655D02*
X3629000D01*
X3609000Y2875655D02*
Y2915655D01*
X3711000Y2895655D02*
X3751000D01*
X3731000Y2875655D02*
Y2915655D01*
X3772000Y2790000D02*
X3812000D01*
X3792000Y2770000D02*
Y2810000D01*
X3711000Y2684345D02*
X3751000D01*
X3731000Y2664345D02*
Y2704345D01*
X3589000Y2684345D02*
X3629000D01*
X3609000Y2664345D02*
Y2704345D01*
X3528000Y2790000D02*
X3568000D01*
X3548000Y2770000D02*
Y2810000D01*
X4022055Y2593080D02*
X4045675D01*
X4033865Y2581270D02*
Y2604890D01*
X3857495Y2593080D02*
X3881115D01*
X3869305Y2581270D02*
Y2604890D01*
X3857495Y2252920D02*
X3881115D01*
X3869305Y2241110D02*
Y2264730D01*
X4022055Y2252920D02*
X4045675D01*
X4033865Y2241110D02*
Y2264730D01*
X3953642Y1918000D02*
X3971358D01*
X3962500Y1909142D02*
Y1926858D01*
X4112194Y1463447D02*
X4129911D01*
X4121053Y1454589D02*
Y1472306D01*
X3965230Y1728500D02*
X3982946D01*
X3974088Y1719642D02*
Y1737358D01*
X3965230Y1654000D02*
X3982946D01*
X3974088Y1645142D02*
Y1662858D01*
X3299142Y2504000D02*
X3316858D01*
X3308000Y2495142D02*
Y2512858D01*
X3618142Y1269000D02*
X3635858D01*
X3627000Y1260142D02*
Y1277858D01*
X3423142Y1483000D02*
X3440858D01*
X3432000Y1474142D02*
Y1491858D01*
X3632142Y1679000D02*
X3649858D01*
X3641000Y1670142D02*
Y1687858D01*
X3553142Y1799000D02*
X3570858D01*
X3562000Y1790142D02*
Y1807858D01*
X3778142Y1626000D02*
X3795858D01*
X3787000Y1617142D02*
Y1634858D01*
X3273142Y1363000D02*
X3290858D01*
X3282000Y1354142D02*
Y1371858D01*
X3905142Y1927000D02*
X3922858D01*
X3914000Y1918142D02*
Y1935858D01*
X3551142Y1493000D02*
X3568858D01*
X3560000Y1484142D02*
Y1501858D01*
X3491142Y1595000D02*
X3508858D01*
X3500000Y1586142D02*
Y1603858D01*
X3492142Y1654000D02*
X3509858D01*
X3501000Y1645142D02*
Y1662858D01*
X4100142Y1207000D02*
X4117858D01*
X4109000Y1198142D02*
Y1215858D01*
X4015142Y2195000D02*
X4032858D01*
X4024000Y2186142D02*
Y2203858D01*
X3236142Y2559000D02*
X3253858D01*
X3245000Y2550142D02*
Y2567858D01*
X3714142Y1301000D02*
X3731858D01*
X3723000Y1292142D02*
Y1309858D01*
X3611142Y1900126D02*
X3628858D01*
X3620000Y1891268D02*
Y1908984D01*
X3543000Y2001000D02*
X3560716D01*
X3551858Y1992142D02*
Y2009858D01*
X3730142Y1715000D02*
X3747858D01*
X3739000Y1706142D02*
Y1723858D01*
X3502142Y2008000D02*
X3519858D01*
X3511000Y1999142D02*
Y2016858D01*
X3426142Y1826000D02*
X3443858D01*
X3435000Y1817142D02*
Y1834858D01*
X3899142Y1507000D02*
X3916858D01*
X3908000Y1498142D02*
Y1515858D01*
X4072771Y1707000D02*
X4090488D01*
X4081629Y1698142D02*
Y1715858D01*
X3793142Y2259000D02*
X3810858D01*
X3802000Y2250142D02*
Y2267858D01*
X3662142Y1720000D02*
X3679858D01*
X3671000Y1711142D02*
Y1728858D01*
X3309142Y1396000D02*
X3326858D01*
X3318000Y1387142D02*
Y1404858D01*
X3781142Y1436000D02*
X3798858D01*
X3790000Y1427142D02*
Y1444858D01*
X3920142Y1886000D02*
X3937858D01*
X3929000Y1877142D02*
Y1894858D01*
X3866142Y1997000D02*
X3883858D01*
X3875000Y1988142D02*
Y2005858D01*
X3269142Y2141000D02*
X3286858D01*
X3278000Y2132142D02*
Y2149858D01*
X3394142Y1249000D02*
X3411858D01*
X3403000Y1240142D02*
Y1257858D01*
X3337142Y1245000D02*
X3354858D01*
X3346000Y1236142D02*
Y1253858D01*
X3733142Y1657000D02*
X3750858D01*
X3742000Y1648142D02*
Y1665858D01*
X3459142Y2458000D02*
X3476858D01*
X3468000Y2449142D02*
Y2466858D01*
X3770142Y2545000D02*
X3787858D01*
X3779000Y2536142D02*
Y2553858D01*
X3701475Y2550000D02*
X3719191D01*
X3710333Y2541142D02*
Y2558858D01*
X3835142Y2550000D02*
X3852858D01*
X3844000Y2541142D02*
Y2558858D01*
X3570142Y2134000D02*
X3587858D01*
X3579000Y2125142D02*
Y2142858D01*
X3629826Y2171000D02*
X3647543D01*
X3638684Y2162142D02*
Y2179858D01*
X3746142Y2081000D02*
X3763858D01*
X3755000Y2072142D02*
Y2089858D01*
X3759142Y2122000D02*
X3776858D01*
X3768000Y2113142D02*
Y2130858D01*
X3701475Y2069367D02*
X3719191D01*
X3710333Y2060509D02*
Y2078225D01*
X3546091Y2105000D02*
X3563808D01*
X3554950Y2096142D02*
Y2113858D01*
X4089606Y2160000D02*
X4107323D01*
X4098465Y2151142D02*
Y2168858D01*
X3922099Y1996000D02*
X3939815D01*
X3930957Y1987142D02*
Y2004858D01*
X4025158Y2115000D02*
X4042874D01*
X4034016Y2106142D02*
Y2123858D01*
X3838142Y1850000D02*
X3855858D01*
X3847000Y1841142D02*
Y1858858D01*
X3673142Y1971000D02*
X3690858D01*
X3682000Y1962142D02*
Y1979858D01*
X3982142Y2072000D02*
X3999858D01*
X3991000Y2063142D02*
Y2080858D01*
X3615142Y1785000D02*
X3632858D01*
X3624000Y1776142D02*
Y1793858D01*
X3526142Y1728000D02*
X3543858D01*
X3535000Y1719142D02*
Y1736858D01*
X3526142Y1666000D02*
X3543858D01*
X3535000Y1657142D02*
Y1674858D01*
X3550142Y1618000D02*
X3567858D01*
X3559000Y1609142D02*
Y1626858D01*
X3905142Y1434000D02*
X3922858D01*
X3914000Y1425142D02*
Y1442858D01*
X3938142Y1271000D02*
X3955858D01*
X3947000Y1262142D02*
Y1279858D01*
X4023142Y1334000D02*
X4040858D01*
X4032000Y1325142D02*
Y1342858D01*
X4075142Y2058000D02*
X4092858D01*
X4084000Y2049142D02*
Y2066858D01*
X3731142Y1365000D02*
X3748858D01*
X3740000Y1356142D02*
Y1373858D01*
X3479142Y1442000D02*
X3496858D01*
X3488000Y1433142D02*
Y1450858D01*
X3671093Y1533494D02*
X3688809D01*
X3679951Y1524636D02*
Y1542353D01*
X4103142Y2672000D02*
X4120858D01*
X4112000Y2663142D02*
Y2680858D01*
X4066488Y2107000D02*
X4084204D01*
X4075346Y2098142D02*
Y2115858D01*
X3350142Y2702000D02*
X3367858D01*
X3359000Y2693142D02*
Y2710858D01*
X3411142Y2704000D02*
X3428858D01*
X3420000Y2695142D02*
Y2712858D01*
X3323142Y2590000D02*
X3340858D01*
X3332000Y2581142D02*
Y2598858D01*
X3291142Y2763000D02*
X3308858D01*
X3300000Y2754142D02*
Y2771858D01*
X3269142Y2582000D02*
X3286858D01*
X3278000Y2573142D02*
Y2590858D01*
X3719142Y2271000D02*
X3736858D01*
X3728000Y2262142D02*
Y2279858D01*
X3240142Y1436000D02*
X3257858D01*
X3249000Y1427142D02*
Y1444858D01*
X3719142Y1265000D02*
X3736858D01*
X3728000Y1256142D02*
Y1273858D01*
X3551142Y1382000D02*
X3568858D01*
X3560000Y1373142D02*
Y1390858D01*
X3329983Y2345000D02*
X3347699D01*
X3338841Y2336142D02*
Y2353858D01*
X3301142Y2317000D02*
X3318858D01*
X3310000Y2308142D02*
Y2325858D01*
X3526142Y2277295D02*
X3543858D01*
X3535000Y2268437D02*
Y2286153D01*
X3420142Y2328000D02*
X3437858D01*
X3429000Y2319142D02*
Y2336858D01*
X3382927Y2369000D02*
X3400644D01*
X3391786Y2360142D02*
Y2377858D01*
X3252142Y2030000D02*
X3269858D01*
X3261000Y2021142D02*
Y2038858D01*
X4075142Y1887000D02*
X4092858D01*
X4084000Y1878142D02*
Y1895858D01*
X3280142Y2431000D02*
X3297858D01*
X3289000Y2422142D02*
Y2439858D01*
X3493142Y2322000D02*
X3510858D01*
X3502000Y2313142D02*
Y2330858D01*
X4043142Y2671000D02*
X4060858D01*
X4052000Y2662142D02*
Y2679858D01*
X3870142Y2380000D02*
X3887858D01*
X3879000Y2371142D02*
Y2388858D01*
X3870142Y2464000D02*
X3887858D01*
X3879000Y2455142D02*
Y2472858D01*
X3798142Y2292000D02*
X3815858D01*
X3807000Y2283142D02*
Y2300858D01*
X3472142Y2592080D02*
X3489858D01*
X3481000Y2583222D02*
Y2600938D01*
X3383142Y2752000D02*
X3400858D01*
X3392000Y2743142D02*
Y2760858D01*
X3598142Y1956000D02*
X3615858D01*
X3607000Y1947142D02*
Y1964858D01*
X3304142Y2451000D02*
X3321858D01*
X3313000Y2442142D02*
Y2459858D01*
X3338142Y2042000D02*
X3355858D01*
X3347000Y2033142D02*
Y2050858D01*
X3316142Y2069000D02*
X3333858D01*
X3325000Y2060142D02*
Y2077858D01*
X3401233Y2016000D02*
X3418949D01*
X3410091Y2007142D02*
Y2024858D01*
X3369142Y2024000D02*
X3386858D01*
X3378000Y2015142D02*
Y2032858D01*
X3284142Y2017000D02*
X3301858D01*
X3293000Y2008142D02*
Y2025858D01*
X3425142Y2176000D02*
X3442858D01*
X3434000Y2167142D02*
Y2184858D01*
X3403142Y2205000D02*
X3420858D01*
X3412000Y2196142D02*
Y2213858D01*
X3382927Y2234000D02*
X3400644D01*
X3391786Y2225142D02*
Y2242858D01*
X3436142Y2210000D02*
X3453858D01*
X3445000Y2201142D02*
Y2218858D01*
X3404142Y2266000D02*
X3421858D01*
X3413000Y2257142D02*
Y2274858D01*
X3445142Y2263000D02*
X3462858D01*
X3454000Y2254142D02*
Y2271858D01*
X3313142Y2263000D02*
X3330858D01*
X3322000Y2254142D02*
Y2271858D01*
X3500142Y2045489D02*
X3517858D01*
X3509000Y2036630D02*
Y2054347D01*
X3457142Y2319000D02*
X3474858D01*
X3466000Y2310142D02*
Y2327858D01*
X3475142Y2355102D02*
X3492858D01*
X3484000Y2346244D02*
Y2363961D01*
X3487142Y2390000D02*
X3504858D01*
X3496000Y2381142D02*
Y2398858D01*
X3496142Y2448000D02*
X3513858D01*
X3505000Y2439142D02*
Y2456858D01*
X3526142Y2189000D02*
X3543858D01*
X3535000Y2180142D02*
Y2197858D01*
X3567142Y2190000D02*
X3584858D01*
X3576000Y2181142D02*
Y2198858D01*
X3599142Y2263000D02*
X3616858D01*
X3608000Y2254142D02*
Y2271858D01*
X3841142Y2172000D02*
X3858858D01*
X3850000Y2163142D02*
Y2180858D01*
X3665142Y2282000D02*
X3682858D01*
X3674000Y2273142D02*
Y2290858D01*
X3635142Y2304000D02*
X3652858D01*
X3644000Y2295142D02*
Y2312858D01*
X3866142Y1575000D02*
X3883858D01*
X3875000Y1566142D02*
Y1583858D01*
X3631142Y2360000D02*
X3648858D01*
X3640000Y2351142D02*
Y2368858D01*
X3590142Y2355102D02*
X3607858D01*
X3599000Y2346244D02*
Y2363961D01*
X3584016Y2389000D02*
X3601732D01*
X3592874Y2380142D02*
Y2397858D01*
X3558583Y2410000D02*
X3576299D01*
X3567441Y2401142D02*
Y2418858D01*
X3563142Y2467000D02*
X3580858D01*
X3572000Y2458142D02*
Y2475858D01*
X3380142Y2569000D02*
X3397858D01*
X3389000Y2560142D02*
Y2577858D01*
X3412142Y2589000D02*
X3429858D01*
X3421000Y2580142D02*
Y2597858D01*
X3533032Y1245000D02*
X3550748D01*
X3541890Y1236142D02*
Y1253858D01*
X4110142Y1285000D02*
X4127858D01*
X4119000Y1276142D02*
Y1293858D01*
X3860447Y1206000D02*
X3878163D01*
X3869305Y1197142D02*
Y1214858D01*
X3360142Y1319000D02*
X3377858D01*
X3369000Y1310142D02*
Y1327858D01*
X3972142Y1356000D02*
X3989858D01*
X3981000Y1347142D02*
Y1364858D01*
X3643142Y1144000D02*
X3660858D01*
X3652000Y1135142D02*
Y1152858D01*
X3319142Y1157000D02*
X3336858D01*
X3328000Y1148142D02*
Y1165858D01*
X3316142Y1322000D02*
X3333858D01*
X3325000Y1313142D02*
Y1330858D01*
X3739142Y1196000D02*
X3756858D01*
X3748000Y1187142D02*
Y1204858D01*
X3809142Y1407000D02*
X3826858D01*
X3818000Y1398142D02*
Y1415858D01*
X3703052Y1418000D02*
X3720768D01*
X3711910Y1409142D02*
Y1426858D01*
X3671150Y1328000D02*
X3688866D01*
X3680008Y1319142D02*
Y1336858D01*
X3621142Y1399000D02*
X3638858D01*
X3630000Y1390142D02*
Y1407858D01*
X3615142Y1181063D02*
X3632858D01*
X3624000Y1172205D02*
Y1189921D01*
X3554142Y1565000D02*
X3571858D01*
X3563000Y1556142D02*
Y1573858D01*
X3521142Y1408000D02*
X3538858D01*
X3530000Y1399142D02*
Y1416858D01*
X3316142Y1288000D02*
X3333858D01*
X3325000Y1279142D02*
Y1296858D01*
X3357142Y1193000D02*
X3374858D01*
X3366000Y1184142D02*
Y1201858D01*
X3809142Y1364000D02*
X3826858D01*
X3818000Y1355142D02*
Y1372858D01*
X3805142Y1469000D02*
X3822858D01*
X3814000Y1460142D02*
Y1477858D01*
X3889142Y1301000D02*
X3906858D01*
X3898000Y1292142D02*
Y1309858D01*
X3995631Y1380000D02*
X4013347D01*
X4004489Y1371142D02*
Y1388858D01*
X4027142Y1299000D02*
X4044858D01*
X4036000Y1290142D02*
Y1307858D01*
X3876190Y2536780D02*
X3901780D01*
X3888985Y2523985D02*
Y2549575D01*
X3876190Y2309220D02*
X3901780D01*
X3888985Y2296425D02*
Y2322015D01*
%TF.MD5,8bb5ff450dce64e5a1fb9b52b430c4c0*%
M02*
