%TF.GenerationSoftware,Altium Limited,Altium Designer,19.0.4 (130)*%
G04 Layer_Color=8421504*
%FSLAX26Y26*%
%MOIN*%
%TF.FileFunction,Paste,Top*%
%TF.Part,Single*%
G01*
G75*
%TA.AperFunction,SMDPad,CuDef*%
%ADD12R,0.037992X0.031496*%
%ADD13R,0.047244X0.059055*%
%ADD14R,0.039370X0.062992*%
%ADD15R,0.051181X0.047244*%
%ADD16R,0.062992X0.066929*%
%TA.AperFunction,ConnectorPad*%
%ADD17R,0.013386X0.070866*%
%TA.AperFunction,SMDPad,CuDef*%
%ADD18R,0.035000X0.050000*%
%ADD19R,0.059055X0.009800*%
%ADD20R,0.059055X0.009900*%
%TA.AperFunction,ConnectorPad*%
%ADD21R,0.059055X0.019700*%
D12*
X3285000Y2564968D02*
D03*
Y2501976D02*
D03*
D13*
X3907000Y2697000D02*
D03*
X4037000D02*
D03*
D14*
X3368000Y2291000D02*
D03*
Y2511472D02*
D03*
X3513668Y2291000D02*
D03*
Y2511472D02*
D03*
D15*
X3439866Y2715370D02*
D03*
Y2636630D02*
D03*
D16*
X3298134Y2676000D02*
D03*
D17*
X3935598Y1074998D02*
D03*
X3384415Y1074999D02*
D03*
X3364720Y1074996D02*
D03*
X3345045Y1074999D02*
D03*
X3325350Y1074996D02*
D03*
X3305675Y1074999D02*
D03*
X3522210Y1075004D02*
D03*
X3502515Y1075001D02*
D03*
X3482840Y1075004D02*
D03*
X4034011Y1075005D02*
D03*
X4014336Y1075000D02*
D03*
X3994641Y1075005D02*
D03*
X3974966Y1075000D02*
D03*
X3955271Y1075005D02*
D03*
X3640320Y1075004D02*
D03*
X3620625Y1075001D02*
D03*
X3600950Y1075004D02*
D03*
X3581255Y1075001D02*
D03*
X3561580Y1075004D02*
D03*
X3541885Y1075001D02*
D03*
X3915899Y1075003D02*
D03*
X3896226Y1075000D02*
D03*
X3876531Y1075005D02*
D03*
X3856856Y1075000D02*
D03*
X3837161Y1075005D02*
D03*
X3817486Y1075000D02*
D03*
X3778106D02*
D03*
X3797801Y1074995D02*
D03*
X3738736Y1075000D02*
D03*
X3758431Y1074995D02*
D03*
X3699366Y1075000D02*
D03*
X3719061Y1075005D02*
D03*
X3679691Y1074995D02*
D03*
X3659995Y1075001D02*
D03*
D18*
X3283495Y2080000D02*
D03*
Y2150000D02*
D03*
X3281744Y1270005D02*
D03*
Y1340005D02*
D03*
D19*
X3834261Y2413160D02*
D03*
Y2432860D02*
D03*
Y2452560D02*
D03*
Y2393460D02*
D03*
D20*
Y2472210D02*
D03*
Y2491910D02*
D03*
Y2373810D02*
D03*
Y2354110D02*
D03*
D21*
Y2328510D02*
D03*
Y2297010D02*
D03*
Y2549010D02*
D03*
Y2517510D02*
D03*
%TF.MD5,e65f88e3459abf165552e6a64c612ee4*%
M02*
