%TF.GenerationSoftware,Altium Limited,Altium Designer,19.0.4 (130)*%
G04 Layer_Color=16711935*
%FSLAX26Y26*%
%MOIN*%
%TF.FileFunction,Other,Mechanical_1*%
%TF.Part,Single*%
G01*
G75*
%TA.AperFunction,NonConductor*%
%ADD93C,0.005000*%
D93*
X3188754Y1210487D02*
G03*
X3219722Y1176564I33349J-653D01*
G01*
X3188755Y1210544D02*
G03*
X3188754Y1210487I33348J-710D01*
G01*
X3188485Y1458351D02*
G03*
X3188754Y1456731I5015J0D01*
G01*
X3218500Y1488366D02*
G03*
X3188485Y1458351I0J-30015D01*
G01*
X3266399Y1488787D02*
G03*
X3264486Y1488366I101J-5014D01*
G01*
X3266399Y1488787D02*
G03*
X3285982Y1508768I-402J19981D01*
G01*
X3286387Y1938553D02*
G03*
X3285982Y1936578I4609J-1976D01*
G01*
X3286387Y1938553D02*
G03*
X3267407Y1956542I-19887J-1976D01*
G01*
X3266231Y1956402D02*
G03*
X3267407Y1956542I0J5015D01*
G01*
X3220635Y1956403D02*
G03*
X3220684Y1956402I50J5015D01*
G01*
X3220184Y1956382D02*
G03*
X3220635Y1956403I0J5015D01*
G01*
X3190485Y1986082D02*
G03*
X3220184Y1956382I29700J0D01*
G01*
X3190572Y2699309D02*
G03*
X3190485Y2698376I4928J-933D01*
G01*
X3290701Y2798015D02*
G03*
X3190573Y2699309I0J-100139D01*
G01*
X4161452Y2698000D02*
G03*
X4061437Y2798015I-100015J0D01*
G01*
X4159966Y2680231D02*
G03*
X4161452Y2683794I-3529J3563D01*
G01*
X4138450Y2600160D02*
G03*
X4133435Y2605175I-5015J0D01*
G01*
Y2240845D02*
G03*
X4138450Y2245860I0J5015D01*
G01*
X4136356Y2188379D02*
G03*
X4136339Y2188396I-3546J-3546D01*
G01*
X4136373Y2188362D02*
G03*
X4136356Y2188379I-3563J-3529D01*
G01*
X4161452Y2161206D02*
G03*
X4159966Y2164769I-5015J0D01*
G01*
X4161451Y1208687D02*
G03*
X4161452Y1208794I-5014J107D01*
G01*
X4127450Y1176048D02*
G03*
X4161451Y1208687I653J33349D01*
G01*
X4127393Y1176049D02*
G03*
X4127450Y1176048I710J33348D01*
G01*
X4080275D02*
G03*
X4065605Y1161378I0J-14670D01*
G01*
X4065573Y1160812D02*
G03*
X4065605Y1161378I-4983J566D01*
G01*
X4065646Y1159959D02*
G03*
X4065573Y1160812I-5015J0D01*
G01*
X4059582Y1010096D02*
G03*
X4065646Y1015000I1049J4904D01*
G01*
X3447305Y1015111D02*
G03*
X3452320Y1010096I5015J0D01*
G01*
X3447305Y1137756D02*
G03*
X3428698Y1156363I-18607J0D01*
G01*
D02*
G03*
X3410091Y1137756I0J-18607D01*
G01*
X3409898Y1136378D02*
G03*
X3410091Y1137756I-4822J1378D01*
G01*
Y1135000D02*
G03*
X3409898Y1136378I-5015J0D01*
G01*
X3405076Y1010030D02*
G03*
X3410091Y1015045I0J5015D01*
G01*
X3273985Y1015000D02*
G03*
X3279670Y1010030I5015J0D01*
G01*
X3274059Y1162143D02*
G03*
X3273985Y1161285I4941J-858D01*
G01*
X3274059Y1162143D02*
G03*
X3259409Y1176048I-14650J-766D01*
G01*
X3219722Y1176564D02*
G03*
X3221937Y1176048I2215J4499D01*
G01*
X3188754Y1210487D02*
X3188755Y1210544D01*
X3188754Y1210487D02*
Y1456731D01*
X3218500Y1488366D02*
X3264486D01*
X3285982Y1508768D02*
Y1936578D01*
X3267407Y1956542D02*
Y1956542D01*
X3220684Y1956402D02*
X3266231D01*
X3220635Y1956403D02*
X3220635D01*
X3190485Y1986082D02*
Y2698376D01*
X3190572Y2699309D02*
X3190573D01*
X3290701Y2798015D02*
X4061437Y2798015D01*
X4161452Y2683794D02*
Y2698000D01*
X4159966Y2680231D02*
X4159983Y2680248D01*
X4102658Y2622923D02*
X4159983Y2680248D01*
X4102658Y2605175D02*
Y2622923D01*
Y2605175D02*
X4133435D01*
X4138450Y2245860D02*
Y2600160D01*
X4102658Y2240845D02*
X4133435D01*
X4102658Y2222077D02*
Y2240845D01*
Y2222077D02*
X4136373Y2188362D01*
X4136339Y2188396D02*
X4136373Y2188362D01*
X4159983Y2164752D01*
X4159966Y2164769D02*
X4159983Y2164752D01*
X4161452Y1208794D02*
Y2161206D01*
X4127393Y1176049D02*
X4127450Y1176048D01*
X4080275D02*
X4127450D01*
X4065573Y1160812D02*
X4065573Y1160812D01*
X4065646Y1015000D02*
Y1159959D01*
X3452320Y1010096D02*
X4059582D01*
X3447305Y1015111D02*
Y1137756D01*
X3410091Y1015045D02*
Y1135000D01*
X3279670Y1010030D02*
X3405076D01*
X3273985Y1015000D02*
Y1161285D01*
X3221937Y1176048D02*
X3259409D01*
%TF.MD5,7f045de69b905d2838ad7cd430ba993b*%
M02*
