%TF.GenerationSoftware,Altium Limited,Altium Designer,19.0.4 (130)*%
G04 Layer_Physical_Order=2*
G04 Layer_Color=36540*
%FSLAX26Y26*%
%MOIN*%
%TF.FileFunction,Copper,L2,Inr,Signal*%
%TF.Part,Single*%
G01*
G75*
%TA.AperFunction,Conductor*%
%ADD22C,0.010000*%
%ADD23C,0.020000*%
%ADD24C,0.015000*%
%TA.AperFunction,ComponentPad*%
%ADD25C,0.350000*%
%ADD26C,0.035000*%
%ADD27R,0.063000X0.039400*%
%ADD28R,0.082700X0.039400*%
%TA.AperFunction,TestPad*%
%ADD29C,0.017716*%
%TA.AperFunction,ViaPad*%
%ADD30C,0.025591*%
G36*
X4090610Y2794171D02*
X4108812Y2786632D01*
X4125193Y2775687D01*
X4139124Y2761756D01*
X4150069Y2745375D01*
X4157608Y2727173D01*
X4161452Y2707851D01*
Y2683297D01*
X4161257Y2682323D01*
X4160874Y2681405D01*
X4160319Y2680581D01*
X4159966Y2680231D01*
X4102658Y2622923D01*
Y2605175D01*
X4134432D01*
X4136276Y2604412D01*
X4137686Y2603001D01*
X4138450Y2601157D01*
Y2244862D01*
X4137686Y2243019D01*
X4136276Y2241608D01*
X4134432Y2240845D01*
X4102658D01*
Y2222077D01*
X4136339Y2188396D01*
X4136339Y2188396D01*
X4139875Y2184860D01*
X4156441Y2168294D01*
X4159966Y2164769D01*
X4159976Y2164758D01*
X4160839Y2162193D01*
X4161452Y2160360D01*
Y1208781D01*
X4161452Y1208754D01*
X4161451Y1208701D01*
X4161381Y1205406D01*
X4159965Y1198998D01*
X4157328Y1192988D01*
X4153569Y1187607D01*
X4148835Y1183062D01*
X4143305Y1179526D01*
X4137192Y1177136D01*
X4132333Y1176270D01*
X4129099Y1176123D01*
X4127401Y1176049D01*
X4127393Y1176049D01*
X4127393Y1176049D01*
X4122422Y1176048D01*
X4116902D01*
X4113046Y1181048D01*
X4113049Y1181063D01*
X4112587Y1183388D01*
X4113666Y1186514D01*
X4115380Y1189041D01*
X4116358Y1189236D01*
X4122596Y1193404D01*
X4126764Y1199642D01*
X4127233Y1202000D01*
X4090767D01*
X4091236Y1199642D01*
X4094178Y1195239D01*
X4091825Y1190239D01*
X4080275D01*
Y1190311D01*
X4072787Y1189325D01*
X4065809Y1186434D01*
X4059817Y1181836D01*
X4055219Y1175844D01*
X4052328Y1168866D01*
X4051343Y1161378D01*
X4051414D01*
Y1032741D01*
X3461496D01*
Y1137756D01*
X3461602D01*
X3460480Y1146272D01*
X3457193Y1154208D01*
X3451964Y1161022D01*
X3445150Y1166251D01*
X3437214Y1169538D01*
X3428698Y1170659D01*
X3425545Y1170244D01*
X3423210Y1174980D01*
X3427053Y1178824D01*
X3611335D01*
X3611888Y1176046D01*
X3614730Y1171793D01*
X3618983Y1168951D01*
X3624000Y1167953D01*
X3629017Y1168951D01*
X3633270Y1171793D01*
X3636112Y1176046D01*
X3637110Y1181063D01*
X3636112Y1186080D01*
X3633270Y1190333D01*
X3629017Y1193175D01*
X3624000Y1194173D01*
X3623889Y1194151D01*
X3623552Y1194489D01*
X3620575Y1196478D01*
X3617063Y1197176D01*
X3423252D01*
X3419741Y1196478D01*
X3416764Y1194489D01*
X3393451Y1171176D01*
X3363801D01*
X3358413Y1176564D01*
X3360885Y1180632D01*
X3361205Y1180844D01*
X3366000Y1179890D01*
X3371017Y1180888D01*
X3375270Y1183730D01*
X3378112Y1187983D01*
X3379110Y1193000D01*
X3379088Y1193111D01*
X3399301Y1213324D01*
X3417500D01*
X3421012Y1214022D01*
X3423989Y1216011D01*
X3501801Y1293824D01*
X3590000D01*
X3593512Y1294522D01*
X3596489Y1296511D01*
X3667824Y1367847D01*
X3671206Y1366935D01*
X3672944Y1365896D01*
X3673522Y1362988D01*
X3675511Y1360011D01*
X3707011Y1328511D01*
X3709988Y1326522D01*
X3713500Y1325824D01*
X3750199D01*
X3856992Y1219031D01*
X3860035Y1215270D01*
X3857193Y1211017D01*
X3856195Y1206000D01*
X3857193Y1200983D01*
X3860035Y1196730D01*
X3864288Y1193888D01*
X3869305Y1192890D01*
X3874322Y1193888D01*
X3878575Y1196730D01*
X3881417Y1200983D01*
X3882415Y1206000D01*
X3881417Y1211017D01*
X3878575Y1215270D01*
X3878481Y1215333D01*
Y1219695D01*
X3877783Y1223207D01*
X3875794Y1226184D01*
X3796880Y1305097D01*
X3796999Y1306322D01*
X3800000Y1310824D01*
X3839539D01*
X3841348Y1310127D01*
X3844275Y1306417D01*
Y1278000D01*
X3845167Y1273513D01*
X3847709Y1269709D01*
X3893775Y1223643D01*
Y1185920D01*
X3878580Y1170725D01*
X3852857D01*
X3826725Y1196857D01*
Y1213000D01*
X3825833Y1217487D01*
X3823291Y1221291D01*
X3771291Y1273291D01*
X3767487Y1275833D01*
X3763000Y1276725D01*
X3733596D01*
X3733017Y1277112D01*
X3728000Y1278110D01*
X3722983Y1277112D01*
X3718730Y1274270D01*
X3715888Y1270017D01*
X3714890Y1265000D01*
X3715888Y1259983D01*
X3718730Y1255730D01*
X3722983Y1252888D01*
X3728000Y1251890D01*
X3733017Y1252888D01*
X3733596Y1253275D01*
X3758143D01*
X3803275Y1208143D01*
Y1192000D01*
X3804167Y1187513D01*
X3806709Y1183709D01*
X3839709Y1150709D01*
X3843513Y1148167D01*
X3848000Y1147275D01*
X3883313D01*
X3883573Y1147002D01*
X3885746Y1142636D01*
X3880286Y1137176D01*
X3819801D01*
X3761088Y1195889D01*
X3761110Y1196000D01*
X3760112Y1201017D01*
X3757270Y1205270D01*
X3753017Y1208112D01*
X3748000Y1209110D01*
X3742983Y1208112D01*
X3738730Y1205270D01*
X3735888Y1201017D01*
X3734890Y1196000D01*
X3735888Y1190983D01*
X3738730Y1186730D01*
X3742983Y1183888D01*
X3748000Y1182890D01*
X3748111Y1182912D01*
X3809511Y1121511D01*
X3812488Y1119522D01*
X3816000Y1118824D01*
X3884087D01*
X3887599Y1119522D01*
X3890575Y1121511D01*
X3928489Y1159425D01*
X3930478Y1162401D01*
X3931176Y1165913D01*
Y1262538D01*
X3936176Y1264055D01*
X3937730Y1261730D01*
X3941983Y1258888D01*
X3947000Y1257890D01*
X3952017Y1258888D01*
X3956270Y1261730D01*
X3956917Y1262698D01*
X3969874D01*
X3973386Y1263396D01*
X3976363Y1265385D01*
X4031889Y1320912D01*
X4032000Y1320890D01*
X4037017Y1321888D01*
X4041270Y1324730D01*
X4044112Y1328983D01*
X4045110Y1334000D01*
X4044112Y1339017D01*
X4041270Y1343270D01*
X4037017Y1346112D01*
X4032000Y1347110D01*
X4026983Y1346112D01*
X4022730Y1343270D01*
X4019888Y1339017D01*
X4018890Y1334000D01*
X4018912Y1333889D01*
X3966073Y1281050D01*
X3955103D01*
X3952017Y1283112D01*
X3947000Y1284110D01*
X3941983Y1283112D01*
X3939504Y1281456D01*
X3936317Y1285340D01*
X3952989Y1302011D01*
X3954978Y1304988D01*
X3955676Y1308500D01*
Y1354119D01*
X3960676Y1356752D01*
X3961495Y1356190D01*
X3961860Y1355560D01*
X3963236Y1348642D01*
X3967404Y1342404D01*
X3973642Y1338236D01*
X3976000Y1337767D01*
Y1356000D01*
Y1377784D01*
X3974725Y1379059D01*
Y1388143D01*
X3985857Y1399275D01*
X4018143D01*
X4070275Y1347143D01*
Y1234000D01*
X4071167Y1229513D01*
X4073709Y1225709D01*
X4087418Y1212000D01*
X4104000D01*
Y1228582D01*
X4093725Y1238857D01*
Y1352000D01*
X4092833Y1356487D01*
X4090291Y1360291D01*
X4031291Y1419291D01*
X4027487Y1421833D01*
X4023000Y1422725D01*
X3981000D01*
X3976513Y1421833D01*
X3972709Y1419291D01*
X3971796Y1418378D01*
X3967176Y1420291D01*
Y1603000D01*
X3966478Y1606512D01*
X3964489Y1609489D01*
X3943176Y1630801D01*
Y1791799D01*
X3942478Y1795311D01*
X3940489Y1798287D01*
X3911176Y1827600D01*
Y1879598D01*
X3910478Y1883109D01*
X3908489Y1886086D01*
X3870176Y1924399D01*
Y1940199D01*
X3907489Y1977511D01*
X3909478Y1980488D01*
X3910176Y1984000D01*
Y2010199D01*
X3921801Y2021824D01*
X3941000D01*
X3944512Y2022522D01*
X3947489Y2024511D01*
X3968489Y2045511D01*
X3970478Y2048488D01*
X3971176Y2052000D01*
Y2293000D01*
X3970478Y2296512D01*
X3968489Y2299489D01*
X3914489Y2353489D01*
X3911512Y2355478D01*
X3908000Y2356176D01*
X3831801D01*
X3821489Y2366489D01*
X3818512Y2368478D01*
X3815000Y2369176D01*
X3649333D01*
X3649270Y2369270D01*
X3645017Y2372112D01*
X3640000Y2373110D01*
X3634983Y2372112D01*
X3630730Y2369270D01*
X3627888Y2365017D01*
X3626890Y2360000D01*
X3627888Y2354983D01*
X3630730Y2350730D01*
X3634983Y2347888D01*
X3638560Y2347176D01*
X3638068Y2342176D01*
X3624903D01*
X3612088Y2354992D01*
X3612110Y2355102D01*
X3611112Y2360119D01*
X3608270Y2364373D01*
X3604017Y2367215D01*
X3599000Y2368213D01*
X3593983Y2367215D01*
X3589730Y2364373D01*
X3586888Y2360119D01*
X3585890Y2355102D01*
X3586888Y2350085D01*
X3589730Y2345832D01*
X3593983Y2342990D01*
X3599000Y2341992D01*
X3599111Y2342014D01*
X3614614Y2326511D01*
X3617591Y2324522D01*
X3621102Y2323824D01*
X3740199D01*
X3753824Y2310199D01*
Y2251000D01*
X3754522Y2247488D01*
X3756511Y2244511D01*
X3774740Y2226282D01*
X3771553Y2222399D01*
X3769938Y2223478D01*
X3766426Y2224176D01*
X3685000D01*
X3681488Y2223478D01*
X3678511Y2221489D01*
X3667199Y2210176D01*
X3624801D01*
X3590176Y2244801D01*
Y2261068D01*
X3595176Y2261560D01*
X3595888Y2257983D01*
X3598730Y2253730D01*
X3602983Y2250888D01*
X3608000Y2249890D01*
X3613017Y2250888D01*
X3617270Y2253730D01*
X3620112Y2257983D01*
X3621110Y2263000D01*
X3620112Y2268017D01*
X3617270Y2272270D01*
X3613017Y2275112D01*
X3608000Y2276110D01*
X3602983Y2275112D01*
X3598730Y2272270D01*
X3595888Y2268017D01*
X3595176Y2264440D01*
X3590176Y2264932D01*
Y2322063D01*
X3589478Y2325575D01*
X3587489Y2328552D01*
X3577176Y2338864D01*
Y2360325D01*
X3592763Y2375912D01*
X3592874Y2375890D01*
X3597891Y2376888D01*
X3602144Y2379730D01*
X3604986Y2383983D01*
X3605984Y2389000D01*
X3604986Y2394017D01*
X3602144Y2398270D01*
X3597891Y2401112D01*
X3592874Y2402110D01*
X3587857Y2401112D01*
X3583604Y2398270D01*
X3580762Y2394017D01*
X3579764Y2389000D01*
X3579786Y2388889D01*
X3566796Y2375899D01*
X3562176Y2377812D01*
Y2392199D01*
X3566962Y2396985D01*
X3567441Y2396890D01*
X3572458Y2397888D01*
X3576711Y2400730D01*
X3579553Y2404983D01*
X3580551Y2410000D01*
X3579553Y2415017D01*
X3576711Y2419270D01*
X3572458Y2422112D01*
X3567441Y2423110D01*
X3562424Y2422112D01*
X3558171Y2419270D01*
X3555329Y2415017D01*
X3554625Y2411477D01*
X3552176Y2409867D01*
X3547176Y2412440D01*
Y2429199D01*
X3571889Y2453912D01*
X3572000Y2453890D01*
X3577017Y2454888D01*
X3581270Y2457730D01*
X3584112Y2461983D01*
X3585110Y2467000D01*
X3584112Y2472017D01*
X3581270Y2476270D01*
X3577017Y2479112D01*
X3572000Y2480110D01*
X3566983Y2479112D01*
X3562730Y2476270D01*
X3559888Y2472017D01*
X3558890Y2467000D01*
X3558912Y2466889D01*
X3531511Y2439489D01*
X3529522Y2436512D01*
X3528824Y2433000D01*
Y2324801D01*
X3518436Y2314413D01*
X3514368Y2316885D01*
X3514156Y2317205D01*
X3515110Y2322000D01*
X3514112Y2327017D01*
X3511270Y2331270D01*
X3507017Y2334112D01*
X3502000Y2335110D01*
X3496983Y2334112D01*
X3492730Y2331270D01*
X3489888Y2327017D01*
X3488890Y2322000D01*
X3489888Y2316983D01*
X3492730Y2312730D01*
X3496983Y2309888D01*
X3502000Y2308890D01*
X3506795Y2309844D01*
X3507115Y2309632D01*
X3509587Y2305564D01*
X3488511Y2284489D01*
X3486522Y2281512D01*
X3485824Y2278000D01*
Y2250686D01*
X3481204Y2248773D01*
X3467088Y2262889D01*
X3467110Y2263000D01*
X3466112Y2268017D01*
X3463270Y2272270D01*
X3459017Y2275112D01*
X3454000Y2276110D01*
X3448983Y2275112D01*
X3444730Y2272270D01*
X3441888Y2268017D01*
X3440890Y2263000D01*
X3441888Y2257983D01*
X3444730Y2253730D01*
X3448983Y2250888D01*
X3454000Y2249890D01*
X3454111Y2249912D01*
X3471824Y2232199D01*
Y2203225D01*
X3466824Y2201153D01*
X3458088Y2209889D01*
X3458110Y2210000D01*
X3457112Y2215017D01*
X3454270Y2219270D01*
X3450017Y2222112D01*
X3445000Y2223110D01*
X3439983Y2222112D01*
X3435730Y2219270D01*
X3432888Y2215017D01*
X3431890Y2210000D01*
X3432888Y2204983D01*
X3435730Y2200730D01*
X3439983Y2197888D01*
X3445000Y2196890D01*
X3445111Y2196912D01*
X3455824Y2186199D01*
Y2070900D01*
X3451204Y2068986D01*
X3365176Y2155014D01*
Y2327841D01*
X3364478Y2331353D01*
X3362489Y2334330D01*
X3351929Y2344889D01*
X3351951Y2345000D01*
X3350953Y2350017D01*
X3348111Y2354270D01*
X3343858Y2357112D01*
X3338841Y2358110D01*
X3333824Y2357112D01*
X3329571Y2354270D01*
X3326729Y2350017D01*
X3325731Y2345000D01*
X3326729Y2339983D01*
X3329571Y2335730D01*
X3333824Y2332888D01*
X3338841Y2331890D01*
X3338952Y2331912D01*
X3346824Y2324040D01*
Y2158686D01*
X3342204Y2156773D01*
X3275176Y2223801D01*
Y2349199D01*
X3291801Y2365824D01*
X3345199D01*
X3383824Y2327199D01*
Y2309000D01*
X3384522Y2305488D01*
X3386511Y2302511D01*
X3403511Y2285511D01*
X3406488Y2283522D01*
X3408020Y2283218D01*
Y2278120D01*
X3407983Y2278112D01*
X3403730Y2275270D01*
X3400888Y2271017D01*
X3399890Y2266000D01*
X3400888Y2260983D01*
X3403730Y2256730D01*
X3407983Y2253888D01*
X3413000Y2252890D01*
X3418017Y2253888D01*
X3422270Y2256730D01*
X3425112Y2260983D01*
X3426110Y2266000D01*
X3425112Y2271017D01*
X3422270Y2275270D01*
X3421099Y2282006D01*
X3421671Y2282824D01*
X3439000D01*
X3442512Y2283522D01*
X3445489Y2285511D01*
X3465889Y2305912D01*
X3466000Y2305890D01*
X3471017Y2306888D01*
X3475270Y2309730D01*
X3478112Y2313983D01*
X3479110Y2319000D01*
X3478112Y2324017D01*
X3475270Y2328270D01*
X3471017Y2331112D01*
X3466000Y2332110D01*
X3460983Y2331112D01*
X3456730Y2328270D01*
X3453888Y2324017D01*
X3452890Y2319000D01*
X3452912Y2318889D01*
X3435199Y2301176D01*
X3413801D01*
X3402176Y2312801D01*
Y2331000D01*
X3401478Y2334512D01*
X3399489Y2337489D01*
X3385959Y2351018D01*
X3386137Y2351983D01*
X3391786Y2355890D01*
X3396803Y2356888D01*
X3401056Y2359730D01*
X3403898Y2363983D01*
X3404896Y2369000D01*
X3403898Y2374017D01*
X3401056Y2378270D01*
X3396803Y2381112D01*
X3391786Y2382110D01*
X3391675Y2382088D01*
X3374274Y2399489D01*
X3371297Y2401478D01*
X3367786Y2402176D01*
X3262000D01*
X3258488Y2401478D01*
X3255511Y2399489D01*
X3244796Y2388773D01*
X3240176Y2390686D01*
Y2465199D01*
X3300801Y2525824D01*
X3319986D01*
X3462298Y2383511D01*
X3465275Y2381522D01*
X3468787Y2380824D01*
X3486667D01*
X3486730Y2380730D01*
X3490983Y2377888D01*
X3496000Y2376890D01*
X3501017Y2377888D01*
X3505270Y2380730D01*
X3508112Y2384983D01*
X3509110Y2390000D01*
X3508112Y2395017D01*
X3505270Y2399270D01*
X3501017Y2402112D01*
X3496000Y2403110D01*
X3490983Y2402112D01*
X3486730Y2399270D01*
X3486667Y2399176D01*
X3472588D01*
X3458560Y2413204D01*
X3460473Y2417824D01*
X3482445D01*
X3485956Y2418522D01*
X3488933Y2420511D01*
X3503592Y2435170D01*
X3505000Y2434890D01*
X3510017Y2435888D01*
X3514270Y2438730D01*
X3517112Y2442983D01*
X3518110Y2448000D01*
X3517112Y2453017D01*
X3514270Y2457270D01*
X3510017Y2460112D01*
X3505000Y2461110D01*
X3499983Y2460112D01*
X3495730Y2457270D01*
X3492888Y2453017D01*
X3492243Y2449776D01*
X3478644Y2436176D01*
X3456801D01*
X3336489Y2556489D01*
X3333512Y2558478D01*
X3330000Y2559176D01*
X3290787D01*
X3287275Y2558478D01*
X3284298Y2556489D01*
X3209511Y2481702D01*
X3207522Y2478725D01*
X3206824Y2475213D01*
Y2008000D01*
X3207522Y2004488D01*
X3209511Y2001511D01*
X3241511Y1969511D01*
X3244488Y1967522D01*
X3248000Y1966824D01*
X3277199D01*
X3301824Y1942199D01*
Y1798000D01*
X3302522Y1794488D01*
X3304511Y1791511D01*
X3374511Y1721511D01*
X3377488Y1719522D01*
X3381000Y1718824D01*
X3525667D01*
X3525730Y1718730D01*
X3529983Y1715888D01*
X3535000Y1714890D01*
X3540017Y1715888D01*
X3544270Y1718730D01*
X3547112Y1722983D01*
X3548110Y1728000D01*
X3547112Y1733017D01*
X3544270Y1737270D01*
X3540017Y1740112D01*
X3536440Y1740824D01*
X3536932Y1745824D01*
X3546199D01*
X3555824Y1736199D01*
Y1699801D01*
X3535111Y1679088D01*
X3535000Y1679110D01*
X3529983Y1678112D01*
X3525730Y1675270D01*
X3522888Y1671017D01*
X3521890Y1666000D01*
X3522888Y1660983D01*
X3525730Y1656730D01*
X3529983Y1653888D01*
X3535000Y1652890D01*
X3540017Y1653888D01*
X3544270Y1656730D01*
X3547112Y1660983D01*
X3548110Y1666000D01*
X3548088Y1666111D01*
X3565204Y1683227D01*
X3569824Y1681314D01*
Y1641801D01*
X3559111Y1631088D01*
X3559000Y1631110D01*
X3553983Y1630112D01*
X3549730Y1627270D01*
X3546888Y1623017D01*
X3545890Y1618000D01*
X3546888Y1612983D01*
X3549730Y1608730D01*
X3553983Y1605888D01*
X3559000Y1604890D01*
X3564017Y1605888D01*
X3568270Y1608730D01*
X3571112Y1612983D01*
X3572110Y1618000D01*
X3572088Y1618111D01*
X3585489Y1631511D01*
X3586717Y1633350D01*
X3591717Y1632122D01*
Y1615694D01*
X3556511Y1580489D01*
X3554522Y1577512D01*
X3553900Y1574384D01*
X3553730Y1574270D01*
X3550888Y1570017D01*
X3549890Y1565000D01*
X3550888Y1559983D01*
X3553730Y1555730D01*
X3557983Y1552888D01*
X3563000Y1551890D01*
X3568017Y1552888D01*
X3572270Y1555730D01*
X3575112Y1559983D01*
X3576110Y1565000D01*
X3575112Y1570017D01*
X3573863Y1571886D01*
X3581866Y1579889D01*
X3586824Y1577775D01*
Y1370801D01*
X3559199Y1343176D01*
X3429801D01*
X3425097Y1347880D01*
X3423489Y1350287D01*
X3350670Y1423106D01*
X3352583Y1427726D01*
X3488000D01*
X3493463Y1428812D01*
X3498093Y1431907D01*
X3501188Y1436537D01*
X3502274Y1442000D01*
X3501188Y1447463D01*
X3498093Y1452093D01*
X3493463Y1455188D01*
X3488000Y1456274D01*
X3293001D01*
X3293000Y1456274D01*
X3287537Y1455188D01*
X3282907Y1452093D01*
X3282906Y1452093D01*
X3281087Y1450274D01*
X3249000D01*
X3243537Y1449188D01*
X3238907Y1446093D01*
X3235812Y1441463D01*
X3234726Y1436000D01*
X3235812Y1430537D01*
X3238907Y1425907D01*
X3243537Y1422812D01*
X3249000Y1421726D01*
X3280677D01*
X3282749Y1416726D01*
X3250511Y1384489D01*
X3248522Y1381512D01*
X3247824Y1378000D01*
Y1265000D01*
X3248522Y1261488D01*
X3250511Y1258511D01*
X3335587Y1173436D01*
X3333115Y1169368D01*
X3332795Y1169156D01*
X3328000Y1170110D01*
X3322983Y1169112D01*
X3318730Y1166270D01*
X3315888Y1162017D01*
X3314890Y1157000D01*
X3315888Y1151983D01*
X3318730Y1147730D01*
X3322983Y1144888D01*
X3328000Y1143890D01*
X3333017Y1144888D01*
X3337270Y1147730D01*
X3340112Y1151983D01*
X3341110Y1157000D01*
X3340156Y1161795D01*
X3340368Y1162115D01*
X3344436Y1164587D01*
X3353511Y1155511D01*
X3356488Y1153522D01*
X3360000Y1152824D01*
X3394217D01*
X3397622Y1147977D01*
X3396916Y1146272D01*
X3395794Y1137756D01*
X3395900D01*
Y1032741D01*
X3288269D01*
Y1161373D01*
X3288270Y1161378D01*
X3288341D01*
X3287356Y1168866D01*
X3284465Y1175844D01*
X3279867Y1181836D01*
X3273875Y1186434D01*
X3266897Y1189325D01*
X3259409Y1190311D01*
Y1190239D01*
X3237731D01*
X3234219Y1189541D01*
X3231242Y1187552D01*
X3229253Y1184575D01*
X3228555Y1181063D01*
X3228558Y1181048D01*
X3224702Y1176048D01*
X3221650D01*
X3221079Y1176113D01*
X3220520Y1176244D01*
X3219980Y1176437D01*
X3219722Y1176563D01*
Y1176564D01*
X3216554Y1176790D01*
X3210418Y1178431D01*
X3204701Y1181201D01*
X3199610Y1185000D01*
X3195327Y1189691D01*
X3192007Y1195107D01*
X3189768Y1201051D01*
X3188985Y1205608D01*
X3188837Y1208737D01*
X3188755Y1210536D01*
X3188755Y1210544D01*
X3188755D01*
X3188754Y1215515D01*
Y1456731D01*
X3188687Y1456926D01*
X3188586Y1457327D01*
X3188519Y1457734D01*
X3188485Y1458145D01*
Y1461307D01*
X3189638Y1467106D01*
X3191901Y1472569D01*
X3195186Y1477485D01*
X3199367Y1481666D01*
X3204283Y1484950D01*
X3209745Y1487213D01*
X3215544Y1488366D01*
X3264486D01*
X3264712Y1488465D01*
X3265181Y1488618D01*
X3265663Y1488724D01*
X3266152Y1488783D01*
X3266399Y1488787D01*
X3270240Y1489239D01*
X3277308Y1492293D01*
X3282697Y1497791D01*
X3285607Y1504919D01*
X3285982Y1508768D01*
Y1936832D01*
X3286033Y1937337D01*
X3286135Y1937835D01*
X3286287Y1938320D01*
X3286387Y1938553D01*
X3285721Y1942049D01*
X3282602Y1948415D01*
X3277457Y1953291D01*
X3270933Y1956065D01*
X3267407Y1956542D01*
X3267407Y1956542D01*
X3267262Y1956507D01*
X3266970Y1956455D01*
X3266675Y1956420D01*
X3266379Y1956402D01*
X3220653D01*
X3220635Y1956403D01*
X3220579Y1956398D01*
X3220466Y1956390D01*
X3220354Y1956385D01*
X3220241Y1956382D01*
X3217259D01*
X3211521Y1957524D01*
X3206116Y1959763D01*
X3201252Y1963013D01*
X3197115Y1967150D01*
X3193865Y1972014D01*
X3191626Y1977419D01*
X3190485Y1983157D01*
Y1986082D01*
Y2698493D01*
X3190573Y2699309D01*
X3190573D01*
X3190572Y2699309D01*
X3190712Y2709080D01*
X3194765Y2728200D01*
X3202438Y2746176D01*
X3213441Y2762329D01*
X3227360Y2776050D01*
X3243669Y2786821D01*
X3261753Y2794236D01*
X3280929Y2798015D01*
X3290701D01*
X3487484Y2798015D01*
X3490902Y2794366D01*
X3490616Y2790000D01*
X3492151Y2766586D01*
X3496728Y2743572D01*
X3504271Y2721353D01*
X3514649Y2700308D01*
X3527685Y2680798D01*
X3543156Y2663156D01*
X3560798Y2647685D01*
X3580308Y2634649D01*
X3601353Y2624271D01*
X3623572Y2616728D01*
X3646586Y2612151D01*
X3670000Y2610616D01*
X3693414Y2612151D01*
X3716428Y2616728D01*
X3738647Y2624271D01*
X3759692Y2634649D01*
X3779202Y2647685D01*
X3796844Y2663156D01*
X3812315Y2680798D01*
X3825351Y2700308D01*
X3835729Y2721353D01*
X3843272Y2743572D01*
X3847849Y2766586D01*
X3849384Y2790000D01*
X3849098Y2794366D01*
X3852516Y2798015D01*
X4061437Y2798015D01*
X4071287D01*
X4090610Y2794171D01*
D02*
G37*
G36*
X3547833Y2311190D02*
X3554714Y2304309D01*
Y2264691D01*
X3508796Y2218773D01*
X3504176Y2220686D01*
Y2274199D01*
X3541295Y2311318D01*
X3546504Y2312510D01*
X3547833Y2311190D01*
D02*
G37*
G36*
X3571824Y2248775D02*
Y2241000D01*
X3572522Y2237488D01*
X3574511Y2234511D01*
X3614511Y2194511D01*
X3617488Y2192522D01*
X3621000Y2191824D01*
X3671000D01*
X3674512Y2192522D01*
X3677489Y2194511D01*
X3688801Y2205824D01*
X3710100D01*
X3712014Y2201204D01*
X3597093Y2086283D01*
X3548907D01*
X3545061Y2090130D01*
X3548248Y2094013D01*
X3549932Y2092888D01*
X3554950Y2091890D01*
X3559966Y2092888D01*
X3564220Y2095730D01*
X3567062Y2099983D01*
X3568060Y2105000D01*
X3567062Y2110017D01*
X3564220Y2114270D01*
X3559966Y2117112D01*
X3554950Y2118110D01*
X3549932Y2117112D01*
X3545679Y2114270D01*
X3542837Y2110017D01*
X3541839Y2105000D01*
X3542837Y2099983D01*
X3543963Y2098299D01*
X3540079Y2095111D01*
X3519176Y2116014D01*
Y2180538D01*
X3524176Y2182055D01*
X3525730Y2179730D01*
X3529983Y2176888D01*
X3535000Y2175890D01*
X3540017Y2176888D01*
X3544270Y2179730D01*
X3547112Y2183983D01*
X3548110Y2189000D01*
X3547112Y2194017D01*
X3544270Y2198270D01*
X3540017Y2201112D01*
X3535000Y2202110D01*
X3529983Y2201112D01*
X3525730Y2198270D01*
X3524176Y2195945D01*
X3519176Y2197462D01*
Y2203199D01*
X3566824Y2250847D01*
X3571824Y2248775D01*
D02*
G37*
G36*
X3797488Y2204522D02*
X3801000Y2203824D01*
X3851199D01*
X3875824Y2179199D01*
Y2148801D01*
X3845796Y2118773D01*
X3841176Y2120686D01*
Y2149426D01*
X3840478Y2152938D01*
X3838489Y2155915D01*
X3792686Y2201718D01*
X3795873Y2205601D01*
X3797488Y2204522D01*
D02*
G37*
G36*
X3792824Y2133199D02*
Y2062686D01*
X3788204Y2060773D01*
X3768088Y2080889D01*
X3768110Y2081000D01*
X3767112Y2086017D01*
X3764270Y2090270D01*
X3760017Y2093112D01*
X3755000Y2094110D01*
X3749983Y2093112D01*
X3745730Y2090270D01*
X3742888Y2086017D01*
X3741890Y2081000D01*
X3742888Y2075983D01*
X3745730Y2071730D01*
X3749983Y2068888D01*
X3755000Y2067890D01*
X3755111Y2067912D01*
X3777824Y2045199D01*
Y2021387D01*
X3773204Y2019473D01*
X3723421Y2069256D01*
X3723443Y2069367D01*
X3722445Y2074384D01*
X3719604Y2078637D01*
X3715350Y2081479D01*
X3710333Y2082477D01*
X3705316Y2081479D01*
X3701063Y2078637D01*
X3698221Y2074384D01*
X3697223Y2069367D01*
X3698221Y2064350D01*
X3701063Y2060097D01*
X3705316Y2057255D01*
X3710333Y2056257D01*
X3710444Y2056279D01*
X3762824Y2003899D01*
Y1850686D01*
X3758204Y1848773D01*
X3722176Y1884801D01*
Y1989000D01*
X3721478Y1992512D01*
X3719489Y1995489D01*
X3665176Y2049801D01*
Y2065199D01*
X3712801Y2112824D01*
X3758667D01*
X3758730Y2112730D01*
X3762983Y2109888D01*
X3768000Y2108890D01*
X3773017Y2109888D01*
X3777270Y2112730D01*
X3780112Y2116983D01*
X3781110Y2122000D01*
X3780112Y2127017D01*
X3777270Y2131270D01*
X3773017Y2134112D01*
X3768000Y2135110D01*
X3762983Y2134112D01*
X3758730Y2131270D01*
X3758667Y2131176D01*
X3709000D01*
X3705488Y2130478D01*
X3702511Y2128489D01*
X3649511Y2075489D01*
X3647522Y2072512D01*
X3646824Y2069000D01*
Y2046000D01*
X3647522Y2042488D01*
X3649511Y2039511D01*
X3703824Y1985199D01*
Y1885225D01*
X3698824Y1883154D01*
X3652176Y1929801D01*
Y1979000D01*
X3651478Y1982512D01*
X3649489Y1985489D01*
X3587773Y2047204D01*
X3589686Y2051824D01*
X3606000D01*
X3609512Y2052522D01*
X3612489Y2054511D01*
X3727301Y2169324D01*
X3756699D01*
X3792824Y2133199D01*
D02*
G37*
G36*
X3528738Y2059284D02*
X3526825Y2054665D01*
X3518333D01*
X3518270Y2054759D01*
X3514017Y2057601D01*
X3509000Y2058599D01*
X3503983Y2057601D01*
X3499730Y2054759D01*
X3496888Y2050506D01*
X3495890Y2045489D01*
X3496888Y2040472D01*
X3499730Y2036218D01*
X3503983Y2033377D01*
X3509000Y2032379D01*
X3514017Y2033377D01*
X3518270Y2036218D01*
X3518333Y2036312D01*
X3572710D01*
X3633824Y1975199D01*
Y1926000D01*
X3634522Y1922488D01*
X3636511Y1919511D01*
X3732824Y1823199D01*
Y1771787D01*
X3733522Y1768275D01*
X3735511Y1765298D01*
X3773824Y1726986D01*
Y1701801D01*
X3742111Y1670088D01*
X3742000Y1670110D01*
X3736983Y1669112D01*
X3732730Y1666270D01*
X3729888Y1662017D01*
X3728890Y1657000D01*
X3729888Y1651983D01*
X3732730Y1647730D01*
X3736983Y1644888D01*
X3742000Y1643890D01*
X3747017Y1644888D01*
X3751270Y1647730D01*
X3754112Y1651983D01*
X3755110Y1657000D01*
X3755088Y1657111D01*
X3789489Y1691511D01*
X3791478Y1694488D01*
X3792176Y1698000D01*
Y1723314D01*
X3796796Y1725227D01*
X3813824Y1708199D01*
Y1617600D01*
X3783400Y1587176D01*
X3679686D01*
X3677773Y1591796D01*
X3716489Y1630511D01*
X3718478Y1633488D01*
X3719176Y1637000D01*
Y1766000D01*
X3718478Y1769512D01*
X3716489Y1772489D01*
X3490176Y1998801D01*
Y2091314D01*
X3494796Y2093227D01*
X3528738Y2059284D01*
D02*
G37*
G36*
X3308020Y2030003D02*
X3307691Y2025327D01*
X3302270Y2026270D01*
X3298017Y2029112D01*
X3293000Y2030110D01*
X3287983Y2029112D01*
X3283730Y2026270D01*
X3280888Y2022017D01*
X3279890Y2017000D01*
X3280888Y2011983D01*
X3283730Y2007730D01*
X3286055Y2006176D01*
X3284538Y2001176D01*
X3257801D01*
X3240176Y2018801D01*
Y2091314D01*
X3244796Y2093227D01*
X3308020Y2030003D01*
D02*
G37*
G36*
X3427824Y2045199D02*
Y2018390D01*
X3422824Y2017898D01*
X3422630Y2018871D01*
X3422203Y2021017D01*
X3419361Y2025270D01*
X3415108Y2028112D01*
X3410091Y2029110D01*
X3405074Y2028112D01*
X3400821Y2025270D01*
X3397979Y2021017D01*
X3396981Y2016000D01*
X3397979Y2010983D01*
X3400821Y2006730D01*
X3405074Y2003888D01*
X3410091Y2002890D01*
X3415108Y2003888D01*
X3419361Y2006730D01*
X3422203Y2010983D01*
X3422630Y2013129D01*
X3422824Y2014102D01*
X3427824Y2013610D01*
Y1973787D01*
X3428522Y1970275D01*
X3430511Y1967298D01*
X3581824Y1815986D01*
Y1769225D01*
X3576824Y1767154D01*
X3566489Y1777489D01*
X3563512Y1779478D01*
X3560000Y1780176D01*
X3407801D01*
X3378676Y1809301D01*
Y1948500D01*
X3377978Y1952012D01*
X3375989Y1954989D01*
X3328176Y2002801D01*
Y2032000D01*
X3327478Y2035512D01*
X3325489Y2038489D01*
X3255176Y2108801D01*
Y2210999D01*
X3257493Y2212342D01*
X3260176Y2212847D01*
X3427824Y2045199D01*
D02*
G37*
G36*
X3821511Y2340511D02*
X3824488Y2338522D01*
X3828000Y2337824D01*
X3904199D01*
X3952824Y2289199D01*
Y2055801D01*
X3937199Y2040176D01*
X3918000D01*
X3914488Y2039478D01*
X3911511Y2037489D01*
X3894511Y2020489D01*
X3892522Y2017512D01*
X3891824Y2014000D01*
Y2005671D01*
X3891006Y2005099D01*
X3884270Y2006270D01*
X3880017Y2009112D01*
X3875000Y2010110D01*
X3869983Y2009112D01*
X3865730Y2006270D01*
X3862888Y2002017D01*
X3861890Y1997000D01*
X3862888Y1991983D01*
X3865730Y1987730D01*
X3869983Y1984888D01*
X3875000Y1983890D01*
X3880017Y1984888D01*
X3884270Y1987730D01*
X3884707Y1987960D01*
X3889224Y1987132D01*
X3889463Y1985440D01*
X3860796Y1956773D01*
X3856176Y1958686D01*
Y2103199D01*
X3891489Y2138511D01*
X3893478Y2141488D01*
X3894176Y2145000D01*
Y2183000D01*
X3893478Y2186512D01*
X3891489Y2189489D01*
X3861489Y2219489D01*
X3858512Y2221478D01*
X3855000Y2222176D01*
X3804801D01*
X3772176Y2254801D01*
Y2314000D01*
X3771478Y2317512D01*
X3769489Y2320489D01*
X3750489Y2339489D01*
X3747512Y2341478D01*
X3744000Y2342176D01*
X3641932D01*
X3641440Y2347176D01*
X3645017Y2347888D01*
X3649270Y2350730D01*
X3649333Y2350824D01*
X3811199D01*
X3821511Y2340511D01*
D02*
G37*
G36*
X3309824Y2008329D02*
Y1999000D01*
X3310522Y1995488D01*
X3312511Y1992511D01*
X3360324Y1944699D01*
Y1805500D01*
X3361022Y1801988D01*
X3363011Y1799011D01*
X3392847Y1769176D01*
X3390775Y1764176D01*
X3383801D01*
X3344676Y1803301D01*
Y1944500D01*
X3343978Y1948012D01*
X3341989Y1950989D01*
X3294489Y1998489D01*
X3293646Y1999051D01*
X3294853Y2004258D01*
X3298017Y2004888D01*
X3302270Y2007730D01*
X3309006Y2008901D01*
X3309824Y2008329D01*
D02*
G37*
G36*
X3700824Y1762199D02*
Y1640801D01*
X3659941Y1599918D01*
X3659298Y1599489D01*
X3623511Y1563702D01*
X3621522Y1560725D01*
X3620824Y1557213D01*
Y1408333D01*
X3620730Y1408270D01*
X3617888Y1404017D01*
X3616890Y1399000D01*
X3617888Y1393983D01*
X3620730Y1389730D01*
X3624983Y1386888D01*
X3630000Y1385890D01*
X3635017Y1386888D01*
X3639270Y1389730D01*
X3642112Y1393983D01*
X3643110Y1399000D01*
X3642112Y1404017D01*
X3639270Y1408270D01*
X3639176Y1408333D01*
Y1426314D01*
X3643796Y1428227D01*
X3656824Y1415199D01*
Y1382801D01*
X3586199Y1312176D01*
X3498000D01*
X3494488Y1311478D01*
X3491511Y1309489D01*
X3426408Y1244385D01*
X3421800Y1246848D01*
X3422228Y1249000D01*
X3420764Y1256358D01*
X3416596Y1262596D01*
X3412176Y1265549D01*
Y1328314D01*
X3416796Y1330227D01*
X3419511Y1327511D01*
X3422488Y1325522D01*
X3426000Y1324824D01*
X3563000D01*
X3566512Y1325522D01*
X3569489Y1327511D01*
X3602489Y1360511D01*
X3604478Y1363488D01*
X3605176Y1367000D01*
Y1575986D01*
X3621382Y1592192D01*
X3623371Y1595169D01*
X3624070Y1598680D01*
Y1671522D01*
X3628700Y1673771D01*
X3629070Y1673711D01*
X3631730Y1669730D01*
X3635983Y1666888D01*
X3641000Y1665890D01*
X3646017Y1666888D01*
X3650270Y1669730D01*
X3653112Y1673983D01*
X3654110Y1679000D01*
X3653112Y1684017D01*
X3650270Y1688270D01*
X3646017Y1691112D01*
X3641000Y1692110D01*
X3635983Y1691112D01*
X3631730Y1688270D01*
X3629070Y1684289D01*
X3628700Y1684229D01*
X3624070Y1686478D01*
Y1713306D01*
X3661489Y1750725D01*
X3663478Y1753702D01*
X3664176Y1757213D01*
Y1792314D01*
X3668796Y1794227D01*
X3700824Y1762199D01*
D02*
G37*
G36*
X3865824Y1595735D02*
Y1584333D01*
X3865730Y1584270D01*
X3862888Y1580017D01*
X3861890Y1575000D01*
X3862888Y1569983D01*
X3865730Y1565730D01*
X3869983Y1562888D01*
X3875000Y1561890D01*
X3880017Y1562888D01*
X3881853Y1564115D01*
X3885041Y1560231D01*
X3870986Y1546176D01*
X3833000D01*
X3829488Y1545478D01*
X3826511Y1543489D01*
X3807511Y1524489D01*
X3805522Y1521512D01*
X3804824Y1518000D01*
Y1478333D01*
X3804730Y1478270D01*
X3801888Y1474017D01*
X3800890Y1469000D01*
X3801888Y1463983D01*
X3804730Y1459730D01*
X3808983Y1456888D01*
X3814000Y1455890D01*
X3819017Y1456888D01*
X3823270Y1459730D01*
X3826112Y1463983D01*
X3827110Y1469000D01*
X3826112Y1474017D01*
X3823270Y1478270D01*
X3823176Y1478333D01*
Y1514199D01*
X3836801Y1527824D01*
X3867314D01*
X3869227Y1523204D01*
X3863511Y1517489D01*
X3861522Y1514512D01*
X3860824Y1511000D01*
Y1373176D01*
X3827333D01*
X3827270Y1373270D01*
X3823017Y1376112D01*
X3818000Y1377110D01*
X3812983Y1376112D01*
X3808730Y1373270D01*
X3805888Y1369017D01*
X3804890Y1364000D01*
X3805888Y1358983D01*
X3808730Y1354730D01*
X3812983Y1351888D01*
X3818000Y1350890D01*
X3823017Y1351888D01*
X3827270Y1354730D01*
X3827333Y1354824D01*
X3856113D01*
X3858026Y1350204D01*
X3836998Y1329176D01*
X3803801D01*
X3792176Y1340801D01*
Y1368199D01*
X3817889Y1393912D01*
X3818000Y1393890D01*
X3823017Y1394888D01*
X3827270Y1397730D01*
X3830112Y1401983D01*
X3831110Y1407000D01*
X3830112Y1412017D01*
X3827270Y1416270D01*
X3823017Y1419112D01*
X3818000Y1420110D01*
X3812983Y1419112D01*
X3808730Y1416270D01*
X3805888Y1412017D01*
X3804890Y1407000D01*
X3804912Y1406889D01*
X3776511Y1378489D01*
X3774522Y1375512D01*
X3773824Y1372000D01*
Y1337000D01*
X3774265Y1334784D01*
X3769928Y1332049D01*
X3760489Y1341489D01*
X3757512Y1343478D01*
X3754000Y1344176D01*
X3717301D01*
X3691176Y1370301D01*
Y1437199D01*
X3775824Y1521847D01*
X3780824Y1519775D01*
Y1499891D01*
X3712021Y1431088D01*
X3711910Y1431110D01*
X3706893Y1430112D01*
X3702640Y1427270D01*
X3699798Y1423017D01*
X3698800Y1418000D01*
X3699798Y1412983D01*
X3702640Y1408730D01*
X3706893Y1405888D01*
X3711910Y1404890D01*
X3716927Y1405888D01*
X3721180Y1408730D01*
X3724022Y1412983D01*
X3725020Y1418000D01*
X3724998Y1418111D01*
X3796489Y1489601D01*
X3798478Y1492578D01*
X3799176Y1496090D01*
Y1532199D01*
X3858489Y1591511D01*
X3860478Y1594488D01*
X3860824Y1596227D01*
X3865824Y1595735D01*
D02*
G37*
G36*
X3780227Y1564204D02*
X3766511Y1550489D01*
X3764522Y1547512D01*
X3763824Y1544000D01*
Y1535801D01*
X3675511Y1447489D01*
X3673522Y1444512D01*
X3672824Y1441000D01*
Y1432225D01*
X3667824Y1430153D01*
X3654176Y1443801D01*
Y1547199D01*
X3675801Y1568824D01*
X3778314D01*
X3780227Y1564204D01*
D02*
G37*
G36*
X3299040Y1401000D02*
X3318000D01*
Y1396000D01*
X3323000D01*
Y1377767D01*
X3325358Y1378236D01*
X3331596Y1382404D01*
X3334549Y1386824D01*
X3341199D01*
X3393824Y1334199D01*
Y1265549D01*
X3389404Y1262596D01*
X3385236Y1256358D01*
X3384767Y1254000D01*
X3403000D01*
Y1244000D01*
X3384767D01*
X3385236Y1241642D01*
X3389404Y1235404D01*
X3389670Y1235226D01*
X3389508Y1229321D01*
X3389011Y1228989D01*
X3366111Y1206088D01*
X3366000Y1206110D01*
X3360983Y1205112D01*
X3356730Y1202270D01*
X3353888Y1198017D01*
X3352890Y1193000D01*
X3353844Y1188205D01*
X3353632Y1187885D01*
X3349564Y1185413D01*
X3266176Y1268801D01*
Y1354538D01*
X3271176Y1356055D01*
X3272730Y1353730D01*
X3276983Y1350888D01*
X3282000Y1349890D01*
X3287017Y1350888D01*
X3291270Y1353730D01*
X3294112Y1357983D01*
X3295110Y1363000D01*
X3294112Y1368017D01*
X3291270Y1372270D01*
X3287017Y1375112D01*
X3282000Y1376110D01*
X3276983Y1375112D01*
X3273888Y1373044D01*
X3269779Y1373965D01*
X3268384Y1374765D01*
X3268085Y1376108D01*
X3295089Y1403112D01*
X3299040Y1401000D01*
D02*
G37*
G36*
X3948824Y1472775D02*
Y1415136D01*
X3940011Y1406323D01*
X3938022Y1403346D01*
X3937324Y1399834D01*
Y1312301D01*
X3915511Y1290489D01*
X3913522Y1287512D01*
X3912824Y1284000D01*
Y1244291D01*
X3908204Y1242378D01*
X3867725Y1282857D01*
Y1304143D01*
X3922291Y1358709D01*
X3924833Y1362513D01*
X3925725Y1367000D01*
Y1428404D01*
X3926112Y1428983D01*
X3927110Y1434000D01*
X3926112Y1439017D01*
X3923270Y1443270D01*
X3919017Y1446112D01*
X3914000Y1447110D01*
X3908983Y1446112D01*
X3904730Y1443270D01*
X3901888Y1439017D01*
X3900890Y1434000D01*
X3901888Y1428983D01*
X3902275Y1428404D01*
Y1371857D01*
X3898176Y1367758D01*
X3893176Y1369829D01*
Y1450199D01*
X3904801Y1461824D01*
X3927000D01*
X3930512Y1462522D01*
X3933489Y1464511D01*
X3943824Y1474847D01*
X3948824Y1472775D01*
D02*
G37*
%LPC*%
G36*
X3392000Y2765110D02*
X3386983Y2764112D01*
X3382730Y2761270D01*
X3379888Y2757017D01*
X3378890Y2752000D01*
X3379888Y2746983D01*
X3382730Y2742730D01*
X3386983Y2739888D01*
X3392000Y2738890D01*
X3397017Y2739888D01*
X3401270Y2742730D01*
X3404112Y2746983D01*
X3405110Y2752000D01*
X3404112Y2757017D01*
X3401270Y2761270D01*
X3397017Y2764112D01*
X3392000Y2765110D01*
D02*
G37*
G36*
X3359000Y2715110D02*
X3353983Y2714112D01*
X3349730Y2711270D01*
X3346888Y2707017D01*
X3345890Y2702000D01*
X3346888Y2696983D01*
X3349730Y2692730D01*
X3353983Y2689888D01*
X3359000Y2688890D01*
X3364017Y2689888D01*
X3368270Y2692730D01*
X3371112Y2696983D01*
X3372110Y2702000D01*
X3371112Y2707017D01*
X3368270Y2711270D01*
X3364017Y2714112D01*
X3359000Y2715110D01*
D02*
G37*
G36*
X4112000Y2685110D02*
X4106983Y2684112D01*
X4102730Y2681270D01*
X4099888Y2677017D01*
X4098890Y2672000D01*
X4099888Y2666983D01*
X4102730Y2662730D01*
X4106983Y2659888D01*
X4112000Y2658890D01*
X4117017Y2659888D01*
X4121270Y2662730D01*
X4124112Y2666983D01*
X4125110Y2672000D01*
X4124112Y2677017D01*
X4121270Y2681270D01*
X4117017Y2684112D01*
X4112000Y2685110D01*
D02*
G37*
G36*
X4052000Y2684110D02*
X4046983Y2683112D01*
X4042730Y2680270D01*
X4039888Y2676017D01*
X4038890Y2671000D01*
X4039888Y2665983D01*
X4042730Y2661730D01*
X4046983Y2658888D01*
X4052000Y2657890D01*
X4057017Y2658888D01*
X4061270Y2661730D01*
X4064112Y2665983D01*
X4065110Y2671000D01*
X4064112Y2676017D01*
X4061270Y2680270D01*
X4057017Y2683112D01*
X4052000Y2684110D01*
D02*
G37*
G36*
X3300000Y2776110D02*
X3294983Y2775112D01*
X3290730Y2772270D01*
X3287888Y2768017D01*
X3286890Y2763000D01*
X3287888Y2757983D01*
X3290730Y2753730D01*
X3290824Y2753667D01*
Y2607801D01*
X3278111Y2595088D01*
X3278000Y2595110D01*
X3272983Y2594112D01*
X3268730Y2591270D01*
X3265888Y2587017D01*
X3264890Y2582000D01*
X3265888Y2576983D01*
X3268730Y2572730D01*
X3272983Y2569888D01*
X3278000Y2568890D01*
X3283017Y2569888D01*
X3287270Y2572730D01*
X3290112Y2576983D01*
X3291110Y2582000D01*
X3291088Y2582111D01*
X3306489Y2597511D01*
X3308478Y2600488D01*
X3309176Y2604000D01*
Y2753667D01*
X3309270Y2753730D01*
X3312112Y2757983D01*
X3313110Y2763000D01*
X3312112Y2768017D01*
X3309270Y2772270D01*
X3305017Y2775112D01*
X3300000Y2776110D01*
D02*
G37*
G36*
X3481000Y2605190D02*
X3475983Y2604192D01*
X3471730Y2601350D01*
X3468888Y2597097D01*
X3467890Y2592080D01*
X3468888Y2587063D01*
X3471730Y2582810D01*
X3475983Y2579968D01*
X3481000Y2578970D01*
X3486017Y2579968D01*
X3490270Y2582810D01*
X3493112Y2587063D01*
X3494110Y2592080D01*
X3493112Y2597097D01*
X3490270Y2601350D01*
X3486017Y2604192D01*
X3481000Y2605190D01*
D02*
G37*
G36*
X3420000Y2717110D02*
X3414983Y2716112D01*
X3410730Y2713270D01*
X3407888Y2709017D01*
X3406890Y2704000D01*
X3407888Y2698983D01*
X3408736Y2697713D01*
X3325511Y2614489D01*
X3323522Y2611512D01*
X3322824Y2608000D01*
Y2599333D01*
X3322730Y2599270D01*
X3319888Y2595017D01*
X3318890Y2590000D01*
X3319888Y2584983D01*
X3322730Y2580730D01*
X3326983Y2577888D01*
X3332000Y2576890D01*
X3337017Y2577888D01*
X3341270Y2580730D01*
X3344112Y2584983D01*
X3345110Y2590000D01*
X3344112Y2595017D01*
X3341270Y2599270D01*
X3341176Y2599333D01*
Y2604199D01*
X3426489Y2689511D01*
X3428478Y2692488D01*
X3428870Y2694463D01*
X3429270Y2694730D01*
X3432112Y2698983D01*
X3433110Y2704000D01*
X3432112Y2709017D01*
X3429270Y2713270D01*
X3425017Y2716112D01*
X3420000Y2717110D01*
D02*
G37*
G36*
X3421000Y2602110D02*
X3415983Y2601112D01*
X3411730Y2598270D01*
X3408888Y2594017D01*
X3407890Y2589000D01*
X3408888Y2583983D01*
X3411730Y2579730D01*
X3415983Y2576888D01*
X3421000Y2575890D01*
X3426017Y2576888D01*
X3430270Y2579730D01*
X3433112Y2583983D01*
X3434110Y2589000D01*
X3433112Y2594017D01*
X3430270Y2598270D01*
X3426017Y2601112D01*
X3421000Y2602110D01*
D02*
G37*
G36*
X4069372Y2616771D02*
X3998372D01*
Y2569371D01*
X4069372D01*
Y2616771D01*
D02*
G37*
G36*
X3914635Y2616768D02*
X3823935D01*
Y2569368D01*
X3914635D01*
Y2616768D01*
D02*
G37*
G36*
X3389000Y2582110D02*
X3383983Y2581112D01*
X3379730Y2578270D01*
X3376888Y2574017D01*
X3375890Y2569000D01*
X3376888Y2563983D01*
X3379730Y2559730D01*
X3383983Y2556888D01*
X3389000Y2555890D01*
X3394017Y2556888D01*
X3398270Y2559730D01*
X3401112Y2563983D01*
X3402110Y2569000D01*
X3401112Y2574017D01*
X3398270Y2578270D01*
X3394017Y2581112D01*
X3389000Y2582110D01*
D02*
G37*
G36*
X3245000Y2572110D02*
X3239983Y2571112D01*
X3235730Y2568270D01*
X3232888Y2564017D01*
X3231890Y2559000D01*
X3232888Y2553983D01*
X3235730Y2549730D01*
X3239983Y2546888D01*
X3245000Y2545890D01*
X3250017Y2546888D01*
X3254270Y2549730D01*
X3257112Y2553983D01*
X3258110Y2559000D01*
X3257112Y2564017D01*
X3254270Y2568270D01*
X3250017Y2571112D01*
X3245000Y2572110D01*
D02*
G37*
G36*
X3844000Y2563110D02*
X3838983Y2562112D01*
X3834730Y2559270D01*
X3831888Y2555017D01*
X3830890Y2550000D01*
X3831888Y2544983D01*
X3834730Y2540730D01*
X3838983Y2537888D01*
X3844000Y2536890D01*
X3849017Y2537888D01*
X3853270Y2540730D01*
X3856112Y2544983D01*
X3857110Y2550000D01*
X3856112Y2555017D01*
X3853270Y2559270D01*
X3849017Y2562112D01*
X3844000Y2563110D01*
D02*
G37*
G36*
X3710333D02*
X3705316Y2562112D01*
X3701063Y2559270D01*
X3701000Y2559176D01*
X3560000D01*
X3556488Y2558478D01*
X3553511Y2556489D01*
X3468111Y2471088D01*
X3468000Y2471110D01*
X3462983Y2470112D01*
X3458730Y2467270D01*
X3455888Y2463017D01*
X3454890Y2458000D01*
X3455888Y2452983D01*
X3458730Y2448730D01*
X3462983Y2445888D01*
X3468000Y2444890D01*
X3473017Y2445888D01*
X3477270Y2448730D01*
X3480112Y2452983D01*
X3481110Y2458000D01*
X3481088Y2458111D01*
X3563801Y2540824D01*
X3701000D01*
X3701063Y2540730D01*
X3705316Y2537888D01*
X3710333Y2536890D01*
X3715350Y2537888D01*
X3719604Y2540730D01*
X3722445Y2544983D01*
X3723443Y2550000D01*
X3722445Y2555017D01*
X3719604Y2559270D01*
X3715350Y2562112D01*
X3710333Y2563110D01*
D02*
G37*
G36*
X3888985Y2553904D02*
X3882432Y2552601D01*
X3876876Y2548889D01*
X3873164Y2543333D01*
X3871861Y2536780D01*
X3873164Y2530227D01*
X3876876Y2524671D01*
X3882432Y2520959D01*
X3888985Y2519656D01*
X3895538Y2520959D01*
X3901094Y2524671D01*
X3904806Y2530227D01*
X3906109Y2536780D01*
X3904806Y2543333D01*
X3901094Y2548889D01*
X3895538Y2552601D01*
X3888985Y2553904D01*
D02*
G37*
G36*
X3308000Y2517110D02*
X3302983Y2516112D01*
X3298730Y2513270D01*
X3295888Y2509017D01*
X3294890Y2504000D01*
X3295888Y2498983D01*
X3298730Y2494730D01*
X3302983Y2491888D01*
X3308000Y2490890D01*
X3313017Y2491888D01*
X3317270Y2494730D01*
X3320112Y2498983D01*
X3321110Y2504000D01*
X3320112Y2509017D01*
X3317270Y2513270D01*
X3313017Y2516112D01*
X3308000Y2517110D01*
D02*
G37*
G36*
X3879000Y2477110D02*
X3873983Y2476112D01*
X3869730Y2473270D01*
X3866888Y2469017D01*
X3865890Y2464000D01*
X3866888Y2458983D01*
X3869730Y2454730D01*
X3873983Y2451888D01*
X3879000Y2450890D01*
X3884017Y2451888D01*
X3888270Y2454730D01*
X3891112Y2458983D01*
X3892110Y2464000D01*
X3891112Y2469017D01*
X3888270Y2473270D01*
X3884017Y2476112D01*
X3879000Y2477110D01*
D02*
G37*
G36*
X3313000Y2464110D02*
X3307983Y2463112D01*
X3303730Y2460270D01*
X3300888Y2456017D01*
X3299890Y2451000D01*
X3300888Y2445983D01*
X3303730Y2441730D01*
X3307983Y2438888D01*
X3313000Y2437890D01*
X3318017Y2438888D01*
X3322270Y2441730D01*
X3325112Y2445983D01*
X3326110Y2451000D01*
X3325112Y2456017D01*
X3322270Y2460270D01*
X3318017Y2463112D01*
X3313000Y2464110D01*
D02*
G37*
G36*
X3289000Y2444110D02*
X3283983Y2443112D01*
X3279730Y2440270D01*
X3276888Y2436017D01*
X3275890Y2431000D01*
X3276888Y2425983D01*
X3279730Y2421730D01*
X3283983Y2418888D01*
X3289000Y2417890D01*
X3294017Y2418888D01*
X3298270Y2421730D01*
X3301112Y2425983D01*
X3302110Y2431000D01*
X3301112Y2436017D01*
X3298270Y2440270D01*
X3294017Y2443112D01*
X3289000Y2444110D01*
D02*
G37*
G36*
X3879000Y2393110D02*
X3873983Y2392112D01*
X3869730Y2389270D01*
X3866888Y2385017D01*
X3865890Y2380000D01*
X3866888Y2374983D01*
X3869730Y2370730D01*
X3873983Y2367888D01*
X3879000Y2366890D01*
X3884017Y2367888D01*
X3888270Y2370730D01*
X3891112Y2374983D01*
X3892110Y2380000D01*
X3891112Y2385017D01*
X3888270Y2389270D01*
X3884017Y2392112D01*
X3879000Y2393110D01*
D02*
G37*
G36*
X3484000Y2368213D02*
X3478983Y2367215D01*
X3474730Y2364373D01*
X3471888Y2360119D01*
X3470890Y2355102D01*
X3471888Y2350085D01*
X3474730Y2345832D01*
X3478983Y2342990D01*
X3484000Y2341992D01*
X3489017Y2342990D01*
X3493270Y2345832D01*
X3496112Y2350085D01*
X3497110Y2355102D01*
X3496112Y2360119D01*
X3493270Y2364373D01*
X3489017Y2367215D01*
X3484000Y2368213D01*
D02*
G37*
G36*
X3429000Y2341110D02*
X3423983Y2340112D01*
X3419730Y2337270D01*
X3416888Y2333017D01*
X3415890Y2328000D01*
X3416888Y2322983D01*
X3419730Y2318730D01*
X3423983Y2315888D01*
X3429000Y2314890D01*
X3434017Y2315888D01*
X3438270Y2318730D01*
X3441112Y2322983D01*
X3442110Y2328000D01*
X3441112Y2333017D01*
X3438270Y2337270D01*
X3434017Y2340112D01*
X3429000Y2341110D01*
D02*
G37*
G36*
X3310000Y2330110D02*
X3304983Y2329112D01*
X3300730Y2326270D01*
X3297888Y2322017D01*
X3296890Y2317000D01*
X3297888Y2311983D01*
X3300730Y2307730D01*
X3304983Y2304888D01*
X3310000Y2303890D01*
X3315017Y2304888D01*
X3319270Y2307730D01*
X3322112Y2311983D01*
X3323110Y2317000D01*
X3322112Y2322017D01*
X3319270Y2326270D01*
X3315017Y2329112D01*
X3310000Y2330110D01*
D02*
G37*
G36*
X3644000Y2317110D02*
X3638983Y2316112D01*
X3634730Y2313270D01*
X3631888Y2309017D01*
X3630890Y2304000D01*
X3631888Y2298983D01*
X3634730Y2294730D01*
X3638983Y2291888D01*
X3644000Y2290890D01*
X3649017Y2291888D01*
X3653270Y2294730D01*
X3656112Y2298983D01*
X3657110Y2304000D01*
X3656112Y2309017D01*
X3653270Y2313270D01*
X3649017Y2316112D01*
X3644000Y2317110D01*
D02*
G37*
G36*
X3674000Y2295110D02*
X3668983Y2294112D01*
X3664730Y2291270D01*
X3661888Y2287017D01*
X3660890Y2282000D01*
X3661888Y2276983D01*
X3664730Y2272730D01*
X3668983Y2269888D01*
X3674000Y2268890D01*
X3679017Y2269888D01*
X3683270Y2272730D01*
X3686112Y2276983D01*
X3687110Y2282000D01*
X3686112Y2287017D01*
X3683270Y2291270D01*
X3679017Y2294112D01*
X3674000Y2295110D01*
D02*
G37*
G36*
X3728000Y2284110D02*
X3722983Y2283112D01*
X3718730Y2280270D01*
X3715888Y2276017D01*
X3714890Y2271000D01*
X3715888Y2265983D01*
X3718730Y2261730D01*
X3722983Y2258888D01*
X3728000Y2257890D01*
X3733017Y2258888D01*
X3737270Y2261730D01*
X3740112Y2265983D01*
X3741110Y2271000D01*
X3740112Y2276017D01*
X3737270Y2280270D01*
X3733017Y2283112D01*
X3728000Y2284110D01*
D02*
G37*
G36*
X3322000Y2276110D02*
X3316983Y2275112D01*
X3312730Y2272270D01*
X3309888Y2268017D01*
X3308890Y2263000D01*
X3309888Y2257983D01*
X3312730Y2253730D01*
X3316983Y2250888D01*
X3322000Y2249890D01*
X3327017Y2250888D01*
X3331270Y2253730D01*
X3334112Y2257983D01*
X3335110Y2263000D01*
X3334112Y2268017D01*
X3331270Y2272270D01*
X3327017Y2275112D01*
X3322000Y2276110D01*
D02*
G37*
G36*
X3391786Y2247110D02*
X3386769Y2246112D01*
X3382515Y2243270D01*
X3379673Y2239017D01*
X3378675Y2234000D01*
X3379673Y2228983D01*
X3382515Y2224730D01*
X3386769Y2221888D01*
X3391786Y2220890D01*
X3396803Y2221888D01*
X3401056Y2224730D01*
X3403898Y2228983D01*
X3404896Y2234000D01*
X3403898Y2239017D01*
X3401056Y2243270D01*
X3396803Y2246112D01*
X3391786Y2247110D01*
D02*
G37*
G36*
X4029000Y2213233D02*
Y2200000D01*
X4042233D01*
X4041764Y2202358D01*
X4037596Y2208596D01*
X4031358Y2212764D01*
X4029000Y2213233D01*
D02*
G37*
G36*
X4019000D02*
X4016642Y2212764D01*
X4010404Y2208596D01*
X4006236Y2202358D01*
X4005767Y2200000D01*
X4019000D01*
Y2213233D01*
D02*
G37*
G36*
X3412000Y2218110D02*
X3406983Y2217112D01*
X3402730Y2214270D01*
X3399888Y2210017D01*
X3398890Y2205000D01*
X3399888Y2199983D01*
X3402730Y2195730D01*
X3406983Y2192888D01*
X3412000Y2191890D01*
X3417017Y2192888D01*
X3421270Y2195730D01*
X3424112Y2199983D01*
X3425110Y2205000D01*
X3424112Y2210017D01*
X3421270Y2214270D01*
X3417017Y2217112D01*
X3412000Y2218110D01*
D02*
G37*
G36*
X4042233Y2190000D02*
X4029000D01*
Y2176767D01*
X4031358Y2177236D01*
X4037596Y2181404D01*
X4041764Y2187642D01*
X4042233Y2190000D01*
D02*
G37*
G36*
X4019000D02*
X4005767D01*
X4006236Y2187642D01*
X4010404Y2181404D01*
X4016642Y2177236D01*
X4019000Y2176767D01*
Y2190000D01*
D02*
G37*
G36*
X3434000Y2189110D02*
X3428983Y2188112D01*
X3424730Y2185270D01*
X3421888Y2181017D01*
X3420890Y2176000D01*
X3421888Y2170983D01*
X3424730Y2166730D01*
X3428983Y2163888D01*
X3434000Y2162890D01*
X3439017Y2163888D01*
X3443270Y2166730D01*
X3446112Y2170983D01*
X3447110Y2176000D01*
X3446112Y2181017D01*
X3443270Y2185270D01*
X3439017Y2188112D01*
X3434000Y2189110D01*
D02*
G37*
G36*
X3779000Y2558110D02*
X3773983Y2557112D01*
X3769730Y2554270D01*
X3766888Y2550017D01*
X3765890Y2545000D01*
X3766888Y2539983D01*
X3769730Y2535730D01*
X3773983Y2532888D01*
X3779000Y2531890D01*
X3779111Y2531912D01*
X3815511Y2495511D01*
X3818488Y2493522D01*
X3822000Y2492824D01*
X3920199D01*
X4072824Y2340199D01*
Y2280209D01*
X4069372Y2276639D01*
X4067824Y2276639D01*
X3998372D01*
Y2229239D01*
X4067824D01*
X4069372Y2229239D01*
X4072824Y2225668D01*
Y2210801D01*
X4048511Y2186489D01*
X4046522Y2183512D01*
X4045824Y2180000D01*
Y2139785D01*
X4034127Y2128088D01*
X4034016Y2128110D01*
X4028999Y2127112D01*
X4024746Y2124270D01*
X4021904Y2120017D01*
X4020906Y2115000D01*
X4021904Y2109983D01*
X4024746Y2105730D01*
X4028999Y2102888D01*
X4034016Y2101890D01*
X4039033Y2102888D01*
X4043286Y2105730D01*
X4046128Y2109983D01*
X4047126Y2115000D01*
X4047104Y2115111D01*
X4061489Y2129495D01*
X4063478Y2132472D01*
X4064176Y2135984D01*
Y2176199D01*
X4088489Y2200511D01*
X4090478Y2203488D01*
X4091176Y2207000D01*
Y2344000D01*
X4090478Y2347512D01*
X4088489Y2350489D01*
X3930489Y2508489D01*
X3927512Y2510478D01*
X3924000Y2511176D01*
X3825801D01*
X3792088Y2544889D01*
X3792110Y2545000D01*
X3791112Y2550017D01*
X3788270Y2554270D01*
X3784017Y2557112D01*
X3779000Y2558110D01*
D02*
G37*
G36*
X4075346Y2120110D02*
X4070329Y2119112D01*
X4066076Y2116270D01*
X4063234Y2112017D01*
X4062236Y2107000D01*
X4063234Y2101983D01*
X4066076Y2097730D01*
X4070329Y2094888D01*
X4075346Y2093890D01*
X4080363Y2094888D01*
X4084617Y2097730D01*
X4087459Y2101983D01*
X4088456Y2107000D01*
X4087459Y2112017D01*
X4084617Y2116270D01*
X4080363Y2119112D01*
X4075346Y2120110D01*
D02*
G37*
G36*
X3991000Y2085110D02*
X3985983Y2084112D01*
X3981730Y2081270D01*
X3978888Y2077017D01*
X3977890Y2072000D01*
X3978888Y2066983D01*
X3981730Y2062730D01*
X3985983Y2059888D01*
X3991000Y2058890D01*
X3996017Y2059888D01*
X4000270Y2062730D01*
X4003112Y2066983D01*
X4004110Y2072000D01*
X4003112Y2077017D01*
X4000270Y2081270D01*
X3996017Y2084112D01*
X3991000Y2085110D01*
D02*
G37*
G36*
X4084000Y2071110D02*
X4078983Y2070112D01*
X4074730Y2067270D01*
X4071888Y2063017D01*
X4070890Y2058000D01*
X4071888Y2052983D01*
X4074730Y2048730D01*
X4078983Y2045888D01*
X4084000Y2044890D01*
X4089017Y2045888D01*
X4093270Y2048730D01*
X4096112Y2052983D01*
X4097110Y2058000D01*
X4096112Y2063017D01*
X4093270Y2067270D01*
X4089017Y2070112D01*
X4084000Y2071110D01*
D02*
G37*
G36*
X4098465Y2173110D02*
X4093448Y2172112D01*
X4089194Y2169270D01*
X4086352Y2165017D01*
X4085354Y2160000D01*
X4086352Y2154983D01*
X4089194Y2150730D01*
X4093448Y2147888D01*
X4096024Y2147375D01*
X4104824Y2138576D01*
Y2038801D01*
X4069199Y2003176D01*
X3941626D01*
X3940227Y2005270D01*
X3935974Y2008112D01*
X3930957Y2009110D01*
X3925940Y2008112D01*
X3921687Y2005270D01*
X3918845Y2001017D01*
X3917847Y1996000D01*
X3918845Y1990983D01*
X3921687Y1986730D01*
X3925940Y1983888D01*
X3930957Y1982890D01*
X3935974Y1983888D01*
X3937374Y1984824D01*
X4073000D01*
X4076512Y1985522D01*
X4079489Y1987511D01*
X4120489Y2028511D01*
X4122478Y2031488D01*
X4123176Y2035000D01*
Y2142376D01*
X4122478Y2145888D01*
X4120489Y2148865D01*
X4111206Y2158148D01*
X4111575Y2160000D01*
X4110577Y2165017D01*
X4107735Y2169270D01*
X4103482Y2172112D01*
X4098465Y2173110D01*
D02*
G37*
G36*
X3919000Y1945233D02*
Y1932000D01*
X3932233D01*
X3931764Y1934358D01*
X3927596Y1940596D01*
X3921358Y1944764D01*
X3919000Y1945233D01*
D02*
G37*
G36*
X3909000D02*
X3906642Y1944764D01*
X3900404Y1940596D01*
X3896236Y1934358D01*
X3895767Y1932000D01*
X3909000D01*
Y1945233D01*
D02*
G37*
G36*
X3932233Y1922000D02*
X3919000D01*
Y1908767D01*
X3921358Y1909236D01*
X3927596Y1913404D01*
X3931764Y1919642D01*
X3932233Y1922000D01*
D02*
G37*
G36*
X3909000D02*
X3895767D01*
X3896236Y1919642D01*
X3900404Y1913404D01*
X3906642Y1909236D01*
X3909000Y1908767D01*
Y1922000D01*
D02*
G37*
G36*
X3962500Y1931110D02*
X3957483Y1930112D01*
X3953230Y1927270D01*
X3950388Y1923017D01*
X3949390Y1918000D01*
X3950388Y1912983D01*
X3953230Y1908730D01*
X3957483Y1905888D01*
X3962500Y1904890D01*
X3967517Y1905888D01*
X3971770Y1908730D01*
X3974612Y1912983D01*
X3975610Y1918000D01*
X3974612Y1923017D01*
X3971770Y1927270D01*
X3967517Y1930112D01*
X3962500Y1931110D01*
D02*
G37*
G36*
X4084000Y1900110D02*
X4078983Y1899112D01*
X4074730Y1896270D01*
X4071888Y1892017D01*
X4070890Y1887000D01*
X4071888Y1881983D01*
X4074730Y1877730D01*
X4078983Y1874888D01*
X4084000Y1873890D01*
X4089017Y1874888D01*
X4093270Y1877730D01*
X4096112Y1881983D01*
X4097110Y1887000D01*
X4096112Y1892017D01*
X4093270Y1896270D01*
X4089017Y1899112D01*
X4084000Y1900110D01*
D02*
G37*
G36*
X3929000Y1899110D02*
X3923983Y1898112D01*
X3919730Y1895270D01*
X3916888Y1891017D01*
X3915890Y1886000D01*
X3916888Y1880983D01*
X3919730Y1876730D01*
X3923983Y1873888D01*
X3929000Y1872890D01*
X3934017Y1873888D01*
X3938270Y1876730D01*
X3941112Y1880983D01*
X3942110Y1886000D01*
X3941112Y1891017D01*
X3938270Y1895270D01*
X3934017Y1898112D01*
X3929000Y1899110D01*
D02*
G37*
G36*
X3974088Y1741610D02*
X3969071Y1740612D01*
X3964818Y1737770D01*
X3961976Y1733517D01*
X3960978Y1728500D01*
X3961976Y1723483D01*
X3964818Y1719230D01*
X3969071Y1716388D01*
X3974088Y1715390D01*
X3979105Y1716388D01*
X3983358Y1719230D01*
X3986200Y1723483D01*
X3987198Y1728500D01*
X3986200Y1733517D01*
X3983358Y1737770D01*
X3979105Y1740612D01*
X3974088Y1741610D01*
D02*
G37*
G36*
X4086629Y1725233D02*
Y1712000D01*
X4099862D01*
X4099393Y1714358D01*
X4095225Y1720596D01*
X4088987Y1724764D01*
X4086629Y1725233D01*
D02*
G37*
G36*
X4076629D02*
X4074271Y1724764D01*
X4068033Y1720596D01*
X4063865Y1714358D01*
X4063396Y1712000D01*
X4076629D01*
Y1725233D01*
D02*
G37*
G36*
X4099862Y1702000D02*
X4086629D01*
Y1688767D01*
X4088987Y1689236D01*
X4095225Y1693404D01*
X4099393Y1699642D01*
X4099862Y1702000D01*
D02*
G37*
G36*
X4076629D02*
X4063396D01*
X4063865Y1699642D01*
X4068033Y1693404D01*
X4074271Y1689236D01*
X4076629Y1688767D01*
Y1702000D01*
D02*
G37*
G36*
X3974088Y1667110D02*
X3969071Y1666112D01*
X3964818Y1663270D01*
X3961976Y1659017D01*
X3960978Y1654000D01*
X3961976Y1648983D01*
X3964818Y1644730D01*
X3969071Y1641888D01*
X3974088Y1640890D01*
X3979105Y1641888D01*
X3983358Y1644730D01*
X3986200Y1648983D01*
X3987198Y1654000D01*
X3986200Y1659017D01*
X3983358Y1663270D01*
X3979105Y1666112D01*
X3974088Y1667110D01*
D02*
G37*
G36*
X3501000D02*
X3495983Y1666112D01*
X3491730Y1663270D01*
X3488888Y1659017D01*
X3487890Y1654000D01*
X3488888Y1648983D01*
X3491730Y1644730D01*
X3495983Y1641888D01*
X3501000Y1640890D01*
X3506017Y1641888D01*
X3510270Y1644730D01*
X3513112Y1648983D01*
X3514110Y1654000D01*
X3513112Y1659017D01*
X3510270Y1663270D01*
X3506017Y1666112D01*
X3501000Y1667110D01*
D02*
G37*
G36*
X3500000Y1608110D02*
X3494983Y1607112D01*
X3490730Y1604270D01*
X3487888Y1600017D01*
X3486890Y1595000D01*
X3487888Y1589983D01*
X3490730Y1585730D01*
X3494983Y1582888D01*
X3500000Y1581890D01*
X3505017Y1582888D01*
X3509270Y1585730D01*
X3512112Y1589983D01*
X3513110Y1595000D01*
X3512112Y1600017D01*
X3509270Y1604270D01*
X3505017Y1607112D01*
X3500000Y1608110D01*
D02*
G37*
G36*
X3565000Y1511233D02*
Y1498000D01*
X3578233D01*
X3577764Y1500358D01*
X3573596Y1506596D01*
X3567358Y1510764D01*
X3565000Y1511233D01*
D02*
G37*
G36*
X3555000D02*
X3552642Y1510764D01*
X3546404Y1506596D01*
X3542236Y1500358D01*
X3541622Y1497274D01*
X3444581D01*
X3439358Y1500764D01*
X3437000Y1501233D01*
Y1483000D01*
Y1464767D01*
X3439358Y1465236D01*
X3444581Y1468726D01*
X3549999D01*
X3550000Y1468726D01*
X3555463Y1469812D01*
X3560093Y1472907D01*
X3561198Y1474011D01*
X3567358Y1475236D01*
X3573596Y1479404D01*
X3577764Y1485642D01*
X3578233Y1488000D01*
X3560000D01*
Y1493000D01*
X3555000D01*
Y1511233D01*
D02*
G37*
G36*
X3427000Y1501233D02*
X3424642Y1500764D01*
X3418404Y1496596D01*
X3414236Y1490358D01*
X3413767Y1488000D01*
X3427000D01*
Y1501233D01*
D02*
G37*
G36*
Y1478000D02*
X3413767D01*
X3414236Y1475642D01*
X3418404Y1469404D01*
X3424642Y1465236D01*
X3427000Y1464767D01*
Y1478000D01*
D02*
G37*
G36*
X4121053Y1476557D02*
X4116036Y1475560D01*
X4111782Y1472718D01*
X4108940Y1468464D01*
X4107943Y1463447D01*
X4108940Y1458430D01*
X4111782Y1454177D01*
X4116036Y1451335D01*
X4121053Y1450337D01*
X4126070Y1451335D01*
X4130323Y1454177D01*
X4133165Y1458430D01*
X4134163Y1463447D01*
X4133165Y1468464D01*
X4130323Y1472718D01*
X4126070Y1475560D01*
X4121053Y1476557D01*
D02*
G37*
G36*
X3530000Y1421110D02*
X3524983Y1420112D01*
X3520730Y1417270D01*
X3517888Y1413017D01*
X3516890Y1408000D01*
X3517888Y1402983D01*
X3520730Y1398730D01*
X3524983Y1395888D01*
X3530000Y1394890D01*
X3535017Y1395888D01*
X3539270Y1398730D01*
X3542112Y1402983D01*
X3543110Y1408000D01*
X3542112Y1413017D01*
X3539270Y1417270D01*
X3535017Y1420112D01*
X3530000Y1421110D01*
D02*
G37*
G36*
X4004489Y1393110D02*
X3999472Y1392112D01*
X3995219Y1389270D01*
X3992377Y1385017D01*
X3991379Y1380000D01*
X3991893Y1377416D01*
X3990286Y1375756D01*
X3987525Y1373930D01*
X3986000Y1374233D01*
Y1361000D01*
X3999233D01*
X3998853Y1362913D01*
X4000015Y1364860D01*
X4002100Y1367365D01*
X4004489Y1366890D01*
X4009506Y1367888D01*
X4013759Y1370730D01*
X4016601Y1374983D01*
X4017599Y1380000D01*
X4016601Y1385017D01*
X4013759Y1389270D01*
X4009506Y1392112D01*
X4004489Y1393110D01*
D02*
G37*
G36*
X3560000Y1395110D02*
X3554983Y1394112D01*
X3550730Y1391270D01*
X3547888Y1387017D01*
X3546890Y1382000D01*
X3547888Y1376983D01*
X3550730Y1372730D01*
X3554983Y1369888D01*
X3560000Y1368890D01*
X3565017Y1369888D01*
X3569270Y1372730D01*
X3572112Y1376983D01*
X3573110Y1382000D01*
X3572112Y1387017D01*
X3569270Y1391270D01*
X3565017Y1394112D01*
X3560000Y1395110D01*
D02*
G37*
G36*
X3999233Y1351000D02*
X3986000D01*
Y1337767D01*
X3988358Y1338236D01*
X3994596Y1342404D01*
X3998764Y1348642D01*
X3999233Y1351000D01*
D02*
G37*
G36*
X3680008Y1341110D02*
X3674991Y1340112D01*
X3670738Y1337270D01*
X3667896Y1333017D01*
X3666898Y1328000D01*
X3667896Y1322983D01*
X3670738Y1318730D01*
X3674991Y1315888D01*
X3680008Y1314890D01*
X3685025Y1315888D01*
X3689278Y1318730D01*
X3692120Y1322983D01*
X3693118Y1328000D01*
X3692120Y1333017D01*
X3689278Y1337270D01*
X3685025Y1340112D01*
X3680008Y1341110D01*
D02*
G37*
G36*
X3723000Y1314110D02*
X3717983Y1313112D01*
X3713730Y1310270D01*
X3710888Y1306017D01*
X3709890Y1301000D01*
X3709912Y1300889D01*
X3672511Y1263489D01*
X3670522Y1260512D01*
X3669824Y1257000D01*
Y1174801D01*
X3652111Y1157088D01*
X3652000Y1157110D01*
X3646983Y1156112D01*
X3642730Y1153270D01*
X3639888Y1149017D01*
X3638890Y1144000D01*
X3639888Y1138983D01*
X3642730Y1134730D01*
X3646983Y1131888D01*
X3652000Y1130890D01*
X3657017Y1131888D01*
X3661270Y1134730D01*
X3664112Y1138983D01*
X3665110Y1144000D01*
X3665088Y1144111D01*
X3685489Y1164511D01*
X3687478Y1167488D01*
X3688176Y1171000D01*
Y1253199D01*
X3722889Y1287912D01*
X3723000Y1287890D01*
X3728017Y1288888D01*
X3732270Y1291730D01*
X3735112Y1295983D01*
X3736110Y1301000D01*
X3735112Y1306017D01*
X3732270Y1310270D01*
X3728017Y1313112D01*
X3723000Y1314110D01*
D02*
G37*
G36*
X4036000Y1312110D02*
X4030983Y1311112D01*
X4026730Y1308270D01*
X4023888Y1304017D01*
X4022890Y1299000D01*
X4023888Y1293983D01*
X4026730Y1289730D01*
X4030983Y1286888D01*
X4036000Y1285890D01*
X4041017Y1286888D01*
X4045270Y1289730D01*
X4048112Y1293983D01*
X4049110Y1299000D01*
X4048112Y1304017D01*
X4045270Y1308270D01*
X4041017Y1311112D01*
X4036000Y1312110D01*
D02*
G37*
G36*
X3632000Y1287233D02*
Y1274000D01*
X3645233D01*
X3644764Y1276358D01*
X3640596Y1282596D01*
X3634358Y1286764D01*
X3632000Y1287233D01*
D02*
G37*
G36*
X3622000D02*
X3619642Y1286764D01*
X3613404Y1282596D01*
X3609236Y1276358D01*
X3608767Y1274000D01*
X3622000D01*
Y1287233D01*
D02*
G37*
G36*
X4119000Y1298110D02*
X4113983Y1297112D01*
X4109730Y1294270D01*
X4106888Y1290017D01*
X4105890Y1285000D01*
X4106888Y1279983D01*
X4109730Y1275730D01*
X4113983Y1272888D01*
X4119000Y1271890D01*
X4124017Y1272888D01*
X4128270Y1275730D01*
X4131112Y1279983D01*
X4132110Y1285000D01*
X4131112Y1290017D01*
X4128270Y1294270D01*
X4124017Y1297112D01*
X4119000Y1298110D01*
D02*
G37*
G36*
X3645233Y1264000D02*
X3632000D01*
Y1250767D01*
X3634358Y1251236D01*
X3640596Y1255404D01*
X3644764Y1261642D01*
X3645233Y1264000D01*
D02*
G37*
G36*
X3622000D02*
X3608767D01*
X3609236Y1261642D01*
X3613404Y1255404D01*
X3619642Y1251236D01*
X3622000Y1250767D01*
Y1264000D01*
D02*
G37*
G36*
X3541890Y1258110D02*
X3536873Y1257112D01*
X3532620Y1254270D01*
X3529778Y1250017D01*
X3528780Y1245000D01*
X3529778Y1239983D01*
X3532620Y1235730D01*
X3536873Y1232888D01*
X3541890Y1231890D01*
X3546907Y1232888D01*
X3551160Y1235730D01*
X3554002Y1239983D01*
X3555000Y1245000D01*
X3554002Y1250017D01*
X3551160Y1254270D01*
X3546907Y1257112D01*
X3541890Y1258110D01*
D02*
G37*
G36*
X4114000Y1225233D02*
Y1212000D01*
X4127233D01*
X4126764Y1214358D01*
X4122596Y1220596D01*
X4116358Y1224764D01*
X4114000Y1225233D01*
D02*
G37*
G36*
X3535000Y2290405D02*
X3529983Y2289407D01*
X3525730Y2286565D01*
X3522888Y2282312D01*
X3521890Y2277295D01*
X3522888Y2272278D01*
X3525730Y2268025D01*
X3529983Y2265183D01*
X3535000Y2264185D01*
X3540017Y2265183D01*
X3544270Y2268025D01*
X3547112Y2272278D01*
X3548110Y2277295D01*
X3547112Y2282312D01*
X3544270Y2286565D01*
X3540017Y2289407D01*
X3535000Y2290405D01*
D02*
G37*
G36*
X3576000Y2203110D02*
X3570983Y2202112D01*
X3566730Y2199270D01*
X3563888Y2195017D01*
X3562890Y2190000D01*
X3563888Y2184983D01*
X3566730Y2180730D01*
X3570983Y2177888D01*
X3576000Y2176890D01*
X3581017Y2177888D01*
X3585270Y2180730D01*
X3588112Y2184983D01*
X3589110Y2190000D01*
X3588112Y2195017D01*
X3585270Y2199270D01*
X3581017Y2202112D01*
X3576000Y2203110D01*
D02*
G37*
G36*
X3638684Y2184110D02*
X3633667Y2183112D01*
X3629414Y2180270D01*
X3626572Y2176017D01*
X3625574Y2171000D01*
X3626572Y2165983D01*
X3629414Y2161730D01*
X3633667Y2158888D01*
X3638684Y2157890D01*
X3643701Y2158888D01*
X3647955Y2161730D01*
X3650797Y2165983D01*
X3651794Y2171000D01*
X3650797Y2176017D01*
X3647955Y2180270D01*
X3643701Y2183112D01*
X3638684Y2184110D01*
D02*
G37*
G36*
X3579000Y2147110D02*
X3573983Y2146112D01*
X3569730Y2143270D01*
X3566888Y2139017D01*
X3565890Y2134000D01*
X3566888Y2128983D01*
X3569730Y2124730D01*
X3573983Y2121888D01*
X3579000Y2120890D01*
X3584017Y2121888D01*
X3588270Y2124730D01*
X3591112Y2128983D01*
X3592110Y2134000D01*
X3591112Y2139017D01*
X3588270Y2143270D01*
X3584017Y2146112D01*
X3579000Y2147110D01*
D02*
G37*
G36*
X3850000Y2185110D02*
X3844983Y2184112D01*
X3840730Y2181270D01*
X3837888Y2177017D01*
X3836890Y2172000D01*
X3837888Y2166983D01*
X3840730Y2162730D01*
X3844983Y2159888D01*
X3850000Y2158890D01*
X3855017Y2159888D01*
X3859270Y2162730D01*
X3862112Y2166983D01*
X3863110Y2172000D01*
X3862112Y2177017D01*
X3859270Y2181270D01*
X3855017Y2184112D01*
X3850000Y2185110D01*
D02*
G37*
G36*
X3682000Y1984110D02*
X3676983Y1983112D01*
X3672730Y1980270D01*
X3669888Y1976017D01*
X3668890Y1971000D01*
X3669888Y1965983D01*
X3672730Y1961730D01*
X3676983Y1958888D01*
X3682000Y1957890D01*
X3687017Y1958888D01*
X3691270Y1961730D01*
X3694112Y1965983D01*
X3695110Y1971000D01*
X3694112Y1976017D01*
X3691270Y1980270D01*
X3687017Y1983112D01*
X3682000Y1984110D01*
D02*
G37*
G36*
X3511000Y2021110D02*
X3505983Y2020112D01*
X3501730Y2017270D01*
X3498888Y2013017D01*
X3497890Y2008000D01*
X3498888Y2002983D01*
X3501730Y1998730D01*
X3505983Y1995888D01*
X3511000Y1994890D01*
X3516017Y1995888D01*
X3520270Y1998730D01*
X3523112Y2002983D01*
X3524110Y2008000D01*
X3523112Y2013017D01*
X3520270Y2017270D01*
X3516017Y2020112D01*
X3511000Y2021110D01*
D02*
G37*
G36*
X3551858Y2014110D02*
X3546841Y2013112D01*
X3542588Y2010270D01*
X3539746Y2006017D01*
X3538748Y2001000D01*
X3539746Y1995983D01*
X3542588Y1991730D01*
X3546841Y1988888D01*
X3551858Y1987890D01*
X3556875Y1988888D01*
X3561128Y1991730D01*
X3563970Y1995983D01*
X3564968Y2001000D01*
X3563970Y2006017D01*
X3561128Y2010270D01*
X3556875Y2013112D01*
X3551858Y2014110D01*
D02*
G37*
G36*
X3607000Y1969110D02*
X3601983Y1968112D01*
X3597730Y1965270D01*
X3594888Y1961017D01*
X3593890Y1956000D01*
X3594888Y1950983D01*
X3597730Y1946730D01*
X3601983Y1943888D01*
X3607000Y1942890D01*
X3612017Y1943888D01*
X3616270Y1946730D01*
X3619112Y1950983D01*
X3620110Y1956000D01*
X3619112Y1961017D01*
X3616270Y1965270D01*
X3612017Y1968112D01*
X3607000Y1969110D01*
D02*
G37*
G36*
X3620000Y1913236D02*
X3614983Y1912238D01*
X3610730Y1909396D01*
X3607888Y1905143D01*
X3606890Y1900126D01*
X3607888Y1895109D01*
X3610730Y1890856D01*
X3614983Y1888014D01*
X3620000Y1887016D01*
X3625017Y1888014D01*
X3629270Y1890856D01*
X3632112Y1895109D01*
X3633110Y1900126D01*
X3632112Y1905143D01*
X3629270Y1909396D01*
X3625017Y1912238D01*
X3620000Y1913236D01*
D02*
G37*
G36*
X3739000Y1728110D02*
X3733983Y1727112D01*
X3729730Y1724270D01*
X3726888Y1720017D01*
X3725890Y1715000D01*
X3726888Y1709983D01*
X3729730Y1705730D01*
X3733983Y1702888D01*
X3739000Y1701890D01*
X3744017Y1702888D01*
X3748270Y1705730D01*
X3751112Y1709983D01*
X3752110Y1715000D01*
X3751112Y1720017D01*
X3748270Y1724270D01*
X3744017Y1727112D01*
X3739000Y1728110D01*
D02*
G37*
G36*
X3787000Y1639110D02*
X3781983Y1638112D01*
X3777730Y1635270D01*
X3774888Y1631017D01*
X3773890Y1626000D01*
X3774888Y1620983D01*
X3777730Y1616730D01*
X3781983Y1613888D01*
X3787000Y1612890D01*
X3792017Y1613888D01*
X3796270Y1616730D01*
X3799112Y1620983D01*
X3800110Y1626000D01*
X3799112Y1631017D01*
X3796270Y1635270D01*
X3792017Y1638112D01*
X3787000Y1639110D01*
D02*
G37*
G36*
X3261000Y2043110D02*
X3255983Y2042112D01*
X3251730Y2039270D01*
X3248888Y2035017D01*
X3247890Y2030000D01*
X3248888Y2024983D01*
X3251730Y2020730D01*
X3255983Y2017888D01*
X3261000Y2016890D01*
X3266017Y2017888D01*
X3270270Y2020730D01*
X3273112Y2024983D01*
X3274110Y2030000D01*
X3273112Y2035017D01*
X3270270Y2039270D01*
X3266017Y2042112D01*
X3261000Y2043110D01*
D02*
G37*
G36*
X3278000Y2154110D02*
X3272983Y2153112D01*
X3268730Y2150270D01*
X3265888Y2146017D01*
X3264890Y2141000D01*
X3265888Y2135983D01*
X3268730Y2131730D01*
X3272983Y2128888D01*
X3278000Y2127890D01*
X3283017Y2128888D01*
X3287270Y2131730D01*
X3290112Y2135983D01*
X3291110Y2141000D01*
X3290112Y2146017D01*
X3287270Y2150270D01*
X3283017Y2153112D01*
X3278000Y2154110D01*
D02*
G37*
G36*
X3325000Y2082110D02*
X3319983Y2081112D01*
X3315730Y2078270D01*
X3312888Y2074017D01*
X3311890Y2069000D01*
X3312888Y2063983D01*
X3315730Y2059730D01*
X3319983Y2056888D01*
X3325000Y2055890D01*
X3330017Y2056888D01*
X3334270Y2059730D01*
X3337112Y2063983D01*
X3338110Y2069000D01*
X3337112Y2074017D01*
X3334270Y2078270D01*
X3330017Y2081112D01*
X3325000Y2082110D01*
D02*
G37*
G36*
X3347000Y2055110D02*
X3341983Y2054112D01*
X3337730Y2051270D01*
X3334888Y2047017D01*
X3333890Y2042000D01*
X3334888Y2036983D01*
X3337730Y2032730D01*
X3341983Y2029888D01*
X3347000Y2028890D01*
X3352017Y2029888D01*
X3356270Y2032730D01*
X3359112Y2036983D01*
X3360110Y2042000D01*
X3359112Y2047017D01*
X3356270Y2051270D01*
X3352017Y2054112D01*
X3347000Y2055110D01*
D02*
G37*
G36*
X3378000Y2037110D02*
X3372983Y2036112D01*
X3368730Y2033270D01*
X3365888Y2029017D01*
X3364890Y2024000D01*
X3365888Y2018983D01*
X3368730Y2014730D01*
X3372983Y2011888D01*
X3378000Y2010890D01*
X3383017Y2011888D01*
X3387270Y2014730D01*
X3390112Y2018983D01*
X3391110Y2024000D01*
X3390112Y2029017D01*
X3387270Y2033270D01*
X3383017Y2036112D01*
X3378000Y2037110D01*
D02*
G37*
G36*
X3435000Y1839110D02*
X3429983Y1838112D01*
X3425730Y1835270D01*
X3422888Y1831017D01*
X3421890Y1826000D01*
X3422888Y1820983D01*
X3425730Y1816730D01*
X3429983Y1813888D01*
X3435000Y1812890D01*
X3440017Y1813888D01*
X3444270Y1816730D01*
X3447112Y1820983D01*
X3448110Y1826000D01*
X3447112Y1831017D01*
X3444270Y1835270D01*
X3440017Y1838112D01*
X3435000Y1839110D01*
D02*
G37*
G36*
X3562000Y1812110D02*
X3556983Y1811112D01*
X3552730Y1808270D01*
X3549888Y1804017D01*
X3548890Y1799000D01*
X3549888Y1793983D01*
X3552730Y1789730D01*
X3556983Y1786888D01*
X3562000Y1785890D01*
X3567017Y1786888D01*
X3571270Y1789730D01*
X3574112Y1793983D01*
X3575110Y1799000D01*
X3574112Y1804017D01*
X3571270Y1808270D01*
X3567017Y1811112D01*
X3562000Y1812110D01*
D02*
G37*
G36*
X3888985Y2326344D02*
X3882432Y2325041D01*
X3876876Y2321329D01*
X3873164Y2315773D01*
X3871861Y2309220D01*
X3873164Y2302667D01*
X3876876Y2297111D01*
X3882432Y2293399D01*
X3888985Y2292096D01*
X3895538Y2293399D01*
X3901094Y2297111D01*
X3904806Y2302667D01*
X3906109Y2309220D01*
X3904806Y2315773D01*
X3901094Y2321329D01*
X3895538Y2325041D01*
X3888985Y2326344D01*
D02*
G37*
G36*
X3807000Y2305110D02*
X3801983Y2304112D01*
X3797730Y2301270D01*
X3794888Y2297017D01*
X3793890Y2292000D01*
X3794888Y2286983D01*
X3797730Y2282730D01*
X3801983Y2279888D01*
X3807000Y2278890D01*
X3812017Y2279888D01*
X3816270Y2282730D01*
X3819112Y2286983D01*
X3820110Y2292000D01*
X3819112Y2297017D01*
X3816270Y2301270D01*
X3812017Y2304112D01*
X3807000Y2305110D01*
D02*
G37*
G36*
X3802000Y2272110D02*
X3796983Y2271112D01*
X3792730Y2268270D01*
X3789888Y2264017D01*
X3788890Y2259000D01*
X3789888Y2253983D01*
X3792730Y2249730D01*
X3796983Y2246888D01*
X3802000Y2245890D01*
X3807017Y2246888D01*
X3811270Y2249730D01*
X3814112Y2253983D01*
X3815110Y2259000D01*
X3814112Y2264017D01*
X3811270Y2268270D01*
X3807017Y2271112D01*
X3802000Y2272110D01*
D02*
G37*
G36*
X3914635Y2276644D02*
X3823935D01*
Y2229244D01*
X3914635D01*
Y2276644D01*
D02*
G37*
G36*
X3676000Y1738233D02*
Y1725000D01*
X3689233D01*
X3688764Y1727358D01*
X3684596Y1733596D01*
X3678358Y1737764D01*
X3676000Y1738233D01*
D02*
G37*
G36*
X3666000D02*
X3663642Y1737764D01*
X3657404Y1733596D01*
X3653236Y1727358D01*
X3652767Y1725000D01*
X3666000D01*
Y1738233D01*
D02*
G37*
G36*
X3689233Y1715000D02*
X3676000D01*
Y1701767D01*
X3678358Y1702236D01*
X3684596Y1706404D01*
X3688764Y1712642D01*
X3689233Y1715000D01*
D02*
G37*
G36*
X3666000D02*
X3652767D01*
X3653236Y1712642D01*
X3657404Y1706404D01*
X3663642Y1702236D01*
X3666000Y1701767D01*
Y1715000D01*
D02*
G37*
G36*
X3790000Y1449110D02*
X3784983Y1448112D01*
X3780730Y1445270D01*
X3777888Y1441017D01*
X3776890Y1436000D01*
X3777888Y1430983D01*
X3780730Y1426730D01*
X3784983Y1423888D01*
X3790000Y1422890D01*
X3795017Y1423888D01*
X3799270Y1426730D01*
X3802112Y1430983D01*
X3803110Y1436000D01*
X3802112Y1441017D01*
X3799270Y1445270D01*
X3795017Y1448112D01*
X3790000Y1449110D01*
D02*
G37*
G36*
X3740000Y1378110D02*
X3734983Y1377112D01*
X3730730Y1374270D01*
X3727888Y1370017D01*
X3726890Y1365000D01*
X3727888Y1359983D01*
X3730730Y1355730D01*
X3734983Y1352888D01*
X3740000Y1351890D01*
X3745017Y1352888D01*
X3749270Y1355730D01*
X3752112Y1359983D01*
X3753110Y1365000D01*
X3752112Y1370017D01*
X3749270Y1374270D01*
X3745017Y1377112D01*
X3740000Y1378110D01*
D02*
G37*
G36*
X3679951Y1546604D02*
X3674934Y1545607D01*
X3670681Y1542765D01*
X3667839Y1538511D01*
X3666841Y1533494D01*
X3667839Y1528477D01*
X3670681Y1524224D01*
X3674934Y1521382D01*
X3679951Y1520384D01*
X3684968Y1521382D01*
X3689221Y1524224D01*
X3692063Y1528477D01*
X3693061Y1533494D01*
X3692063Y1538511D01*
X3689221Y1542765D01*
X3684968Y1545607D01*
X3679951Y1546604D01*
D02*
G37*
G36*
X3313000Y1391000D02*
X3299767D01*
X3300236Y1388642D01*
X3304404Y1382404D01*
X3310642Y1378236D01*
X3313000Y1377767D01*
Y1391000D01*
D02*
G37*
G36*
X3325000Y1335110D02*
X3319983Y1334112D01*
X3315730Y1331270D01*
X3312888Y1327017D01*
X3311890Y1322000D01*
X3312888Y1316983D01*
X3315730Y1312730D01*
X3319983Y1309888D01*
X3325000Y1308890D01*
X3330017Y1309888D01*
X3334270Y1312730D01*
X3337112Y1316983D01*
X3338110Y1322000D01*
X3337112Y1327017D01*
X3334270Y1331270D01*
X3330017Y1334112D01*
X3325000Y1335110D01*
D02*
G37*
G36*
X3369000Y1332110D02*
X3363983Y1331112D01*
X3359730Y1328270D01*
X3356888Y1324017D01*
X3355890Y1319000D01*
X3356888Y1313983D01*
X3359730Y1309730D01*
X3363983Y1306888D01*
X3369000Y1305890D01*
X3374017Y1306888D01*
X3378270Y1309730D01*
X3381112Y1313983D01*
X3382110Y1319000D01*
X3381112Y1324017D01*
X3378270Y1328270D01*
X3374017Y1331112D01*
X3369000Y1332110D01*
D02*
G37*
G36*
X3325000Y1301110D02*
X3319983Y1300112D01*
X3315730Y1297270D01*
X3312888Y1293017D01*
X3311890Y1288000D01*
X3312888Y1282983D01*
X3315730Y1278730D01*
X3319983Y1275888D01*
X3325000Y1274890D01*
X3330017Y1275888D01*
X3334270Y1278730D01*
X3337112Y1282983D01*
X3338110Y1288000D01*
X3337112Y1293017D01*
X3334270Y1297270D01*
X3330017Y1300112D01*
X3325000Y1301110D01*
D02*
G37*
G36*
X3346000Y1258110D02*
X3340983Y1257112D01*
X3336730Y1254270D01*
X3333888Y1250017D01*
X3332890Y1245000D01*
X3333888Y1239983D01*
X3336730Y1235730D01*
X3340983Y1232888D01*
X3346000Y1231890D01*
X3351017Y1232888D01*
X3355270Y1235730D01*
X3358112Y1239983D01*
X3359110Y1245000D01*
X3358112Y1250017D01*
X3355270Y1254270D01*
X3351017Y1257112D01*
X3346000Y1258110D01*
D02*
G37*
G36*
X3898000Y1314110D02*
X3892983Y1313112D01*
X3888730Y1310270D01*
X3885888Y1306017D01*
X3884890Y1301000D01*
X3885888Y1295983D01*
X3888730Y1291730D01*
X3892983Y1288888D01*
X3898000Y1287890D01*
X3903017Y1288888D01*
X3907270Y1291730D01*
X3910112Y1295983D01*
X3911110Y1301000D01*
X3910112Y1306017D01*
X3907270Y1310270D01*
X3903017Y1313112D01*
X3898000Y1314110D01*
D02*
G37*
%LPD*%
D22*
X3902000Y1823799D02*
X3934000Y1791799D01*
Y1627000D02*
Y1791799D01*
Y1627000D02*
X3958000Y1603000D01*
X4098465Y2157912D02*
Y2160000D01*
Y2157912D02*
X4114000Y2142376D01*
Y2035000D02*
Y2142376D01*
X3922000Y1284000D02*
X3946500Y1308500D01*
X3754000Y1335000D02*
X3869305Y1219695D01*
Y1206000D02*
Y1219695D01*
X3713500Y1335000D02*
X3754000D01*
X3884087Y1128000D02*
X3922000Y1165913D01*
X3816000Y1128000D02*
X3884087D01*
X3748000Y1196000D02*
X3816000Y1128000D01*
X3922000Y1165913D02*
Y1284000D01*
X3946500Y1308500D02*
Y1399834D01*
X3958000Y1411334D01*
X3969874Y1271874D02*
X4032000Y1334000D01*
X3947874Y1271874D02*
X3969874D01*
X3884000Y1363201D02*
Y1454000D01*
X3901000Y1471000D01*
X3927000D01*
X3940000Y1484000D01*
X3840799Y1320000D02*
X3884000Y1363201D01*
X3940000Y1484000D02*
Y1599000D01*
X3800000Y1320000D02*
X3840799D01*
X3614893Y1598680D02*
Y1717107D01*
X3596000Y1579787D02*
X3614893Y1598680D01*
Y1717107D02*
X3655000Y1757213D01*
X3591000Y1765000D02*
X3600893Y1755107D01*
Y1611893D02*
Y1755107D01*
X3563000Y1574000D02*
X3600893Y1611893D01*
X3563000Y1565000D02*
Y1574000D01*
X3560000Y1771000D02*
X3579000Y1752000D01*
Y1638000D02*
Y1752000D01*
X3559000Y1618000D02*
X3579000Y1638000D01*
X3565000Y1696000D02*
Y1740000D01*
X3535000Y1666000D02*
X3565000Y1696000D01*
X3563000Y1565000D02*
X3564000Y1564000D01*
X3823000Y1613799D02*
Y1712000D01*
X3787201Y1578000D02*
X3823000Y1613799D01*
X3672000Y1578000D02*
X3787201D01*
X3757000Y1778000D02*
X3823000Y1712000D01*
X3337799Y1423000D02*
X3417000Y1343799D01*
X3302000Y1423000D02*
X3337799D01*
X3257000Y1378000D02*
X3302000Y1423000D01*
X3426000Y1334000D02*
X3563000D01*
X3417000Y1343000D02*
X3426000Y1334000D01*
X3417000Y1343000D02*
Y1343799D01*
X3257000Y1265000D02*
Y1378000D01*
X3861000Y1920598D02*
Y1944000D01*
X3901000Y1984000D02*
Y2014000D01*
X3861000Y1944000D02*
X3901000Y1984000D01*
X3861000Y1920598D02*
X3902000Y1879598D01*
Y1823799D02*
Y1879598D01*
X3888000Y1818000D02*
Y1873799D01*
X3847000Y1914799D02*
X3888000Y1873799D01*
X3847000Y1914799D02*
Y2107000D01*
X3888000Y1818000D02*
X3920000Y1786000D01*
X3874000Y1800426D02*
Y1868000D01*
X3832000Y1910000D02*
X3874000Y1868000D01*
X3832000Y1910000D02*
Y2149426D01*
X3874000Y1800426D02*
X3905000Y1769426D01*
X3958000Y1411334D02*
Y1603000D01*
X3437000Y1973787D02*
Y2049000D01*
Y1973787D02*
X3591000Y1819787D01*
X3266000Y2220000D02*
X3437000Y2049000D01*
X3451000Y1981000D02*
Y2056213D01*
Y1981000D02*
X3624000Y1808000D01*
X3356000Y2151213D02*
X3451000Y2056213D01*
X3481000Y1995000D02*
Y2236000D01*
Y1995000D02*
X3710000Y1766000D01*
X3454000Y2263000D02*
X3481000Y2236000D01*
X3445000Y2210000D02*
X3465000Y2190000D01*
X3369500Y1805500D02*
Y1948500D01*
X3319000Y1999000D02*
X3369500Y1948500D01*
X3319000Y1999000D02*
Y2032000D01*
X4055000Y2180000D02*
X4082000Y2207000D01*
X4055000Y2135984D02*
Y2180000D01*
X4034016Y2115000D02*
X4055000Y2135984D01*
X3216000Y2008000D02*
Y2475213D01*
X3290787Y2550000D02*
X3330000D01*
X3216000Y2475213D02*
X3290787Y2550000D01*
X3297000Y2535000D02*
X3323787D01*
X3231000Y2469000D02*
X3297000Y2535000D01*
X3231000Y2015000D02*
Y2469000D01*
X3360000Y1162000D02*
X3397252D01*
X3257000Y1265000D02*
X3360000Y1162000D01*
X3366000Y1193000D02*
X3395500Y1222500D01*
X3417500D01*
X3498000Y1303000D01*
X3590000D01*
X3423252Y1188000D02*
X3617063D01*
X3397252Y1162000D02*
X3423252Y1188000D01*
X3617063D02*
X3624000Y1181063D01*
X3318000Y1396000D02*
X3345000D01*
X3403000Y1338000D01*
Y1249000D02*
Y1338000D01*
X3679000Y1257000D02*
X3723000Y1301000D01*
X3679000Y1171000D02*
Y1257000D01*
X3652000Y1144000D02*
X3679000Y1171000D01*
X3682000Y1366500D02*
X3713500Y1335000D01*
X3783000Y1372000D02*
X3818000Y1407000D01*
X3783000Y1337000D02*
Y1372000D01*
Y1337000D02*
X3800000Y1320000D01*
X3947000Y1271000D02*
X3947874Y1271874D01*
X3509000Y2045489D02*
X3576511D01*
X3710000Y1637000D02*
Y1766000D01*
X3643000Y1926000D02*
X3742000Y1827000D01*
Y1771787D02*
Y1827000D01*
Y1771787D02*
X3783000Y1730787D01*
Y1698000D02*
Y1730787D01*
X3742000Y1657000D02*
X3783000Y1698000D01*
X3576511Y2045489D02*
X3643000Y1979000D01*
Y1926000D02*
Y1979000D01*
X3591000Y1765000D02*
Y1819787D01*
X3624000Y1785000D02*
Y1808000D01*
X3723787Y2200000D02*
X3760213D01*
X3600893Y2077107D02*
X3723787Y2200000D01*
X3545107Y2077107D02*
X3600893D01*
X3723500Y2178500D02*
X3760500D01*
X3606000Y2061000D02*
X3723500Y2178500D01*
X3540000Y2061000D02*
X3606000D01*
X3666000Y1593000D02*
X3710000Y1637000D01*
X3596000Y1367000D02*
Y1579787D01*
X3814000Y1469000D02*
Y1518000D01*
X3818000Y1364000D02*
X3865000D01*
X3870000Y1369000D01*
Y1511000D01*
X3920000Y1619000D02*
Y1786000D01*
Y1619000D02*
X3940000Y1599000D01*
X3920000Y1561000D02*
Y1596213D01*
X3905000Y1611213D02*
X3920000Y1596213D01*
X3905000Y1611213D02*
Y1769426D01*
Y1567213D02*
Y1590000D01*
X3874787Y1537000D02*
X3905000Y1567213D01*
X3833000Y1537000D02*
X3874787D01*
X3814000Y1518000D02*
X3833000Y1537000D01*
X3870000Y1511000D02*
X3920000Y1561000D01*
X3890000Y1605000D02*
X3905000Y1590000D01*
X3890000Y1605000D02*
Y1763213D01*
X3817000Y1836213D02*
X3890000Y1763213D01*
X3817000Y1836213D02*
Y2143213D01*
X3901000Y2014000D02*
X3918000Y2031000D01*
X3941000D01*
X3962000Y2052000D01*
X4073000Y1994000D02*
X4114000Y2035000D01*
X3932000Y1994000D02*
X4073000D01*
X3847000Y2107000D02*
X3885000Y2145000D01*
X3766426Y2215000D02*
X3832000Y2149426D01*
X3760213Y2200000D02*
X3817000Y2143213D01*
X3760500Y2178500D02*
X3802000Y2137000D01*
Y1830000D02*
Y2137000D01*
Y1830000D02*
X3875000Y1757000D01*
X3755000Y2081000D02*
X3787000Y2049000D01*
Y1810000D02*
Y2049000D01*
Y1810000D02*
X3852000Y1745000D01*
X3710333Y2069367D02*
X3772000Y2007700D01*
Y1798000D02*
Y2007700D01*
Y1798000D02*
X3837000Y1733000D01*
X3962000Y2052000D02*
Y2293000D01*
X3908000Y2347000D02*
X3962000Y2293000D01*
X3828000Y2347000D02*
X3908000D01*
X3815000Y2360000D02*
X3828000Y2347000D01*
X3640000Y2360000D02*
X3815000D01*
X3682000Y1366500D02*
Y1441000D01*
X3773000Y1532000D01*
X3645000Y1440000D02*
X3666000Y1419000D01*
Y1379000D02*
Y1419000D01*
X3590000Y1303000D02*
X3666000Y1379000D01*
X3773000Y1532000D02*
Y1544000D01*
X3837000Y1608000D01*
Y1733000D01*
X3713000Y1881000D02*
X3757000Y1837000D01*
Y1778000D02*
Y1837000D01*
X3645000Y1551000D02*
X3672000Y1578000D01*
X3645000Y1440000D02*
Y1551000D01*
X3656000Y2046000D02*
X3713000Y1989000D01*
Y1881000D02*
Y1989000D01*
X3563000Y1334000D02*
X3596000Y1367000D01*
X3630000Y1399000D02*
Y1557213D01*
X3665787Y1593000D02*
X3666000D01*
X3630000Y1557213D02*
X3665787Y1593000D01*
X3655000Y1757213D02*
Y1799000D01*
X3465000Y1989000D02*
X3655000Y1799000D01*
X3465000Y1989000D02*
Y2190000D01*
X3356000Y2151213D02*
Y2327841D01*
X3852000Y1598000D02*
Y1745000D01*
X3790000Y1536000D02*
X3852000Y1598000D01*
X3790000Y1496090D02*
Y1536000D01*
X3711910Y1418000D02*
X3790000Y1496090D01*
X3875000Y1575000D02*
Y1757000D01*
X3656000Y2046000D02*
Y2069000D01*
X3709000Y2122000D01*
X3768000D01*
X3599000Y2355102D02*
X3621102Y2333000D01*
X3744000D01*
X3763000Y2314000D01*
Y2251000D02*
Y2314000D01*
Y2251000D02*
X3801000Y2213000D01*
X3855000D01*
X3885000Y2183000D01*
Y2145000D02*
Y2183000D01*
X3338841Y2345000D02*
X3356000Y2327841D01*
X3410000Y2292000D02*
X3439000D01*
X3393000Y2309000D02*
X3410000Y2292000D01*
X3393000Y2309000D02*
Y2331000D01*
X3349000Y2375000D02*
X3393000Y2331000D01*
X3288000Y2375000D02*
X3349000D01*
X3266000Y2353000D02*
X3288000Y2375000D01*
X3439000Y2292000D02*
X3466000Y2319000D01*
X3266000Y2220000D02*
Y2353000D01*
X3367786Y2393000D02*
X3391786Y2369000D01*
X3262000Y2393000D02*
X3367786D01*
X3246000Y2377000D02*
X3262000Y2393000D01*
X3246000Y2105000D02*
Y2377000D01*
Y2105000D02*
X3319000Y2032000D01*
X3369500Y1805500D02*
X3404000Y1771000D01*
X3560000D01*
X3550000Y1755000D02*
X3565000Y1740000D01*
X3380000Y1755000D02*
X3550000D01*
X3335500Y1799500D02*
X3380000Y1755000D01*
X3381000Y1728000D02*
X3535000D01*
X3311000Y1798000D02*
X3381000Y1728000D01*
X3311000Y1798000D02*
Y1946000D01*
X3335500Y1799500D02*
Y1944500D01*
X3468787Y2390000D02*
X3496000D01*
X3323787Y2535000D02*
X3468787Y2390000D01*
X3453000Y2427000D02*
X3482445D01*
X3330000Y2550000D02*
X3453000Y2427000D01*
X3231000Y2015000D02*
X3254000Y1992000D01*
X3288000D01*
X3335500Y1944500D01*
X3482445Y2427000D02*
X3503445Y2448000D01*
X3468000Y2458000D02*
X3560000Y2550000D01*
X3503445Y2448000D02*
X3505000D01*
X3216000Y2008000D02*
X3248000Y1976000D01*
X3281000D01*
X3311000Y1946000D01*
X3621000Y2201000D02*
X3671000D01*
X3581000Y2241000D02*
X3621000Y2201000D01*
X3581000Y2241000D02*
Y2322063D01*
X3685000Y2215000D02*
X3766426D01*
X3671000Y2201000D02*
X3685000Y2215000D01*
X3568000Y2335063D02*
X3581000Y2322063D01*
X3568000Y2335063D02*
Y2364126D01*
X3592874Y2389000D01*
X3563890Y2260890D02*
Y2308110D01*
X3553000Y2319000D02*
X3563890Y2308110D01*
X3553000Y2319000D02*
Y2396000D01*
X3567000Y2410000D01*
X3567441D01*
X3510000Y2207000D02*
X3563890Y2260890D01*
X3510000Y2112213D02*
Y2207000D01*
Y2112213D02*
X3545107Y2077107D01*
X3538000Y2321000D02*
Y2433000D01*
X3495000Y2278000D02*
X3538000Y2321000D01*
X3495000Y2106000D02*
Y2278000D01*
Y2106000D02*
X3540000Y2061000D01*
X3779000Y2545000D02*
X3822000Y2502000D01*
X3924000D01*
X4082000Y2344000D01*
Y2207000D02*
Y2344000D01*
X3538000Y2433000D02*
X3572000Y2467000D01*
X3560000Y2550000D02*
X3710333D01*
X3420000Y2696000D02*
Y2704000D01*
X3332000Y2608000D02*
X3420000Y2696000D01*
X3332000Y2590000D02*
Y2608000D01*
X3278000Y2582000D02*
X3300000Y2604000D01*
Y2763000D01*
D23*
X3432000Y1483000D02*
X3550000D01*
X3560000Y1493000D01*
X3293000Y1442000D02*
X3488000D01*
X3287000Y1436000D02*
X3293000Y1442000D01*
X3249000Y1436000D02*
X3287000D01*
D24*
X3914000Y1367000D02*
Y1434000D01*
X3856000Y1309000D02*
X3914000Y1367000D01*
X3856000Y1278000D02*
Y1309000D01*
Y1278000D02*
X3905500Y1228500D01*
Y1181063D02*
Y1228500D01*
X3883437Y1159000D02*
X3905500Y1181063D01*
X3848000Y1159000D02*
X3883437D01*
X3815000Y1192000D02*
X3848000Y1159000D01*
X3815000Y1192000D02*
Y1213000D01*
X3763000Y1265000D02*
X3815000Y1213000D01*
X3728000Y1265000D02*
X3763000D01*
X4082000Y1234000D02*
X4109000Y1207000D01*
X4082000Y1234000D02*
Y1352000D01*
X4023000Y1411000D02*
X4082000Y1352000D01*
X3981000Y1411000D02*
X4023000D01*
X3963000Y1393000D02*
X3981000Y1411000D01*
X3963000Y1374202D02*
Y1393000D01*
Y1374202D02*
X3981000Y1356202D01*
Y1356000D02*
Y1356202D01*
D25*
X3670000Y2790000D02*
D03*
D26*
X3609000Y2895655D02*
D03*
X3731000D02*
D03*
X3792000Y2790000D02*
D03*
X3731000Y2684345D02*
D03*
X3609000D02*
D03*
X3548000Y2790000D02*
D03*
D27*
X4033872Y2593071D02*
D03*
X4033872Y2252939D02*
D03*
D28*
X3869285Y2593068D02*
D03*
Y2252944D02*
D03*
D29*
X3962500Y1918000D02*
D03*
X4121053Y1463447D02*
D03*
X3974088Y1728500D02*
D03*
Y1654000D02*
D03*
X3308000Y2504000D02*
D03*
X3627000Y1269000D02*
D03*
X3432000Y1483000D02*
D03*
X3641000Y1679000D02*
D03*
X3562000Y1799000D02*
D03*
X3787000Y1626000D02*
D03*
X3282000Y1363000D02*
D03*
X3914000Y1927000D02*
D03*
X3560000Y1493000D02*
D03*
X3500000Y1595000D02*
D03*
X3501000Y1654000D02*
D03*
X4109000Y1207000D02*
D03*
X4024000Y2195000D02*
D03*
X3245000Y2559000D02*
D03*
X3723000Y1301000D02*
D03*
X3620000Y1900126D02*
D03*
X3551858Y2001000D02*
D03*
X3739000Y1715000D02*
D03*
X3511000Y2008000D02*
D03*
X3435000Y1826000D02*
D03*
X3908000Y1507000D02*
D03*
X4081629Y1707000D02*
D03*
X3802000Y2259000D02*
D03*
X3671000Y1720000D02*
D03*
X3318000Y1396000D02*
D03*
X3790000Y1436000D02*
D03*
X3929000Y1886000D02*
D03*
X3875000Y1997000D02*
D03*
X3278000Y2141000D02*
D03*
X3403000Y1249000D02*
D03*
X3346000Y1245000D02*
D03*
X3742000Y1657000D02*
D03*
X3468000Y2458000D02*
D03*
X3779000Y2545000D02*
D03*
X3710333Y2550000D02*
D03*
X3844000D02*
D03*
X3579000Y2134000D02*
D03*
X3638684Y2171000D02*
D03*
X3755000Y2081000D02*
D03*
X3768000Y2122000D02*
D03*
X3710333Y2069367D02*
D03*
X3554950Y2105000D02*
D03*
X4098465Y2160000D02*
D03*
X3930957Y1996000D02*
D03*
X4034016Y2115000D02*
D03*
X3847000Y1850000D02*
D03*
X3682000Y1971000D02*
D03*
X3991000Y2072000D02*
D03*
X3624000Y1785000D02*
D03*
X3535000Y1728000D02*
D03*
Y1666000D02*
D03*
X3559000Y1618000D02*
D03*
X3914000Y1434000D02*
D03*
X3947000Y1271000D02*
D03*
X4032000Y1334000D02*
D03*
X4084000Y2058000D02*
D03*
X3740000Y1365000D02*
D03*
X3488000Y1442000D02*
D03*
X3679951Y1533494D02*
D03*
X4112000Y2672000D02*
D03*
X4075346Y2107000D02*
D03*
X3359000Y2702000D02*
D03*
X3420000Y2704000D02*
D03*
X3332000Y2590000D02*
D03*
X3300000Y2763000D02*
D03*
X3278000Y2582000D02*
D03*
X3728000Y2271000D02*
D03*
X3249000Y1436000D02*
D03*
X3728000Y1265000D02*
D03*
X3560000Y1382000D02*
D03*
X3338841Y2345000D02*
D03*
X3310000Y2317000D02*
D03*
X3535000Y2277295D02*
D03*
X3429000Y2328000D02*
D03*
X3391786Y2369000D02*
D03*
X3261000Y2030000D02*
D03*
X4084000Y1887000D02*
D03*
X3289000Y2431000D02*
D03*
X3502000Y2322000D02*
D03*
X4052000Y2671000D02*
D03*
X3879000Y2380000D02*
D03*
Y2464000D02*
D03*
X3807000Y2292000D02*
D03*
X3481000Y2592080D02*
D03*
X3392000Y2752000D02*
D03*
X3607000Y1956000D02*
D03*
X3313000Y2451000D02*
D03*
X3347000Y2042000D02*
D03*
X3325000Y2069000D02*
D03*
X3410091Y2016000D02*
D03*
X3378000Y2024000D02*
D03*
X3293000Y2017000D02*
D03*
X3434000Y2176000D02*
D03*
X3412000Y2205000D02*
D03*
X3391786Y2234000D02*
D03*
X3445000Y2210000D02*
D03*
X3413000Y2266000D02*
D03*
X3454000Y2263000D02*
D03*
X3322000D02*
D03*
X3509000Y2045489D02*
D03*
X3466000Y2319000D02*
D03*
X3484000Y2355102D02*
D03*
X3496000Y2390000D02*
D03*
X3505000Y2448000D02*
D03*
X3535000Y2189000D02*
D03*
X3576000Y2190000D02*
D03*
X3608000Y2263000D02*
D03*
X3850000Y2172000D02*
D03*
X3674000Y2282000D02*
D03*
X3644000Y2304000D02*
D03*
X3875000Y1575000D02*
D03*
X3640000Y2360000D02*
D03*
X3599000Y2355102D02*
D03*
X3592874Y2389000D02*
D03*
X3567441Y2410000D02*
D03*
X3572000Y2467000D02*
D03*
X3389000Y2569000D02*
D03*
X3421000Y2589000D02*
D03*
X3541890Y1245000D02*
D03*
X4119000Y1285000D02*
D03*
X3869305Y1206000D02*
D03*
X3369000Y1319000D02*
D03*
X3981000Y1356000D02*
D03*
X3652000Y1144000D02*
D03*
X3328000Y1157000D02*
D03*
X3325000Y1322000D02*
D03*
X3748000Y1196000D02*
D03*
X3818000Y1407000D02*
D03*
X3711910Y1418000D02*
D03*
X3680008Y1328000D02*
D03*
X3630000Y1399000D02*
D03*
X3624000Y1181063D02*
D03*
X3563000Y1565000D02*
D03*
X3530000Y1408000D02*
D03*
X3325000Y1288000D02*
D03*
X3366000Y1193000D02*
D03*
X3818000Y1364000D02*
D03*
X3814000Y1469000D02*
D03*
X3898000Y1301000D02*
D03*
X4004489Y1380000D02*
D03*
X4036000Y1299000D02*
D03*
D30*
X3888985Y2536780D02*
D03*
Y2309220D02*
D03*
%TF.MD5,ddf7df5aff1daf47c527190771a25deb*%
M02*
