%TF.GenerationSoftware,Altium Limited,Altium Designer,19.0.4 (130)*%
G04 Layer_Color=2752767*
%FSLAX26Y26*%
%MOIN*%
%TF.FileFunction,Drawing*%
%TF.Part,Single*%
G01*
G75*
%TA.AperFunction,NonConductor*%
%ADD93C,0.005000*%
%ADD104C,0.006667*%
D93*
X3650000Y2770000D02*
Y2810000D01*
X3690000D01*
Y2770000D01*
X3650000D01*
X4033865Y2573080D02*
X4013865Y2613080D01*
X4053865D01*
X4033865Y2573080D01*
X3869305D02*
X3879305Y2583080D01*
X3889305D01*
X3879305Y2593080D01*
X3889305Y2603080D01*
X3879305D01*
X3869305Y2613080D01*
X3859305Y2603080D01*
X3849305D01*
X3859305Y2593080D01*
X3849305Y2583080D01*
X3859305D01*
X3869305Y2573080D01*
Y2232920D02*
X3879305Y2242920D01*
X3889305D01*
X3879305Y2252920D01*
X3889305Y2262920D01*
X3879305D01*
X3869305Y2272920D01*
X3859305Y2262920D01*
X3849305D01*
X3859305Y2252920D01*
X3849305Y2242920D01*
X3859305D01*
X3869305Y2232920D01*
X4033865D02*
X4013865Y2272920D01*
X4053865D01*
X4033865Y2232920D01*
X3942500Y1898000D02*
X3952500Y1918000D01*
X3942500Y1938000D01*
X3962500Y1928000D01*
X3982500Y1938000D01*
X3972500Y1918000D01*
X3982500Y1898000D01*
X3962500Y1908000D01*
X3942500Y1898000D01*
X4101053Y1443447D02*
X4111053Y1463447D01*
X4101053Y1483447D01*
X4121053Y1473447D01*
X4141053Y1483447D01*
X4131053Y1463447D01*
X4141053Y1443447D01*
X4121053Y1453447D01*
X4101053Y1443447D01*
X3954088Y1708500D02*
X3964088Y1728500D01*
X3954088Y1748500D01*
X3974088Y1738500D01*
X3994088Y1748500D01*
X3984088Y1728500D01*
X3994088Y1708500D01*
X3974088Y1718500D01*
X3954088Y1708500D01*
Y1634000D02*
X3964088Y1654000D01*
X3954088Y1674000D01*
X3974088Y1664000D01*
X3994088Y1674000D01*
X3984088Y1654000D01*
X3994088Y1634000D01*
X3974088Y1644000D01*
X3954088Y1634000D01*
X3288000Y2484000D02*
X3298000Y2504000D01*
X3288000Y2524000D01*
X3308000Y2514000D01*
X3328000Y2524000D01*
X3318000Y2504000D01*
X3328000Y2484000D01*
X3308000Y2494000D01*
X3288000Y2484000D01*
X3607000Y1249000D02*
X3617000Y1269000D01*
X3607000Y1289000D01*
X3627000Y1279000D01*
X3647000Y1289000D01*
X3637000Y1269000D01*
X3647000Y1249000D01*
X3627000Y1259000D01*
X3607000Y1249000D01*
X3412000Y1463000D02*
X3422000Y1483000D01*
X3412000Y1503000D01*
X3432000Y1493000D01*
X3452000Y1503000D01*
X3442000Y1483000D01*
X3452000Y1463000D01*
X3432000Y1473000D01*
X3412000Y1463000D01*
X3621000Y1659000D02*
X3631000Y1679000D01*
X3621000Y1699000D01*
X3641000Y1689000D01*
X3661000Y1699000D01*
X3651000Y1679000D01*
X3661000Y1659000D01*
X3641000Y1669000D01*
X3621000Y1659000D01*
X3542000Y1779000D02*
X3552000Y1799000D01*
X3542000Y1819000D01*
X3562000Y1809000D01*
X3582000Y1819000D01*
X3572000Y1799000D01*
X3582000Y1779000D01*
X3562000Y1789000D01*
X3542000Y1779000D01*
X3767000Y1606000D02*
X3777000Y1626000D01*
X3767000Y1646000D01*
X3787000Y1636000D01*
X3807000Y1646000D01*
X3797000Y1626000D01*
X3807000Y1606000D01*
X3787000Y1616000D01*
X3767000Y1606000D01*
X3262000Y1343000D02*
X3272000Y1363000D01*
X3262000Y1383000D01*
X3282000Y1373000D01*
X3302000Y1383000D01*
X3292000Y1363000D01*
X3302000Y1343000D01*
X3282000Y1353000D01*
X3262000Y1343000D01*
X3894000Y1907000D02*
X3904000Y1927000D01*
X3894000Y1947000D01*
X3914000Y1937000D01*
X3934000Y1947000D01*
X3924000Y1927000D01*
X3934000Y1907000D01*
X3914000Y1917000D01*
X3894000Y1907000D01*
X3540000Y1473000D02*
X3550000Y1493000D01*
X3540000Y1513000D01*
X3560000Y1503000D01*
X3580000Y1513000D01*
X3570000Y1493000D01*
X3580000Y1473000D01*
X3560000Y1483000D01*
X3540000Y1473000D01*
X3480000Y1575000D02*
X3490000Y1595000D01*
X3480000Y1615000D01*
X3500000Y1605000D01*
X3520000Y1615000D01*
X3510000Y1595000D01*
X3520000Y1575000D01*
X3500000Y1585000D01*
X3480000Y1575000D01*
X3481000Y1634000D02*
X3491000Y1654000D01*
X3481000Y1674000D01*
X3501000Y1664000D01*
X3521000Y1674000D01*
X3511000Y1654000D01*
X3521000Y1634000D01*
X3501000Y1644000D01*
X3481000Y1634000D01*
X4089000Y1187000D02*
X4099000Y1207000D01*
X4089000Y1227000D01*
X4109000Y1217000D01*
X4129000Y1227000D01*
X4119000Y1207000D01*
X4129000Y1187000D01*
X4109000Y1197000D01*
X4089000Y1187000D01*
X4004000Y2175000D02*
X4014000Y2195000D01*
X4004000Y2215000D01*
X4024000Y2205000D01*
X4044000Y2215000D01*
X4034000Y2195000D01*
X4044000Y2175000D01*
X4024000Y2185000D01*
X4004000Y2175000D01*
X3225000Y2539000D02*
X3235000Y2559000D01*
X3225000Y2579000D01*
X3245000Y2569000D01*
X3265000Y2579000D01*
X3255000Y2559000D01*
X3265000Y2539000D01*
X3245000Y2549000D01*
X3225000Y2539000D01*
X3703000Y1281000D02*
X3713000Y1301000D01*
X3703000Y1321000D01*
X3723000Y1311000D01*
X3743000Y1321000D01*
X3733000Y1301000D01*
X3743000Y1281000D01*
X3723000Y1291000D01*
X3703000Y1281000D01*
X3600000Y1880126D02*
X3610000Y1900126D01*
X3600000Y1920126D01*
X3620000Y1910126D01*
X3640000Y1920126D01*
X3630000Y1900126D01*
X3640000Y1880126D01*
X3620000Y1890126D01*
X3600000Y1880126D01*
X3531858Y1981000D02*
X3541858Y2001000D01*
X3531858Y2021000D01*
X3551858Y2011000D01*
X3571858Y2021000D01*
X3561858Y2001000D01*
X3571858Y1981000D01*
X3551858Y1991000D01*
X3531858Y1981000D01*
X3719000Y1695000D02*
X3729000Y1715000D01*
X3719000Y1735000D01*
X3739000Y1725000D01*
X3759000Y1735000D01*
X3749000Y1715000D01*
X3759000Y1695000D01*
X3739000Y1705000D01*
X3719000Y1695000D01*
X3491000Y1988000D02*
X3501000Y2008000D01*
X3491000Y2028000D01*
X3511000Y2018000D01*
X3531000Y2028000D01*
X3521000Y2008000D01*
X3531000Y1988000D01*
X3511000Y1998000D01*
X3491000Y1988000D01*
X3415000Y1806000D02*
X3425000Y1826000D01*
X3415000Y1846000D01*
X3435000Y1836000D01*
X3455000Y1846000D01*
X3445000Y1826000D01*
X3455000Y1806000D01*
X3435000Y1816000D01*
X3415000Y1806000D01*
X3888000Y1487000D02*
X3898000Y1507000D01*
X3888000Y1527000D01*
X3908000Y1517000D01*
X3928000Y1527000D01*
X3918000Y1507000D01*
X3928000Y1487000D01*
X3908000Y1497000D01*
X3888000Y1487000D01*
X4061629Y1687000D02*
X4071629Y1707000D01*
X4061629Y1727000D01*
X4081629Y1717000D01*
X4101629Y1727000D01*
X4091629Y1707000D01*
X4101629Y1687000D01*
X4081629Y1697000D01*
X4061629Y1687000D01*
X3782000Y2239000D02*
X3792000Y2259000D01*
X3782000Y2279000D01*
X3802000Y2269000D01*
X3822000Y2279000D01*
X3812000Y2259000D01*
X3822000Y2239000D01*
X3802000Y2249000D01*
X3782000Y2239000D01*
X3651000Y1700000D02*
X3661000Y1720000D01*
X3651000Y1740000D01*
X3671000Y1730000D01*
X3691000Y1740000D01*
X3681000Y1720000D01*
X3691000Y1700000D01*
X3671000Y1710000D01*
X3651000Y1700000D01*
X3298000Y1376000D02*
X3308000Y1396000D01*
X3298000Y1416000D01*
X3318000Y1406000D01*
X3338000Y1416000D01*
X3328000Y1396000D01*
X3338000Y1376000D01*
X3318000Y1386000D01*
X3298000Y1376000D01*
X3770000Y1416000D02*
X3780000Y1436000D01*
X3770000Y1456000D01*
X3790000Y1446000D01*
X3810000Y1456000D01*
X3800000Y1436000D01*
X3810000Y1416000D01*
X3790000Y1426000D01*
X3770000Y1416000D01*
X3909000Y1866000D02*
X3919000Y1886000D01*
X3909000Y1906000D01*
X3929000Y1896000D01*
X3949000Y1906000D01*
X3939000Y1886000D01*
X3949000Y1866000D01*
X3929000Y1876000D01*
X3909000Y1866000D01*
X3855000Y1977000D02*
X3865000Y1997000D01*
X3855000Y2017000D01*
X3875000Y2007000D01*
X3895000Y2017000D01*
X3885000Y1997000D01*
X3895000Y1977000D01*
X3875000Y1987000D01*
X3855000Y1977000D01*
X3258000Y2121000D02*
X3268000Y2141000D01*
X3258000Y2161000D01*
X3278000Y2151000D01*
X3298000Y2161000D01*
X3288000Y2141000D01*
X3298000Y2121000D01*
X3278000Y2131000D01*
X3258000Y2121000D01*
X3383000Y1229000D02*
X3393000Y1249000D01*
X3383000Y1269000D01*
X3403000Y1259000D01*
X3423000Y1269000D01*
X3413000Y1249000D01*
X3423000Y1229000D01*
X3403000Y1239000D01*
X3383000Y1229000D01*
X3326000Y1225000D02*
X3336000Y1245000D01*
X3326000Y1265000D01*
X3346000Y1255000D01*
X3366000Y1265000D01*
X3356000Y1245000D01*
X3366000Y1225000D01*
X3346000Y1235000D01*
X3326000Y1225000D01*
X3722000Y1637000D02*
X3732000Y1657000D01*
X3722000Y1677000D01*
X3742000Y1667000D01*
X3762000Y1677000D01*
X3752000Y1657000D01*
X3762000Y1637000D01*
X3742000Y1647000D01*
X3722000Y1637000D01*
X3448000Y2438000D02*
X3458000Y2458000D01*
X3448000Y2478000D01*
X3468000Y2468000D01*
X3488000Y2478000D01*
X3478000Y2458000D01*
X3488000Y2438000D01*
X3468000Y2448000D01*
X3448000Y2438000D01*
X3759000Y2525000D02*
X3769000Y2545000D01*
X3759000Y2565000D01*
X3779000Y2555000D01*
X3799000Y2565000D01*
X3789000Y2545000D01*
X3799000Y2525000D01*
X3779000Y2535000D01*
X3759000Y2525000D01*
X3690333Y2530000D02*
X3700333Y2550000D01*
X3690333Y2570000D01*
X3710333Y2560000D01*
X3730333Y2570000D01*
X3720333Y2550000D01*
X3730333Y2530000D01*
X3710333Y2540000D01*
X3690333Y2530000D01*
X3824000D02*
X3834000Y2550000D01*
X3824000Y2570000D01*
X3844000Y2560000D01*
X3864000Y2570000D01*
X3854000Y2550000D01*
X3864000Y2530000D01*
X3844000Y2540000D01*
X3824000Y2530000D01*
X3559000Y2114000D02*
X3569000Y2134000D01*
X3559000Y2154000D01*
X3579000Y2144000D01*
X3599000Y2154000D01*
X3589000Y2134000D01*
X3599000Y2114000D01*
X3579000Y2124000D01*
X3559000Y2114000D01*
X3618684Y2151000D02*
X3628684Y2171000D01*
X3618684Y2191000D01*
X3638684Y2181000D01*
X3658684Y2191000D01*
X3648684Y2171000D01*
X3658684Y2151000D01*
X3638684Y2161000D01*
X3618684Y2151000D01*
X3735000Y2061000D02*
X3745000Y2081000D01*
X3735000Y2101000D01*
X3755000Y2091000D01*
X3775000Y2101000D01*
X3765000Y2081000D01*
X3775000Y2061000D01*
X3755000Y2071000D01*
X3735000Y2061000D01*
X3748000Y2102000D02*
X3758000Y2122000D01*
X3748000Y2142000D01*
X3768000Y2132000D01*
X3788000Y2142000D01*
X3778000Y2122000D01*
X3788000Y2102000D01*
X3768000Y2112000D01*
X3748000Y2102000D01*
X3690333Y2049367D02*
X3700333Y2069367D01*
X3690333Y2089367D01*
X3710333Y2079367D01*
X3730333Y2089367D01*
X3720333Y2069367D01*
X3730333Y2049367D01*
X3710333Y2059367D01*
X3690333Y2049367D01*
X3534950Y2085000D02*
X3544950Y2105000D01*
X3534950Y2125000D01*
X3554950Y2115000D01*
X3574950Y2125000D01*
X3564950Y2105000D01*
X3574950Y2085000D01*
X3554950Y2095000D01*
X3534950Y2085000D01*
X4078465Y2140000D02*
X4088465Y2160000D01*
X4078465Y2180000D01*
X4098465Y2170000D01*
X4118465Y2180000D01*
X4108465Y2160000D01*
X4118465Y2140000D01*
X4098465Y2150000D01*
X4078465Y2140000D01*
X3910957Y1976000D02*
X3920957Y1996000D01*
X3910957Y2016000D01*
X3930957Y2006000D01*
X3950957Y2016000D01*
X3940957Y1996000D01*
X3950957Y1976000D01*
X3930957Y1986000D01*
X3910957Y1976000D01*
X4014016Y2095000D02*
X4024016Y2115000D01*
X4014016Y2135000D01*
X4034016Y2125000D01*
X4054016Y2135000D01*
X4044016Y2115000D01*
X4054016Y2095000D01*
X4034016Y2105000D01*
X4014016Y2095000D01*
X3827000Y1830000D02*
X3837000Y1850000D01*
X3827000Y1870000D01*
X3847000Y1860000D01*
X3867000Y1870000D01*
X3857000Y1850000D01*
X3867000Y1830000D01*
X3847000Y1840000D01*
X3827000Y1830000D01*
X3662000Y1951000D02*
X3672000Y1971000D01*
X3662000Y1991000D01*
X3682000Y1981000D01*
X3702000Y1991000D01*
X3692000Y1971000D01*
X3702000Y1951000D01*
X3682000Y1961000D01*
X3662000Y1951000D01*
X3971000Y2052000D02*
X3981000Y2072000D01*
X3971000Y2092000D01*
X3991000Y2082000D01*
X4011000Y2092000D01*
X4001000Y2072000D01*
X4011000Y2052000D01*
X3991000Y2062000D01*
X3971000Y2052000D01*
X3604000Y1765000D02*
X3614000Y1785000D01*
X3604000Y1805000D01*
X3624000Y1795000D01*
X3644000Y1805000D01*
X3634000Y1785000D01*
X3644000Y1765000D01*
X3624000Y1775000D01*
X3604000Y1765000D01*
X3515000Y1708000D02*
X3525000Y1728000D01*
X3515000Y1748000D01*
X3535000Y1738000D01*
X3555000Y1748000D01*
X3545000Y1728000D01*
X3555000Y1708000D01*
X3535000Y1718000D01*
X3515000Y1708000D01*
Y1646000D02*
X3525000Y1666000D01*
X3515000Y1686000D01*
X3535000Y1676000D01*
X3555000Y1686000D01*
X3545000Y1666000D01*
X3555000Y1646000D01*
X3535000Y1656000D01*
X3515000Y1646000D01*
X3539000Y1598000D02*
X3549000Y1618000D01*
X3539000Y1638000D01*
X3559000Y1628000D01*
X3579000Y1638000D01*
X3569000Y1618000D01*
X3579000Y1598000D01*
X3559000Y1608000D01*
X3539000Y1598000D01*
X3894000Y1414000D02*
X3904000Y1434000D01*
X3894000Y1454000D01*
X3914000Y1444000D01*
X3934000Y1454000D01*
X3924000Y1434000D01*
X3934000Y1414000D01*
X3914000Y1424000D01*
X3894000Y1414000D01*
X3927000Y1251000D02*
X3937000Y1271000D01*
X3927000Y1291000D01*
X3947000Y1281000D01*
X3967000Y1291000D01*
X3957000Y1271000D01*
X3967000Y1251000D01*
X3947000Y1261000D01*
X3927000Y1251000D01*
X4012000Y1314000D02*
X4022000Y1334000D01*
X4012000Y1354000D01*
X4032000Y1344000D01*
X4052000Y1354000D01*
X4042000Y1334000D01*
X4052000Y1314000D01*
X4032000Y1324000D01*
X4012000Y1314000D01*
X4064000Y2038000D02*
X4074000Y2058000D01*
X4064000Y2078000D01*
X4084000Y2068000D01*
X4104000Y2078000D01*
X4094000Y2058000D01*
X4104000Y2038000D01*
X4084000Y2048000D01*
X4064000Y2038000D01*
X3720000Y1345000D02*
X3730000Y1365000D01*
X3720000Y1385000D01*
X3740000Y1375000D01*
X3760000Y1385000D01*
X3750000Y1365000D01*
X3760000Y1345000D01*
X3740000Y1355000D01*
X3720000Y1345000D01*
X3468000Y1422000D02*
X3478000Y1442000D01*
X3468000Y1462000D01*
X3488000Y1452000D01*
X3508000Y1462000D01*
X3498000Y1442000D01*
X3508000Y1422000D01*
X3488000Y1432000D01*
X3468000Y1422000D01*
X3659951Y1513494D02*
X3669951Y1533494D01*
X3659951Y1553494D01*
X3679951Y1543494D01*
X3699951Y1553494D01*
X3689951Y1533494D01*
X3699951Y1513494D01*
X3679951Y1523494D01*
X3659951Y1513494D01*
X4092000Y2652000D02*
X4102000Y2672000D01*
X4092000Y2692000D01*
X4112000Y2682000D01*
X4132000Y2692000D01*
X4122000Y2672000D01*
X4132000Y2652000D01*
X4112000Y2662000D01*
X4092000Y2652000D01*
X4055346Y2087000D02*
X4065346Y2107000D01*
X4055346Y2127000D01*
X4075346Y2117000D01*
X4095346Y2127000D01*
X4085346Y2107000D01*
X4095346Y2087000D01*
X4075346Y2097000D01*
X4055346Y2087000D01*
X3339000Y2682000D02*
X3349000Y2702000D01*
X3339000Y2722000D01*
X3359000Y2712000D01*
X3379000Y2722000D01*
X3369000Y2702000D01*
X3379000Y2682000D01*
X3359000Y2692000D01*
X3339000Y2682000D01*
X3400000Y2684000D02*
X3410000Y2704000D01*
X3400000Y2724000D01*
X3420000Y2714000D01*
X3440000Y2724000D01*
X3430000Y2704000D01*
X3440000Y2684000D01*
X3420000Y2694000D01*
X3400000Y2684000D01*
X3312000Y2570000D02*
X3322000Y2590000D01*
X3312000Y2610000D01*
X3332000Y2600000D01*
X3352000Y2610000D01*
X3342000Y2590000D01*
X3352000Y2570000D01*
X3332000Y2580000D01*
X3312000Y2570000D01*
X3280000Y2743000D02*
X3290000Y2763000D01*
X3280000Y2783000D01*
X3300000Y2773000D01*
X3320000Y2783000D01*
X3310000Y2763000D01*
X3320000Y2743000D01*
X3300000Y2753000D01*
X3280000Y2743000D01*
X3258000Y2562000D02*
X3268000Y2582000D01*
X3258000Y2602000D01*
X3278000Y2592000D01*
X3298000Y2602000D01*
X3288000Y2582000D01*
X3298000Y2562000D01*
X3278000Y2572000D01*
X3258000Y2562000D01*
X3708000Y2251000D02*
X3718000Y2271000D01*
X3708000Y2291000D01*
X3728000Y2281000D01*
X3748000Y2291000D01*
X3738000Y2271000D01*
X3748000Y2251000D01*
X3728000Y2261000D01*
X3708000Y2251000D01*
X3229000Y1416000D02*
X3239000Y1436000D01*
X3229000Y1456000D01*
X3249000Y1446000D01*
X3269000Y1456000D01*
X3259000Y1436000D01*
X3269000Y1416000D01*
X3249000Y1426000D01*
X3229000Y1416000D01*
X3708000Y1245000D02*
X3718000Y1265000D01*
X3708000Y1285000D01*
X3728000Y1275000D01*
X3748000Y1285000D01*
X3738000Y1265000D01*
X3748000Y1245000D01*
X3728000Y1255000D01*
X3708000Y1245000D01*
X3540000Y1362000D02*
X3550000Y1382000D01*
X3540000Y1402000D01*
X3560000Y1392000D01*
X3580000Y1402000D01*
X3570000Y1382000D01*
X3580000Y1362000D01*
X3560000Y1372000D01*
X3540000Y1362000D01*
X3318841Y2325000D02*
X3328841Y2345000D01*
X3318841Y2365000D01*
X3338841Y2355000D01*
X3358841Y2365000D01*
X3348841Y2345000D01*
X3358841Y2325000D01*
X3338841Y2335000D01*
X3318841Y2325000D01*
X3290000Y2297000D02*
X3300000Y2317000D01*
X3290000Y2337000D01*
X3310000Y2327000D01*
X3330000Y2337000D01*
X3320000Y2317000D01*
X3330000Y2297000D01*
X3310000Y2307000D01*
X3290000Y2297000D01*
X3515000Y2257295D02*
X3525000Y2277295D01*
X3515000Y2297295D01*
X3535000Y2287295D01*
X3555000Y2297295D01*
X3545000Y2277295D01*
X3555000Y2257295D01*
X3535000Y2267295D01*
X3515000Y2257295D01*
X3409000Y2308000D02*
X3419000Y2328000D01*
X3409000Y2348000D01*
X3429000Y2338000D01*
X3449000Y2348000D01*
X3439000Y2328000D01*
X3449000Y2308000D01*
X3429000Y2318000D01*
X3409000Y2308000D01*
X3371786Y2349000D02*
X3381786Y2369000D01*
X3371786Y2389000D01*
X3391786Y2379000D01*
X3411786Y2389000D01*
X3401786Y2369000D01*
X3411786Y2349000D01*
X3391786Y2359000D01*
X3371786Y2349000D01*
X3241000Y2010000D02*
X3251000Y2030000D01*
X3241000Y2050000D01*
X3261000Y2040000D01*
X3281000Y2050000D01*
X3271000Y2030000D01*
X3281000Y2010000D01*
X3261000Y2020000D01*
X3241000Y2010000D01*
X4064000Y1867000D02*
X4074000Y1887000D01*
X4064000Y1907000D01*
X4084000Y1897000D01*
X4104000Y1907000D01*
X4094000Y1887000D01*
X4104000Y1867000D01*
X4084000Y1877000D01*
X4064000Y1867000D01*
X3269000Y2411000D02*
X3279000Y2431000D01*
X3269000Y2451000D01*
X3289000Y2441000D01*
X3309000Y2451000D01*
X3299000Y2431000D01*
X3309000Y2411000D01*
X3289000Y2421000D01*
X3269000Y2411000D01*
X3482000Y2302000D02*
X3492000Y2322000D01*
X3482000Y2342000D01*
X3502000Y2332000D01*
X3522000Y2342000D01*
X3512000Y2322000D01*
X3522000Y2302000D01*
X3502000Y2312000D01*
X3482000Y2302000D01*
X4032000Y2651000D02*
X4042000Y2671000D01*
X4032000Y2691000D01*
X4052000Y2681000D01*
X4072000Y2691000D01*
X4062000Y2671000D01*
X4072000Y2651000D01*
X4052000Y2661000D01*
X4032000Y2651000D01*
X3859000Y2360000D02*
X3869000Y2380000D01*
X3859000Y2400000D01*
X3879000Y2390000D01*
X3899000Y2400000D01*
X3889000Y2380000D01*
X3899000Y2360000D01*
X3879000Y2370000D01*
X3859000Y2360000D01*
Y2444000D02*
X3869000Y2464000D01*
X3859000Y2484000D01*
X3879000Y2474000D01*
X3899000Y2484000D01*
X3889000Y2464000D01*
X3899000Y2444000D01*
X3879000Y2454000D01*
X3859000Y2444000D01*
X3787000Y2272000D02*
X3797000Y2292000D01*
X3787000Y2312000D01*
X3807000Y2302000D01*
X3827000Y2312000D01*
X3817000Y2292000D01*
X3827000Y2272000D01*
X3807000Y2282000D01*
X3787000Y2272000D01*
X3461000Y2572080D02*
X3471000Y2592080D01*
X3461000Y2612080D01*
X3481000Y2602080D01*
X3501000Y2612080D01*
X3491000Y2592080D01*
X3501000Y2572080D01*
X3481000Y2582080D01*
X3461000Y2572080D01*
X3372000Y2732000D02*
X3382000Y2752000D01*
X3372000Y2772000D01*
X3392000Y2762000D01*
X3412000Y2772000D01*
X3402000Y2752000D01*
X3412000Y2732000D01*
X3392000Y2742000D01*
X3372000Y2732000D01*
X3587000Y1936000D02*
X3597000Y1956000D01*
X3587000Y1976000D01*
X3607000Y1966000D01*
X3627000Y1976000D01*
X3617000Y1956000D01*
X3627000Y1936000D01*
X3607000Y1946000D01*
X3587000Y1936000D01*
X3293000Y2431000D02*
X3303000Y2451000D01*
X3293000Y2471000D01*
X3313000Y2461000D01*
X3333000Y2471000D01*
X3323000Y2451000D01*
X3333000Y2431000D01*
X3313000Y2441000D01*
X3293000Y2431000D01*
X3327000Y2022000D02*
X3337000Y2042000D01*
X3327000Y2062000D01*
X3347000Y2052000D01*
X3367000Y2062000D01*
X3357000Y2042000D01*
X3367000Y2022000D01*
X3347000Y2032000D01*
X3327000Y2022000D01*
X3305000Y2049000D02*
X3315000Y2069000D01*
X3305000Y2089000D01*
X3325000Y2079000D01*
X3345000Y2089000D01*
X3335000Y2069000D01*
X3345000Y2049000D01*
X3325000Y2059000D01*
X3305000Y2049000D01*
X3390091Y1996000D02*
X3400091Y2016000D01*
X3390091Y2036000D01*
X3410091Y2026000D01*
X3430091Y2036000D01*
X3420091Y2016000D01*
X3430091Y1996000D01*
X3410091Y2006000D01*
X3390091Y1996000D01*
X3358000Y2004000D02*
X3368000Y2024000D01*
X3358000Y2044000D01*
X3378000Y2034000D01*
X3398000Y2044000D01*
X3388000Y2024000D01*
X3398000Y2004000D01*
X3378000Y2014000D01*
X3358000Y2004000D01*
X3273000Y1997000D02*
X3283000Y2017000D01*
X3273000Y2037000D01*
X3293000Y2027000D01*
X3313000Y2037000D01*
X3303000Y2017000D01*
X3313000Y1997000D01*
X3293000Y2007000D01*
X3273000Y1997000D01*
X3414000Y2156000D02*
X3424000Y2176000D01*
X3414000Y2196000D01*
X3434000Y2186000D01*
X3454000Y2196000D01*
X3444000Y2176000D01*
X3454000Y2156000D01*
X3434000Y2166000D01*
X3414000Y2156000D01*
X3392000Y2185000D02*
X3402000Y2205000D01*
X3392000Y2225000D01*
X3412000Y2215000D01*
X3432000Y2225000D01*
X3422000Y2205000D01*
X3432000Y2185000D01*
X3412000Y2195000D01*
X3392000Y2185000D01*
X3371786Y2214000D02*
X3381786Y2234000D01*
X3371786Y2254000D01*
X3391786Y2244000D01*
X3411786Y2254000D01*
X3401786Y2234000D01*
X3411786Y2214000D01*
X3391786Y2224000D01*
X3371786Y2214000D01*
X3425000Y2190000D02*
X3435000Y2210000D01*
X3425000Y2230000D01*
X3445000Y2220000D01*
X3465000Y2230000D01*
X3455000Y2210000D01*
X3465000Y2190000D01*
X3445000Y2200000D01*
X3425000Y2190000D01*
X3393000Y2246000D02*
X3403000Y2266000D01*
X3393000Y2286000D01*
X3413000Y2276000D01*
X3433000Y2286000D01*
X3423000Y2266000D01*
X3433000Y2246000D01*
X3413000Y2256000D01*
X3393000Y2246000D01*
X3434000Y2243000D02*
X3444000Y2263000D01*
X3434000Y2283000D01*
X3454000Y2273000D01*
X3474000Y2283000D01*
X3464000Y2263000D01*
X3474000Y2243000D01*
X3454000Y2253000D01*
X3434000Y2243000D01*
X3302000D02*
X3312000Y2263000D01*
X3302000Y2283000D01*
X3322000Y2273000D01*
X3342000Y2283000D01*
X3332000Y2263000D01*
X3342000Y2243000D01*
X3322000Y2253000D01*
X3302000Y2243000D01*
X3489000Y2025489D02*
X3499000Y2045489D01*
X3489000Y2065489D01*
X3509000Y2055489D01*
X3529000Y2065489D01*
X3519000Y2045489D01*
X3529000Y2025489D01*
X3509000Y2035489D01*
X3489000Y2025489D01*
X3446000Y2299000D02*
X3456000Y2319000D01*
X3446000Y2339000D01*
X3466000Y2329000D01*
X3486000Y2339000D01*
X3476000Y2319000D01*
X3486000Y2299000D01*
X3466000Y2309000D01*
X3446000Y2299000D01*
X3464000Y2335102D02*
X3474000Y2355102D01*
X3464000Y2375102D01*
X3484000Y2365102D01*
X3504000Y2375102D01*
X3494000Y2355102D01*
X3504000Y2335102D01*
X3484000Y2345102D01*
X3464000Y2335102D01*
X3476000Y2370000D02*
X3486000Y2390000D01*
X3476000Y2410000D01*
X3496000Y2400000D01*
X3516000Y2410000D01*
X3506000Y2390000D01*
X3516000Y2370000D01*
X3496000Y2380000D01*
X3476000Y2370000D01*
X3485000Y2428000D02*
X3495000Y2448000D01*
X3485000Y2468000D01*
X3505000Y2458000D01*
X3525000Y2468000D01*
X3515000Y2448000D01*
X3525000Y2428000D01*
X3505000Y2438000D01*
X3485000Y2428000D01*
X3515000Y2169000D02*
X3525000Y2189000D01*
X3515000Y2209000D01*
X3535000Y2199000D01*
X3555000Y2209000D01*
X3545000Y2189000D01*
X3555000Y2169000D01*
X3535000Y2179000D01*
X3515000Y2169000D01*
X3556000Y2170000D02*
X3566000Y2190000D01*
X3556000Y2210000D01*
X3576000Y2200000D01*
X3596000Y2210000D01*
X3586000Y2190000D01*
X3596000Y2170000D01*
X3576000Y2180000D01*
X3556000Y2170000D01*
X3588000Y2243000D02*
X3598000Y2263000D01*
X3588000Y2283000D01*
X3608000Y2273000D01*
X3628000Y2283000D01*
X3618000Y2263000D01*
X3628000Y2243000D01*
X3608000Y2253000D01*
X3588000Y2243000D01*
X3830000Y2152000D02*
X3840000Y2172000D01*
X3830000Y2192000D01*
X3850000Y2182000D01*
X3870000Y2192000D01*
X3860000Y2172000D01*
X3870000Y2152000D01*
X3850000Y2162000D01*
X3830000Y2152000D01*
X3654000Y2262000D02*
X3664000Y2282000D01*
X3654000Y2302000D01*
X3674000Y2292000D01*
X3694000Y2302000D01*
X3684000Y2282000D01*
X3694000Y2262000D01*
X3674000Y2272000D01*
X3654000Y2262000D01*
X3624000Y2284000D02*
X3634000Y2304000D01*
X3624000Y2324000D01*
X3644000Y2314000D01*
X3664000Y2324000D01*
X3654000Y2304000D01*
X3664000Y2284000D01*
X3644000Y2294000D01*
X3624000Y2284000D01*
X3855000Y1555000D02*
X3865000Y1575000D01*
X3855000Y1595000D01*
X3875000Y1585000D01*
X3895000Y1595000D01*
X3885000Y1575000D01*
X3895000Y1555000D01*
X3875000Y1565000D01*
X3855000Y1555000D01*
X3620000Y2340000D02*
X3630000Y2360000D01*
X3620000Y2380000D01*
X3640000Y2370000D01*
X3660000Y2380000D01*
X3650000Y2360000D01*
X3660000Y2340000D01*
X3640000Y2350000D01*
X3620000Y2340000D01*
X3579000Y2335102D02*
X3589000Y2355102D01*
X3579000Y2375102D01*
X3599000Y2365102D01*
X3619000Y2375102D01*
X3609000Y2355102D01*
X3619000Y2335102D01*
X3599000Y2345102D01*
X3579000Y2335102D01*
X3572874Y2369000D02*
X3582874Y2389000D01*
X3572874Y2409000D01*
X3592874Y2399000D01*
X3612874Y2409000D01*
X3602874Y2389000D01*
X3612874Y2369000D01*
X3592874Y2379000D01*
X3572874Y2369000D01*
X3547441Y2390000D02*
X3557441Y2410000D01*
X3547441Y2430000D01*
X3567441Y2420000D01*
X3587441Y2430000D01*
X3577441Y2410000D01*
X3587441Y2390000D01*
X3567441Y2400000D01*
X3547441Y2390000D01*
X3552000Y2447000D02*
X3562000Y2467000D01*
X3552000Y2487000D01*
X3572000Y2477000D01*
X3592000Y2487000D01*
X3582000Y2467000D01*
X3592000Y2447000D01*
X3572000Y2457000D01*
X3552000Y2447000D01*
X3369000Y2549000D02*
X3379000Y2569000D01*
X3369000Y2589000D01*
X3389000Y2579000D01*
X3409000Y2589000D01*
X3399000Y2569000D01*
X3409000Y2549000D01*
X3389000Y2559000D01*
X3369000Y2549000D01*
X3401000Y2569000D02*
X3411000Y2589000D01*
X3401000Y2609000D01*
X3421000Y2599000D01*
X3441000Y2609000D01*
X3431000Y2589000D01*
X3441000Y2569000D01*
X3421000Y2579000D01*
X3401000Y2569000D01*
X3521890Y1225000D02*
X3531890Y1245000D01*
X3521890Y1265000D01*
X3541890Y1255000D01*
X3561890Y1265000D01*
X3551890Y1245000D01*
X3561890Y1225000D01*
X3541890Y1235000D01*
X3521890Y1225000D01*
X4099000Y1265000D02*
X4109000Y1285000D01*
X4099000Y1305000D01*
X4119000Y1295000D01*
X4139000Y1305000D01*
X4129000Y1285000D01*
X4139000Y1265000D01*
X4119000Y1275000D01*
X4099000Y1265000D01*
X3849305Y1186000D02*
X3859305Y1206000D01*
X3849305Y1226000D01*
X3869305Y1216000D01*
X3889305Y1226000D01*
X3879305Y1206000D01*
X3889305Y1186000D01*
X3869305Y1196000D01*
X3849305Y1186000D01*
X3349000Y1299000D02*
X3359000Y1319000D01*
X3349000Y1339000D01*
X3369000Y1329000D01*
X3389000Y1339000D01*
X3379000Y1319000D01*
X3389000Y1299000D01*
X3369000Y1309000D01*
X3349000Y1299000D01*
X3961000Y1336000D02*
X3971000Y1356000D01*
X3961000Y1376000D01*
X3981000Y1366000D01*
X4001000Y1376000D01*
X3991000Y1356000D01*
X4001000Y1336000D01*
X3981000Y1346000D01*
X3961000Y1336000D01*
X3632000Y1124000D02*
X3642000Y1144000D01*
X3632000Y1164000D01*
X3652000Y1154000D01*
X3672000Y1164000D01*
X3662000Y1144000D01*
X3672000Y1124000D01*
X3652000Y1134000D01*
X3632000Y1124000D01*
X3308000Y1137000D02*
X3318000Y1157000D01*
X3308000Y1177000D01*
X3328000Y1167000D01*
X3348000Y1177000D01*
X3338000Y1157000D01*
X3348000Y1137000D01*
X3328000Y1147000D01*
X3308000Y1137000D01*
X3305000Y1302000D02*
X3315000Y1322000D01*
X3305000Y1342000D01*
X3325000Y1332000D01*
X3345000Y1342000D01*
X3335000Y1322000D01*
X3345000Y1302000D01*
X3325000Y1312000D01*
X3305000Y1302000D01*
X3728000Y1176000D02*
X3738000Y1196000D01*
X3728000Y1216000D01*
X3748000Y1206000D01*
X3768000Y1216000D01*
X3758000Y1196000D01*
X3768000Y1176000D01*
X3748000Y1186000D01*
X3728000Y1176000D01*
X3798000Y1387000D02*
X3808000Y1407000D01*
X3798000Y1427000D01*
X3818000Y1417000D01*
X3838000Y1427000D01*
X3828000Y1407000D01*
X3838000Y1387000D01*
X3818000Y1397000D01*
X3798000Y1387000D01*
X3691910Y1398000D02*
X3701910Y1418000D01*
X3691910Y1438000D01*
X3711910Y1428000D01*
X3731910Y1438000D01*
X3721910Y1418000D01*
X3731910Y1398000D01*
X3711910Y1408000D01*
X3691910Y1398000D01*
X3660008Y1308000D02*
X3670008Y1328000D01*
X3660008Y1348000D01*
X3680008Y1338000D01*
X3700008Y1348000D01*
X3690008Y1328000D01*
X3700008Y1308000D01*
X3680008Y1318000D01*
X3660008Y1308000D01*
X3610000Y1379000D02*
X3620000Y1399000D01*
X3610000Y1419000D01*
X3630000Y1409000D01*
X3650000Y1419000D01*
X3640000Y1399000D01*
X3650000Y1379000D01*
X3630000Y1389000D01*
X3610000Y1379000D01*
X3604000Y1161063D02*
X3614000Y1181063D01*
X3604000Y1201063D01*
X3624000Y1191063D01*
X3644000Y1201063D01*
X3634000Y1181063D01*
X3644000Y1161063D01*
X3624000Y1171063D01*
X3604000Y1161063D01*
X3543000Y1545000D02*
X3553000Y1565000D01*
X3543000Y1585000D01*
X3563000Y1575000D01*
X3583000Y1585000D01*
X3573000Y1565000D01*
X3583000Y1545000D01*
X3563000Y1555000D01*
X3543000Y1545000D01*
X3510000Y1388000D02*
X3520000Y1408000D01*
X3510000Y1428000D01*
X3530000Y1418000D01*
X3550000Y1428000D01*
X3540000Y1408000D01*
X3550000Y1388000D01*
X3530000Y1398000D01*
X3510000Y1388000D01*
X3305000Y1268000D02*
X3315000Y1288000D01*
X3305000Y1308000D01*
X3325000Y1298000D01*
X3345000Y1308000D01*
X3335000Y1288000D01*
X3345000Y1268000D01*
X3325000Y1278000D01*
X3305000Y1268000D01*
X3346000Y1173000D02*
X3356000Y1193000D01*
X3346000Y1213000D01*
X3366000Y1203000D01*
X3386000Y1213000D01*
X3376000Y1193000D01*
X3386000Y1173000D01*
X3366000Y1183000D01*
X3346000Y1173000D01*
X3798000Y1344000D02*
X3808000Y1364000D01*
X3798000Y1384000D01*
X3818000Y1374000D01*
X3838000Y1384000D01*
X3828000Y1364000D01*
X3838000Y1344000D01*
X3818000Y1354000D01*
X3798000Y1344000D01*
X3794000Y1449000D02*
X3804000Y1469000D01*
X3794000Y1489000D01*
X3814000Y1479000D01*
X3834000Y1489000D01*
X3824000Y1469000D01*
X3834000Y1449000D01*
X3814000Y1459000D01*
X3794000Y1449000D01*
X3878000Y1281000D02*
X3888000Y1301000D01*
X3878000Y1321000D01*
X3898000Y1311000D01*
X3918000Y1321000D01*
X3908000Y1301000D01*
X3918000Y1281000D01*
X3898000Y1291000D01*
X3878000Y1281000D01*
X3984489Y1360000D02*
X3994489Y1380000D01*
X3984489Y1400000D01*
X4004489Y1390000D01*
X4024489Y1400000D01*
X4014489Y1380000D01*
X4024489Y1360000D01*
X4004489Y1370000D01*
X3984489Y1360000D01*
X4016000Y1279000D02*
X4026000Y1299000D01*
X4016000Y1319000D01*
X4036000Y1309000D01*
X4056000Y1319000D01*
X4046000Y1299000D01*
X4056000Y1279000D01*
X4036000Y1289000D01*
X4016000Y1279000D01*
X3878985Y2526780D02*
Y2516780D01*
X3898985D01*
Y2526780D01*
X3908985D01*
Y2546780D01*
X3898985D01*
Y2556780D01*
X3878985D01*
Y2546780D01*
X3868985D01*
Y2526780D01*
X3878985D01*
Y2299220D02*
Y2289220D01*
X3898985D01*
Y2299220D01*
X3908985D01*
Y2319220D01*
X3898985D01*
Y2329220D01*
X3878985D01*
Y2319220D01*
X3868985D01*
Y2299220D01*
X3878985D01*
D104*
X3629000Y2895655D02*
G03*
X3629000Y2895655I-20000J0D01*
G01*
X3751000D02*
G03*
X3751000Y2895655I-20000J0D01*
G01*
X3812000Y2790000D02*
G03*
X3812000Y2790000I-20000J0D01*
G01*
X3751000Y2684345D02*
G03*
X3751000Y2684345I-20000J0D01*
G01*
X3629000D02*
G03*
X3629000Y2684345I-20000J0D01*
G01*
X3568000Y2790000D02*
G03*
X3568000Y2790000I-20000J0D01*
G01*
%TF.MD5,448303c44c7af2907e5174a58b6a3d54*%
M02*
