%TF.GenerationSoftware,Altium Limited,Altium Designer,19.0.4 (130)*%
G04 Layer_Color=8388736*
%FSLAX26Y26*%
%MOIN*%
%TF.FileFunction,Soldermask,Top*%
%TF.Part,Single*%
G01*
G75*
%TA.AperFunction,NonConductor*%
%ADD52C,0.008000*%
%TA.AperFunction,SMDPad,CuDef*%
%ADD62R,0.045992X0.039496*%
%ADD70R,0.055244X0.067055*%
%TA.AperFunction,ComponentPad*%
%ADD80C,0.358000*%
%ADD81C,0.043000*%
%ADD82R,0.071000X0.047400*%
%ADD83R,0.090700X0.047400*%
%TA.AperFunction,SMDPad,CuDef*%
%ADD84C,0.031622*%
%ADD85R,0.047370X0.070992*%
%ADD86R,0.059181X0.055244*%
%ADD87R,0.070992X0.074929*%
%TA.AperFunction,ConnectorPad*%
%ADD88R,0.021386X0.078866*%
%TA.AperFunction,SMDPad,CuDef*%
%ADD89R,0.043000X0.058000*%
%ADD90R,0.067055X0.017800*%
%ADD91R,0.067055X0.017900*%
%TA.AperFunction,ConnectorPad*%
%ADD92R,0.067055X0.027700*%
G36*
X3259841Y1015065D02*
X4069842Y1015063D01*
X4069841Y1108065D01*
X3259841D01*
Y1015065D01*
D02*
G37*
G36*
X4062858Y1536142D02*
Y1521142D01*
Y1517164D01*
X4065903Y1509813D01*
X4071529Y1504187D01*
X4078880Y1501142D01*
X4082858D01*
X4086836D01*
X4094187Y1504187D01*
X4099813Y1509813D01*
X4102858Y1517164D01*
Y1521142D01*
D01*
Y1536142D01*
X4062858D01*
D02*
G37*
G36*
X4102858Y1556142D02*
Y1571142D01*
Y1575120D01*
X4099813Y1582471D01*
X4094187Y1588097D01*
X4086836Y1591142D01*
X4082858D01*
X4078880D01*
X4071529Y1588097D01*
X4065903Y1582471D01*
X4062858Y1575120D01*
Y1571142D01*
D01*
Y1556142D01*
X4102858D01*
D02*
G37*
G36*
X4063000Y1643000D02*
Y1628000D01*
Y1624022D01*
X4066045Y1616671D01*
X4071671Y1611045D01*
X4079022Y1608000D01*
X4083000D01*
X4086978D01*
X4094329Y1611045D01*
X4099955Y1616671D01*
X4103000Y1624022D01*
Y1628000D01*
D01*
Y1643000D01*
X4063000D01*
D02*
G37*
G36*
X4103000Y1663000D02*
Y1678000D01*
Y1681978D01*
X4099955Y1689329D01*
X4094329Y1694955D01*
X4086978Y1698000D01*
X4083000D01*
X4079022D01*
X4071671Y1694955D01*
X4066045Y1689329D01*
X4063000Y1681978D01*
Y1678000D01*
D01*
Y1663000D01*
X4103000D01*
D02*
G37*
G36*
X4062858Y1751142D02*
Y1736142D01*
Y1732164D01*
X4065903Y1724813D01*
X4071529Y1719187D01*
X4078880Y1716142D01*
X4082858D01*
X4086836D01*
X4094187Y1719187D01*
X4099813Y1724813D01*
X4102858Y1732164D01*
Y1736142D01*
D01*
Y1751142D01*
X4062858D01*
D02*
G37*
G36*
X4102858Y1771142D02*
Y1786142D01*
Y1790120D01*
X4099813Y1797471D01*
X4094187Y1803097D01*
X4086836Y1806142D01*
X4082858D01*
X4078880D01*
X4071529Y1803097D01*
X4065903Y1797471D01*
X4062858Y1790120D01*
Y1786142D01*
D01*
Y1771142D01*
X4102858D01*
D02*
G37*
G36*
X4062858Y1857142D02*
Y1842142D01*
Y1838164D01*
X4065903Y1830813D01*
X4071529Y1825187D01*
X4078880Y1822142D01*
X4082858D01*
X4086836D01*
X4094187Y1825187D01*
X4099813Y1830813D01*
X4102858Y1838164D01*
Y1842142D01*
D01*
Y1857142D01*
X4062858D01*
D02*
G37*
G36*
X4102858Y1877142D02*
Y1892142D01*
Y1896120D01*
X4099813Y1903471D01*
X4094187Y1909097D01*
X4086836Y1912142D01*
X4082858D01*
X4078880D01*
X4071529Y1909097D01*
X4065903Y1903471D01*
X4062858Y1896120D01*
Y1892142D01*
D01*
Y1877142D01*
X4102858D01*
D02*
G37*
G36*
X3687943Y2499445D02*
X3688166Y2499334D01*
X3688554Y2499167D01*
X3689053Y2498945D01*
X3689664Y2498668D01*
X3690330Y2498334D01*
X3691162Y2498001D01*
X3692050Y2497669D01*
X3693050Y2497280D01*
X3694048Y2496892D01*
X3695159Y2496503D01*
X3696269Y2496170D01*
X3698655Y2495559D01*
X3699876Y2495282D01*
X3701097Y2495060D01*
X3701153D01*
X3701374Y2495005D01*
X3701763Y2494949D01*
X3702207Y2494894D01*
X3702818Y2494838D01*
X3703539Y2494727D01*
X3704316Y2494616D01*
X3705260Y2494505D01*
X3706203Y2494450D01*
X3707258Y2494338D01*
X3708367Y2494227D01*
X3709533Y2494172D01*
X3712030Y2494061D01*
X3714584Y2494006D01*
X3711753Y2487734D01*
X3709977Y2489621D01*
X3709921D01*
X3709755D01*
X3709477Y2489677D01*
X3709089Y2489732D01*
X3708645Y2489787D01*
X3708146Y2489843D01*
X3706980Y2490010D01*
X3705704Y2490176D01*
X3704427Y2490343D01*
X3703206Y2490564D01*
X3702706Y2490620D01*
X3702207Y2490731D01*
Y2490675D01*
X3702096Y2490620D01*
X3701818Y2490343D01*
X3701374Y2489843D01*
X3700764Y2489288D01*
X3700043Y2488566D01*
X3699265Y2487789D01*
X3697601Y2486180D01*
X3717525D01*
Y2491119D01*
X3717470Y2491675D01*
X3717414Y2492452D01*
X3717358Y2493284D01*
X3717247Y2494283D01*
X3717026Y2495282D01*
X3716803Y2496336D01*
X3720023Y2498834D01*
Y2486680D01*
X3728570D01*
Y2489288D01*
X3728514Y2489843D01*
X3728459Y2490620D01*
X3728403Y2491452D01*
X3728292Y2492452D01*
X3728070Y2493450D01*
X3727848Y2494505D01*
X3731067Y2497003D01*
Y2486680D01*
X3731122D01*
X3731345D01*
X3731677D01*
X3732122D01*
X3732677D01*
X3733287D01*
X3734008D01*
X3734785D01*
X3736450Y2486735D01*
X3738227Y2486791D01*
X3740003Y2486846D01*
X3741723Y2486901D01*
X3738671Y2480131D01*
X3736450Y2482461D01*
X3731067D01*
Y2479187D01*
X3733675Y2476412D01*
X3728570Y2472139D01*
Y2482461D01*
X3720023D01*
Y2478965D01*
X3722853Y2475968D01*
X3718201Y2471994D01*
X3718912Y2471361D01*
X3720023Y2470418D01*
X3721299Y2469530D01*
X3722686Y2468586D01*
X3724185Y2467754D01*
X3725850Y2466977D01*
X3727626Y2466311D01*
X3729513Y2465811D01*
X3731511Y2465479D01*
X3732566Y2465367D01*
X3733620Y2465312D01*
Y2465700D01*
X3733564Y2466200D01*
X3733509Y2466811D01*
X3733454Y2467532D01*
X3733343Y2468420D01*
X3733120Y2469363D01*
X3732898Y2470418D01*
X3736117Y2472860D01*
Y2451881D01*
X3738504Y2449550D01*
X3734841Y2445943D01*
X3733231Y2447608D01*
X3733176D01*
X3732954D01*
X3732566Y2447663D01*
X3732122D01*
X3731511Y2447718D01*
X3730845Y2447774D01*
X3730179Y2447829D01*
X3729402Y2447885D01*
X3727737Y2447996D01*
X3726128Y2448162D01*
X3725351Y2448273D01*
X3724629Y2448329D01*
X3723963Y2448385D01*
X3723408Y2448495D01*
X3723352D01*
X3723297D01*
X3722964Y2448606D01*
X3722465Y2448718D01*
X3721854Y2448829D01*
X3721133Y2449050D01*
X3720411Y2449328D01*
X3719745Y2449606D01*
X3719135Y2449994D01*
X3719079Y2450050D01*
X3718857Y2450216D01*
X3718579Y2450494D01*
X3718247Y2450882D01*
X3717802Y2451437D01*
X3717358Y2452214D01*
X3716859Y2453102D01*
X3716360Y2454212D01*
X3716415D01*
X3716470Y2454267D01*
X3716859Y2454490D01*
X3717358Y2454878D01*
X3717969Y2455433D01*
X3718691Y2456155D01*
X3719023Y2456599D01*
X3719412Y2457153D01*
X3719745Y2457709D01*
X3720078Y2458374D01*
X3720411Y2459041D01*
X3720689Y2459818D01*
X3722631D01*
Y2459651D01*
X3722575Y2459485D01*
Y2459207D01*
X3722465Y2458597D01*
X3722409Y2457820D01*
X3722298Y2456987D01*
X3722187Y2456155D01*
X3722131Y2455433D01*
Y2454434D01*
X3722187Y2454046D01*
X3722298Y2453657D01*
X3722354Y2453546D01*
X3722465Y2453435D01*
X3722686Y2453324D01*
X3723019Y2453213D01*
X3723519Y2453046D01*
X3724185Y2452880D01*
X3724573Y2452825D01*
X3725017Y2452769D01*
X3725073D01*
X3725128D01*
X3725295Y2452713D01*
X3725517D01*
X3725794Y2452658D01*
X3726183D01*
X3726572Y2452602D01*
X3727071Y2452547D01*
X3727626Y2452492D01*
X3728292Y2452436D01*
X3728958Y2452381D01*
X3729735Y2452325D01*
X3730623Y2452214D01*
X3731511Y2452159D01*
X3732510Y2452048D01*
X3733620Y2451992D01*
Y2460428D01*
X3733564D01*
X3733454D01*
X3733287D01*
X3733010Y2460483D01*
X3732677D01*
X3732343Y2460539D01*
X3731899Y2460650D01*
X3731400Y2460706D01*
X3730290Y2460927D01*
X3728958Y2461316D01*
X3727515Y2461760D01*
X3726017Y2462370D01*
X3724352Y2463148D01*
X3722686Y2464091D01*
X3721021Y2465256D01*
X3720189Y2465923D01*
X3719356Y2466588D01*
X3718524Y2467365D01*
X3717691Y2468198D01*
X3716914Y2469086D01*
X3716137Y2470085D01*
X3715416Y2471084D01*
X3714695Y2472194D01*
X3714028Y2473360D01*
X3713363Y2474636D01*
X3715083Y2475413D01*
Y2475358D01*
X3715139Y2475302D01*
X3715416Y2474969D01*
X3715805Y2474525D01*
X3716360Y2473859D01*
X3717081Y2473137D01*
X3717525Y2472664D01*
Y2471417D01*
X3718201Y2471994D01*
X3717914Y2472249D01*
X3717525Y2472664D01*
Y2482017D01*
X3708811D01*
Y2478021D01*
X3711420Y2475024D01*
X3706314Y2470751D01*
Y2482017D01*
X3695713D01*
X3695658Y2481962D01*
X3695602Y2481740D01*
X3695436Y2481407D01*
X3695269Y2480963D01*
X3695048Y2480408D01*
X3694825Y2479742D01*
X3694548Y2478965D01*
X3694326Y2478077D01*
X3694048Y2477133D01*
X3693771Y2476079D01*
X3693494Y2474969D01*
X3693271Y2473803D01*
X3693105Y2472582D01*
X3692939Y2471306D01*
X3692772Y2469974D01*
X3692716Y2468586D01*
Y2467865D01*
X3692661Y2467310D01*
Y2465923D01*
X3692606Y2465035D01*
Y2463092D01*
X3692550Y2462037D01*
Y2459818D01*
X3692494Y2457486D01*
Y2452214D01*
X3692550Y2451437D01*
Y2449661D01*
X3692606Y2447774D01*
X3692661Y2445887D01*
X3692772Y2444111D01*
X3690774D01*
Y2444166D01*
X3690718Y2444278D01*
Y2444444D01*
X3690608Y2444666D01*
X3690385Y2445276D01*
X3690108Y2445998D01*
X3689664Y2446720D01*
X3689053Y2447385D01*
X3688332Y2447996D01*
X3687888Y2448218D01*
X3687444Y2448385D01*
Y2449162D01*
X3687499Y2449494D01*
Y2450271D01*
X3687555Y2451271D01*
Y2452436D01*
X3687610Y2453713D01*
X3687666Y2455100D01*
X3687777Y2456599D01*
X3687832Y2458208D01*
X3687943Y2459873D01*
X3688055Y2461538D01*
X3688276Y2464923D01*
X3688387Y2466644D01*
X3688554Y2468253D01*
Y2468365D01*
X3688610Y2468642D01*
X3688665Y2469086D01*
X3688720Y2469697D01*
X3688831Y2470418D01*
X3688943Y2471251D01*
X3689109Y2472194D01*
X3689276Y2473193D01*
X3689497Y2474303D01*
X3689720Y2475468D01*
X3690330Y2477800D01*
X3691107Y2480131D01*
X3691495Y2481296D01*
X3691995Y2482351D01*
X3692050Y2482406D01*
X3692106Y2482573D01*
X3692273Y2482905D01*
X3692494Y2483238D01*
X3692772Y2483738D01*
X3693160Y2484293D01*
X3693549Y2484848D01*
X3694048Y2485514D01*
X3694548Y2486235D01*
X3695214Y2486957D01*
X3695880Y2487678D01*
X3696602Y2488456D01*
X3697434Y2489177D01*
X3698322Y2489898D01*
X3699265Y2490620D01*
X3700265Y2491286D01*
X3700209D01*
X3699987Y2491341D01*
X3699599Y2491452D01*
X3699099Y2491564D01*
X3698488Y2491785D01*
X3697767Y2492008D01*
X3696990Y2492285D01*
X3696046Y2492618D01*
X3695103Y2493062D01*
X3694048Y2493561D01*
X3692939Y2494117D01*
X3691829Y2494727D01*
X3690663Y2495448D01*
X3689442Y2496226D01*
X3688221Y2497113D01*
X3687000Y2498113D01*
X3687888Y2499500D01*
X3687943Y2499445D01*
D02*
G37*
G36*
X3713584Y2465645D02*
Y2453490D01*
X3716193Y2450938D01*
X3711975Y2446886D01*
X3710421Y2449162D01*
X3710310D01*
X3709977D01*
X3709477D01*
X3708867D01*
X3708035D01*
X3707146D01*
X3706148D01*
X3705093Y2449106D01*
X3702818D01*
X3700542Y2449050D01*
X3699432D01*
X3698378Y2448995D01*
X3697434D01*
X3696602Y2448939D01*
X3694992Y2453380D01*
X3698488D01*
Y2465479D01*
X3695492D01*
X3693383Y2470140D01*
X3693494D01*
X3693715D01*
X3694104D01*
X3694659Y2470085D01*
X3695269D01*
X3696046D01*
X3696879Y2470030D01*
X3697767D01*
X3698711D01*
X3699709Y2469974D01*
X3701818D01*
X3703872Y2469919D01*
X3704871D01*
X3705814D01*
X3705870D01*
X3706037D01*
X3706314D01*
X3706647D01*
X3707091D01*
X3707646D01*
X3708256D01*
X3708923D01*
X3709644Y2469974D01*
X3710421D01*
X3712142Y2470030D01*
X3714028Y2470085D01*
X3715971Y2470140D01*
X3713584Y2465645D01*
D02*
G37*
G36*
X3721854Y2438284D02*
X3721910Y2438117D01*
X3721965Y2437950D01*
X3722076Y2437673D01*
X3722242Y2437396D01*
X3722409Y2437062D01*
X3722686Y2436619D01*
X3723075Y2436230D01*
X3723519Y2435731D01*
X3724074Y2435231D01*
X3724740Y2434620D01*
X3725517Y2434066D01*
X3726405Y2433399D01*
X3727459Y2432733D01*
X3728680Y2432068D01*
X3728736Y2432012D01*
X3729014Y2431901D01*
X3729347Y2431679D01*
X3729846Y2431457D01*
X3730456Y2431124D01*
X3731122Y2430791D01*
X3731899Y2430403D01*
X3732787Y2430014D01*
X3733731Y2429570D01*
X3734675Y2429126D01*
X3736784Y2428294D01*
X3738892Y2427572D01*
X3739947Y2427239D01*
X3741001Y2426961D01*
X3737616Y2421079D01*
X3735785Y2423298D01*
X3735673Y2423354D01*
X3735452Y2423521D01*
X3735063Y2423742D01*
X3734508Y2424075D01*
X3733842Y2424464D01*
X3733065Y2424963D01*
X3732177Y2425519D01*
X3731233Y2426184D01*
X3730179Y2426906D01*
X3729124Y2427683D01*
X3727959Y2428515D01*
X3726794Y2429403D01*
X3724352Y2431346D01*
X3721910Y2433455D01*
X3722076Y2423854D01*
X3722131Y2423798D01*
X3722242Y2423742D01*
X3722465Y2423576D01*
X3722798Y2423410D01*
X3723131Y2423188D01*
X3723575Y2422910D01*
X3724074Y2422633D01*
X3724629Y2422300D01*
X3725905Y2421578D01*
X3727293Y2420856D01*
X3728791Y2420135D01*
X3730401Y2419469D01*
X3726183Y2414197D01*
X3724907Y2416694D01*
X3724796Y2416749D01*
X3724518Y2416972D01*
X3724074Y2417360D01*
X3723408Y2417804D01*
X3722631Y2418414D01*
X3721743Y2419136D01*
X3720689Y2420024D01*
X3719523Y2420968D01*
X3718247Y2422022D01*
X3716859Y2423132D01*
X3715416Y2424353D01*
X3713918Y2425685D01*
X3712363Y2427073D01*
X3710754Y2428515D01*
X3709144Y2430070D01*
X3707479Y2431624D01*
X3709977Y2416472D01*
X3707757D01*
Y2416528D01*
X3707702Y2416639D01*
X3707646Y2416860D01*
X3707590Y2417138D01*
X3707479Y2417471D01*
X3707369Y2417860D01*
X3707258Y2418359D01*
X3707146Y2418858D01*
X3706814Y2420024D01*
X3706425Y2421412D01*
X3706037Y2422854D01*
X3705593Y2424353D01*
X3704593Y2427461D01*
X3704094Y2428959D01*
X3703595Y2430403D01*
X3703095Y2431679D01*
X3702595Y2432845D01*
X3702318Y2433344D01*
X3702096Y2433788D01*
X3701874Y2434121D01*
X3701652Y2434454D01*
X3706980Y2437673D01*
Y2437617D01*
X3707035Y2437562D01*
X3707146Y2437229D01*
X3707313Y2436729D01*
X3707646Y2436064D01*
X3708090Y2435342D01*
X3708645Y2434510D01*
X3709422Y2433566D01*
X3710365Y2432678D01*
X3710421Y2432622D01*
X3710477Y2432567D01*
X3710698Y2432401D01*
X3710921Y2432178D01*
X3711198Y2431956D01*
X3711586Y2431624D01*
X3712086Y2431235D01*
X3712586Y2430735D01*
X3713196Y2430236D01*
X3713918Y2429681D01*
X3714695Y2429015D01*
X3715527Y2428294D01*
X3716470Y2427572D01*
X3717525Y2426740D01*
X3718635Y2425796D01*
X3719800Y2424852D01*
Y2424963D01*
X3719689Y2425241D01*
X3719634Y2425740D01*
X3719468Y2426351D01*
X3719301Y2427184D01*
X3719079Y2428072D01*
X3718857Y2429126D01*
X3718635Y2430236D01*
Y2430291D01*
X3718579Y2430347D01*
Y2430514D01*
X3718524Y2430735D01*
X3718358Y2431346D01*
X3718135Y2432068D01*
X3717858Y2432845D01*
X3717470Y2433733D01*
X3717081Y2434565D01*
X3716581Y2435398D01*
X3721854Y2438394D01*
Y2438284D01*
D02*
G37*
G36*
X3695769Y2438339D02*
X3695825Y2438061D01*
X3695936Y2437673D01*
X3696046Y2437118D01*
X3696213Y2436396D01*
X3696435Y2435508D01*
X3696657Y2434398D01*
X3696990Y2433177D01*
X3697378Y2431790D01*
X3697767Y2430180D01*
X3698267Y2428405D01*
X3698822Y2426407D01*
X3699432Y2424298D01*
X3700098Y2421966D01*
X3700875Y2419414D01*
X3701707Y2416694D01*
X3700060D01*
X3700597Y2416361D01*
X3701707Y2415806D01*
X3701763Y2415751D01*
X3701985Y2415695D01*
X3702318Y2415528D01*
X3702762Y2415362D01*
X3703317Y2415140D01*
X3704039Y2414918D01*
X3704816Y2414640D01*
X3705704Y2414307D01*
X3706647Y2414030D01*
X3707757Y2413753D01*
X3708867Y2413419D01*
X3710088Y2413142D01*
X3711365Y2412865D01*
X3712752Y2412587D01*
X3714140Y2412365D01*
X3715582Y2412198D01*
X3715693D01*
X3715916Y2412143D01*
X3716360Y2412088D01*
X3716970Y2412032D01*
X3717691Y2411977D01*
X3718579Y2411865D01*
X3719634Y2411810D01*
X3720744Y2411699D01*
X3722021Y2411588D01*
X3723408Y2411477D01*
X3724851Y2411421D01*
X3726405Y2411311D01*
X3728015Y2411200D01*
X3729735Y2411144D01*
X3731511Y2411088D01*
X3733343Y2411033D01*
Y2411421D01*
X3733287Y2411921D01*
X3733231Y2412532D01*
X3733176Y2413309D01*
X3733065Y2414141D01*
X3732843Y2415140D01*
X3732621Y2416139D01*
X3735840Y2418637D01*
Y2396492D01*
X3738227Y2393939D01*
X3733731Y2389610D01*
X3732066Y2392552D01*
X3731955Y2392607D01*
X3731677Y2392718D01*
X3731233Y2392940D01*
X3730623Y2393273D01*
X3729901Y2393606D01*
X3729124Y2393994D01*
X3728236Y2394439D01*
X3727293Y2394883D01*
X3725351Y2395881D01*
X3724407Y2396325D01*
X3723519Y2396825D01*
X3722631Y2397269D01*
X3721854Y2397657D01*
X3721244Y2398046D01*
X3720689Y2398323D01*
Y2393717D01*
X3723075Y2391164D01*
X3719135Y2387334D01*
X3717247Y2389499D01*
X3717192D01*
X3717137Y2389555D01*
X3716803Y2389610D01*
X3716249Y2389776D01*
X3715527Y2390054D01*
X3714639Y2390331D01*
X3713640Y2390664D01*
X3712530Y2391108D01*
X3711253Y2391552D01*
X3709921Y2392108D01*
X3708534Y2392662D01*
X3705648Y2393994D01*
X3702762Y2395493D01*
X3701319Y2396325D01*
X3699987Y2397213D01*
X3699932Y2397158D01*
X3699765Y2396992D01*
X3699488Y2396714D01*
X3699155Y2396325D01*
X3698711Y2395881D01*
X3698211Y2395327D01*
X3697656Y2394660D01*
X3697101Y2393883D01*
X3696490Y2393106D01*
X3695880Y2392163D01*
X3695214Y2391220D01*
X3694604Y2390165D01*
X3694048Y2388999D01*
X3693494Y2387834D01*
X3692994Y2386557D01*
X3692550Y2385281D01*
X3690941D01*
Y2385836D01*
X3690885Y2386447D01*
X3690718Y2387168D01*
X3690497Y2388001D01*
X3690052Y2388833D01*
X3689775Y2389222D01*
X3689442Y2389555D01*
X3689053Y2389943D01*
X3688610Y2390220D01*
X3688665Y2390276D01*
X3688776Y2390498D01*
X3688943Y2390776D01*
X3689220Y2391220D01*
X3689553Y2391719D01*
X3689941Y2392274D01*
X3690385Y2392940D01*
X3690941Y2393662D01*
X3691495Y2394439D01*
X3692162Y2395215D01*
X3693604Y2396825D01*
X3695214Y2398434D01*
X3697046Y2399933D01*
X3696990Y2399988D01*
X3696768Y2400266D01*
X3696380Y2400655D01*
X3695936Y2401154D01*
X3695381Y2401820D01*
X3694770Y2402653D01*
X3694048Y2403596D01*
X3693271Y2404706D01*
X3692494Y2405927D01*
X3691662Y2407259D01*
X3690829Y2408758D01*
X3690052Y2410311D01*
X3689276Y2412032D01*
X3688499Y2413863D01*
X3687832Y2415751D01*
X3687222Y2417804D01*
X3688776Y2418637D01*
Y2418581D01*
X3688831Y2418526D01*
X3688998Y2418193D01*
X3689220Y2417637D01*
X3689608Y2416916D01*
X3690052Y2416084D01*
X3690552Y2415029D01*
X3691162Y2413919D01*
X3691884Y2412698D01*
X3692661Y2411421D01*
X3693494Y2410090D01*
X3694437Y2408758D01*
X3695381Y2407370D01*
X3696435Y2406038D01*
X3697601Y2404762D01*
X3698766Y2403485D01*
X3699987Y2402320D01*
X3700043Y2402375D01*
X3700320Y2402541D01*
X3700709Y2402764D01*
X3701208Y2403041D01*
X3701874Y2403430D01*
X3702706Y2403818D01*
X3703650Y2404262D01*
X3704704Y2404762D01*
X3705925Y2405261D01*
X3707202Y2405760D01*
X3708645Y2406204D01*
X3710199Y2406704D01*
X3711809Y2407148D01*
X3713529Y2407537D01*
X3715360Y2407869D01*
X3717247Y2408147D01*
X3717192D01*
X3717137D01*
X3716970D01*
X3716748Y2408202D01*
X3716137D01*
X3715360Y2408314D01*
X3714361Y2408425D01*
X3713251Y2408535D01*
X3712030Y2408702D01*
X3710698Y2408924D01*
X3709256Y2409202D01*
X3707757Y2409535D01*
X3706258Y2409923D01*
X3704760Y2410367D01*
X3703262Y2410922D01*
X3701818Y2411477D01*
X3700431Y2412143D01*
X3699155Y2412920D01*
X3699099Y2412976D01*
X3698877Y2413142D01*
X3698544Y2413364D01*
X3698044Y2413697D01*
X3697490Y2414197D01*
X3696823Y2414751D01*
X3696102Y2415418D01*
X3695269Y2416139D01*
X3694381Y2417027D01*
X3693494Y2418026D01*
X3692550Y2419136D01*
X3691551Y2420302D01*
X3690608Y2421633D01*
X3689608Y2423077D01*
X3688665Y2424575D01*
X3687722Y2426240D01*
X3689109Y2427128D01*
X3689164Y2427017D01*
X3689387Y2426740D01*
X3689775Y2426296D01*
X3690219Y2425740D01*
X3690829Y2425075D01*
X3691495Y2424242D01*
X3692273Y2423410D01*
X3693160Y2422466D01*
X3694104Y2421523D01*
X3695103Y2420579D01*
X3697212Y2418747D01*
X3698322Y2417860D01*
X3699432Y2417082D01*
X3699665Y2416938D01*
X3699709Y2416805D01*
X3699765Y2416694D01*
X3700060D01*
X3699665Y2416938D01*
X3699599Y2417138D01*
X3699376Y2417637D01*
X3699099Y2418303D01*
X3698711Y2419136D01*
X3698322Y2420024D01*
X3697878Y2421079D01*
X3697434Y2422133D01*
X3696435Y2424353D01*
X3695936Y2425463D01*
X3695436Y2426573D01*
X3694992Y2427572D01*
X3694548Y2428515D01*
X3694160Y2429348D01*
X3693827Y2430014D01*
Y2430070D01*
X3693771Y2430180D01*
X3693660Y2430347D01*
X3693549Y2430569D01*
X3693216Y2431124D01*
X3692772Y2431845D01*
X3692273Y2432678D01*
X3691718Y2433510D01*
X3691107Y2434343D01*
X3690441Y2435064D01*
X3695769Y2438394D01*
Y2438339D01*
D02*
G37*
G36*
X3733842Y2369575D02*
X3731289D01*
Y2371184D01*
X3731233Y2371461D01*
X3731122Y2371794D01*
X3730845Y2372072D01*
X3730789Y2372128D01*
X3730512Y2372183D01*
X3730124D01*
X3729568Y2372128D01*
X3704036Y2366038D01*
X3728791Y2359529D01*
X3728847D01*
X3728958Y2359474D01*
X3729291Y2359418D01*
X3729680Y2359363D01*
X3730012Y2359307D01*
X3730124D01*
X3730345D01*
X3730623Y2359418D01*
X3730901Y2359529D01*
X3730956Y2359584D01*
X3731122Y2359751D01*
X3731178Y2359918D01*
X3731233Y2360140D01*
X3731289Y2360417D01*
Y2362026D01*
X3733842D01*
Y2352536D01*
X3731289D01*
Y2354201D01*
X3731233Y2354534D01*
X3731067Y2354978D01*
X3730734Y2355477D01*
X3730623Y2355588D01*
X3730512Y2355700D01*
X3730290Y2355811D01*
X3730012Y2355977D01*
X3729680Y2356144D01*
X3729291Y2356310D01*
X3728847Y2356477D01*
X3693438Y2366023D01*
Y2368354D01*
X3728514Y2376956D01*
X3728570D01*
X3728736Y2377012D01*
X3729014Y2377067D01*
X3729347Y2377122D01*
X3730012Y2377345D01*
X3730345Y2377456D01*
X3730623Y2377622D01*
X3730678D01*
X3730734Y2377677D01*
X3730956Y2377955D01*
X3731178Y2378343D01*
X3731289Y2378621D01*
Y2380619D01*
X3733842D01*
Y2369575D01*
D02*
G37*
G36*
X3701652Y2348041D02*
X3702041Y2347985D01*
X3702485Y2347818D01*
X3702984Y2347652D01*
X3703483Y2347374D01*
X3703927Y2347041D01*
X3703983Y2346986D01*
X3704094Y2346875D01*
X3704316Y2346653D01*
X3704538Y2346376D01*
X3704760Y2346043D01*
X3704982Y2345654D01*
X3705093Y2345210D01*
X3705148Y2344766D01*
Y2344488D01*
X3705093Y2344155D01*
X3704982Y2343823D01*
X3704816Y2343434D01*
X3704593Y2342990D01*
X3704316Y2342657D01*
X3703872Y2342324D01*
X3703816Y2342269D01*
X3703650Y2342213D01*
X3703428Y2342102D01*
X3703151Y2341936D01*
X3702485Y2341713D01*
X3702151Y2341658D01*
X3701818Y2341602D01*
X3701763D01*
X3701597D01*
X3701374D01*
X3701041Y2341658D01*
X3700320Y2341825D01*
X3699654Y2342157D01*
X3699599D01*
X3699543Y2342213D01*
X3699210Y2342324D01*
X3698766Y2342490D01*
X3698378Y2342546D01*
X3698322D01*
X3698211D01*
X3697989Y2342490D01*
X3697711Y2342380D01*
X3697434Y2342157D01*
X3697101Y2341936D01*
X3696823Y2341547D01*
X3696490Y2341048D01*
X3696435Y2340992D01*
X3696380Y2340770D01*
X3696269Y2340492D01*
X3696102Y2340048D01*
X3695936Y2339549D01*
X3695825Y2338939D01*
X3695769Y2338328D01*
X3695713Y2337606D01*
Y2337218D01*
X3695769Y2336996D01*
Y2336663D01*
X3695825Y2336274D01*
X3695991Y2335442D01*
X3696269Y2334499D01*
X3696657Y2333555D01*
X3697212Y2332611D01*
X3697934Y2331834D01*
X3698044Y2331724D01*
X3698378Y2331501D01*
X3698877Y2331224D01*
X3699265Y2331057D01*
X3699654Y2330836D01*
X3700098Y2330669D01*
X3700653Y2330503D01*
X3701208Y2330336D01*
X3701818Y2330169D01*
X3702540Y2330059D01*
X3703317Y2329948D01*
X3704094Y2329892D01*
X3704982D01*
X3705037D01*
X3705148D01*
X3705370D01*
X3705648Y2329948D01*
X3705981D01*
X3706314Y2330003D01*
X3707202Y2330169D01*
X3708201Y2330392D01*
X3709256Y2330780D01*
X3710255Y2331280D01*
X3711198Y2331945D01*
X3711253D01*
X3711309Y2332057D01*
X3711420Y2332168D01*
X3711586Y2332390D01*
X3711753Y2332611D01*
X3711975Y2332945D01*
X3712197Y2333278D01*
X3712419Y2333777D01*
X3712641Y2334276D01*
X3712807Y2334887D01*
X3713030Y2335553D01*
X3713196Y2336330D01*
X3713363Y2337162D01*
X3713474Y2338106D01*
X3713584Y2339160D01*
Y2340271D01*
X3716360D01*
Y2339827D01*
X3716415Y2339438D01*
Y2339050D01*
X3716470Y2338606D01*
X3716637Y2337551D01*
X3716859Y2336385D01*
X3717192Y2335276D01*
X3717691Y2334221D01*
X3718024Y2333722D01*
X3718358Y2333333D01*
X3718468Y2333222D01*
X3718746Y2333000D01*
X3719190Y2332667D01*
X3719800Y2332278D01*
X3720633Y2331945D01*
X3721632Y2331613D01*
X3722742Y2331390D01*
X3724074Y2331280D01*
X3724130D01*
X3724185D01*
X3724352D01*
X3724573D01*
X3725128Y2331335D01*
X3725850Y2331501D01*
X3726682Y2331668D01*
X3727515Y2331945D01*
X3728459Y2332334D01*
X3729291Y2332889D01*
X3729402Y2332945D01*
X3729624Y2333166D01*
X3730012Y2333555D01*
X3730401Y2334110D01*
X3730789Y2334776D01*
X3731178Y2335664D01*
X3731400Y2336663D01*
X3731511Y2337829D01*
Y2338106D01*
X3731456Y2338383D01*
X3731400Y2338772D01*
X3731345Y2339271D01*
X3731233Y2339771D01*
X3731012Y2340326D01*
X3730789Y2340936D01*
X3730734Y2340992D01*
X3730678Y2341159D01*
X3730512Y2341436D01*
X3730235Y2341713D01*
X3729957Y2342046D01*
X3729568Y2342269D01*
X3729124Y2342490D01*
X3728625Y2342546D01*
X3728570D01*
X3728347D01*
X3728126D01*
X3727793Y2342490D01*
X3727459D01*
X3727126Y2342435D01*
X3726905Y2342380D01*
X3726738Y2342269D01*
X3726682Y2342213D01*
X3726627Y2342157D01*
X3726294Y2341936D01*
X3725794Y2341713D01*
X3725517Y2341602D01*
X3725184D01*
X3725128D01*
X3724962D01*
X3724740Y2341658D01*
X3724407D01*
X3723686Y2341880D01*
X3723297Y2341991D01*
X3722964Y2342213D01*
X3722909D01*
X3722853Y2342324D01*
X3722686Y2342490D01*
X3722520Y2342713D01*
X3722354Y2342990D01*
X3722242Y2343378D01*
X3722131Y2343823D01*
X3722076Y2344322D01*
Y2344544D01*
X3722131Y2344766D01*
X3722187Y2345044D01*
X3722298Y2345376D01*
X3722409Y2345709D01*
X3722631Y2346098D01*
X3722909Y2346486D01*
X3722964Y2346542D01*
X3723075Y2346653D01*
X3723297Y2346764D01*
X3723575Y2346930D01*
X3724019Y2347153D01*
X3724518Y2347264D01*
X3725184Y2347374D01*
X3725905Y2347430D01*
X3725961D01*
X3726072D01*
X3726238D01*
X3726516Y2347374D01*
X3726849Y2347319D01*
X3727182Y2347264D01*
X3728015Y2347041D01*
X3728958Y2346653D01*
X3729457Y2346376D01*
X3729957Y2346098D01*
X3730456Y2345709D01*
X3730956Y2345321D01*
X3731456Y2344822D01*
X3731899Y2344267D01*
X3731955Y2344211D01*
X3732010Y2344100D01*
X3732122Y2343934D01*
X3732288Y2343711D01*
X3732454Y2343378D01*
X3732677Y2343046D01*
X3733120Y2342157D01*
X3733509Y2341048D01*
X3733898Y2339827D01*
X3734175Y2338439D01*
X3734286Y2337718D01*
Y2336441D01*
X3734231Y2336108D01*
X3734175Y2335720D01*
X3734119Y2335220D01*
X3733898Y2334110D01*
X3733564Y2332889D01*
X3733010Y2331557D01*
X3732677Y2330947D01*
X3732233Y2330280D01*
X3731789Y2329670D01*
X3731233Y2329115D01*
X3731178Y2329059D01*
X3731122Y2329004D01*
X3730956Y2328838D01*
X3730678Y2328671D01*
X3730401Y2328449D01*
X3730068Y2328171D01*
X3729291Y2327617D01*
X3728292Y2327117D01*
X3727182Y2326617D01*
X3726017Y2326285D01*
X3725406Y2326229D01*
X3724740Y2326173D01*
X3724684D01*
X3724573D01*
X3724407D01*
X3724130D01*
X3723796Y2326229D01*
X3723463Y2326285D01*
X3722575Y2326396D01*
X3721577Y2326617D01*
X3720577Y2326950D01*
X3719468Y2327450D01*
X3718468Y2328061D01*
X3718358Y2328171D01*
X3718080Y2328394D01*
X3717636Y2328838D01*
X3717137Y2329392D01*
X3716581Y2330169D01*
X3716026Y2331057D01*
X3715582Y2332112D01*
X3715249Y2333333D01*
Y2333278D01*
X3715194Y2333111D01*
X3715083Y2332889D01*
X3714972Y2332556D01*
X3714861Y2332112D01*
X3714639Y2331668D01*
X3714195Y2330669D01*
X3713584Y2329503D01*
X3712807Y2328394D01*
X3711864Y2327339D01*
X3711309Y2326895D01*
X3710754Y2326506D01*
X3710698D01*
X3710643Y2326396D01*
X3710421Y2326340D01*
X3710199Y2326173D01*
X3709588Y2325896D01*
X3708811Y2325508D01*
X3707868Y2325175D01*
X3706814Y2324841D01*
X3705704Y2324619D01*
X3704538Y2324564D01*
X3704483D01*
X3704316D01*
X3704094D01*
X3703761Y2324619D01*
X3703372Y2324675D01*
X3702873Y2324731D01*
X3702374Y2324841D01*
X3701818Y2325008D01*
X3700542Y2325396D01*
X3699876Y2325674D01*
X3699155Y2326007D01*
X3698488Y2326396D01*
X3697767Y2326895D01*
X3697101Y2327394D01*
X3696435Y2328005D01*
X3696380Y2328061D01*
X3696269Y2328171D01*
X3696102Y2328338D01*
X3695880Y2328615D01*
X3695602Y2328948D01*
X3695325Y2329392D01*
X3694992Y2329892D01*
X3694715Y2330447D01*
X3694381Y2331057D01*
X3694048Y2331779D01*
X3693771Y2332556D01*
X3693494Y2333389D01*
X3693271Y2334276D01*
X3693105Y2335276D01*
X3692994Y2336274D01*
X3692939Y2337385D01*
Y2337829D01*
X3692994Y2338106D01*
Y2338494D01*
X3693050Y2338939D01*
X3693271Y2339993D01*
X3693549Y2341159D01*
X3693993Y2342435D01*
X3694604Y2343711D01*
X3694936Y2344322D01*
X3695381Y2344932D01*
X3695436Y2344988D01*
X3695492Y2345044D01*
X3695602Y2345210D01*
X3695825Y2345432D01*
X3696324Y2345932D01*
X3696990Y2346486D01*
X3697878Y2347097D01*
X3698822Y2347597D01*
X3699376Y2347818D01*
X3699932Y2347985D01*
X3700486Y2348041D01*
X3701097Y2348096D01*
X3701153D01*
X3701374D01*
X3701652Y2348041D01*
D02*
G37*
%LPC*%
G36*
X3711087Y2465479D02*
X3700986D01*
Y2453380D01*
X3711087D01*
Y2465479D01*
D02*
G37*
G36*
X3720466Y2407314D02*
X3720411D01*
X3720356Y2407259D01*
X3720133Y2407204D01*
X3719912Y2407148D01*
X3719634Y2407093D01*
X3719301Y2406981D01*
X3718468Y2406704D01*
X3717470Y2406427D01*
X3716304Y2406038D01*
X3715028Y2405594D01*
X3713695Y2405095D01*
X3712308Y2404595D01*
X3710809Y2404040D01*
X3707979Y2402764D01*
X3706591Y2402097D01*
X3705315Y2401376D01*
X3704149Y2400655D01*
X3703095Y2399933D01*
X3703151Y2399878D01*
X3703372Y2399767D01*
X3703650Y2399600D01*
X3704094Y2399323D01*
X3704649Y2399045D01*
X3705370Y2398657D01*
X3706148Y2398268D01*
X3707091Y2397824D01*
X3708090Y2397325D01*
X3709200Y2396881D01*
X3710477Y2396325D01*
X3711809Y2395826D01*
X3713251Y2395327D01*
X3714805Y2394827D01*
X3716470Y2394327D01*
X3718191Y2393828D01*
Y2399323D01*
X3716304Y2400710D01*
X3720466Y2404373D01*
X3720522Y2404262D01*
X3720633Y2404040D01*
X3720910Y2403651D01*
X3721354Y2403097D01*
X3721632Y2402819D01*
X3721965Y2402486D01*
X3722354Y2402153D01*
X3722853Y2401820D01*
X3723408Y2401432D01*
X3724019Y2401043D01*
X3724740Y2400655D01*
X3725517Y2400266D01*
X3725573D01*
X3725739Y2400155D01*
X3725961Y2400044D01*
X3726238Y2399933D01*
X3726627Y2399711D01*
X3727126Y2399489D01*
X3727626Y2399267D01*
X3728181Y2398990D01*
X3729402Y2398434D01*
X3730678Y2397824D01*
X3732010Y2397213D01*
X3733343Y2396603D01*
Y2406870D01*
X3733287D01*
X3733065D01*
X3732732D01*
X3732233Y2406926D01*
X3731677D01*
X3731012D01*
X3730235Y2406981D01*
X3729347D01*
X3728403Y2407037D01*
X3727404Y2407093D01*
X3726349D01*
X3725240Y2407148D01*
X3722909Y2407204D01*
X3720466Y2407314D01*
D02*
G37*
%LPD*%
D52*
X4102858Y1892142D02*
G03*
X4062858Y1892142I-20000J0D01*
G01*
Y1842142D02*
G03*
X4102858Y1842142I20000J0D01*
G01*
Y1786142D02*
G03*
X4062858Y1786142I-20000J0D01*
G01*
Y1736142D02*
G03*
X4102858Y1736142I20000J0D01*
G01*
X4062858Y1521142D02*
G03*
X4102858Y1521142I20000J0D01*
G01*
Y1571142D02*
G03*
X4062858Y1571142I-20000J0D01*
G01*
X4063000Y1628000D02*
G03*
X4103000Y1628000I20000J0D01*
G01*
Y1678000D02*
G03*
X4063000Y1678000I-20000J0D01*
G01*
X4102858Y1877142D02*
Y1892142D01*
X4062858Y1877142D02*
Y1892142D01*
Y1877142D02*
X4102858D01*
X4062858Y1842142D02*
Y1857142D01*
X4102858Y1842142D02*
Y1857142D01*
X4062858D02*
X4102858D01*
Y1771142D02*
Y1786142D01*
X4062858Y1771142D02*
Y1786142D01*
Y1771142D02*
X4102858D01*
X4062858Y1736142D02*
Y1751142D01*
X4102858Y1736142D02*
Y1751142D01*
X4062858D02*
X4102858D01*
X4062858Y1521142D02*
Y1536142D01*
X4102858Y1521142D02*
Y1536142D01*
X4062858D02*
X4102858D01*
Y1556142D02*
Y1571142D01*
X4062858Y1556142D02*
Y1571142D01*
Y1556142D02*
X4102858D01*
X4063000Y1628000D02*
Y1643000D01*
X4103000Y1628000D02*
Y1643000D01*
X4063000D02*
X4103000D01*
Y1663000D02*
Y1678000D01*
X4063000Y1663000D02*
Y1678000D01*
Y1663000D02*
X4103000D01*
D62*
X3285000Y2564968D02*
D03*
Y2501976D02*
D03*
D70*
X3907000Y2697000D02*
D03*
X4037000D02*
D03*
D80*
X3670000Y2790000D02*
D03*
D81*
X3609000Y2895655D02*
D03*
X3731000D02*
D03*
X3792000Y2790000D02*
D03*
X3731000Y2684345D02*
D03*
X3609000D02*
D03*
X3548000Y2790000D02*
D03*
D82*
X4033872Y2593071D02*
D03*
X4033872Y2252939D02*
D03*
D83*
X3869285Y2593068D02*
D03*
Y2252944D02*
D03*
D84*
X4082858Y1892142D02*
D03*
Y1842142D02*
D03*
Y1786142D02*
D03*
Y1736142D02*
D03*
Y1521142D02*
D03*
Y1571142D02*
D03*
X4083000Y1628000D02*
D03*
Y1678000D02*
D03*
D85*
X3368000Y2291000D02*
D03*
Y2511472D02*
D03*
X3513668Y2291000D02*
D03*
Y2511472D02*
D03*
D86*
X3439866Y2715370D02*
D03*
Y2636630D02*
D03*
D87*
X3298134Y2676000D02*
D03*
D88*
X3935598Y1074998D02*
D03*
X3384415Y1074999D02*
D03*
X3364720Y1074996D02*
D03*
X3345045Y1074999D02*
D03*
X3325350Y1074996D02*
D03*
X3305675Y1074999D02*
D03*
X3522210Y1075004D02*
D03*
X3502515Y1075001D02*
D03*
X3482840Y1075004D02*
D03*
X4034011Y1075005D02*
D03*
X4014336Y1075000D02*
D03*
X3994641Y1075005D02*
D03*
X3974966Y1075000D02*
D03*
X3955271Y1075005D02*
D03*
X3640320Y1075004D02*
D03*
X3620625Y1075001D02*
D03*
X3600950Y1075004D02*
D03*
X3581255Y1075001D02*
D03*
X3561580Y1075004D02*
D03*
X3541885Y1075001D02*
D03*
X3915899Y1075003D02*
D03*
X3896226Y1075000D02*
D03*
X3876531Y1075005D02*
D03*
X3856856Y1075000D02*
D03*
X3837161Y1075005D02*
D03*
X3817486Y1075000D02*
D03*
X3778106D02*
D03*
X3797801Y1074995D02*
D03*
X3738736Y1075000D02*
D03*
X3758431Y1074995D02*
D03*
X3699366Y1075000D02*
D03*
X3719061Y1075005D02*
D03*
X3679691Y1074995D02*
D03*
X3659995Y1075001D02*
D03*
D89*
X3283495Y2080000D02*
D03*
Y2150000D02*
D03*
X3281744Y1270005D02*
D03*
Y1340005D02*
D03*
D90*
X3834261Y2413160D02*
D03*
Y2432860D02*
D03*
Y2452560D02*
D03*
Y2393460D02*
D03*
D91*
Y2472210D02*
D03*
Y2491910D02*
D03*
Y2373810D02*
D03*
Y2354110D02*
D03*
D92*
Y2328510D02*
D03*
Y2297010D02*
D03*
Y2549010D02*
D03*
Y2517510D02*
D03*
%TF.MD5,f7e1c33bc8c9a793832a7cd2dd4ce180*%
M02*
