%TF.GenerationSoftware,Altium Limited,Altium Designer,19.0.4 (130)*%
G04 Layer_Color=32896*
%FSLAX26Y26*%
%MOIN*%
%TF.FileFunction,Legend,Bot*%
%TF.Part,Single*%
G01*
G75*
%TA.AperFunction,NonConductor*%
%ADD49C,0.007874*%
%ADD50C,0.012000*%
%ADD51C,0.010000*%
%ADD52C,0.008000*%
%ADD53C,0.020000*%
%ADD54C,0.019685*%
%ADD55C,0.007000*%
%ADD56C,0.001968*%
%ADD57C,0.003937*%
%ADD58C,0.006000*%
%ADD59C,0.005906*%
G36*
X3632000Y2607078D02*
X3630502D01*
X3630294Y2606995D01*
X3630003Y2606829D01*
X3629795Y2606662D01*
X3629754Y2606621D01*
Y2606579D01*
X3629629Y2606371D01*
X3629546Y2606122D01*
X3629379Y2605622D01*
X3629338Y2605373D01*
X3629296Y2605165D01*
X3629254Y2605040D01*
Y2604998D01*
X3622806Y2578707D01*
X3621059D01*
X3613904Y2605248D01*
X3613779Y2605581D01*
X3613654Y2605872D01*
X3613530Y2606122D01*
X3613405Y2606330D01*
X3613322Y2606496D01*
X3613238Y2606579D01*
X3613155Y2606662D01*
X3612781Y2606912D01*
X3612448Y2607037D01*
X3612198Y2607078D01*
X3610950D01*
Y2608992D01*
X3618064D01*
Y2607078D01*
X3616858D01*
X3616650Y2607037D01*
X3616483Y2606995D01*
X3616358Y2606954D01*
X3616234Y2606829D01*
X3616192Y2606787D01*
X3616109Y2606579D01*
X3616026Y2606371D01*
Y2606205D01*
Y2606122D01*
X3616067Y2605872D01*
X3616109Y2605581D01*
X3616150Y2605331D01*
X3616192Y2605248D01*
Y2605206D01*
X3621071Y2586651D01*
X3625635Y2605789D01*
X3625677Y2606205D01*
Y2606496D01*
X3625635Y2606704D01*
X3625594Y2606746D01*
X3625386Y2606954D01*
X3625136Y2607037D01*
X3624928Y2607078D01*
X3623722D01*
Y2608992D01*
X3632000D01*
Y2607078D01*
D02*
G37*
G36*
X3609162D02*
X3607456D01*
X3607290Y2607037D01*
X3606998Y2606954D01*
X3606874Y2606870D01*
X3606832Y2606829D01*
X3606666Y2606621D01*
X3606624Y2606413D01*
X3606582Y2606205D01*
Y2606163D01*
Y2606122D01*
Y2581578D01*
X3606624Y2581245D01*
X3606707Y2580995D01*
X3606790Y2580870D01*
X3606832Y2580829D01*
X3606915Y2580746D01*
X3607040Y2580704D01*
X3607331Y2580662D01*
X3607581Y2580621D01*
X3609494D01*
Y2578707D01*
X3598221D01*
X3597430Y2578749D01*
X3596682Y2578790D01*
X3595974Y2578915D01*
X3595309Y2579040D01*
X3594726Y2579206D01*
X3594144Y2579373D01*
X3593645Y2579581D01*
X3593146Y2579789D01*
X3592730Y2579997D01*
X3592397Y2580205D01*
X3592064Y2580371D01*
X3591814Y2580538D01*
X3591606Y2580662D01*
X3591482Y2580787D01*
X3591398Y2580829D01*
X3591357Y2580870D01*
X3590899Y2581286D01*
X3590525Y2581744D01*
X3590150Y2582243D01*
X3589859Y2582701D01*
X3589610Y2583200D01*
X3589402Y2583699D01*
X3589110Y2584614D01*
X3588902Y2585446D01*
X3588861Y2585821D01*
X3588819Y2586112D01*
X3588778Y2586403D01*
Y2586570D01*
Y2586694D01*
Y2586736D01*
X3588819Y2587776D01*
X3588986Y2588733D01*
X3589235Y2589606D01*
X3589485Y2590397D01*
X3589776Y2591021D01*
X3589901Y2591270D01*
X3589984Y2591478D01*
X3590109Y2591645D01*
X3590150Y2591770D01*
X3590234Y2591853D01*
Y2591894D01*
X3590525Y2592310D01*
X3590858Y2592726D01*
X3591690Y2593392D01*
X3592563Y2593974D01*
X3593437Y2594432D01*
X3594227Y2594765D01*
X3594602Y2594890D01*
X3594893Y2595014D01*
X3595142Y2595098D01*
X3595350Y2595139D01*
X3595475Y2595181D01*
X3595517D01*
X3594934Y2595347D01*
X3594435Y2595514D01*
X3593978Y2595722D01*
X3593520Y2595888D01*
X3593146Y2596096D01*
X3592813Y2596304D01*
X3592230Y2596720D01*
X3591773Y2597053D01*
X3591482Y2597344D01*
X3591315Y2597552D01*
X3591274Y2597635D01*
X3590899Y2598301D01*
X3590608Y2599008D01*
X3590442Y2599715D01*
X3590275Y2600381D01*
X3590192Y2600963D01*
X3590150Y2601421D01*
Y2601587D01*
Y2601712D01*
Y2601795D01*
Y2601837D01*
X3590192Y2602502D01*
X3590234Y2603126D01*
X3590358Y2603667D01*
X3590483Y2604208D01*
X3590650Y2604707D01*
X3590816Y2605123D01*
X3591024Y2605539D01*
X3591232Y2605872D01*
X3591440Y2606205D01*
X3591648Y2606454D01*
X3591814Y2606704D01*
X3591981Y2606870D01*
X3592106Y2607037D01*
X3592230Y2607120D01*
X3592272Y2607203D01*
X3592314D01*
X3592730Y2607536D01*
X3593187Y2607786D01*
X3594227Y2608243D01*
X3595267Y2608576D01*
X3596307Y2608784D01*
X3596806Y2608826D01*
X3597264Y2608909D01*
X3597680Y2608950D01*
X3598013D01*
X3598304Y2608992D01*
X3609162D01*
Y2607078D01*
D02*
G37*
%LPC*%
G36*
X3601923D02*
X3599760D01*
X3598845Y2607037D01*
X3598013Y2606912D01*
X3597306Y2606704D01*
X3596723Y2606496D01*
X3596224Y2606246D01*
X3595891Y2606080D01*
X3595683Y2605914D01*
X3595600Y2605872D01*
X3595059Y2605373D01*
X3594643Y2604749D01*
X3594352Y2604083D01*
X3594186Y2603418D01*
X3594061Y2602794D01*
X3594019Y2602294D01*
X3593978Y2602128D01*
Y2601962D01*
Y2601878D01*
Y2601837D01*
X3594061Y2600755D01*
X3594227Y2599840D01*
X3594477Y2599050D01*
X3594768Y2598426D01*
X3595101Y2597968D01*
X3595350Y2597635D01*
X3595517Y2597427D01*
X3595600Y2597344D01*
X3596182Y2596886D01*
X3596765Y2596512D01*
X3597347Y2596262D01*
X3597846Y2596096D01*
X3598262Y2596013D01*
X3598595Y2595971D01*
X3598803Y2595930D01*
X3602922D01*
Y2606122D01*
X3602880Y2606454D01*
X3602797Y2606662D01*
X3602714Y2606787D01*
X3602672Y2606829D01*
X3602422Y2606995D01*
X3602131Y2607037D01*
X3601923Y2607078D01*
D02*
G37*
G36*
X3602922Y2594016D02*
X3599427D01*
X3598304Y2593933D01*
X3597306Y2593766D01*
X3596474Y2593475D01*
X3595808Y2593184D01*
X3595267Y2592851D01*
X3594893Y2592560D01*
X3594685Y2592394D01*
X3594602Y2592310D01*
X3594310Y2591978D01*
X3594061Y2591603D01*
X3593645Y2590771D01*
X3593354Y2589939D01*
X3593187Y2589066D01*
X3593062Y2588275D01*
X3593021Y2587942D01*
Y2587651D01*
X3592979Y2587402D01*
Y2587235D01*
Y2587110D01*
Y2587069D01*
X3593062Y2585987D01*
X3593229Y2584989D01*
X3593478Y2584198D01*
X3593728Y2583491D01*
X3594019Y2582992D01*
X3594269Y2582576D01*
X3594435Y2582368D01*
X3594518Y2582285D01*
X3595142Y2581744D01*
X3595808Y2581328D01*
X3596515Y2581037D01*
X3597181Y2580829D01*
X3597805Y2580704D01*
X3598304Y2580662D01*
X3598512Y2580621D01*
X3601840D01*
X3602214Y2580662D01*
X3602464Y2580746D01*
X3602630Y2580787D01*
X3602672Y2580829D01*
X3602797Y2581037D01*
X3602880Y2581286D01*
X3602922Y2581494D01*
Y2581536D01*
Y2581578D01*
Y2594016D01*
D02*
G37*
%LPD*%
D49*
X3515000Y1952000D02*
G03*
X3499000Y1970000I-17000J1000D01*
G01*
X3429000Y1969000D02*
G03*
X3408000Y1952000I-2000J-19000D01*
G01*
X3408000Y1932000D02*
G03*
X3429000Y1912000I20500J500D01*
G01*
X3499000Y1913000D02*
G03*
X3515000Y1932000I-1500J17500D01*
G01*
X3766000Y1376000D02*
G03*
X3750000Y1394000I-17000J1000D01*
G01*
X3680000Y1393000D02*
G03*
X3659000Y1376000I-2000J-19000D01*
G01*
X3659000Y1356000D02*
G03*
X3680000Y1336000I20500J500D01*
G01*
X3750000Y1337000D02*
G03*
X3766000Y1356000I-1500J17500D01*
G01*
X3408000Y1816000D02*
G03*
X3424000Y1798000I17000J-1000D01*
G01*
X3494000Y1799000D02*
G03*
X3515000Y1816000I2000J19000D01*
G01*
X3515000Y1836000D02*
G03*
X3494000Y1856000I-20500J-500D01*
G01*
X3424000Y1855000D02*
G03*
X3408000Y1836000I1500J-17500D01*
G01*
X3408000Y1873000D02*
G03*
X3424000Y1855000I17000J-1000D01*
G01*
X3494000Y1856000D02*
G03*
X3515000Y1873000I2000J19000D01*
G01*
X3515000Y1893000D02*
G03*
X3494000Y1913000I-20500J-500D01*
G01*
X3424000Y1912000D02*
G03*
X3408000Y1893000I1500J-17500D01*
G01*
X3515000Y1780000D02*
G03*
X3499000Y1798000I-17000J1000D01*
G01*
X3429000Y1797000D02*
G03*
X3408000Y1780000I-2000J-19000D01*
G01*
X3408000Y1760000D02*
G03*
X3429000Y1740000I20500J500D01*
G01*
X3499000Y1741000D02*
G03*
X3515000Y1760000I-1500J17500D01*
G01*
X3568000Y1257000D02*
G03*
X3552000Y1275000I-17000J1000D01*
G01*
X3482000Y1274000D02*
G03*
X3461000Y1257000I-2000J-19000D01*
G01*
X3461000Y1237000D02*
G03*
X3482000Y1217000I20500J500D01*
G01*
X3552000Y1218000D02*
G03*
X3568000Y1237000I-1500J17500D01*
G01*
X3514000Y1494000D02*
G03*
X3498000Y1512000I-17000J1000D01*
G01*
X3428000Y1511000D02*
G03*
X3407000Y1494000I-2000J-19000D01*
G01*
X3407000Y1474000D02*
G03*
X3428000Y1454000I20500J500D01*
G01*
X3498000Y1455000D02*
G03*
X3514000Y1474000I-1500J17500D01*
G01*
X3515000Y1551000D02*
G03*
X3499000Y1569000I-17000J1000D01*
G01*
X3429000Y1568000D02*
G03*
X3408000Y1551000I-2000J-19000D01*
G01*
X3408000Y1531000D02*
G03*
X3429000Y1511000I20500J500D01*
G01*
X3499000Y1512000D02*
G03*
X3515000Y1531000I-1500J17500D01*
G01*
X3515000Y1608000D02*
G03*
X3499000Y1626000I-17000J1000D01*
G01*
X3429000Y1625000D02*
G03*
X3408000Y1608000I-2000J-19000D01*
G01*
X3408000Y1588000D02*
G03*
X3429000Y1568000I20500J500D01*
G01*
X3499000Y1569000D02*
G03*
X3515000Y1588000I-1500J17500D01*
G01*
X3515000Y1665000D02*
G03*
X3499000Y1683000I-17000J1000D01*
G01*
X3429000Y1682000D02*
G03*
X3408000Y1665000I-2000J-19000D01*
G01*
X3408000Y1645000D02*
G03*
X3429000Y1625000I20500J500D01*
G01*
X3499000Y1626000D02*
G03*
X3515000Y1645000I-1500J17500D01*
G01*
X3515000Y1723000D02*
G03*
X3499000Y1741000I-17000J1000D01*
G01*
X3429000Y1740000D02*
G03*
X3408000Y1723000I-2000J-19000D01*
G01*
X3408000Y1703000D02*
G03*
X3429000Y1683000I20500J500D01*
G01*
X3499000Y1684000D02*
G03*
X3515000Y1703000I-1500J17500D01*
G01*
X4094000Y1860000D02*
G03*
X4112000Y1876000I1000J17000D01*
G01*
X4111000Y1946000D02*
G03*
X4094000Y1967000I-19000J2000D01*
G01*
X4074000Y1967000D02*
G03*
X4054000Y1946000I500J-20500D01*
G01*
X4055000Y1876000D02*
G03*
X4074000Y1860000I17500J1500D01*
G01*
X4073000Y2083000D02*
G03*
X4055000Y2067000I-1000J-17000D01*
G01*
X4056000Y1997000D02*
G03*
X4073000Y1976000I19000J-2000D01*
G01*
X4093000Y1976000D02*
G03*
X4113000Y1997000I-500J20500D01*
G01*
X4112000Y2067000D02*
G03*
X4093000Y2083000I-17500J-1500D01*
G01*
X4070629Y1684787D02*
G03*
X4052629Y1668787I-1000J-17000D01*
G01*
X4053629Y1598787D02*
G03*
X4070629Y1577787I19000J-2000D01*
G01*
X4090629Y1577788D02*
G03*
X4110629Y1598787I-500J20500D01*
G01*
X4109629Y1668787D02*
G03*
X4090629Y1684787I-17500J-1500D01*
G01*
X4073000Y1455000D02*
G03*
X4055000Y1439000I-1000J-17000D01*
G01*
X4056000Y1369000D02*
G03*
X4073000Y1348000I19000J-2000D01*
G01*
X4093000Y1348000D02*
G03*
X4113000Y1369000I-500J20500D01*
G01*
X4112000Y1439000D02*
G03*
X4093000Y1455000I-17500J-1500D01*
G01*
X4071725Y1570000D02*
G03*
X4053725Y1554000I-1000J-17000D01*
G01*
X4054725Y1484000D02*
G03*
X4071725Y1463000I19000J-2000D01*
G01*
X4091725Y1463000D02*
G03*
X4111725Y1484000I-500J20500D01*
G01*
X4110725Y1554000D02*
G03*
X4091725Y1570000I-17500J-1500D01*
G01*
X3967000Y2664000D02*
G03*
X3951000Y2682000I-17000J1000D01*
G01*
X3881000Y2681000D02*
G03*
X3860000Y2664000I-2000J-19000D01*
G01*
X3860000Y2644000D02*
G03*
X3881000Y2624000I20500J500D01*
G01*
X3951000Y2625000D02*
G03*
X3967000Y2644000I-1500J17500D01*
G01*
X4082000Y2664000D02*
G03*
X4066000Y2682000I-17000J1000D01*
G01*
X3996000Y2681000D02*
G03*
X3975000Y2664000I-2000J-19000D01*
G01*
X3975000Y2644000D02*
G03*
X3996000Y2624000I20500J500D01*
G01*
X4066000Y2625000D02*
G03*
X4082000Y2644000I-1500J17500D01*
G01*
X3833000Y2446000D02*
G03*
X3849000Y2428000I17000J-1000D01*
G01*
X3919000Y2429000D02*
G03*
X3940000Y2446000I2000J19000D01*
G01*
X3940000Y2466000D02*
G03*
X3919000Y2486000I-20500J-500D01*
G01*
X3849000Y2485000D02*
G03*
X3833000Y2466000I1500J-17500D01*
G01*
X3833000Y2379000D02*
G03*
X3849000Y2361000I17000J-1000D01*
G01*
X3919000Y2362000D02*
G03*
X3940000Y2379000I2000J19000D01*
G01*
X3940000Y2399000D02*
G03*
X3919000Y2419000I-20500J-500D01*
G01*
X3849000Y2418000D02*
G03*
X3833000Y2399000I1500J-17500D01*
G01*
X3476000Y1970000D02*
X3499000D01*
X3515000Y1932000D02*
Y1952000D01*
X3473000Y1913000D02*
X3499000D01*
X3429000Y1912000D02*
X3445000D01*
X3408000Y1932000D02*
Y1952000D01*
X3429000Y1969000D02*
X3447000D01*
X3727000Y1394000D02*
X3750000D01*
X3766000Y1356000D02*
Y1376000D01*
X3724000Y1337000D02*
X3750000D01*
X3680000Y1336000D02*
X3696000D01*
X3659000Y1356000D02*
Y1376000D01*
X3680000Y1393000D02*
X3698000D01*
X3424000Y1798000D02*
X3447000D01*
X3408000Y1816000D02*
Y1836000D01*
X3424000Y1855000D02*
X3450000D01*
X3478000Y1856000D02*
X3494000D01*
X3515000Y1816000D02*
Y1836000D01*
X3476000Y1799000D02*
X3494000D01*
X3424000Y1855000D02*
X3447000D01*
X3408000Y1873000D02*
Y1893000D01*
X3424000Y1912000D02*
X3450000D01*
X3478000Y1913000D02*
X3494000D01*
X3515000Y1873000D02*
Y1893000D01*
X3476000Y1856000D02*
X3494000D01*
X3476000Y1798000D02*
X3499000D01*
X3515000Y1760000D02*
Y1780000D01*
X3473000Y1741000D02*
X3499000D01*
X3429000Y1740000D02*
X3445000D01*
X3408000Y1760000D02*
Y1780000D01*
X3429000Y1797000D02*
X3447000D01*
X3529000Y1275000D02*
X3552000D01*
X3568000Y1237000D02*
Y1257000D01*
X3526000Y1218000D02*
X3552000D01*
X3482000Y1217000D02*
X3498000D01*
X3461000Y1237000D02*
Y1257000D01*
X3482000Y1274000D02*
X3500000D01*
X3475000Y1512000D02*
X3498000D01*
X3514000Y1474000D02*
Y1494000D01*
X3472000Y1455000D02*
X3498000D01*
X3428000Y1454000D02*
X3444000D01*
X3407000Y1474000D02*
Y1494000D01*
X3428000Y1511000D02*
X3446000D01*
X3476000Y1569000D02*
X3499000D01*
X3515000Y1531000D02*
Y1551000D01*
X3473000Y1512000D02*
X3499000D01*
X3429000Y1511000D02*
X3445000D01*
X3408000Y1531000D02*
Y1551000D01*
X3429000Y1568000D02*
X3447000D01*
X3476000Y1626000D02*
X3499000D01*
X3515000Y1588000D02*
Y1608000D01*
X3473000Y1569000D02*
X3499000D01*
X3429000Y1568000D02*
X3445000D01*
X3408000Y1588000D02*
Y1608000D01*
X3429000Y1625000D02*
X3447000D01*
X3476000Y1683000D02*
X3499000D01*
X3515000Y1645000D02*
Y1665000D01*
X3473000Y1626000D02*
X3499000D01*
X3429000Y1625000D02*
X3445000D01*
X3408000Y1645000D02*
Y1665000D01*
X3429000Y1682000D02*
X3447000D01*
X3476000Y1741000D02*
X3499000D01*
X3515000Y1703000D02*
Y1723000D01*
X3473000Y1684000D02*
X3499000D01*
X3429000Y1683000D02*
X3445000D01*
X3408000Y1703000D02*
Y1723000D01*
X3429000Y1740000D02*
X3447000D01*
X4112000Y1876000D02*
Y1899000D01*
X4074000Y1860000D02*
X4094000D01*
X4055000Y1876000D02*
Y1902000D01*
X4054000Y1930000D02*
Y1946000D01*
X4074000Y1967000D02*
X4094000D01*
X4111000Y1928000D02*
Y1946000D01*
X4055000Y2044000D02*
Y2067000D01*
X4073000Y2083000D02*
X4093000D01*
X4112000Y2041000D02*
Y2067000D01*
X4113000Y1997000D02*
Y2013000D01*
X4073000Y1976000D02*
X4093000D01*
X4056000Y1997000D02*
Y2015000D01*
X4052629Y1645787D02*
Y1668787D01*
X4070629Y1684787D02*
X4090629D01*
X4109629Y1642787D02*
Y1668787D01*
X4110629Y1598787D02*
Y1614787D01*
X4070629Y1577787D02*
X4090629D01*
X4053629Y1598787D02*
Y1616787D01*
X4055000Y1416000D02*
Y1439000D01*
X4073000Y1455000D02*
X4093000D01*
X4112000Y1413000D02*
Y1439000D01*
X4113000Y1369000D02*
Y1385000D01*
X4073000Y1348000D02*
X4093000D01*
X4056000Y1369000D02*
Y1387000D01*
X4053725Y1531000D02*
Y1554000D01*
X4071725Y1570000D02*
X4091725D01*
X4110725Y1528000D02*
Y1554000D01*
X4111725Y1484000D02*
Y1500000D01*
X4071725Y1463000D02*
X4091725D01*
X4054725Y1484000D02*
Y1502000D01*
X3928000Y2682000D02*
X3951000D01*
X3967000Y2644000D02*
Y2664000D01*
X3925000Y2625000D02*
X3951000D01*
X3881000Y2624000D02*
X3897000D01*
X3860000Y2644000D02*
Y2664000D01*
X3881000Y2681000D02*
X3899000D01*
X4043000Y2682000D02*
X4066000D01*
X4082000Y2644000D02*
Y2664000D01*
X4040000Y2625000D02*
X4066000D01*
X3996000Y2624000D02*
X4012000D01*
X3975000Y2644000D02*
Y2664000D01*
X3996000Y2681000D02*
X4014000D01*
X3849000Y2428000D02*
X3872000D01*
X3833000Y2446000D02*
Y2466000D01*
X3849000Y2485000D02*
X3875000D01*
X3903000Y2486000D02*
X3919000D01*
X3940000Y2446000D02*
Y2466000D01*
X3901000Y2429000D02*
X3919000D01*
X3849000Y2361000D02*
X3872000D01*
X3833000Y2379000D02*
Y2399000D01*
X3849000Y2418000D02*
X3875000D01*
X3903000Y2419000D02*
X3919000D01*
X3940000Y2379000D02*
Y2399000D01*
X3901000Y2362000D02*
X3919000D01*
X4001000Y2010512D02*
Y2090512D01*
X3966000D02*
X4001000D01*
X3786000D02*
X3866000D01*
X3786000Y1328701D02*
X3866000D01*
X4001000D02*
Y1408701D01*
X3966000Y1328701D02*
X4001000D01*
X3786000D02*
Y2090512D01*
D50*
X4000139Y1267599D02*
G03*
X3967999Y1299739I-32140J0D01*
G01*
Y1209599D02*
G03*
X4000139Y1241739I0J32140D01*
G01*
X3809999D02*
G03*
X3842139Y1209599I32140J0D01*
G01*
Y1299739D02*
G03*
X3809999Y1267599I0J-32140D01*
G01*
X3522058Y1330954D02*
G03*
X3489918Y1363093I-32140J0D01*
G01*
Y1272954D02*
G03*
X3522058Y1305093I0J32140D01*
G01*
X3331918D02*
G03*
X3364058Y1272954I32140J0D01*
G01*
Y1363093D02*
G03*
X3331918Y1330954I0J-32140D01*
G01*
X3523140Y1421000D02*
G03*
X3491000Y1453140I-32140J0D01*
G01*
Y1363000D02*
G03*
X3523140Y1395140I0J32140D01*
G01*
X3333000D02*
G03*
X3365140Y1363000I32140J0D01*
G01*
Y1453140D02*
G03*
X3333000Y1421000I0J-32140D01*
G01*
X3874307Y2124000D02*
X3949307D01*
X3874307Y2214000D02*
X3949307D01*
X3989307D02*
X4064307D01*
X3989307Y2124000D02*
X4064307D01*
X3874307D02*
Y2214000D01*
X4064307Y2124000D02*
Y2214000D01*
X3842139Y1209599D02*
X3881139D01*
X3924999D02*
X3967999D01*
X3924999Y1299599D02*
X3972999D01*
X4000139Y1242739D02*
Y1267599D01*
X3809999Y1241739D02*
Y1266599D01*
X3841999Y1299599D02*
X3884999D01*
X3244000Y2485000D02*
X3289000D01*
X3244000Y2600000D02*
X3289000D01*
X3244000Y2485000D02*
Y2505000D01*
X3334000Y2540000D02*
Y2545000D01*
X3244000Y2580000D02*
Y2600000D01*
X3364058Y1272954D02*
X3403058D01*
X3446918D02*
X3489918D01*
X3446918Y1362954D02*
X3494918D01*
X3522058Y1306093D02*
Y1330954D01*
X3331918Y1305093D02*
Y1329954D01*
X3363918Y1362954D02*
X3406918D01*
X3365140Y1363000D02*
X3404140D01*
X3448000D02*
X3491000D01*
X3448000Y1453000D02*
X3496000D01*
X3523140Y1396140D02*
Y1421000D01*
X3333000Y1395140D02*
Y1420000D01*
X3365000Y1453000D02*
X3408000D01*
D51*
X3691110Y1304803D02*
G03*
X3691110Y1304803I-1000J0D01*
G01*
X3757055Y1327803D02*
G03*
X3757055Y1327803I-3000J0D01*
G01*
X3554000Y2440563D02*
G03*
X3554000Y2440563I-30000J0D01*
G01*
X3746992Y2472000D02*
X3788992D01*
X3746992Y2532000D02*
X3788992D01*
X3813992Y2472000D02*
X3858992D01*
X3813992Y2532000D02*
X3858992D01*
X3746992Y2472000D02*
Y2532000D01*
X3858992Y2472000D02*
Y2532000D01*
X3766000Y2587000D02*
X3808000D01*
X3766000Y2527000D02*
X3808000D01*
X3696000Y2587000D02*
X3741000D01*
X3696000Y2527000D02*
X3741000D01*
X3808000D02*
Y2587000D01*
X3696000Y2527000D02*
Y2587000D01*
X3389000Y1273000D02*
X3431000D01*
X3389000Y1213000D02*
X3431000D01*
X3319000Y1273000D02*
X3364000D01*
X3319000Y1213000D02*
X3364000D01*
X3431000D02*
Y1273000D01*
X3319000Y1213000D02*
Y1273000D01*
X4111127Y1227803D02*
Y1269803D01*
X4051127Y1227803D02*
Y1269803D01*
X4111127Y1294803D02*
Y1339803D01*
X4051127Y1294803D02*
Y1339803D01*
Y1227803D02*
X4111127D01*
X4051127Y1339803D02*
X4111127D01*
X3726000Y1501000D02*
X3768000D01*
X3726000Y1441000D02*
X3768000D01*
X3656000Y1501000D02*
X3701000D01*
X3656000Y1441000D02*
X3701000D01*
X3768000D02*
Y1501000D01*
X3656000Y1441000D02*
Y1501000D01*
X3655943Y1503494D02*
X3697943D01*
X3655943Y1563494D02*
X3697943D01*
X3722943Y1503494D02*
X3767943D01*
X3722943Y1563494D02*
X3767943D01*
X3655943Y1503494D02*
Y1563494D01*
X3767943Y1503494D02*
Y1563494D01*
X3655935Y1688000D02*
X3697935D01*
X3655935Y1748000D02*
X3697935D01*
X3722935Y1688000D02*
X3767935D01*
X3722935Y1748000D02*
X3767935D01*
X3655935Y1688000D02*
Y1748000D01*
X3767935Y1688000D02*
Y1748000D01*
X3656000Y1627000D02*
X3698000D01*
X3656000Y1687000D02*
X3698000D01*
X3723000Y1627000D02*
X3768000D01*
X3723000Y1687000D02*
X3768000D01*
X3656000Y1627000D02*
Y1687000D01*
X3768000Y1627000D02*
Y1687000D01*
X3655943Y1748494D02*
X3697943D01*
X3655943Y1808494D02*
X3697943D01*
X3722943Y1748494D02*
X3767943D01*
X3722943Y1808494D02*
X3767943D01*
X3655943Y1748494D02*
Y1808494D01*
X3767943Y1748494D02*
Y1808494D01*
X3655943Y1869494D02*
X3697943D01*
X3655943Y1929494D02*
X3697943D01*
X3722943Y1869494D02*
X3767943D01*
X3722943Y1929494D02*
X3767943D01*
X3655943Y1869494D02*
Y1929494D01*
X3767943Y1869494D02*
Y1929494D01*
X3655943D02*
X3697943D01*
X3655943Y1989494D02*
X3697943D01*
X3722943Y1929494D02*
X3767943D01*
X3722943Y1989494D02*
X3767943D01*
X3655943Y1929494D02*
Y1989494D01*
X3767943Y1929494D02*
Y1989494D01*
X3655935Y1564494D02*
X3697935D01*
X3655935Y1624494D02*
X3697935D01*
X3722935Y1564494D02*
X3767935D01*
X3722935Y1624494D02*
X3767935D01*
X3655935Y1564494D02*
Y1624494D01*
X3767935Y1564494D02*
Y1624494D01*
X3655943Y1808494D02*
X3697943D01*
X3655943Y1868494D02*
X3697943D01*
X3722943Y1808494D02*
X3767943D01*
X3722943Y1868494D02*
X3767943D01*
X3655943Y1808494D02*
Y1868494D01*
X3767943Y1808494D02*
Y1868494D01*
X4114213Y1721000D02*
Y1763000D01*
X4054213Y1721000D02*
Y1763000D01*
X4114213Y1788000D02*
Y1833000D01*
X4054213Y1788000D02*
Y1833000D01*
Y1721000D02*
X4114213D01*
X4054213Y1833000D02*
X4114213D01*
X3278000Y2613000D02*
X3414750D01*
X3434000Y2632250D01*
Y2713000D01*
X3278000Y2613000D02*
Y2738000D01*
X3409000D01*
X3434000Y2713000D01*
X3524000Y2044584D02*
X3764416Y2285000D01*
X3283584D02*
X3524000Y2525416D01*
X3283584Y2285000D02*
X3524000Y2044584D01*
Y2525416D02*
X3764416Y2285000D01*
D52*
X3566000Y2614000D02*
G03*
X3566000Y2614000I-35000J0D01*
G01*
X3950014Y2325581D02*
Y2522432D01*
X3956445D01*
X3950014Y2325581D02*
X3956432D01*
X4069581D02*
X4075998D01*
X4069568Y2522432D02*
X4075998D01*
Y2325581D02*
Y2522432D01*
D53*
X3562127Y2574914D02*
G03*
X3562127Y2574914I-9842J0D01*
G01*
D54*
X3962441Y1424173D02*
G03*
X3962441Y1424173I-7071J0D01*
G01*
D55*
X3657110Y1324457D02*
X3701110D01*
X3657110Y1206347D02*
X3701110D01*
X3657110D02*
Y1324457D01*
X3701110Y1206347D02*
Y1324457D01*
D56*
X3697000Y1400047D02*
Y1433512D01*
X3685819D02*
X3737000D01*
Y1400047D02*
Y1433512D01*
X3685819Y1400047D02*
X3737000D01*
X3685819D02*
Y1433512D01*
D57*
X3877039Y2758000D02*
X4067039D01*
X3877039Y2688000D02*
Y2758000D01*
X4067039Y2688000D02*
Y2758000D01*
X3877039Y2688000D02*
X4067039D01*
D58*
X3962039Y2703000D02*
Y2743000D01*
X3982039D01*
Y2703000D02*
Y2743000D01*
X3962039Y2703000D02*
X3982039D01*
X3947039D02*
Y2743000D01*
X3997039Y2703000D02*
Y2743000D01*
Y2723000D02*
X4007039D01*
X3937039D02*
X3947039D01*
X4003000Y2409000D02*
X4023000D01*
X4003000D02*
Y2439000D01*
X4023000Y2409000D02*
Y2439000D01*
X3973000D02*
Y2444000D01*
X4053000Y2404000D02*
Y2424000D01*
X4038000D02*
X4053000D01*
X3973000D02*
Y2439000D01*
Y2424000D02*
X3988000D01*
Y2409000D02*
Y2439000D01*
X4038000Y2409000D02*
Y2439000D01*
X4003000D02*
X4023000D01*
D59*
X3644943Y1825494D02*
Y1860916D01*
X3627232D01*
X3621329Y1855012D01*
Y1843205D01*
X3627232Y1837302D01*
X3644943D01*
X3633136D02*
X3621329Y1825494D01*
X3609521D02*
X3597714D01*
X3603618D01*
Y1860916D01*
X3609521Y1855012D01*
X3580003D02*
X3574100Y1860916D01*
X3562293D01*
X3556389Y1855012D01*
Y1849109D01*
X3562293Y1843205D01*
X3568196D01*
X3562293D01*
X3556389Y1837302D01*
Y1831398D01*
X3562293Y1825494D01*
X3574100D01*
X3580003Y1831398D01*
X3642943Y1943494D02*
Y1978916D01*
X3625232D01*
X3619329Y1973012D01*
Y1961205D01*
X3625232Y1955302D01*
X3642943D01*
X3631136D02*
X3619329Y1943494D01*
X3607521D02*
X3595714D01*
X3601618D01*
Y1978916D01*
X3607521Y1973012D01*
X3578003Y1943494D02*
X3566196D01*
X3572100D01*
Y1978916D01*
X3578003Y1973012D01*
X3644943Y1883494D02*
Y1918916D01*
X3627232D01*
X3621329Y1913012D01*
Y1901205D01*
X3627232Y1895302D01*
X3644943D01*
X3633136D02*
X3621329Y1883494D01*
X3609521D02*
X3597714D01*
X3603618D01*
Y1918916D01*
X3609521Y1913012D01*
X3580003D02*
X3574100Y1918916D01*
X3562293D01*
X3556389Y1913012D01*
Y1889398D01*
X3562293Y1883494D01*
X3574100D01*
X3580003Y1889398D01*
Y1913012D01*
X3644943Y1762494D02*
Y1797916D01*
X3627232D01*
X3621329Y1792012D01*
Y1780205D01*
X3627232Y1774302D01*
X3644943D01*
X3633136D02*
X3621329Y1762494D01*
X3609521Y1768398D02*
X3603618Y1762494D01*
X3591811D01*
X3585907Y1768398D01*
Y1792012D01*
X3591811Y1797916D01*
X3603618D01*
X3609521Y1792012D01*
Y1786109D01*
X3603618Y1780205D01*
X3585907D01*
X3645008Y1644000D02*
Y1679422D01*
X3627297D01*
X3621394Y1673518D01*
Y1661711D01*
X3627297Y1655807D01*
X3645008D01*
X3633201D02*
X3621394Y1644000D01*
X3609586Y1679422D02*
X3585972D01*
Y1673518D01*
X3609586Y1649904D01*
Y1644000D01*
X3644943Y1701000D02*
Y1736422D01*
X3627232D01*
X3621329Y1730518D01*
Y1718711D01*
X3627232Y1712807D01*
X3644943D01*
X3633136D02*
X3621329Y1701000D01*
X3585907Y1736422D02*
X3597714Y1730518D01*
X3609521Y1718711D01*
Y1706904D01*
X3603618Y1701000D01*
X3591811D01*
X3585907Y1706904D01*
Y1712807D01*
X3591811Y1718711D01*
X3609521D01*
X3647943Y1519494D02*
Y1554916D01*
X3630232D01*
X3624329Y1549012D01*
Y1537205D01*
X3630232Y1531302D01*
X3647943D01*
X3636136D02*
X3624329Y1519494D01*
X3588907Y1554916D02*
X3612521D01*
Y1537205D01*
X3600714Y1543109D01*
X3594811D01*
X3588907Y1537205D01*
Y1525398D01*
X3594811Y1519494D01*
X3606618D01*
X3612521Y1525398D01*
X3645943Y1579494D02*
Y1614916D01*
X3628232D01*
X3622329Y1609012D01*
Y1597205D01*
X3628232Y1591302D01*
X3645943D01*
X3634136D02*
X3622329Y1579494D01*
X3592811D02*
Y1614916D01*
X3610521Y1597205D01*
X3586907D01*
X3646992Y1453000D02*
Y1488422D01*
X3629281D01*
X3623378Y1482518D01*
Y1470711D01*
X3629281Y1464807D01*
X3646992D01*
X3635185D02*
X3623378Y1453000D01*
X3611570D02*
X3599763D01*
X3605667D01*
Y1488422D01*
X3611570Y1482518D01*
X3321386Y2637904D02*
Y2661518D01*
X3327289Y2667422D01*
X3339096D01*
X3345000Y2661518D01*
Y2637904D01*
X3339096Y2632000D01*
X3327289D01*
X3333193Y2643807D02*
X3321386Y2632000D01*
X3327289D02*
X3321386Y2637904D01*
X3309578Y2632000D02*
X3297771D01*
X3303675D01*
Y2667422D01*
X3309578Y2661518D01*
X3658000Y1429422D02*
Y1394000D01*
X3640289D01*
X3634386Y1399904D01*
Y1423518D01*
X3640289Y1429422D01*
X3658000D01*
X3622578Y1394000D02*
X3610771D01*
X3616675D01*
Y1429422D01*
X3622578Y1423518D01*
X3625386Y1378518D02*
X3631289Y1384422D01*
X3643096D01*
X3649000Y1378518D01*
Y1354904D01*
X3643096Y1349000D01*
X3631289D01*
X3625386Y1354904D01*
X3589964Y1349000D02*
X3613578D01*
X3589964Y1372614D01*
Y1378518D01*
X3595868Y1384422D01*
X3607675D01*
X3613578Y1378518D01*
X3578157D02*
X3572253Y1384422D01*
X3560446D01*
X3554542Y1378518D01*
Y1372614D01*
X3560446Y1366711D01*
X3566350D01*
X3560446D01*
X3554542Y1360807D01*
Y1354904D01*
X3560446Y1349000D01*
X3572253D01*
X3578157Y1354904D01*
X3297598Y1333872D02*
X3303502Y1339776D01*
X3315309D01*
X3321213Y1333872D01*
Y1310258D01*
X3315309Y1304354D01*
X3303502D01*
X3297598Y1310258D01*
X3262177Y1304354D02*
X3285791D01*
X3262177Y1327969D01*
Y1333872D01*
X3268080Y1339776D01*
X3279887D01*
X3285791Y1333872D01*
X3250369D02*
X3244466Y1339776D01*
X3232659D01*
X3226755Y1333872D01*
Y1310258D01*
X3232659Y1304354D01*
X3244466D01*
X3250369Y1310258D01*
Y1333872D01*
X3297680Y1418919D02*
X3303584Y1424822D01*
X3315391D01*
X3321295Y1418919D01*
Y1395304D01*
X3315391Y1389401D01*
X3303584D01*
X3297680Y1395304D01*
X3285873Y1389401D02*
X3274066D01*
X3279970D01*
Y1424822D01*
X3285873Y1418919D01*
X3256355Y1395304D02*
X3250452Y1389401D01*
X3238644D01*
X3232741Y1395304D01*
Y1418919D01*
X3238644Y1424822D01*
X3250452D01*
X3256355Y1418919D01*
Y1413015D01*
X3250452Y1407112D01*
X3232741D01*
X3373598Y1498872D02*
X3379502Y1504776D01*
X3391309D01*
X3397213Y1498872D01*
Y1475258D01*
X3391309Y1469354D01*
X3379502D01*
X3373598Y1475258D01*
X3361791Y1469354D02*
X3349984D01*
X3355887D01*
Y1504776D01*
X3361791Y1498872D01*
X3332273D02*
X3326369Y1504776D01*
X3314562D01*
X3308659Y1498872D01*
Y1492969D01*
X3314562Y1487065D01*
X3308659Y1481161D01*
Y1475258D01*
X3314562Y1469354D01*
X3326369D01*
X3332273Y1475258D01*
Y1481161D01*
X3326369Y1487065D01*
X3332273Y1492969D01*
Y1498872D01*
X3326369Y1487065D02*
X3314562D01*
X3373386Y1553518D02*
X3379289Y1559422D01*
X3391096D01*
X3397000Y1553518D01*
Y1529904D01*
X3391096Y1524000D01*
X3379289D01*
X3373386Y1529904D01*
X3361578Y1524000D02*
X3349771D01*
X3355675D01*
Y1559422D01*
X3361578Y1553518D01*
X3332060Y1559422D02*
X3308446D01*
Y1553518D01*
X3332060Y1529904D01*
Y1524000D01*
X3373598Y1609872D02*
X3379502Y1615776D01*
X3391309D01*
X3397213Y1609872D01*
Y1586258D01*
X3391309Y1580354D01*
X3379502D01*
X3373598Y1586258D01*
X3361791Y1580354D02*
X3349984D01*
X3355887D01*
Y1615776D01*
X3361791Y1609872D01*
X3308659Y1615776D02*
X3320466Y1609872D01*
X3332273Y1598065D01*
Y1586258D01*
X3326369Y1580354D01*
X3314562D01*
X3308659Y1586258D01*
Y1592161D01*
X3314562Y1598065D01*
X3332273D01*
X3372598Y1668872D02*
X3378502Y1674776D01*
X3390309D01*
X3396213Y1668872D01*
Y1645258D01*
X3390309Y1639354D01*
X3378502D01*
X3372598Y1645258D01*
X3360791Y1639354D02*
X3348984D01*
X3354887D01*
Y1674776D01*
X3360791Y1668872D01*
X3307659Y1674776D02*
X3331273D01*
Y1657065D01*
X3319466Y1662969D01*
X3313562D01*
X3307659Y1657065D01*
Y1645258D01*
X3313562Y1639354D01*
X3325369D01*
X3331273Y1645258D01*
X3375386Y1839518D02*
X3381289Y1845422D01*
X3393096D01*
X3399000Y1839518D01*
Y1815904D01*
X3393096Y1810000D01*
X3381289D01*
X3375386Y1815904D01*
X3363578Y1810000D02*
X3351771D01*
X3357675D01*
Y1845422D01*
X3363578Y1839518D01*
X3310446Y1810000D02*
X3334060D01*
X3310446Y1833614D01*
Y1839518D01*
X3316350Y1845422D01*
X3328157D01*
X3334060Y1839518D01*
X3376386Y1894518D02*
X3382289Y1900422D01*
X3394096D01*
X3400000Y1894518D01*
Y1870904D01*
X3394096Y1865000D01*
X3382289D01*
X3376386Y1870904D01*
X3364578Y1865000D02*
X3352771D01*
X3358675D01*
Y1900422D01*
X3364578Y1894518D01*
X3335060D02*
X3329157Y1900422D01*
X3317350D01*
X3311446Y1894518D01*
Y1870904D01*
X3317350Y1865000D01*
X3329157D01*
X3335060Y1870904D01*
Y1894518D01*
X3376386Y1954518D02*
X3382289Y1960422D01*
X3394096D01*
X3400000Y1954518D01*
Y1930904D01*
X3394096Y1925000D01*
X3382289D01*
X3376386Y1930904D01*
X3364578Y1954518D02*
X3358675Y1960422D01*
X3346868D01*
X3340964Y1954518D01*
Y1948614D01*
X3346868Y1942711D01*
X3340964Y1936807D01*
Y1930904D01*
X3346868Y1925000D01*
X3358675D01*
X3364578Y1930904D01*
Y1936807D01*
X3358675Y1942711D01*
X3364578Y1948614D01*
Y1954518D01*
X3358675Y1942711D02*
X3346868D01*
X3372886Y1783872D02*
X3378789Y1789776D01*
X3390596D01*
X3396500Y1783872D01*
Y1760258D01*
X3390596Y1754354D01*
X3378789D01*
X3372886Y1760258D01*
X3337464Y1789776D02*
X3361078D01*
Y1772065D01*
X3349271Y1777969D01*
X3343368D01*
X3337464Y1772065D01*
Y1760258D01*
X3343368Y1754354D01*
X3355175D01*
X3361078Y1760258D01*
X3372173Y1726164D02*
X3378077Y1732067D01*
X3389884D01*
X3395787Y1726164D01*
Y1702549D01*
X3389884Y1696646D01*
X3378077D01*
X3372173Y1702549D01*
X3342655Y1696646D02*
Y1732067D01*
X3360366Y1714357D01*
X3336751D01*
%TF.MD5,9b81e487df95657e107b947e31af8a07*%
M02*
